<svg width="80" height="80" viewBox="0 0 80 80" fill="none" xmlns="http://www.w3.org/2000/svg">
<path d="M0 6C0 2.68629 2.68629 0 6 0H74C77.3137 0 80 2.68629 80 6V60C80 71.0457 71.0457 80 60 80H20C8.95431 80 0 71.0457 0 60V6Z" fill="#001F3E"/>
<path d="M0 56H80V60C80 71.0457 71.0457 80 60 80H20C8.95431 80 0 71.0457 0 60V56Z" fill="#E10006"/>
<path d="M9.55682 64.3643V62.8182H17.6804V64.3643H14.5334V73H12.7038V64.3643H9.55682ZM19.2464 73V62.8182H23.0646C23.8468 62.8182 24.5031 62.9541 25.0334 63.2259C25.567 63.4976 25.9697 63.8788 26.2415 64.3693C26.5166 64.8565 26.6541 65.425 26.6541 66.0746C26.6541 66.7275 26.5149 67.2943 26.2365 67.7749C25.9614 68.2521 25.5554 68.6217 25.0185 68.8835C24.4815 69.142 23.822 69.2713 23.0398 69.2713H20.3203V67.7401H22.7912C23.2486 67.7401 23.6231 67.6771 23.9148 67.5511C24.2064 67.4219 24.4219 67.2346 24.5611 66.9893C24.7036 66.7408 24.7749 66.4358 24.7749 66.0746C24.7749 65.7133 24.7036 65.4051 24.5611 65.1499C24.4186 64.8913 24.2015 64.6958 23.9098 64.5632C23.6181 64.4273 23.242 64.3594 22.7812 64.3594H21.0909V73H19.2464ZM24.5064 68.3864L27.027 73H24.9688L22.4929 68.3864H24.5064ZM29.6594 73H27.6907L31.2752 62.8182H33.5522L37.1417 73H35.1729L32.4535 64.9062H32.3739L29.6594 73ZM29.7241 69.0078H35.0934V70.4893H29.7241V69.0078ZM46.85 62.8182V73H45.2093L40.4118 66.0646H40.3272V73H38.4828V62.8182H40.1333L44.926 69.7585H45.0154V62.8182H46.85ZM48.6708 73V71.8516L53.891 64.3643H48.641V62.8182H56.1779V63.9666L50.9627 71.4538H56.2077V73H48.6708ZM59.837 62.8182V73H57.9925V62.8182H59.837ZM61.3869 64.3643V62.8182H69.5105V64.3643H66.3635V73H64.5339V64.3643H61.3869Z" fill="white"/>
<g clip-path="url(#clip0_3157_236)">
<path d="M20.8043 25.0496L16.8913 26.3539L14.9348 27.3322C14.9348 27.5496 14.8695 28.0496 14.6087 28.3104C14.2826 28.6365 13.9565 31.8974 13.9565 32.5496C13.9565 33.2017 13.3043 34.8322 13.3043 35.4843C13.3043 36.1365 12.6522 37.1148 12.3261 37.767C12 38.4191 13.3043 38.4191 13.6304 38.4191C13.9565 38.4191 15.5869 38.4191 17.2174 38.7452C18.8478 39.0713 18.1956 38.7452 19.1739 38.7452C20.1522 38.7452 20.8043 38.7452 22.1087 39.0713C23.413 39.3974 24.0652 38.4191 24.3913 38.7452C24.7174 39.0713 26.0217 38.7452 28.3043 38.7452C30.5869 38.7452 28.9565 38.4191 29.2826 38.093C29.6087 37.767 28.9565 36.4626 28.9565 35.8104C28.9565 35.1583 29.2826 35.1583 29.6087 34.6595C29.9348 34.1608 29.9348 34.18 30.913 33.8539C31.8913 33.5278 32.2174 33.5278 32.5435 33.5278C32.8695 33.5278 32.8695 33.8539 33.8478 34.5061C34.8261 35.1583 34.1739 35.4843 34.8261 36.1365C35.4782 36.7887 36.7826 36.1365 38.0869 36.1365C39.3913 36.1365 40.0435 35.8104 40.3695 35.8104C40.6956 35.8104 40.6956 34.8322 41.0217 33.8539C41.2826 33.0713 40.2608 33.3104 39.7174 33.5278H37.4348C37.1087 33.5278 36.1304 31.5713 36.1304 31.2452V29.6148C36.1304 28.9626 36.4565 27.9843 36.4565 24.7235C36.4565 22.4409 36.4565 22.1148 36.1304 22.1148C35.8695 22.1148 36.5652 17.1148 36.1304 16.8974L30.913 17.8757L28.3043 18.5278L26.0217 19.5061L24.3913 20.8104L22.7608 24.3974L20.8043 25.0496Z" fill="#E10006"/>
<path fill-rule="evenodd" clip-rule="evenodd" d="M15.5651 36.2233L15.117 36.2016V27.6337H15.5651V36.2233ZM16.6801 36.2782L16.232 36.2604V27.6337H16.6801V36.2782ZM17.795 36.3319L17.347 36.3102V27.6286H17.795V36.3319ZM18.91 36.3868L18.462 36.3651V27.6337H18.91V36.3868ZM20.025 36.4404L19.5769 36.4187V27.6337H20.025V36.4404ZM21.14 36.4953L20.6919 36.4736V27.6337H21.14V36.4953ZM22.255 36.5502L21.8069 36.5272V27.6337H22.255V36.5502ZM23.37 36.6038L22.9219 36.5821V27.6337H23.37V36.6038ZM33.0427 30.3965C29.9166 29.9947 27.2529 30.7024 25.0516 32.5196C25.9463 32.4417 26.8478 32.5416 27.7023 32.8133C29.0508 31.2089 30.831 30.4033 33.0427 30.3965ZM31.9056 34.9351C31.4106 34.9351 31.0094 35.4599 31.0094 36.1072C31.0094 36.7544 31.4106 37.2779 31.9056 37.2779C32.4006 37.2779 32.8017 36.7544 32.8017 36.1072C32.8017 35.4599 32.4006 34.9351 31.9056 34.9351ZM31.5305 34.2036C30.3256 34.2036 29.3474 35.4331 29.3474 36.9498C29.3474 38.4665 30.3256 39.6947 31.5305 39.6947C32.7353 39.6947 33.7135 38.4652 33.7135 36.9498C33.7135 36.8949 33.7135 36.84 33.7135 36.7864C33.651 38.0631 32.8122 39.064 31.7857 39.064C30.719 39.064 29.8541 37.975 29.8541 36.6383C29.8541 35.3475 30.6538 34.293 31.6646 34.2125C31.6177 34.2049 31.576 34.2036 31.5305 34.2036ZM40.4816 33.7874L40.4738 35.0092C37.4362 35.3016 35.5436 35.4484 35.5436 35.4484C34.0053 28.3193 27.4209 33.6355 28.3027 38.3695L26.4166 38.6555L12.8949 37.9967C12.9279 37.6477 12.9456 37.4043 12.9483 37.2664L25.1623 37.8626V36.6919L24.3807 36.6536V28.738C26.8122 27.8069 30.0364 26.9085 34.0535 26.0429C31.2947 25.9446 27.9953 25.9944 24.3807 26.7757C24.3443 26.823 18.389 26.5829 17.4772 26.5919C17.4772 26.5919 19.629 25.5475 22.8177 24.7853L22.8099 24.8249C23.0521 24.7496 23.3166 24.6768 23.6031 24.6092C26.5287 24.0002 29.1377 24.0717 32.1088 24.313C32.1479 24.161 32.3016 22.1515 32.5204 21.2374C29.8072 21.0344 27.0927 21.1672 24.3794 21.2374C25.5075 18.7874 32.2937 17.7175 36.0672 17.4826V18.4325L35.8067 18.6023L36.0672 18.5027V21.5872L33.4152 21.3229C33.1665 22.8716 33.0414 24.47 33.0414 24.47C34.3327 24.6564 35.3408 24.8211 36.0659 24.9641V31.0514C35.6431 30.8746 35.1848 30.7942 34.7256 30.8165C35.8241 31.3459 36.4593 32.3711 36.6312 33.8921L40.4816 33.7874ZM26.8973 33.6712H25.4775V35.5748H26.8973V33.6712ZM53.386 35.9399C53.1958 35.6565 53.1411 35.3348 52.8649 35.1356H60.5839V35.8671L53.386 35.9399ZM46.3522 35.0309C45.9367 35.0424 45.6136 35.4931 45.6293 36.0357C45.6449 36.5783 45.9966 37.0085 46.4108 36.997C46.825 36.9855 47.1493 36.5349 47.1324 35.9923C47.1155 35.4497 46.7742 35.0181 46.3587 35.0309H46.3522ZM50.8851 35.0028C50.4695 35.0028 50.1322 35.4433 50.1322 35.9859C50.1322 36.5285 50.4695 36.9689 50.8851 36.9689C51.3006 36.9689 51.6366 36.5297 51.6366 35.9859C51.6366 35.442 51.3071 35.0028 50.8916 35.0028H50.8851ZM50.5698 34.3887C49.5578 34.3887 48.7372 35.4203 48.7372 36.6932C48.7372 37.966 49.5578 38.9989 50.5698 38.9989C51.5819 38.9989 52.4025 37.966 52.4025 36.6932C52.4025 36.6472 52.4025 36.6012 52.4025 36.5566C52.3491 37.6239 51.6445 38.4716 50.7835 38.4716C49.8873 38.4716 49.1618 37.5588 49.1618 36.4289C49.1618 35.3462 49.8326 34.4602 50.6819 34.3938L50.5698 34.3887ZM46.0187 34.4257C45.0066 34.4551 44.2186 35.5109 44.2564 36.7825C44.2941 38.0541 45.1538 39.0691 46.1646 39.0346C47.1754 39.0002 47.966 37.9494 47.927 36.6766C47.927 36.6306 47.927 36.5846 47.9191 36.54C47.8996 37.6086 47.221 38.4729 46.3561 38.4971C45.4599 38.524 44.7071 37.6315 44.6732 36.5055C44.6406 35.4228 45.2841 34.5177 46.1307 34.427C46.0956 34.4248 46.0604 34.4244 46.0252 34.4257H46.0187ZM64.0955 36.3727C63.8507 36.3727 63.6592 36.6459 63.6683 36.9677C63.6774 37.2894 63.8858 37.5434 64.1307 37.5358C64.3756 37.5281 64.5684 37.2626 64.5592 36.9408C64.5501 36.6191 64.3482 36.3651 64.102 36.3727H64.0955ZM66.7788 36.3561C66.5326 36.3561 66.3333 36.6115 66.3333 36.937C66.3333 37.2626 66.5326 37.5192 66.7788 37.5192C67.025 37.5192 67.2243 37.2638 67.2243 36.937C67.2243 36.6102 67.0302 36.3561 66.7853 36.3561H66.7788ZM66.5925 35.9923C65.9933 35.9923 65.5075 36.6025 65.5075 37.3558C65.5075 38.109 65.9933 38.7206 66.5925 38.7206C67.1917 38.7206 67.6776 38.109 67.6776 37.3558C67.6776 37.329 67.6776 37.3022 67.6776 37.2753C67.6463 37.906 67.2295 38.4065 66.7189 38.4065C66.2083 38.4065 65.7602 37.8665 65.7602 37.1987C65.7602 36.5604 66.151 36.0331 66.659 35.9948C66.639 35.9928 66.619 35.992 66.599 35.9923H66.5925ZM63.8989 36.014C63.2997 36.0318 62.8334 36.6523 62.8568 37.4094C62.8803 38.1665 63.3778 38.7589 63.9822 38.741C64.5866 38.7231 65.049 38.1026 65.0243 37.3468V37.2651C65.0112 37.9035 64.61 38.4142 64.1007 38.4244C63.5706 38.4397 63.1251 37.9137 63.1043 37.2447C63.0848 36.6064 63.4664 36.0689 63.9666 36.0152L63.8989 36.014ZM25.1076 22.5269C26.9624 22.1132 29.0847 21.863 31.4744 21.7761C28.4482 21.7251 26.17 21.7617 24.64 21.8859C24.271 22.5413 24.0178 23.2531 23.891 23.9912C24.1967 23.431 24.6098 22.9338 25.1076 22.5269ZM64.6335 39.3245C64.7497 39.2271 64.8426 39.106 64.9057 38.9695C65.0265 39.0936 65.162 39.2029 65.3095 39.2951L64.6335 39.3245ZM52.2045 39.8543C52.848 39.4049 53.1971 38.5252 53.4133 36.9664L61.3511 36.6983C61.4214 38.0069 61.5478 38.9593 62.4035 39.4189L52.2045 39.8543ZM46.9461 40.0905C47.6209 39.9628 48.1315 39.7866 48.5287 39.4521C48.7572 39.6717 49.0213 39.8525 49.3103 39.9871L46.9461 40.0905ZM41.3829 40.3279C41.7439 40.1486 42.0472 39.8747 42.2589 39.5366C42.4707 39.1986 42.5827 38.8096 42.5826 38.4129V37.3328L42.761 37.3136C42.8327 38.5827 43.523 39.9053 45.2046 40.1594L41.3829 40.3279ZM38.9433 40.4326C39.0842 40.4006 39.2216 40.3553 39.3536 40.2973C39.4288 40.3376 39.5062 40.3738 39.5854 40.4058L38.9433 40.4326ZM33.8894 40.6484C34.5406 39.9845 35.089 39.041 35.5605 38.0822L36.2717 38.0069V38.3452C36.2734 38.8617 36.4649 39.3603 36.811 39.7498C37.1571 40.1392 37.6348 40.3934 38.1565 40.4658L33.8894 40.6484ZM20.7753 41.2089C21.6232 40.8195 22.3006 39.8849 22.3383 39.2108L26.6263 39.4202C26.7735 40.1083 27.2711 40.5769 27.9393 40.8961L20.7753 41.2089ZM42.9187 16.331C52.3296 19.2674 66.2213 23.7653 68.0657 24.2466C57.0123 19.4628 42.3729 13.9972 42.3729 13.9972L37.3307 14.85V17.4392H37.5912L37.3307 17.6103V18.0609C38.3085 17.7426 39.0431 17.5843 39.5346 17.586L40.5767 18.2448L40.4842 33.4516L38.4978 33.3469C37.9212 32.4498 37.3099 31.7915 36.6638 31.3719V12.4971H36.0659V15.0505L31.9955 15.7399L31.9212 17.3511C31.0172 17.5975 30.1914 17.8043 29.436 17.9997V13.1724H28.4655V18.2652C25.2456 19.1589 23.5054 20.1126 22.5441 24.0589C17.6335 25.0266 13.9708 26.4017 13.9616 28.1712L13.946 31.4217C13.1124 31.8532 12.6005 32.2681 12.4103 32.6664L12 37.8639L12.5041 38.3746V38.704L17.0187 38.9414C17.0087 39.0048 17.0039 39.0688 17.0044 39.1329C17.0044 40.0266 17.64 41.1157 18.7902 41.2918L14.4397 41.4783V42.4996L68.7391 40.1798V39.1585L67.533 39.2108C67.8279 38.9834 68.0652 38.6922 68.2263 38.36C68.3874 38.0278 68.468 37.6635 68.4617 37.2958C68.4653 36.7583 68.2891 36.2346 67.9602 35.8046L68.7248 35.6271L68.6688 34.3044L42.9239 32.7826V28.018L68.4265 31.7421L42.9239 26.7744V24.2593L68.5021 29.3662L42.9239 23.0158V20.3718L68.7261 26.4617L42.9239 19.1142L42.9187 16.331Z" fill="white"/>
</g>
<defs>
<clipPath id="clip0_3157_236">
<rect width="56.7391" height="30" fill="white" transform="translate(12 12.4971)"/>
</clipPath>
</defs>
</svg>
