<svg width="30" height="31" viewBox="0 0 30 31" fill="none" xmlns="http://www.w3.org/2000/svg">
<path d="M0.470825 11.1555H19.2133V12.5612C19.2133 12.6855 19.1639 12.8047 19.076 12.8925C18.9882 12.9804 18.869 13.0298 18.7447 13.0298H0.939387C0.815116 13.0298 0.695936 12.9804 0.608064 12.8925C0.520191 12.8047 0.470825 12.6855 0.470825 12.5612V11.1555Z" fill="#E10006"/>
<path d="M1.40795 0.847168H10.7792C11.0277 0.847168 11.2661 0.9459 11.4418 1.12164C11.6176 1.29739 11.7163 1.53575 11.7163 1.78429V11.1555H0.470825V1.78429C0.470825 1.53575 0.569558 1.29739 0.745302 1.12164C0.921047 0.9459 1.15941 0.847168 1.40795 0.847168Z" fill="#96A1C3"/>
<path d="M0.470825 9.74988H11.7163V11.1556H0.470825V9.74988Z" fill="#647499"/>
<path d="M7.96778 0.847224V3.65859C7.97184 3.73505 7.95711 3.81134 7.92486 3.88078C7.89262 3.95022 7.84385 4.01071 7.78282 4.05694C7.72179 4.10317 7.65037 4.13375 7.57479 4.14599C7.49921 4.15823 7.42178 4.15176 7.34928 4.12715L6.09353 3.68202L4.83779 4.12715C4.76529 4.15176 4.68786 4.15823 4.61228 4.14599C4.5367 4.13375 4.46527 4.10317 4.40424 4.05694C4.34322 4.01071 4.29445 3.95022 4.2622 3.88078C4.22996 3.81134 4.21523 3.73505 4.21929 3.65859V0.847224C4.21929 0.722953 4.26865 0.603773 4.35653 0.515901C4.4444 0.428028 4.56358 0.378662 4.68785 0.378662H7.49922C7.62349 0.378662 7.74267 0.428028 7.83054 0.515901C7.91841 0.603773 7.96778 0.722953 7.96778 0.847224Z" fill="#FEBE42"/>
<path d="M19.2133 8.34417V11.1555H11.7163V2.72144H16.2473C16.4318 2.72197 16.612 2.77695 16.7654 2.87947C16.9187 2.982 17.0384 3.12751 17.1094 3.29777L19.2133 8.34417Z" fill="#E10006"/>
<path d="M11.7163 9.74988H19.2133V11.1556H11.7163V9.74988Z" fill="#CCD3EB"/>
<path d="M19.2133 8.34419H13.5905V4.5957H17.6529L19.2133 8.34419Z" fill="#CCD3EB"/>
<path d="M14.9962 14.4355C16.0313 14.4355 16.8704 13.5964 16.8704 12.5613C16.8704 11.5261 16.0313 10.687 14.9962 10.687C13.9611 10.687 13.1219 11.5261 13.1219 12.5613C13.1219 13.5964 13.9611 14.4355 14.9962 14.4355Z" fill="#CCD3EB"/>
<path d="M14.9962 13.0298C14.9035 13.0298 14.8129 13.0023 14.7359 12.9508C14.6588 12.8993 14.5988 12.8261 14.5633 12.7405C14.5279 12.6549 14.5186 12.5607 14.5367 12.4698C14.5547 12.3789 14.5994 12.2954 14.6649 12.2299C14.7304 12.1644 14.8139 12.1197 14.9048 12.1017C14.9957 12.0836 15.0899 12.0929 15.1755 12.1283C15.2611 12.1638 15.3343 12.2238 15.3858 12.3009C15.4373 12.3779 15.4648 12.4685 15.4648 12.5612C15.4648 12.6855 15.4154 12.8047 15.3275 12.8925C15.2397 12.9804 15.1205 13.0298 14.9962 13.0298Z" fill="#F5F7FF"/>
<path d="M4.68784 14.4355C5.72296 14.4355 6.56209 13.5964 6.56209 12.5613C6.56209 11.5261 5.72296 10.687 4.68784 10.687C3.65273 10.687 2.8136 11.5261 2.8136 12.5613C2.8136 13.5964 3.65273 14.4355 4.68784 14.4355Z" fill="#CCD3EB"/>
<path d="M4.68786 13.0298C4.59519 13.0298 4.5046 13.0023 4.42754 12.9508C4.35049 12.8993 4.29043 12.8261 4.25497 12.7405C4.2195 12.6549 4.21022 12.5607 4.2283 12.4698C4.24638 12.3789 4.29101 12.2954 4.35654 12.2299C4.42207 12.1644 4.50556 12.1197 4.59645 12.1017C4.68734 12.0836 4.78155 12.0929 4.86717 12.1283C4.95279 12.1638 5.02597 12.2238 5.07746 12.3009C5.12894 12.3779 5.15642 12.4685 5.15642 12.5612C5.15642 12.6855 5.10706 12.8047 5.01918 12.8925C4.93131 12.9804 4.81213 13.0298 4.68786 13.0298Z" fill="#F5F7FF"/>
<path d="M5.02052 6.60581L4.08339 5.66868C3.99516 5.58045 3.87549 5.53088 3.75072 5.53088C3.62594 5.53088 3.50627 5.58045 3.41804 5.66868C3.32981 5.75692 3.28024 5.87658 3.28024 6.00136C3.28024 6.06315 3.29241 6.12433 3.31605 6.18141C3.33969 6.23849 3.37435 6.29035 3.41804 6.33404L3.55861 6.46992H2.81359C2.68932 6.46992 2.57014 6.51929 2.48227 6.60716C2.3944 6.69503 2.34503 6.81421 2.34503 6.93849C2.34503 7.06276 2.3944 7.18194 2.48227 7.26981C2.57014 7.35768 2.68932 7.40705 2.81359 7.40705H3.55861L3.41804 7.54293C3.37435 7.58662 3.33969 7.63848 3.31605 7.69556C3.29241 7.75264 3.28024 7.81382 3.28024 7.87561C3.28024 8.00039 3.32981 8.12005 3.41804 8.20829C3.50627 8.29652 3.62594 8.34609 3.75072 8.34609C3.87549 8.34609 3.99516 8.29652 4.08339 8.20829L5.02052 7.27116C5.06444 7.2276 5.09929 7.17578 5.12308 7.11868C5.14687 7.06158 5.15912 7.00034 5.15912 6.93849C5.15912 6.87663 5.14687 6.81539 5.12308 6.75829C5.09929 6.70119 5.06444 6.64937 5.02052 6.60581Z" fill="#FEBE42"/>
<path d="M22.9617 29.898C25.032 29.898 26.7102 29.2687 26.7102 28.4924C26.7102 27.716 25.032 27.0867 22.9617 27.0867C20.8915 27.0867 19.2133 27.716 19.2133 28.4924C19.2133 29.2687 20.8915 29.898 22.9617 29.898Z" fill="#CCD3EB"/>
<path d="M22.2121 18.2591C21.5552 18.3939 20.9465 18.7024 20.4495 19.1525C19.9524 19.6026 19.5852 20.1778 19.3861 20.8181C19.187 21.4585 19.1634 22.1405 19.3176 22.7931C19.4718 23.4457 19.7982 24.0449 20.2629 24.5284C20.8184 25.1152 21.3304 25.7416 21.795 26.4027L22.5822 27.5038C22.6257 27.5638 22.6827 27.6126 22.7487 27.6463C22.8147 27.68 22.8877 27.6976 22.9618 27.6976C23.0358 27.6976 23.1089 27.68 23.1748 27.6463C23.2408 27.6126 23.2979 27.5638 23.3413 27.5038C24.0417 26.4423 24.8251 25.438 25.6841 24.5003C26.2284 23.9209 26.5744 23.1835 26.6721 22.3946C26.7698 21.6057 26.6142 20.8062 26.2278 20.1115C25.8413 19.4168 25.244 18.863 24.5222 18.53C23.8004 18.197 22.9914 18.1021 22.2121 18.2591Z" fill="#E10006"/>
<path d="M22.9618 23.8068C23.9969 23.8068 24.836 22.9677 24.836 21.9326C24.836 20.8975 23.9969 20.0583 22.9618 20.0583C21.9267 20.0583 21.0875 20.8975 21.0875 21.9326C21.0875 22.9677 21.9267 23.8068 22.9618 23.8068Z" fill="#F5F7FF"/>
<path d="M26.7102 23.3381C28.2629 23.3381 29.5216 22.0794 29.5216 20.5267C29.5216 18.974 28.2629 17.7153 26.7102 17.7153C25.1576 17.7153 23.8989 18.974 23.8989 20.5267C23.8989 22.0794 25.1576 23.3381 26.7102 23.3381Z" fill="#F5F7FF"/>
<path d="M26.7102 21.4638C26.6486 21.4642 26.5874 21.4523 26.5303 21.429C26.4732 21.4057 26.4213 21.3714 26.3775 21.3279L25.909 20.8594C25.8207 20.7711 25.7712 20.6515 25.7712 20.5267C25.7712 20.4019 25.8207 20.2822 25.909 20.194C25.9972 20.1058 26.1169 20.0562 26.2417 20.0562C26.3664 20.0562 26.4861 20.1058 26.5743 20.194L26.7102 20.3346L27.3147 19.7254C27.4029 19.6372 27.5226 19.5876 27.6473 19.5876C27.7721 19.5876 27.8918 19.6372 27.98 19.7254C28.0683 19.8137 28.1178 19.9333 28.1178 20.0581C28.1178 20.1829 28.0683 20.3026 27.98 20.3908C26.9773 21.3935 26.9679 21.4638 26.7102 21.4638Z" fill="#E10006"/>
<path d="M4.21929 28.0239L3.75073 26.1497L7.03066 28.0239L3.75073 29.8981L4.21929 28.0239Z" fill="#E10006"/>
<path d="M14.9962 28.9609C15.5138 28.9609 15.9333 28.5414 15.9333 28.0238C15.9333 27.5062 15.5138 27.0867 14.9962 27.0867C14.4786 27.0867 14.0591 27.5062 14.0591 28.0238C14.0591 28.5414 14.4786 28.9609 14.9962 28.9609Z" fill="#CCD3EB"/>
<path d="M18.7447 13.4984C18.9933 13.4984 19.2316 13.3996 19.4074 13.2239C19.5831 13.0482 19.6818 12.8098 19.6818 12.5613C19.6818 7.99278 19.6818 8.29266 19.6444 8.16615C13.7452 -5.99377 22.9009 15.9771 17.5405 3.11506C17.4336 2.86011 17.2539 2.64234 17.0239 2.48899C16.7939 2.33564 16.5237 2.25352 16.2473 2.25291H12.1849V1.78435C12.1849 1.41154 12.0368 1.05399 11.7731 0.790377C11.5095 0.526761 11.152 0.378662 10.7792 0.378662L1.40794 0.378662C1.03513 0.378662 0.677591 0.526761 0.413974 0.790377C0.150357 1.05399 0.0022583 1.41154 0.0022583 1.78435L0.0022583 5.06428C0.0022583 5.18855 0.0516245 5.30773 0.139497 5.3956C0.227369 5.48347 0.34655 5.53284 0.47082 5.53284C0.59509 5.53284 0.71427 5.48347 0.802143 5.3956C0.890015 5.30773 0.939381 5.18855 0.939381 5.06428V1.78435C0.939381 1.66008 0.988747 1.5409 1.07662 1.45302C1.16449 1.36515 1.28367 1.31578 1.40794 1.31578H10.7792C10.9034 1.31578 11.0226 1.36515 11.1105 1.45302C11.1984 1.5409 11.2477 1.66008 11.2477 1.78435V10.687H6.09356C5.69055 10.377 5.19634 10.2089 4.68787 10.2089C4.1794 10.2089 3.6852 10.377 3.28219 10.687H0.939381V9.74989C0.939381 9.62562 0.890015 9.50644 0.802143 9.41857C0.71427 9.3307 0.59509 9.28133 0.47082 9.28133C0.34655 9.28133 0.227369 9.3307 0.139497 9.41857C0.0516245 9.50644 0.0022583 9.62562 0.0022583 9.74989L0.0022583 12.5613C0.0022583 12.8098 0.100991 13.0482 0.276735 13.2239C0.45248 13.3996 0.690841 13.4984 0.939381 13.4984H2.54186C2.72454 13.9155 3.0248 14.2703 3.40593 14.5195C3.78705 14.7686 4.23253 14.9013 4.68787 14.9013C5.14322 14.9013 5.58869 14.7686 5.96982 14.5195C6.35095 14.2703 6.65121 13.9155 6.83388 13.4984H12.8502C13.0329 13.9155 13.3331 14.2703 13.7143 14.5195C14.0954 14.7686 14.5409 14.9013 14.9962 14.9013C15.4516 14.9013 15.897 14.7686 16.2782 14.5195C16.6593 14.2703 16.9596 13.9155 17.1422 13.4984H18.7447ZM17.339 12.5613C17.3395 12.2386 17.2724 11.9194 17.1422 11.6241H18.7447V12.5613H17.339ZM18.5104 7.87564H14.0591V5.06428H17.339L18.5104 7.87564ZM16.2473 3.19003C16.3393 3.19011 16.4292 3.21725 16.5058 3.26807C16.5825 3.3189 16.6425 3.39116 16.6784 3.47585L16.9454 4.12715H13.5905C13.4663 4.12715 13.3471 4.17652 13.2592 4.26439C13.1713 4.35226 13.122 4.47144 13.122 4.59571V8.34421C13.122 8.46848 13.1713 8.58766 13.2592 8.67553C13.3471 8.7634 13.4663 8.81277 13.5905 8.81277H18.7447V10.687H16.4019C15.9989 10.377 15.5047 10.2089 14.9962 10.2089C14.4878 10.2089 13.9935 10.377 13.5905 10.687H12.1849V3.19003H16.2473ZM0.939381 12.5613V11.6241H2.54186C2.41166 11.9194 2.34463 12.2386 2.34507 12.5613H0.939381ZM4.68787 13.9669C4.40985 13.9669 4.13808 13.8845 3.90692 13.73C3.67575 13.5756 3.49558 13.356 3.38919 13.0992C3.2828 12.8423 3.25496 12.5597 3.3092 12.287C3.36344 12.0143 3.49732 11.7639 3.6939 11.5673C3.89049 11.3707 4.14096 11.2368 4.41364 11.1826C4.68631 11.1283 4.96895 11.1562 5.2258 11.2626C5.48266 11.369 5.7022 11.5491 5.85666 11.7803C6.01112 12.0115 6.09356 12.2832 6.09356 12.5613C6.09356 12.9341 5.94546 13.2916 5.68184 13.5552C5.41822 13.8188 5.06068 13.9669 4.68787 13.9669ZM7.03068 12.5613C7.03112 12.2386 6.96408 11.9194 6.83388 11.6241H12.8502C12.72 11.9194 12.653 12.2386 12.6534 12.5613H7.03068ZM14.9962 13.9669C14.7182 13.9669 14.4464 13.8845 14.2153 13.73C13.9841 13.5756 13.8039 13.356 13.6975 13.0992C13.5911 12.8423 13.5633 12.5597 13.6175 12.287C13.6718 12.0143 13.8057 11.7639 14.0023 11.5673C14.1988 11.3707 14.4493 11.2368 14.722 11.1826C14.9947 11.1283 15.2773 11.1562 15.5342 11.2626C15.791 11.369 16.0105 11.5491 16.165 11.7803C16.3195 12.0115 16.4019 12.2832 16.4019 12.5613C16.4019 12.9341 16.2538 13.2916 15.9902 13.5552C15.7266 13.8188 15.369 13.9669 14.9962 13.9669Z" fill="#001F3F"/>
<path d="M0.47082 8.34422C0.59509 8.34422 0.71427 8.29485 0.802143 8.20698C0.890015 8.11911 0.939381 7.99993 0.939381 7.87566V6.93853C0.939381 6.81426 0.890015 6.69508 0.802143 6.60721C0.71427 6.51934 0.59509 6.46997 0.47082 6.46997C0.34655 6.46997 0.227369 6.51934 0.139497 6.60721C0.0516245 6.69508 0.0022583 6.81426 0.0022583 6.93853L0.0022583 7.87566C0.0022583 7.99993 0.0516245 8.11911 0.139497 8.20698C0.227369 8.29485 0.34655 8.34422 0.47082 8.34422Z" fill="#001F3F"/>
<path d="M26.7102 23.8067C27.2393 23.8075 27.7608 23.6803 28.2301 23.436C28.6994 23.1917 29.1026 22.8374 29.4054 22.4035C29.7081 21.9696 29.9014 21.4688 29.9687 20.944C30.036 20.4192 29.9754 19.8859 29.7919 19.3896C29.6085 18.8933 29.3077 18.4488 28.9153 18.0939C28.5228 17.7391 28.0503 17.4844 27.5381 17.3517C27.026 17.219 26.4893 17.2121 25.9739 17.3318C25.4585 17.4514 24.9796 17.6939 24.5783 18.0387C23.6845 17.6714 22.6917 17.6222 21.766 17.8993C20.8403 18.1764 20.0379 18.763 19.4929 19.5609C18.948 20.3589 18.6936 21.3198 18.7723 22.2828C18.851 23.2459 19.2581 24.1527 19.9255 24.8516C20.4838 25.4371 20.9975 26.0636 21.4623 26.7258C20.0567 26.9414 18.7447 27.4849 18.7447 28.4876C18.7447 30.9757 27.1788 30.985 27.1788 28.4876C27.1788 27.4849 25.8481 26.9414 24.4611 26.7258C24.7423 26.3322 25.0094 25.9808 25.3983 25.5122C25.479 25.4178 25.519 25.2951 25.5093 25.1712C25.4997 25.0473 25.4412 24.9323 25.3467 24.8516C25.2523 24.7708 25.1296 24.7309 25.0057 24.7405C24.8818 24.7502 24.7668 24.8087 24.686 24.9031C24.0207 25.6856 23.7489 26.1167 22.9524 27.2131C22.2516 26.149 21.4683 25.1416 20.6096 24.2003C20.2027 23.7776 19.9167 23.2535 19.7813 22.6826C19.646 22.1117 19.6662 21.515 19.8399 20.9546C20.0136 20.3942 20.3345 19.8907 20.769 19.4965C21.2035 19.1023 21.7358 18.8319 22.3104 18.7134C22.8507 18.6053 23.4093 18.6327 23.9364 18.7931C23.6276 19.2889 23.4569 19.8583 23.4418 20.4422C23.4267 21.0261 23.5679 21.6035 23.8507 22.1146C24.1335 22.6258 24.5476 23.0521 25.0503 23.3495C25.5531 23.647 26.1261 23.8048 26.7102 23.8067ZM23.7208 27.7613L23.838 27.602C25.492 27.7567 26.2417 28.2955 26.2417 28.4923C26.2417 28.7641 25.0937 29.4294 22.9617 29.4294C20.8298 29.4294 19.6818 28.7641 19.6818 28.4923C19.6818 28.2955 20.4315 27.7567 22.0855 27.602L22.2027 27.7613C22.2896 27.8813 22.4036 27.979 22.5356 28.0464C22.6675 28.1138 22.8136 28.1489 22.9617 28.1489C23.1099 28.1489 23.2559 28.1138 23.3879 28.0464C23.5198 27.979 23.6339 27.8813 23.7208 27.7613ZM29.053 20.5268C29.053 20.9901 28.9156 21.4431 28.6582 21.8283C28.4008 22.2136 28.0349 22.5139 27.6068 22.6912C27.1787 22.8685 26.7076 22.9149 26.2532 22.8245C25.7987 22.7341 25.3813 22.511 25.0536 22.1834C24.726 21.8557 24.5028 21.4383 24.4124 20.9838C24.322 20.5294 24.3684 20.0583 24.5458 19.6302C24.7231 19.2021 25.0234 18.8362 25.4086 18.5788C25.7939 18.3213 26.2469 18.1839 26.7102 18.1839C27.3316 18.1839 27.9275 18.4308 28.3668 18.8701C28.8062 19.3095 29.053 19.9054 29.053 20.5268Z" fill="#001F3F"/>
<path d="M7.03067 17.2469C7.15494 17.2469 7.27412 17.1976 7.362 17.1097C7.44987 17.0218 7.49923 16.9026 7.49923 16.7784C7.49923 16.6541 7.44987 16.5349 7.362 16.4471C7.27412 16.3592 7.15494 16.3098 7.03067 16.3098H5.15643C5.03216 16.3098 4.91298 16.3592 4.8251 16.4471C4.73723 16.5349 4.68787 16.6541 4.68787 16.7784C4.68787 16.9026 4.73723 17.0218 4.8251 17.1097C4.91298 17.1976 5.03216 17.2469 5.15643 17.2469H7.03067Z" fill="#001F3F"/>
<path d="M3.75071 21.9325C3.87498 21.9325 3.99416 21.8831 4.08203 21.7952C4.1699 21.7074 4.21927 21.5882 4.21927 21.4639C4.21927 21.3397 4.1699 21.2205 4.08203 21.1326C3.99416 21.0447 3.87498 20.9954 3.75071 20.9954H1.87646C1.75219 20.9954 1.63301 21.0447 1.54514 21.1326C1.45726 21.2205 1.4079 21.3397 1.4079 21.4639C1.4079 21.5882 1.45726 21.7074 1.54514 21.7952C1.63301 21.8831 1.75219 21.9325 1.87646 21.9325H3.75071Z" fill="#001F3F"/>
<path d="M14.9962 26.6182C14.7062 26.619 14.4236 26.7095 14.187 26.8773C13.9505 27.0451 13.7716 27.2819 13.6749 27.5553H7.15721L3.98505 25.742C3.90515 25.6913 3.81177 25.6659 3.71719 25.6693C3.62261 25.6727 3.53128 25.7046 3.4552 25.7609C3.37913 25.8172 3.32188 25.8952 3.291 25.9847C3.26013 26.0742 3.25706 26.1709 3.28221 26.2621L3.61957 27.5553C2.76679 27.5553 2.12955 27.6444 1.48762 27.0118C1.22359 26.7499 1.04342 26.4154 0.970053 26.0509C0.896682 25.6863 0.933419 25.3082 1.07559 24.9645C1.21776 24.6209 1.45894 24.3274 1.76844 24.1212C2.07794 23.915 2.44178 23.8056 2.81365 23.8069H12.6534C13.0226 23.8069 13.3882 23.7341 13.7293 23.5929C14.0704 23.4516 14.3803 23.2445 14.6414 22.9834C14.9024 22.7224 15.1095 22.4124 15.2508 22.0713C15.3921 21.7303 15.4648 21.3647 15.4648 20.9955C15.4648 20.6263 15.3921 20.2607 15.2508 19.9196C15.1095 19.5785 14.9024 19.2686 14.6414 19.0075C14.3803 18.7465 14.0704 18.5394 13.7293 18.3981C13.3882 18.2568 13.0226 18.1841 12.6534 18.1841H2.81365C2.31657 18.1841 1.83985 17.9867 1.48836 17.6352C1.13687 17.2837 0.939403 16.807 0.939403 16.3099C0.939403 16.1856 0.890037 16.0664 0.802165 15.9785C0.714292 15.8907 0.595112 15.8413 0.470842 15.8413C0.346571 15.8413 0.227391 15.8907 0.139519 15.9785C0.0516463 16.0664 0.00228013 16.1856 0.00228013 16.3099C0.00228013 17.0555 0.298477 17.7706 0.825711 18.2978C1.35294 18.825 2.06803 19.1212 2.81365 19.1212H12.6534C13.1505 19.1212 13.6272 19.3187 13.9787 19.6702C14.3302 20.0217 14.5277 20.4984 14.5277 20.9955C14.5277 21.4926 14.3302 21.9693 13.9787 22.3208C13.6272 22.6723 13.1505 22.8697 12.6534 22.8697H2.81365C2.25701 22.8693 1.71277 23.0341 1.24989 23.3433C0.787008 23.6525 0.426329 24.0921 0.213555 24.6065C0.000781952 25.1208 -0.0545088 25.6868 0.0546898 26.2326C0.163888 26.7784 0.432661 27.2796 0.826948 27.6725C1.76407 28.6096 2.72931 28.4925 3.63832 28.4925L3.28221 29.7857C3.25706 29.8769 3.26013 29.9736 3.291 30.0631C3.32188 30.1526 3.37913 30.2306 3.4552 30.2869C3.53128 30.3432 3.62261 30.3751 3.71719 30.3785C3.81177 30.3819 3.90515 30.3565 3.98505 30.3058L7.15721 28.4925H13.6749C13.7609 28.7356 13.912 28.9504 14.1119 29.1133C14.3118 29.2763 14.5526 29.3811 14.8081 29.4164C15.0635 29.4516 15.3237 29.4159 15.5603 29.3132C15.7968 29.2104 16.0005 29.0446 16.1491 28.8339C16.2977 28.6231 16.3854 28.3755 16.4027 28.1182C16.42 27.8609 16.3662 27.6038 16.2472 27.3751C16.1282 27.1463 15.9485 26.9547 15.7279 26.8212C15.5072 26.6877 15.2541 26.6175 14.9962 26.6182ZM4.47236 28.961C4.57451 28.6564 4.6467 28.3425 4.68789 28.0239C4.64294 27.7059 4.57083 27.3924 4.47236 27.0868L6.09358 28.0239L4.47236 28.961ZM14.9962 28.4925C14.9036 28.4925 14.813 28.465 14.7359 28.4135C14.6589 28.362 14.5988 28.2888 14.5634 28.2032C14.5279 28.1176 14.5186 28.0234 14.5367 27.9325C14.5548 27.8416 14.5994 27.7581 14.6649 27.6926C14.7305 27.6271 14.8139 27.5824 14.9048 27.5643C14.9957 27.5463 15.0899 27.5555 15.1756 27.591C15.2612 27.6265 15.3344 27.6865 15.3858 27.7636C15.4373 27.8406 15.4648 27.9312 15.4648 28.0239C15.4648 28.1482 15.4154 28.2674 15.3276 28.3552C15.2397 28.4431 15.1205 28.4925 14.9962 28.4925Z" fill="#001F3F"/>
<path d="M29.053 15.3726C28.9604 15.3726 28.8698 15.4 28.7927 15.4515C28.7157 15.503 28.6556 15.5762 28.6201 15.6618C28.5847 15.7474 28.5754 15.8416 28.5935 15.9325C28.6116 16.0234 28.6562 16.1069 28.7217 16.1724C28.7872 16.238 28.8707 16.2826 28.9616 16.3007C29.0525 16.3188 29.1467 16.3095 29.2323 16.274C29.318 16.2385 29.3911 16.1785 29.4426 16.1014C29.4941 16.0244 29.5216 15.9338 29.5216 15.8411C29.5216 15.7168 29.4722 15.5977 29.3844 15.5098C29.2965 15.4219 29.1773 15.3726 29.053 15.3726Z" fill="#96A1C3"/>
<path d="M27.1788 15.3726C27.0862 15.3726 26.9956 15.4 26.9185 15.4515C26.8415 15.503 26.7814 15.5762 26.7459 15.6618C26.7105 15.7474 26.7012 15.8416 26.7193 15.9325C26.7373 16.0234 26.782 16.1069 26.8475 16.1724C26.913 16.238 26.9965 16.2826 27.0874 16.3007C27.1783 16.3188 27.2725 16.3095 27.3581 16.274C27.4438 16.2385 27.5169 16.1785 27.5684 16.1014C27.6199 16.0244 27.6474 15.9338 27.6474 15.8411C27.6474 15.7168 27.598 15.5977 27.5102 15.5098C27.4223 15.4219 27.3031 15.3726 27.1788 15.3726Z" fill="#96A1C3"/>
</svg>
