<svg width="30" height="31" viewBox="0 0 30 31" fill="none" xmlns="http://www.w3.org/2000/svg">
<path d="M0.223022 5.10446C0.223022 2.47131 2.37658 0.341136 5.01845 0.379163C7.57753 0.41596 9.65837 2.51467 9.67455 5.07393C9.68363 6.50719 9.05445 7.7935 8.05472 8.66602C7.94919 8.75807 7.96443 8.92612 8.08496 8.99743L8.9754 9.5243C9.11937 9.6095 9.05896 9.83016 8.89167 9.83016L4.85937 9.82916C2.29068 9.78141 0.223022 7.68452 0.223022 5.10446Z" fill="#001F3F"/>
<path d="M8.97536 9.52433L8.08485 8.99745C7.96497 8.92655 7.94833 8.75874 8.05327 8.66722C9.06442 7.78544 9.69688 6.48038 9.67397 5.02808C9.63431 2.51599 7.6011 0.453898 5.08972 0.380714C4.73358 0.370343 4.38601 0.399464 4.05103 0.463859C6.22175 0.879992 7.87608 2.79337 7.8905 5.0739C7.89747 6.17833 7.52546 7.19552 6.89698 8.00335C6.51747 8.49115 6.64081 9.19849 7.17272 9.51325L7.19136 9.52427C7.33374 9.60853 7.27597 9.82497 7.1129 9.82966L8.89157 9.83007C9.05886 9.83019 9.11933 9.60946 8.97536 9.52433Z" fill="#FEBE42"/>
<path d="M23.2495 17.5323H12.5288C9.85122 17.5323 8.38591 14.4118 10.0961 12.3514L10.1912 12.2368C10.9446 11.3291 11.357 10.1866 11.357 9.007V6.93964C11.357 3.31608 14.2944 0.378662 17.918 0.378662C21.5416 0.378662 24.479 3.31608 24.479 6.93964V9.07679C24.479 10.2688 24.9 11.4224 25.6678 12.3342C27.3993 14.3904 25.9377 17.5323 23.2495 17.5323Z" fill="#001F3F"/>
<path d="M28.885 22.8453V29.9328H6.89355V22.8986C6.89355 21.3061 7.84805 19.8688 9.31523 19.2512L12.8654 17.7078L14.0607 17.1881C14.9678 16.7938 15.5543 15.899 15.5543 14.91V14.4512H20.2236V14.8865C20.2236 15.8797 20.816 16.7779 21.7295 17.1693L26.5312 19.2277C27.9621 19.8617 28.885 21.2797 28.885 22.8453Z" fill="white"/>
<path d="M12.8652 19.3975C14.0768 19.7596 15.8602 20.1457 18.0341 20.1077C20.0738 20.0721 21.7482 19.6754 22.9133 19.3033L23.4922 17.9248L21.7293 17.1692C20.8161 16.7778 20.2239 15.8798 20.2239 14.8862V14.4512H15.5546V14.9098C15.5546 15.8988 14.968 16.7935 14.0611 17.1878L12.6333 17.8086L12.8652 19.3975Z" fill="#FFCEBF"/>
<path d="M26.531 19.2273L22.9139 17.677L22.9132 17.6771V29.9326H28.885V22.8453C28.885 21.2798 27.9622 19.8616 26.531 19.2273Z" fill="#E10006"/>
<path d="M12.8654 17.7078V29.9328H6.89355V22.8986C6.89355 21.306 7.84805 19.8687 9.31523 19.2511L12.8654 17.7078Z" fill="#E10006"/>
<path d="M19.5078 17.0142C20.045 17.0142 20.5569 16.9064 21.0234 16.7117C20.5229 16.2497 20.2239 15.5923 20.2239 14.8864V14.4514H15.5545V14.91C15.5545 15.2673 15.4776 15.6121 15.337 15.9256C16.0441 16.5996 17.0006 17.0142 18.0546 17.0142L19.5078 17.0142Z" fill="#FFB09E"/>
<path d="M22.556 7.42713V11.2899C22.556 13.4661 20.7918 15.2302 18.6157 15.2302H17.1625C14.9864 15.2302 13.2223 13.466 13.2223 11.2899V7.42713C13.2223 6.01145 14.3699 4.86377 15.7856 4.86377H19.9927C21.4084 4.86383 22.556 6.01145 22.556 7.42713Z" fill="#FFCEBF"/>
<path d="M22.556 9.43689C22.5542 9.44222 22.5521 9.44738 22.5505 9.45283C22.408 9.94472 22.0342 10.8739 21.1308 11.5705C20.7102 11.895 20.2303 12.1293 19.7048 12.2673C19.4665 12.3298 19.324 12.5736 19.3865 12.8118C19.4392 13.0122 19.6198 13.1448 19.8177 13.1448C19.8551 13.1448 19.8932 13.14 19.9312 13.1301C20.5729 12.9617 21.1598 12.6746 21.6756 12.2769C22.0318 12.0022 22.32 11.6988 22.5534 11.3938C22.5543 11.3592 22.5561 11.3248 22.5561 11.29V9.43689H22.556Z" fill="#7A6D79"/>
<path d="M19.2157 13.5001H18.1706C17.6949 13.5001 17.3092 13.1145 17.3092 12.6387C17.3092 12.163 17.6949 11.7773 18.1706 11.7773H19.2157C19.6915 11.7773 20.0771 12.163 20.0771 12.6387C20.0771 13.1145 19.6915 13.5001 19.2157 13.5001Z" fill="#685E68"/>
<path d="M18.8203 3.8414C18.9204 2.57929 20.1287 1.74169 21.2852 1.30786C23.1982 2.45413 24.4789 4.54716 24.4789 6.9396V7.39065C24.3732 7.41286 24.2679 7.43231 24.1639 7.44784C23.5268 7.543 22.9843 7.50181 22.6136 7.44784C20.2251 7.12968 18.6994 5.36571 18.8203 3.8414Z" fill="#001F3F"/>
<path d="M17.918 0.378662C19.3997 0.378662 20.7666 0.870029 21.8649 1.69849C21.317 2.65187 20.0589 4.53683 17.6997 5.93229C15.9483 6.96829 14.2969 7.3164 13.28 7.44782H11.3571V6.93958C11.357 3.31608 14.2944 0.378662 17.918 0.378662Z" fill="#304A64"/>
<path d="M25.2522 29.9325H10.9756L10.1882 22.5043C10.1323 21.9775 10.5454 21.5183 11.0752 21.5183H25.1527C25.6825 21.5183 26.0956 21.9775 26.0397 22.5043L25.2522 29.9325Z" fill="#ECF0F1"/>
<path d="M25.1526 21.5183H23.3687C23.8985 21.5183 24.3115 21.9775 24.2556 22.5043L23.4682 29.9326H25.2521L26.0396 22.5043C26.0955 21.9775 25.6825 21.5183 25.1526 21.5183Z" fill="#E5E1E5"/>
<path d="M29.5605 30.3787H0.439453C0.196699 30.3787 0 30.1819 0 29.9392C0 29.6965 0.196699 29.4998 0.439453 29.4998H29.5605C29.8033 29.4998 30 29.6965 30 29.9392C30 30.1819 29.8033 30.3787 29.5605 30.3787Z" fill="#001F3F"/>
<path d="M18.1139 26.9743C18.8035 26.9743 19.3626 26.4152 19.3626 25.7256C19.3626 25.0359 18.8035 24.4768 18.1139 24.4768C17.4242 24.4768 16.8651 25.0359 16.8651 25.7256C16.8651 26.4152 17.4242 26.9743 18.1139 26.9743Z" fill="#C9BFC8"/>
<path d="M3.16483 5.55036C3.41112 5.55036 3.61079 5.3507 3.61079 5.1044C3.61079 4.85811 3.41112 4.65845 3.16483 4.65845C2.91853 4.65845 2.71887 4.85811 2.71887 5.1044C2.71887 5.3507 2.91853 5.55036 3.16483 5.55036Z" fill="white"/>
<path d="M4.94876 5.55036C5.19506 5.55036 5.39472 5.3507 5.39472 5.1044C5.39472 4.85811 5.19506 4.65845 4.94876 4.65845C4.70247 4.65845 4.50281 4.85811 4.50281 5.1044C4.50281 5.3507 4.70247 5.55036 4.94876 5.55036Z" fill="white"/>
<path d="M6.7327 5.55036C6.979 5.55036 7.17866 5.3507 7.17866 5.1044C7.17866 4.85811 6.979 4.65845 6.7327 4.65845C6.4864 4.65845 6.28674 4.85811 6.28674 5.1044C6.28674 5.3507 6.4864 5.55036 6.7327 5.55036Z" fill="white"/>
</svg>
