<svg width="14" height="15" viewBox="0 0 14 15" fill="none" xmlns="http://www.w3.org/2000/svg">
<path d="M4.375 7.75C4.375 6.30078 5.52344 5.125 7 5.125C8.44922 5.125 9.625 6.30078 9.625 7.75C9.625 9.19922 8.44922 10.375 7 10.375C5.52344 10.375 4.375 9.19922 4.375 7.75ZM14 7.75C14 11.6328 10.8555 14.75 7 14.75C3.11719 14.75 0 11.6328 0 7.75C0 3.89453 3.11719 0.75 7 0.75C10.8555 0.75 14 3.89453 14 7.75ZM7 2.0625C3.85547 2.0625 1.3125 4.63281 1.3125 7.75C1.3125 10.8945 3.85547 13.4375 7 13.4375C10.1172 13.4375 12.6875 10.8945 12.6875 7.75C12.6875 4.63281 10.1172 2.0625 7 2.0625Z" fill="#E10006"/>
</svg>
