<svg width="67" height="61" viewBox="0 0 67 61" fill="none" xmlns="http://www.w3.org/2000/svg">
<path d="M57.7949 39.1796C57.7771 39.1761 57.7594 39.1741 57.7417 39.1718C57.6022 39.1447 57.4622 39.1181 57.3202 39.0937V37.806C58.8408 36.5932 60.0683 34.5175 60.4629 31.4726C61.4491 28.8474 62.2458 25.017 60.5457 21.5092C60.4251 21.2603 60.1822 21.0936 59.9067 21.0707C59.6301 21.0476 59.364 21.1716 59.2037 21.397C58.5965 22.2507 58.07 22.1302 56.5988 21.5342C55.7348 21.1843 54.7554 20.7878 53.6653 20.844C52.8181 20.8877 50.4955 21.0074 49.6546 22.3271C49.0734 22.2697 48.4784 22.371 47.9475 22.6262C44.9596 24.0637 46.1863 29.4146 46.9479 31.4706C47.3423 34.5164 48.5699 36.5926 50.0909 37.8059V39.0935C49.9199 39.1229 49.7507 39.1543 49.5842 39.1876C49.5766 39.1891 49.5694 39.1914 49.562 39.1931C49.544 39.1954 49.5261 39.1975 49.508 39.2011C47.0307 39.7057 44.974 40.6304 43.5115 41.8875C42.1382 41.1082 40.4897 40.499 38.601 40.0942C38.5465 40.0826 38.4921 40.0771 38.4384 40.077C38.3915 40.0576 38.3421 40.0423 38.2906 40.032C38.0593 39.9858 37.8239 39.9429 37.5865 39.9033V38.2104C39.3725 36.8102 40.8195 34.3847 41.2798 30.8063C42.4307 27.7489 43.3656 23.2829 41.3874 19.2012C41.2668 18.9525 41.0239 18.7856 40.7484 18.7627C40.474 18.7389 40.2056 18.8636 40.0454 19.089C39.2785 20.1676 38.5915 20.0131 36.8248 19.2974C35.8237 18.8921 34.6899 18.432 33.4386 18.4969C32.4497 18.5479 29.7063 18.6891 28.795 20.2473C28.1107 20.1633 27.4044 20.2746 26.7773 20.5761C23.3539 22.223 24.7959 28.4341 25.6774 30.8042C26.1374 34.3836 27.5847 36.8097 29.371 38.2101V39.9029C29.1331 39.9425 28.8976 39.9856 28.6665 40.0317C28.6056 40.0439 28.5481 40.0636 28.4938 40.0885C28.4316 40.0867 28.3685 40.0913 28.3048 40.1052C26.4382 40.5099 24.8069 41.1152 23.4461 41.8877C21.9963 40.6415 19.9609 39.7212 17.5113 39.2138C17.4838 39.2081 17.4564 39.2042 17.429 39.2014C17.4105 39.1963 17.3921 39.1912 17.3729 39.1875C17.2062 39.1542 17.037 39.1229 16.8664 39.0935V37.8058C18.387 36.5928 19.6145 34.5172 20.0091 31.4724C20.9951 28.8472 21.7918 25.0166 20.0919 21.5091C19.9712 21.2602 19.7284 21.0935 19.4529 21.0705C19.1799 21.048 18.9103 21.1715 18.7499 21.3968C18.1427 22.2506 17.6163 22.1299 16.1449 21.5341C15.2812 21.1842 14.3002 20.7876 13.2115 20.8439C12.3643 20.8875 10.0416 21.0073 9.20066 22.327C8.61815 22.2696 8.02429 22.371 7.49382 22.6261C4.50575 24.0634 5.73273 29.4152 6.49406 31.471C6.88849 34.5165 8.11612 36.5928 9.63709 37.8058V39.0933C9.48748 39.119 9.33996 39.1469 9.19375 39.1756C9.17757 39.1778 9.16153 39.1795 9.14536 39.1826C3.80051 40.2441 0.609741 43.16 0.609741 46.9831V55.9643C0.609741 56.3964 0.960213 56.7469 1.39233 56.7469H18.7716V59.5963C18.7716 60.0284 19.1221 60.3789 19.5542 60.3789H47.4031C47.8352 60.3789 48.1857 60.0284 48.1857 59.5963V56.7469H65.565C65.9971 56.7469 66.3476 56.3964 66.3476 55.9643V46.9831C66.3476 43.1551 63.1503 40.2378 57.7949 39.1794V39.1796ZM48.6259 24.0368C49.016 23.8495 49.4732 23.8248 49.881 23.9689C50.1026 24.0474 50.3486 24.0218 50.5498 23.899C50.7508 23.7762 50.8858 23.5695 50.9173 23.336C50.969 22.9548 51.7392 22.5106 53.7457 22.4072C54.4914 22.3686 55.2635 22.682 56.0112 22.985C57.0358 23.4002 58.3577 23.9357 59.5441 23.2109C60.096 24.9342 60.027 26.7269 59.7437 28.2602C59.5068 27.7579 59.2139 27.2709 58.8655 26.8008C58.7139 26.5962 58.478 26.4841 58.2364 26.4841C58.1223 26.4841 58.0067 26.5092 57.8982 26.5612C56.6175 27.1758 55.2119 27.4874 53.7187 27.4874C53.7092 27.4874 53.6997 27.4874 53.6902 27.4874C52.1991 27.4874 50.7937 27.1758 49.513 26.5612C49.1748 26.3991 48.769 26.4997 48.5457 26.8008C48.2269 27.2311 47.9544 27.6756 47.7288 28.1329C47.4785 26.3581 47.583 24.5387 48.6259 24.037V24.0368ZM48.4974 31.2523C48.5538 30.1781 48.8668 29.1883 49.4537 28.2454C50.7763 28.7812 52.1976 29.0525 53.6881 29.0523H53.721C55.2131 29.0523 56.635 28.7812 57.9574 28.2454C58.5443 29.1883 58.8573 30.178 58.9136 31.2523C58.3554 35.6083 55.9013 37.5601 53.7056 37.5601C51.5099 37.5601 49.0557 35.6081 48.4973 31.2523H48.4974ZM53.7057 39.1252C54.3837 39.1252 55.0789 38.9921 55.7551 38.7223V39.7645C55.7551 40.1555 56.0437 40.4866 56.4312 40.5398C56.4926 40.5481 56.554 40.5569 56.6153 40.566C56.1004 41.3225 54.9738 41.8479 53.7054 41.8479C52.4371 41.8479 51.3107 41.3226 50.7958 40.5659C50.8572 40.5569 50.9185 40.548 50.9801 40.5395C51.3674 40.4863 51.6561 40.1553 51.6561 39.7642V38.7221C52.3324 38.9919 53.0277 39.1251 53.7057 39.1251V39.1252ZM27.4557 21.9868C27.9461 21.7511 28.5211 21.7201 29.0337 21.9013C29.2558 21.98 29.5014 21.9542 29.7024 21.8315C29.9035 21.7087 30.0385 21.502 30.0701 21.2685C30.1596 20.6089 31.4165 20.1685 33.519 20.0601C34.4227 20.0122 35.3451 20.3869 36.237 20.7482C37.5149 21.2658 39.0462 21.8859 40.4076 20.9324C41.0606 22.8603 41.1307 25.1164 40.6211 27.5238C40.3207 26.8008 39.9227 26.1037 39.4278 25.436C39.2762 25.2313 39.0403 25.1193 38.7987 25.1193C38.6846 25.1193 38.569 25.1443 38.4605 25.1964C36.9381 25.9269 35.2683 26.2971 33.4948 26.2971H33.4608C31.6895 26.2971 30.0195 25.9268 28.4972 25.1964C28.159 25.0341 27.7531 25.1348 27.5299 25.436C27.064 26.0647 26.6838 26.7196 26.3902 27.3974C25.9992 25.1223 26.0602 22.6583 27.4558 21.987L27.4557 21.9868ZM27.2264 30.5817C27.2942 29.2755 27.6989 28.0338 28.4333 26.8818C29.9991 27.5327 31.6868 27.8623 33.4584 27.8623H33.4969C35.2703 27.8623 36.9583 27.5328 38.5242 26.8818C39.2586 28.0338 39.6634 29.2755 39.7311 30.5817C39.0695 35.7903 36.1194 38.1239 33.4788 38.1239C30.8382 38.1239 27.8879 35.7905 27.2263 30.5817H27.2264ZM33.4789 39.6891C34.3206 39.6891 35.1856 39.5124 36.0213 39.1495V40.5759C36.0213 40.9671 36.3101 41.298 36.6975 41.3512C36.8379 41.3705 36.9782 41.3911 37.118 41.413C36.5471 42.4335 35.1085 43.1583 33.4788 43.1583C31.849 43.1583 30.4106 42.4335 29.8399 41.413C29.9793 41.3911 30.1198 41.3705 30.2604 41.3512C30.6479 41.298 30.9365 40.9669 30.9365 40.5759V39.1495C31.7722 39.5124 32.6375 39.6892 33.4792 39.6892L33.4789 39.6891ZM8.17233 24.0368C8.56193 23.8494 9.01962 23.8246 9.42722 23.9689C9.64896 24.0474 9.89482 24.0218 10.0959 23.899C10.2969 23.7762 10.4319 23.5695 10.4635 23.336C10.5152 22.9548 11.2854 22.5106 13.2921 22.4072C14.0367 22.3686 14.8096 22.682 15.5574 22.985C16.5822 23.4001 17.904 23.9356 19.0904 23.2109C19.6423 24.9341 19.5732 26.7267 19.2899 28.2601C19.053 27.7578 18.76 27.2709 18.4118 26.8008C18.2602 26.5962 18.0243 26.4841 17.7827 26.4841C17.6686 26.4841 17.553 26.5092 17.4445 26.5612C16.1638 27.1758 14.7582 27.4874 13.2651 27.4874H13.2508C11.7514 27.4882 10.344 27.1778 9.05914 26.5612C8.72093 26.3991 8.31516 26.4997 8.09186 26.8008C7.77308 27.231 7.50074 27.6755 7.27509 28.1327C7.02492 26.358 7.12953 24.5385 8.17233 24.0368ZM8.0436 31.2523C8.09994 30.1781 8.41298 29.1883 8.99992 28.2454C10.3225 28.7812 11.7438 29.0525 13.2344 29.0523H13.2673C14.7594 29.0523 16.1813 28.7812 17.5037 28.2454C18.0907 29.1883 18.4036 30.178 18.4599 31.2523C17.9017 35.6083 15.4475 37.5601 13.2518 37.5601C11.0561 37.5601 8.60198 35.6081 8.0436 31.2523ZM13.2519 39.1252C13.9299 39.1252 14.6252 38.9921 15.3014 38.7222V39.7644C15.3014 40.1554 15.59 40.4864 15.9775 40.5396C16.039 40.548 16.1001 40.5567 16.1614 40.5659C15.6466 41.3225 14.5199 41.8478 13.2518 41.8478C11.9836 41.8478 10.8569 41.3225 10.3421 40.5657C10.4034 40.5567 10.4648 40.5479 10.5264 40.5394C10.9138 40.4862 11.2024 40.1551 11.2024 39.7641V38.7221C11.8786 38.9919 12.5739 39.125 13.2519 39.125V39.1252ZM7.73212 55.182V49.2427C7.73212 48.8106 7.38165 48.4601 6.94953 48.4601C6.51741 48.4601 6.16694 48.8106 6.16694 49.2427V55.182H2.17506V46.9834C2.17506 44.1263 4.61297 41.8759 8.7371 40.8763C9.38131 42.3673 11.1685 43.4132 13.2519 43.4132C15.3353 43.4132 17.1222 42.3675 17.7665 40.8767C19.5085 41.2995 20.9746 41.9516 22.0784 42.7921C19.9484 44.4244 18.7718 46.5788 18.7718 49.0517V55.182H7.73212ZM46.6205 58.814H41.6612V51.7044C41.6612 51.2723 41.3107 50.9218 40.8786 50.9218C40.4465 50.9218 40.096 51.2723 40.096 51.7044V58.814H26.8616V51.7044C26.8616 51.2723 26.5111 50.9218 26.079 50.9218C25.6469 50.9218 25.2964 51.2723 25.2964 51.7044V58.814H20.337V49.0517C20.337 46.4451 21.8716 44.7013 23.7017 43.5487C23.7393 43.5294 23.7754 43.5075 23.8101 43.4817C25.3432 42.5413 27.0641 42.0065 28.2585 41.7212C28.9521 43.4793 31.0378 44.7235 33.4785 44.7235C35.9193 44.7235 38.0052 43.4795 38.6987 41.7214C39.9015 42.0086 41.6145 42.5422 43.1407 43.4763C43.1809 43.5068 43.2227 43.5328 43.2668 43.5546C45.094 44.7079 46.6205 46.4498 46.6205 49.0517V58.814ZM64.7824 55.182H60.7907V49.2427C60.7907 48.8106 60.4402 48.4601 60.0081 48.4601C59.5759 48.4601 59.2255 48.8106 59.2255 49.2427V55.182H48.1857V49.0517C48.1857 46.5774 47.0098 44.4233 44.8801 42.7913C45.9841 41.9507 47.4495 41.2994 49.1908 40.8768C49.8353 42.3675 51.6223 43.4131 53.7053 43.4131C55.7883 43.4131 57.576 42.3671 58.2202 40.876C62.3447 41.8755 64.7824 44.1254 64.7824 46.9833V55.1818V55.182ZM28.9649 11.085L27.746 16.2813C27.6742 16.5881 27.7931 16.9081 28.048 17.0931C28.3027 17.2782 28.6437 17.2927 28.9134 17.1294L33.4787 14.3646L38.0441 17.1294C38.169 17.2051 38.3093 17.2426 38.4494 17.2426C38.6113 17.2426 38.7728 17.1924 38.9093 17.0931C39.1642 16.9081 39.2832 16.588 39.2113 16.2813L37.9924 11.085L42.0328 7.59742C42.2712 7.39146 42.3631 7.06278 42.2656 6.76317C42.1683 6.46357 41.9008 6.25149 41.5869 6.22514L36.2683 5.77854L34.2001 0.858245C34.0779 0.567772 33.7937 0.378906 33.4787 0.378906C33.1637 0.378906 32.8793 0.567772 32.7572 0.858245L30.689 5.77854L25.3705 6.22514C25.0565 6.25149 24.789 6.46357 24.6917 6.76317C24.5943 7.06278 24.6861 7.39159 24.9245 7.59742L28.9651 11.085H28.9649ZM31.2922 7.2986C31.5826 7.27421 31.8352 7.09056 31.9482 6.822L33.4787 3.18098L35.0092 6.822C35.1221 7.09056 35.3749 7.27421 35.6651 7.2986L39.6009 7.62911L36.611 10.21C36.3906 10.4003 36.2939 10.6974 36.3604 10.9811L37.2624 14.8262L33.884 12.7803C33.7594 12.7048 33.619 12.6671 33.4787 12.6671C33.3383 12.6671 33.1978 12.7049 33.0733 12.7803L29.6951 14.8262L30.597 10.9811C30.6635 10.6974 30.567 10.4003 30.3465 10.21L27.3566 7.62911L31.2922 7.2986Z" fill="#E10006"/>
</svg>
