<svg width="63" height="61" viewBox="0 0 63 61" fill="none" xmlns="http://www.w3.org/2000/svg">
<path d="M52.1743 19.9442H37.8261C37.1048 19.9442 36.5221 19.3596 36.5221 18.6397C36.5221 17.9199 37.1048 17.3352 37.8261 17.3352H52.1743C54.6095 17.3352 56.8961 16.3546 58.3516 14.7267C56.8961 13.0988 54.6095 12.1181 52.1743 12.1181H13.0437C12.6979 12.1181 12.3654 11.981 12.1213 11.7355L7.28636 6.90054H4.91235L11.1732 17.3352H22.1739C22.8942 17.3352 23.4784 17.9199 23.4784 18.6397C23.4784 19.3596 22.8942 19.9442 22.1739 19.9442H10.4347C9.97707 19.9442 9.55194 19.704 9.31693 19.3113L1.4908 6.26811C1.24815 5.86496 1.24194 5.36245 1.47409 4.95309C1.7048 4.54468 2.139 4.29199 2.60855 4.29199H7.82613C8.17196 4.29199 8.50442 4.42861 8.74851 4.67413L13.5835 9.50909H52.1743C55.8118 9.50909 59.2257 11.2297 61.0843 14.0001C61.379 14.4396 61.379 15.0137 61.0843 15.4532C59.2257 18.2237 55.8118 19.9442 52.1743 19.9442Z" fill="#E10006"/>
<path d="M26.087 29.0744H20.8699C20.3717 29.0744 19.9175 28.7901 19.6987 28.3426C19.4809 27.8955 19.5353 27.3619 19.8406 26.9693L28.9712 15.2301C29.4135 14.6602 30.2337 14.5594 30.8011 15.0003C31.3701 15.4426 31.4727 16.2633 31.0309 16.8303L23.5358 26.4658H25.6385L37.0242 17.6093C37.5955 17.1685 38.4133 17.2712 38.8542 17.8386C39.2979 18.4075 39.1947 19.2267 38.6258 19.6686L26.8867 28.7992C26.6583 28.9779 26.377 29.0744 26.087 29.0744Z" fill="#E10006"/>
<path d="M37.8253 12.1181C37.5458 12.1181 37.263 12.0278 37.0256 11.8439L25.6399 2.98746H23.4785L25.8262 6.1181C26.2595 6.69417 26.142 7.51241 25.5654 7.94375C24.9889 8.37843 24.1711 8.25949 23.7393 7.68294L19.8262 2.46584C19.5291 2.07033 19.4818 1.54203 19.7025 1.10019C19.9227 0.657865 20.3755 0.378906 20.8699 0.378906H26.087C26.377 0.378906 26.6583 0.475395 26.8881 0.652611L38.6273 9.78325C39.1962 10.2251 39.2989 11.0457 38.8556 11.6132C38.5986 11.9442 38.2136 12.1181 37.8253 12.1181Z" fill="#E10006"/>
<path d="M61.306 47.3358C60.8025 47.3358 60.3239 47.0435 60.1099 46.5544C55.6074 36.2683 46.0101 29.0684 35.0638 27.761C34.3478 27.675 33.8376 27.0268 33.9222 26.3108C34.0072 25.5971 34.6487 25.0913 35.3714 25.1696C47.2334 26.5859 57.6279 34.3795 62.4997 45.5068C62.7891 46.167 62.4877 46.9365 61.8276 47.2245C61.658 47.3019 61.4808 47.3358 61.306 47.3358Z" fill="#E10006"/>
<path d="M1.30456 47.3354C1.12973 47.3354 0.952039 47.3015 0.781511 47.2256C0.121372 46.9361 -0.178604 46.1666 0.109431 45.5079C3.13594 38.6027 8.43377 32.8215 15.0289 29.2332C15.6614 28.8888 16.4534 29.1224 16.7977 29.7553C17.1417 30.3877 16.9071 31.1797 16.2757 31.5236C10.1873 34.8382 5.29309 40.1757 2.49921 46.554C2.28378 47.0431 1.80516 47.3354 1.30456 47.3354Z" fill="#E10006"/>
<path d="M56.0874 60.3787C55.3662 60.3787 54.7829 59.796 54.7829 59.0747C54.7829 46.1289 44.2503 35.5963 31.3045 35.5963C18.3588 35.5963 7.82617 46.1289 7.82617 59.0747C7.82617 59.796 7.24198 60.3787 6.52166 60.3787C5.80181 60.3787 5.21762 59.796 5.21762 59.0747C5.21762 44.6902 16.92 32.9873 31.3045 32.9873C45.6891 32.9873 57.3915 44.6902 57.3915 59.0747C57.3915 59.796 56.8087 60.3787 56.0874 60.3787Z" fill="#E10006"/>
<path d="M31.3045 55.1616C30.5846 55.1616 29.9999 54.5784 29.9999 53.8571V34.2918C29.9999 33.5705 30.5846 32.9873 31.3045 32.9873C32.0243 32.9873 32.609 33.5705 32.609 34.2918V53.8571C32.609 54.5784 32.0243 55.1616 31.3045 55.1616Z" fill="#E10006"/>
<path d="M50.8699 60.3786H41.7392C41.0179 60.3786 40.4352 59.7958 40.4352 59.0745C40.4352 58.3533 41.0179 57.77 41.7392 57.77H50.8699C51.5911 57.77 52.1744 58.3533 52.1744 59.0745C52.1744 59.7958 51.5911 60.3786 50.8699 60.3786Z" fill="#E10006"/>
<path d="M20.8698 60.3786H1.30451C0.584189 60.3786 0 59.7958 0 59.0745C0 58.3533 0.584189 57.77 1.30451 57.77H20.8698C21.5897 57.77 22.1739 58.3533 22.1739 59.0745C22.1739 59.7958 21.5897 60.3786 20.8698 60.3786Z" fill="#E10006"/>
<path d="M31.3046 48.6398C24.6956 48.6398 18.1921 46.1368 13.4637 41.7714L15.2325 39.855C19.4847 43.78 25.3438 46.0312 31.3046 46.0312C37.2654 46.0312 43.1245 43.78 47.3767 39.8564L49.1441 41.7723C44.4171 46.1368 37.9136 48.6398 31.3046 48.6398Z" fill="#E10006"/>
<path d="M44.3482 60.3787C43.6269 60.3787 43.0437 59.796 43.0437 59.0747C43.0437 46.3477 37.6684 35.5963 31.3045 35.5963C24.9419 35.5963 19.5653 46.3477 19.5653 59.0747C19.5653 59.796 18.9811 60.3787 18.2608 60.3787C17.5409 60.3787 16.9567 59.796 16.9567 59.0747C16.9567 44.4461 23.2591 32.9873 31.3045 32.9873C39.3498 32.9873 45.6522 44.4461 45.6522 59.0747C45.6522 59.796 45.0695 60.3787 44.3482 60.3787Z" fill="#E10006"/>
<path d="M61.3045 60.3786H56.0874C55.3661 60.3786 54.7829 59.7958 54.7829 59.0745C54.7829 58.3533 55.3661 57.77 56.0874 57.77H61.3045C62.0258 57.77 62.609 58.3533 62.609 59.0745C62.609 59.7958 62.0258 60.3786 61.3045 60.3786Z" fill="#E10006"/>
<path d="M24.783 57.77H27.3915V60.3786H24.783V57.77Z" fill="#E10006"/>
<path d="M29.9999 57.77H32.609V60.3786H29.9999V57.77Z" fill="#E10006"/>
<path d="M35.2176 57.77H37.8261V60.3786H35.2176V57.77Z" fill="#E10006"/>
</svg>
