<svg width="61" height="61" viewBox="0 0 61 61" fill="none" xmlns="http://www.w3.org/2000/svg">
<path d="M21.0381 14.467C20.8657 14.9975 21.0354 15.5661 21.4701 15.9156L25.3413 19.0271L24.0384 23.8199C23.8921 24.358 24.0891 24.9176 24.5406 25.246C24.9922 25.5736 25.5851 25.5881 26.0518 25.2827L30.2073 22.5625L34.3629 25.2828C34.587 25.4294 34.84 25.5023 35.0925 25.5023C35.3663 25.5023 35.6394 25.4166 35.8739 25.246C36.3257 24.918 36.5228 24.358 36.3762 23.8199L35.0732 19.0272L38.9442 15.9159C39.3793 15.5664 39.5489 14.9977 39.3764 14.467C39.2041 13.9361 38.7325 13.5758 38.1753 13.5488L33.2145 13.307L31.4516 8.66387C31.2537 8.14228 30.7651 7.80514 30.2072 7.80514C29.6493 7.80514 29.1607 8.14217 28.9629 8.66376L27.1999 13.3071L22.2395 13.5488C21.682 13.5758 21.2105 13.9361 21.0381 14.467ZM27.6468 15.1624C28.1756 15.1366 28.6386 14.8001 28.8262 14.3054L30.2071 10.6686L31.588 14.3057C31.776 14.8004 32.2391 15.1366 32.7673 15.1624L36.6528 15.3518L33.6206 17.7889C33.208 18.1207 33.0312 18.665 33.1701 19.1755L34.1907 22.9294L30.9357 20.7986C30.7144 20.6538 30.4607 20.5813 30.207 20.5813C29.9533 20.5813 29.6993 20.6539 29.4778 20.7987L26.2232 22.9294L27.2437 19.1757C27.3827 18.6649 27.2059 18.1205 26.7931 17.7889L23.761 15.352L27.6468 15.1624ZM29.2696 4.7567V1.31638C29.2696 0.798662 29.6894 0.378906 30.2071 0.378906C30.7248 0.378906 31.1446 0.798662 31.1446 1.31638V4.7567C31.1446 5.27442 30.7248 5.69418 30.2071 5.69418C29.6894 5.69418 29.2696 5.27442 29.2696 4.7567ZM34.9787 10.311C34.6323 9.92631 34.6634 9.33347 35.0481 8.98707L38.8818 5.53504C39.2666 5.18852 39.8594 5.21958 40.2059 5.60441C40.5523 5.98913 40.5212 6.58197 40.1365 6.92837L36.3027 10.3804C36.1235 10.5418 35.8992 10.6212 35.6756 10.6212C35.4193 10.6212 35.1639 10.5167 34.9787 10.311ZM20.2083 5.60441C20.5547 5.21958 21.1474 5.18852 21.5324 5.53504L25.3662 8.98707C25.7509 9.33347 25.782 9.92631 25.4356 10.311C25.2504 10.5166 24.9949 10.6212 24.7385 10.6212C24.5151 10.6212 24.2908 10.5418 24.1115 10.3804L20.2777 6.92837C19.8928 6.58197 19.8619 5.98913 20.2083 5.60441ZM42.2342 15.9156L46.1054 19.0271L44.8025 23.8199C44.6562 24.358 44.8532 24.9176 45.3047 25.246C45.756 25.5736 46.3489 25.5879 46.8159 25.2827L50.9714 22.5625L55.127 25.2828C55.3511 25.4294 55.6041 25.5023 55.8566 25.5023C56.1304 25.5023 56.4035 25.4166 56.638 25.246C57.0895 24.9182 57.2866 24.3584 57.1403 23.8199L55.8373 19.0272L59.7082 15.9159C60.1432 15.5665 60.3129 14.9978 60.1404 14.467C59.968 13.9361 59.4965 13.5758 58.9394 13.5488L53.9786 13.307L52.2158 8.66387C52.0179 8.14228 51.5293 7.80514 50.9714 7.80514C50.4134 7.80514 49.9248 8.14217 49.7269 8.66376L47.9641 13.307L43.0037 13.5487C42.4461 13.5757 41.9746 13.9361 41.8022 14.467C41.6297 14.9977 41.7994 15.5664 42.2342 15.9156ZM48.4108 15.1624C48.9397 15.1366 49.4028 14.8001 49.5905 14.3053L50.9713 10.6684L52.352 14.3052C52.5398 14.8001 53.0029 15.1366 53.5316 15.1622L57.417 15.3517L54.3851 17.7886C53.9723 18.1202 53.7953 18.6647 53.9343 19.1754L54.9549 22.9293L51.7 20.7985C51.4785 20.6536 51.2248 20.5812 50.9711 20.5812C50.7172 20.5812 50.4634 20.6538 50.2421 20.7986L46.9874 22.9293L48.0079 19.1756C48.1468 18.665 47.9701 18.1207 47.5574 17.7888L44.5252 15.3517L48.4108 15.1624ZM0.705805 15.9156L4.57701 19.0271L3.27403 23.8199C3.12778 24.358 3.32477 24.9176 3.77628 25.246C4.22791 25.5736 4.82075 25.5881 5.2875 25.2827L9.44299 22.5625L13.5986 25.2828C13.8227 25.4294 14.0757 25.5023 14.3282 25.5023C14.6019 25.5023 14.8751 25.4166 15.1096 25.246C15.5611 24.9182 15.7582 24.3584 15.6118 23.8199L14.3089 19.0272L18.1798 15.9159C18.6146 15.5668 18.7844 14.9982 18.612 14.4664C18.4393 13.9359 17.9677 13.5757 17.411 13.5487L12.4502 13.3069L10.6874 8.66387C10.4894 8.14228 10.0009 7.80514 9.44299 7.80514C8.88495 7.80514 8.39641 8.14217 8.19849 8.66376L6.43567 13.307L1.47524 13.5487C0.917792 13.5757 0.44624 13.9361 0.273979 14.4664C0.101131 14.9974 0.270698 15.5663 0.705805 15.9156ZM6.88238 15.1624C7.41124 15.1366 7.87435 14.8001 8.06208 14.3053L9.44287 10.6684L10.8235 14.3052C11.0114 14.8001 11.4745 15.1366 12.0031 15.1622L15.8886 15.3517L12.8567 17.7886C12.4439 18.1202 12.2669 18.6647 12.4059 19.1754L13.4265 22.9293L10.1715 20.7985C9.95005 20.6536 9.69634 20.5812 9.44264 20.5812C9.18882 20.5812 8.93499 20.6538 8.71363 20.7986L5.45894 22.9293L6.4795 19.1756C6.61837 18.665 6.44165 18.1207 6.02893 17.7888L2.99677 15.3517L6.88238 15.1624ZM60.0589 50.1746C59.3992 48.0444 58.0482 46.1317 56.2545 44.7886C55.3957 44.1456 54.4606 43.6447 53.4741 43.2901C54.8418 42.2167 55.723 40.5503 55.723 38.6809C55.723 35.4506 53.0949 32.8226 49.8647 32.8226C46.6344 32.8226 44.0063 35.4506 44.0063 38.6809C44.0063 40.5481 44.8854 42.2128 46.2504 43.2864C44.421 43.9393 42.8004 45.0866 41.5592 46.6325C40.9792 45.821 40.3101 45.0672 39.5578 44.387C38.0422 43.0163 36.2634 42.0096 34.3478 41.4147C36.3792 40.068 37.7221 37.7622 37.7221 35.1476C37.7221 31.004 34.3509 27.6328 30.2072 27.6328C26.0635 27.6328 22.6923 31.004 22.6923 35.1476C22.6923 37.7622 24.0351 40.068 26.0665 41.4147C24.1507 42.0095 22.372 43.0163 20.8563 44.387C20.1041 45.0672 19.435 45.821 18.855 46.6323C17.6141 45.0863 15.9934 43.9391 14.1639 43.286C15.5287 42.2125 16.408 40.5478 16.408 38.6805C16.408 35.4502 13.7799 32.8222 10.5497 32.8222C7.31937 32.8222 4.69126 35.4502 4.69126 38.6805C4.69126 40.5499 5.57249 42.2164 6.94004 43.2898C5.95358 43.6444 5.01844 44.1452 4.15959 44.7882C2.36585 46.1313 1.01482 48.0441 0.355188 50.1741C0.0503901 51.158 0.219253 52.1566 0.830607 52.986C1.44184 53.8152 2.34581 54.2717 3.37586 54.2717H16.3357V55.9637C16.3357 58.3976 18.3158 60.3777 20.7497 60.3777H39.6645C42.0983 60.3777 44.0785 58.3976 44.0786 55.9637V54.2722H57.0383C58.0685 54.2722 58.9724 53.8155 59.5836 52.9865C60.1948 52.157 60.3637 51.1584 60.0589 50.1746ZM49.8647 34.6975C52.0611 34.6975 53.8481 36.4845 53.8481 38.6809C53.8481 40.8774 52.0611 42.6643 49.8647 42.6643C47.6682 42.6643 45.8813 40.8774 45.8813 38.6809C45.8813 36.4845 47.6682 34.6975 49.8647 34.6975ZM24.5672 35.1476C24.5672 32.0378 27.0974 29.5078 30.2072 29.5078C33.3171 29.5078 35.8472 32.0378 35.8472 35.1476C35.8472 38.2566 33.3187 40.7859 30.2103 40.7875C30.2092 40.7875 30.208 40.7875 30.2071 40.7875C30.2061 40.7875 30.2051 40.7875 30.204 40.7875C27.0956 40.7858 24.5672 38.2564 24.5672 35.1476ZM10.5497 34.6971C12.7461 34.6971 14.533 36.484 14.533 38.6804C14.533 40.8769 12.7461 42.6639 10.5497 42.6639C8.35317 42.6639 6.56622 40.8769 6.56622 38.6804C6.56622 36.484 8.35317 34.6971 10.5497 34.6971ZM16.4574 52.3967H3.37598C2.9445 52.3967 2.596 52.2207 2.33995 51.8733C2.08378 51.526 2.01874 51.1409 2.14636 50.7288C3.29289 47.0263 6.67004 44.5388 10.5497 44.5388C13.4843 44.5388 16.1577 45.9568 17.8019 48.3571C17.1519 49.6199 16.6966 50.981 16.4574 52.3967ZM42.2036 55.9635C42.2035 57.3635 41.0645 58.5026 39.6645 58.5026H20.7497C19.3497 58.5026 18.2106 57.3635 18.2106 55.9635V53.3851C18.8894 47.2695 24.0366 42.664 30.204 42.6625C30.2051 42.6625 30.2061 42.6626 30.2072 42.6626C30.2083 42.6626 30.2093 42.6625 30.2103 42.6625C36.3776 42.6641 41.5247 47.2695 42.2036 53.3851V55.9635ZM58.0743 51.8739C57.8183 52.2211 57.4699 52.3971 57.0383 52.3971H43.957C43.7177 50.9813 43.2624 49.6202 42.6125 48.3573C44.2568 45.9571 46.9301 44.5393 49.8646 44.5393C53.7442 44.5393 57.1214 47.0269 58.2679 50.7294C58.3955 51.1413 58.3304 51.5263 58.0743 51.8739Z" fill="#E10006"/>
</svg>
