<svg width="66" height="61" viewBox="0 0 66 61" fill="none" xmlns="http://www.w3.org/2000/svg">
<path d="M1.15497 43.7699H36.9997C37.4451 43.7699 37.8071 43.4079 37.8071 42.9625V36.8332C37.8071 34.2617 36.1789 31.9728 33.7473 31.121L23.7978 26.1462V22.8468C24.1745 22.5817 24.5271 22.2924 24.8487 21.9762C25.9696 20.8754 26.7097 19.5271 27.038 18.0133H27.8575C29.113 18.0133 30.1343 16.992 30.1343 15.7365V14.9587C30.1343 13.8069 29.2731 12.8542 28.1616 12.7048C28.7214 9.80769 27.84 6.21487 25.9481 4.0861C24.11 2.01788 21.4685 0.832381 18.6992 0.832381C15.934 0.832381 13.2925 2.01788 11.4544 4.0861C9.46688 6.32252 8.40384 10.1306 9.52744 12.8178C8.64875 13.1341 8.0163 13.9737 8.0163 14.9601V15.7379C8.0163 16.9933 9.03763 18.0146 10.2931 18.0146H11.1651C11.6078 19.9456 12.7381 21.6088 14.3528 22.7889V26.1476L4.40465 31.1224C1.9758 31.9741 0.347595 34.2617 0.347595 36.8332V42.9625C0.347595 43.4092 0.709568 43.7699 1.15497 43.7699ZM17.9362 30.5599L15.8546 32.6402L13.4338 28.4123L15.0041 27.6278L17.9362 30.5599ZM23.1317 27.6184L24.7209 28.4123L22.3001 32.6402L20.1013 30.4415L23.1317 27.6184ZM19.4474 32.8892L20.9625 42.1565H17.1612L18.5942 32.8892H19.4474ZM33.1741 32.6308C34.9799 33.2458 36.1923 34.9345 36.1923 36.8332V42.1551H30.1854V37.907C30.1854 37.4616 29.8235 37.0996 29.3781 37.0996C28.9327 37.0996 28.5707 37.4616 28.5707 37.907V42.1551H22.5975L21.2424 33.8674L21.9045 34.5295C22.0565 34.6815 22.2624 34.7663 22.475 34.7663C22.51 34.7663 22.5463 34.7636 22.5813 34.7596C22.8303 34.7259 23.0496 34.5793 23.1747 34.3599L26.1661 29.1362L33.0718 32.5891C33.1068 32.6052 33.1404 32.62 33.1741 32.6308ZM28.5223 14.9587V15.7365C28.5223 16.1012 28.2249 16.3986 27.8602 16.3986H27.2318C27.2331 16.3205 27.2372 16.2438 27.2372 16.1644V14.2953H27.8602C28.2249 14.2953 28.5223 14.5927 28.5223 14.9587ZM12.6641 5.15721C14.1967 3.43347 16.3968 2.44578 18.7019 2.44578C21.0096 2.44578 23.2111 3.43482 24.7437 5.15721C26.0665 6.64547 26.8039 9.07971 26.7124 11.2529C24.5244 8.42708 21.9812 9.16717 19.6963 9.83325C17.725 10.4065 15.864 10.9488 13.8805 9.67716C13.641 9.52376 13.3382 9.50761 13.0839 9.6341C12.8296 9.76059 12.66 10.0122 12.6385 10.2961C12.5174 11.8921 11.9267 12.4222 11.2283 12.6187C10.0374 10.6178 10.9444 7.09088 12.6641 5.15721ZM10.2958 16.3999C9.93112 16.3999 9.63374 16.1025 9.63374 15.7379V14.9601C9.63374 14.5954 9.93112 14.298 10.2958 14.298H10.7062C10.76 14.3088 10.8152 14.3155 10.8704 14.3155C10.9 14.3155 10.9296 14.3128 10.9592 14.3101V16.1671C10.9592 16.2452 10.9632 16.3232 10.9646 16.4012H10.2958V16.3999ZM12.5739 16.1658V13.7705C13.3033 13.313 13.7998 12.5851 14.0608 11.592C16.2623 12.5151 18.3103 11.919 20.1484 11.3834C22.4387 10.7173 24.0629 10.2464 25.6224 12.4868V16.1658C25.6224 19.7545 22.9823 22.4713 19.041 22.9531C15.2275 22.4121 12.5739 19.6334 12.5739 16.1658ZM18.9266 24.5665L19.0235 24.5786L19.1204 24.5678C20.205 24.4467 21.2397 24.1682 22.183 23.7537V26.2943L18.9576 29.299L15.9689 26.3104V23.7282C16.8692 24.1399 17.8609 24.4265 18.9266 24.5665ZM1.96234 36.8332C1.96234 34.9345 3.17475 33.2458 4.98058 32.6308C5.01556 32.6187 5.0492 32.6052 5.0815 32.5891L11.9872 29.1362L14.9786 34.3599C15.1037 34.5779 15.323 34.7259 15.572 34.7596C15.6083 34.765 15.6433 34.7663 15.6783 34.7663C15.8909 34.7663 16.0968 34.6829 16.2488 34.5295L16.7884 33.9899L15.5262 42.1551H9.58261V37.907C9.58261 37.4616 9.22063 37.0996 8.77523 37.0996C8.32983 37.0996 7.96786 37.4616 7.96786 37.907V42.1551H1.96234V36.8332ZM38.1152 33.7517H57.3536C57.799 33.7517 58.161 33.3897 58.161 32.9443V30.0876H61.9341C62.3795 30.0876 62.7415 29.7256 62.7415 29.2802V1.18628C62.7415 0.740879 62.3795 0.378906 61.9341 0.378906H42.6957C42.2503 0.378906 41.8883 0.740879 41.8883 1.18628V4.04304H38.1152C37.6698 4.04304 37.3078 4.40501 37.3078 4.85041V32.9443C37.3078 33.3897 37.6685 33.7517 38.1152 33.7517ZM43.5031 1.99365H61.1267V28.4728H43.5031V1.99365ZM38.9226 5.65779H41.8883V29.2802C41.8883 29.7256 42.2503 30.0876 42.6957 30.0876H56.5462V32.137H38.9226V5.65779ZM59.9156 4.85041C59.9156 5.29581 59.5537 5.65779 59.1083 5.65779H45.2147C44.7693 5.65779 44.4073 5.29581 44.4073 4.85041C44.4073 4.40501 44.7693 4.04304 45.2147 4.04304H59.1083C59.555 4.04304 59.9156 4.40501 59.9156 4.85041ZM59.9156 8.43919C59.9156 8.88459 59.5537 9.24656 59.1083 9.24656H45.2147C44.7693 9.24656 44.4073 8.88459 44.4073 8.43919C44.4073 7.99379 44.7693 7.63182 45.2147 7.63182H59.1083C59.555 7.63182 59.9156 7.99244 59.9156 8.43919ZM59.9156 12.0266C59.9156 12.472 59.5537 12.834 59.1083 12.834H45.2147C44.7693 12.834 44.4073 12.472 44.4073 12.0266C44.4073 11.5812 44.7693 11.2192 45.2147 11.2192H59.1083C59.555 11.2192 59.9156 11.5812 59.9156 12.0266ZM59.9156 15.6154C59.9156 16.0608 59.5537 16.4228 59.1083 16.4228H45.2147C44.7693 16.4228 44.4073 16.0608 44.4073 15.6154C44.4073 15.17 44.7693 14.808 45.2147 14.808H59.1083C59.555 14.808 59.9156 15.1687 59.9156 15.6154ZM59.9156 19.2028C59.9156 19.6482 59.5537 20.0102 59.1083 20.0102H45.2147C44.7693 20.0102 44.4073 19.6482 44.4073 19.2028C44.4073 18.7574 44.7693 18.3955 45.2147 18.3955H59.1083C59.555 18.3955 59.9156 18.7574 59.9156 19.2028ZM59.9156 22.7916C59.9156 23.237 59.5537 23.599 59.1083 23.599H45.2147C44.7693 23.599 44.4073 23.237 44.4073 22.7916C44.4073 22.3462 44.7693 21.9842 45.2147 21.9842H59.1083C59.555 21.9842 59.9156 22.3449 59.9156 22.7916ZM11.1287 52.9376L8.0338 52.7089L6.85907 49.8359C6.73527 49.5318 6.43923 49.334 6.11225 49.334C5.78526 49.334 5.48922 49.5318 5.36542 49.8359L4.1907 52.7089L1.09576 52.9376C0.768775 52.9618 0.488886 53.1812 0.387964 53.4933C0.287042 53.8055 0.383927 54.1473 0.634213 54.3599L3.00386 56.3649L2.26511 59.3791C2.18706 59.698 2.30951 60.0317 2.5746 60.2242C2.83969 60.4166 3.19628 60.43 3.47482 60.2578L6.11359 58.6242L8.75236 60.2578C8.88288 60.3385 9.0309 60.3789 9.17758 60.3789C9.34443 60.3789 9.51129 60.3278 9.65258 60.2242C9.91767 60.0317 10.0401 59.6967 9.96207 59.3791L9.22333 56.3649L11.593 54.3599C11.8433 54.1487 11.9401 53.8055 11.8392 53.4933C11.7356 53.1812 11.4557 52.9618 11.1287 52.9376ZM7.79697 55.4539C7.56283 55.6517 7.46191 55.9653 7.53457 56.2626L7.92211 57.8437L6.53746 56.9866C6.40694 56.9058 6.26026 56.8655 6.11225 56.8655C5.96423 56.8655 5.81755 56.9058 5.68703 56.9866L4.30238 57.8437L4.68992 56.2626C4.76259 55.9653 4.66166 55.6517 4.42753 55.4539L3.18417 54.403L4.80834 54.2832C5.11379 54.2604 5.38023 54.0666 5.49595 53.784L6.11225 52.2769L6.72854 53.784C6.84426 54.0679 7.1107 54.2617 7.41615 54.2832L9.04032 54.403L7.79697 55.4539ZM24.4612 52.9376L21.3662 52.7089L20.1915 49.8359C20.0677 49.5318 19.7717 49.334 19.4447 49.334C19.1177 49.334 18.8217 49.5318 18.6979 49.8359L17.5231 52.7089L14.4282 52.9376C14.1012 52.9618 13.8213 53.1812 13.7204 53.4933C13.6195 53.8055 13.7164 54.1473 13.9666 54.3599L16.3363 56.3649L15.5975 59.3791C15.5195 59.698 15.6419 60.0317 15.907 60.2242C16.0483 60.3264 16.2152 60.3789 16.382 60.3789C16.5287 60.3789 16.6767 60.3385 16.8073 60.2578L19.446 58.6242L22.0848 60.2578C22.3633 60.43 22.7186 60.4179 22.985 60.2242C23.2501 60.0317 23.3726 59.6967 23.2945 59.3791L22.5558 56.3649L24.9254 54.3599C25.1757 54.1487 25.2726 53.8055 25.1717 53.4933C25.068 53.1812 24.7882 52.9618 24.4612 52.9376ZM21.1294 55.4539C20.8953 55.6517 20.7943 55.9653 20.867 56.2626L21.2545 57.8437L19.8699 56.9866C19.7394 56.9058 19.5927 56.8655 19.4447 56.8655C19.2967 56.8655 19.15 56.9058 19.0195 56.9866L17.6348 57.8437L18.0224 56.2626C18.095 55.9653 17.9941 55.6517 17.76 55.4539L16.5166 54.403L18.1408 54.2832C18.4462 54.2604 18.7127 54.0666 18.8284 53.784L19.4447 52.2769L20.061 53.784C20.1767 54.0679 20.4431 54.2617 20.7486 54.2832L22.3728 54.403L21.1294 55.4539ZM37.7936 52.9376L34.6987 52.7089L33.5239 49.8359C33.4001 49.5318 33.1041 49.334 32.7771 49.334C32.4501 49.334 32.1541 49.5318 32.0303 49.8359L30.8556 52.7089L27.7606 52.9376C27.4336 52.9618 27.1538 53.1812 27.0528 53.4933C26.9519 53.8055 27.0488 54.1473 27.2991 54.3599L29.6687 56.3649L28.93 59.3791C28.8519 59.698 28.9744 60.0317 29.2395 60.2242C29.5046 60.4166 29.8612 60.43 30.1397 60.2578L32.7771 58.6229L35.4159 60.2565C35.5464 60.3372 35.6944 60.3776 35.8411 60.3776C36.008 60.3776 36.1748 60.3264 36.3161 60.2228C36.5812 60.0304 36.7036 59.6953 36.6256 59.3778L35.8868 56.3636L38.2565 54.3586C38.5068 54.1473 38.6037 53.8042 38.5027 53.492C38.4005 53.1812 38.1206 52.9618 37.7936 52.9376ZM34.4618 55.4539C34.2277 55.6517 34.1268 55.9653 34.1994 56.2626L34.587 57.8437L33.2023 56.9866C33.0718 56.9058 32.9251 56.8655 32.7771 56.8655C32.6291 56.8655 32.4824 56.9058 32.3519 56.9866L30.9673 57.8437L31.3548 56.2626C31.4275 55.9653 31.3265 55.6517 31.0924 55.4539L29.849 54.403L31.4732 54.2832C31.7787 54.2604 32.0451 54.0666 32.1608 53.784L32.7771 52.2769L33.3934 53.784C33.5091 54.0679 33.7756 54.2617 34.081 54.2832L35.7052 54.403L34.4618 55.4539ZM51.126 52.9376L48.0311 52.7089L46.8564 49.8359C46.7326 49.5318 46.4365 49.334 46.1096 49.334C45.7826 49.334 45.4865 49.5318 45.3627 49.8359L44.188 52.7089L41.0931 52.9376C40.7661 52.9618 40.4862 53.1812 40.3853 53.4933C40.2844 53.8055 40.3812 54.1473 40.6315 54.3599L43.0012 56.3649L42.2624 59.3791C42.1844 59.698 42.3068 60.0317 42.5719 60.2242C42.7132 60.3264 42.8801 60.3789 43.0469 60.3789C43.1936 60.3789 43.3416 60.3385 43.4721 60.2578L46.1109 58.6242L48.7497 60.2578C49.0282 60.43 49.3835 60.4179 49.6499 60.2242C49.915 60.0317 50.0374 59.6967 49.9594 59.3791L49.2206 56.3649L51.5903 54.3599C51.8406 54.1487 51.9374 53.8055 51.8365 53.4933C51.7329 53.1812 51.453 52.9618 51.126 52.9376ZM47.7943 55.4539C47.5601 55.6517 47.4592 55.9653 47.5319 56.2626L47.9194 57.8437L46.5348 56.9866C46.2737 56.8251 45.9454 56.8251 45.6843 56.9866L44.2997 57.8437L44.6872 56.2626C44.7599 55.9653 44.659 55.6517 44.4248 55.4539L43.1815 54.403L44.8056 54.2832C45.1111 54.2604 45.3775 54.0666 45.4933 53.784L46.1096 52.2769L46.7258 53.784C46.8416 54.0679 47.108 54.2617 47.4135 54.2832L49.0376 54.403L47.7943 55.4539ZM65.1676 53.4933C65.0667 53.1812 64.7868 52.9618 64.4598 52.9376L61.3649 52.7089L60.1902 49.8359C60.0664 49.5318 59.7703 49.334 59.4433 49.334C59.115 49.334 58.8203 49.5318 58.6965 49.8359L57.5218 52.7089L54.4269 52.9376C54.0999 52.9618 53.82 53.1812 53.7191 53.4933C53.6181 53.8055 53.715 54.1473 53.9653 54.3599L56.3349 56.3649L55.5962 59.3791C55.5181 59.698 55.6406 60.0317 55.9057 60.2242C56.1708 60.4166 56.526 60.43 56.8059 60.2578L59.4447 58.6242L62.0834 60.2578C62.214 60.3385 62.362 60.3789 62.5087 60.3789C62.6755 60.3789 62.8424 60.3278 62.9837 60.2242C63.2488 60.0317 63.3712 59.6967 63.2932 59.3791L62.5544 56.3649L64.9241 54.3599C65.1717 54.1473 65.2685 53.8055 65.1676 53.4933ZM61.1267 55.4539C60.8926 55.6517 60.7916 55.9653 60.8643 56.2626L61.2519 57.8437L59.8672 56.9866C59.6062 56.8251 59.2778 56.8251 59.0168 56.9866L57.6321 57.8437L58.0197 56.2626C58.0923 55.9653 57.9914 55.6517 57.7573 55.4539L56.5139 54.403L58.1381 54.2832C58.4435 54.2604 58.71 54.0666 58.8257 53.784L59.442 52.2769L60.0583 53.784C60.174 54.0679 60.4404 54.2617 60.7459 54.2832L62.3701 54.403L61.1267 55.4539Z" fill="#E10006"/>
</svg>
