<svg width="221" height="52" viewBox="0 0 221 52" fill="none" xmlns="http://www.w3.org/2000/svg">
<g clip-path="url(#clip0_790_205)">
<path d="M13.5 23.2471L7.5 25.2471L4.5 26.7471C4.5 27.0805 4.4 27.8471 4 28.2471C3.5 28.7471 3 33.7471 3 34.7471C3 35.7471 2 38.2471 2 39.2471C2 40.2471 1 41.7471 0.5 42.7471C3.57628e-07 43.7471 2 43.7471 2.5 43.7471C3 43.7471 5.5 43.7471 8 44.2471C10.5 44.7471 9.5 44.2471 11 44.2471C12.5 44.2471 13.5 44.2471 15.5 44.7471C17.5 45.2471 18.5 43.7471 19 44.2471C19.5 44.7471 21.5 44.2471 25 44.2471C28.5 44.2471 26 43.7471 26.5 43.2471C27 42.7471 26 40.7471 26 39.7471C26 38.7471 26.5 38.7471 27 37.9824C27.5 37.2177 27.5 37.2471 29 36.7471C30.5 36.2471 31 36.2471 31.5 36.2471C32 36.2471 32 36.7471 33.5 37.7471C35 38.7471 34 39.2471 35 40.2471C36 41.2471 38 40.2471 40 40.2471C42 40.2471 43 39.7471 43.5 39.7471C44 39.7471 44 38.2471 44.5 36.7471C44.9 35.5471 43.3333 35.9138 42.5 36.2471H39C38.5 36.2471 37 33.2471 37 32.7471V30.2471C37 29.2471 37.5 27.7471 37.5 22.7471C37.5 19.2471 37.5 18.7471 37 18.7471C36.6 18.7471 37.6667 11.0805 37 10.7471L29 12.2471L25 13.2471L21.5 14.7471L19 16.7471L16.5 22.2471L13.5 23.2471Z" fill="#001F3F"/>
<path fill-rule="evenodd" clip-rule="evenodd" d="M5.46648 40.3803L4.77943 40.347V27.2094H5.46648V40.3803ZM7.17612 40.4644L6.48907 40.437V27.2094H7.17612V40.4644ZM8.88577 40.5466L8.19871 40.5134V27.2016H8.88577V40.5466ZM10.5954 40.6308L9.90835 40.5975V27.2094H10.5954V40.6308ZM12.305 40.713L11.618 40.6798V27.2094H12.305V40.713ZM14.0147 40.7972L13.3276 40.7639V27.2094H14.0147V40.7972ZM15.7243 40.8814L15.0373 40.8462V27.2094H15.7243V40.8814ZM17.434 40.9636L16.7469 40.9303V27.2094H17.434V40.9636ZM32.2655 31.4457C27.4721 30.8297 23.3878 31.9149 20.0124 34.7012C21.3843 34.5818 22.7667 34.7349 24.0768 35.1515C26.1446 32.6914 28.8742 31.4561 32.2655 31.4457ZM30.5219 38.405C29.763 38.405 29.1478 39.2096 29.1478 40.2021C29.1478 41.1946 29.763 41.9972 30.5219 41.9972C31.2809 41.9972 31.896 41.1946 31.896 40.2021C31.896 39.2096 31.2809 38.405 30.5219 38.405ZM29.9467 37.2833C28.0993 37.2833 26.5993 39.1685 26.5993 41.4941C26.5993 43.8198 28.0993 45.703 29.9467 45.703C31.7942 45.703 33.2941 43.8178 33.2941 41.4941C33.2941 41.41 33.2941 41.3258 33.2941 41.2436C33.1982 43.2012 31.912 44.7359 30.3382 44.7359C28.7024 44.7359 27.3763 43.0661 27.3763 41.0165C27.3763 39.0373 28.6026 37.4203 30.1524 37.297C30.0805 37.2853 30.0166 37.2833 29.9467 37.2833ZM43.6718 36.6451L43.6598 38.5186C39.0022 38.9669 36.1002 39.192 36.1002 39.192C33.7415 28.2607 23.6454 36.4122 24.9975 43.671L22.1055 44.1095L1.37213 43.0994C1.42273 42.5643 1.45002 42.191 1.45401 41.9796L20.1822 42.8938V41.0987L18.9838 41.04V28.9028C22.712 27.475 27.6559 26.0975 33.8154 24.7702C29.5852 24.6195 24.5262 24.6959 18.9838 25.8939C18.9279 25.9663 9.79651 25.5983 8.39844 25.612C8.39844 25.612 11.6979 24.0107 16.5871 22.842L16.5752 22.9027C16.9466 22.7872 17.3521 22.6756 17.7915 22.5718C22.2773 21.6381 26.2778 21.7477 30.8335 22.1177C30.8934 21.8847 31.1291 18.8034 31.4646 17.4018C27.3044 17.0905 23.1421 17.2941 18.9818 17.4018C20.7115 13.6451 31.1171 12.0046 36.9031 11.6444V13.1009L36.5037 13.3613L36.9031 13.2086V17.9382L32.8367 17.5329C32.4553 19.9075 32.2635 22.3585 32.2635 22.3585C34.2435 22.6443 35.7893 22.8968 36.9011 23.1161V32.45C36.2528 32.1788 35.55 32.0556 34.846 32.0898C36.5303 32.9015 37.5043 34.4735 37.7679 36.8056L43.6718 36.6451ZM22.8425 36.467H20.6655V39.3858H22.8425V36.467ZM63.4585 39.9457C63.1669 39.5111 63.083 39.0178 62.6596 38.7124H74.4953V39.8341L63.4585 39.9457ZM52.6734 38.5518C52.0362 38.5695 51.5409 39.2605 51.5649 40.0925C51.5889 40.9245 52.1281 41.5842 52.7632 41.5666C53.3984 41.5489 53.8957 40.8579 53.8697 40.0259C53.8438 39.1939 53.3205 38.5323 52.6834 38.5518H52.6734ZM59.6238 38.5088C58.9867 38.5088 58.4694 39.1841 58.4694 40.0161C58.4694 40.8481 58.9867 41.5235 59.6238 41.5235C60.2609 41.5235 60.7762 40.8501 60.7762 40.0161C60.7762 39.1822 60.2709 38.5088 59.6338 38.5088H59.6238ZM59.1404 37.5672C57.5886 37.5672 56.3303 39.1489 56.3303 41.1007C56.3303 43.0524 57.5886 44.6361 59.1404 44.6361C60.6923 44.6361 61.9506 43.0524 61.9506 41.1007C61.9506 41.0302 61.9506 40.9597 61.9506 40.8912C61.8687 42.5278 60.7882 43.8276 59.468 43.8276C58.0939 43.8276 56.9814 42.4279 56.9814 40.6954C56.9814 39.0354 58.01 37.6768 59.3122 37.575L59.1404 37.5672ZM52.1621 37.6239C50.6102 37.669 49.4019 39.2879 49.4598 41.2377C49.5177 43.1875 50.8359 44.7438 52.3858 44.6909C53.9356 44.6381 55.148 43.0269 55.088 41.0752C55.088 41.0047 55.088 40.9343 55.076 40.8657C55.0461 42.5043 54.0055 43.8296 52.6794 43.8668C51.3052 43.9079 50.1508 42.5395 50.0989 40.8129C50.049 39.1528 51.0356 37.7649 52.3338 37.6259C52.28 37.6225 52.226 37.6219 52.1721 37.6239H52.1621ZM79.8799 40.6093C79.5044 40.6093 79.2108 41.0282 79.2247 41.5215C79.2387 42.0149 79.5583 42.4044 79.9338 42.3927C80.3093 42.3809 80.6048 41.9737 80.5909 41.4804C80.5769 40.9871 80.2673 40.5975 79.8898 40.6093H79.8799ZM83.9942 40.5838C83.6167 40.5838 83.3111 40.9754 83.3111 41.4746C83.3111 41.9737 83.6167 42.3672 83.9942 42.3672C84.3717 42.3672 84.6772 41.9757 84.6772 41.4746C84.6772 40.9734 84.3796 40.5838 84.0042 40.5838H83.9942ZM83.7085 40.0259C82.7898 40.0259 82.0449 40.9617 82.0449 42.1167C82.0449 43.2716 82.7898 44.2093 83.7085 44.2093C84.6273 44.2093 85.3723 43.2716 85.3723 42.1167C85.3723 42.0755 85.3723 42.0344 85.3723 41.9933C85.3243 42.9604 84.6852 43.7278 83.9023 43.7278C83.1194 43.7278 82.4323 42.8997 82.4323 41.8759C82.4323 40.8971 83.0315 40.0886 83.8104 40.0298C83.7799 40.0268 83.7492 40.0255 83.7186 40.0259H83.7085ZM79.5783 40.0592C78.6595 40.0866 77.9445 41.038 77.9805 42.1989C78.0164 43.3597 78.7794 44.2681 79.7061 44.2407C80.6328 44.2133 81.3418 43.2619 81.3039 42.103V41.9777C81.2839 42.9565 80.6687 43.7395 79.8878 43.7552C79.0749 43.7787 78.3919 42.9721 78.3599 41.9463C78.33 40.9675 78.9152 40.1434 79.6821 40.0612L79.5783 40.0592ZM20.0983 19.379C22.9424 18.7447 26.1965 18.361 29.8608 18.2279C25.2206 18.1496 21.7274 18.2057 19.3813 18.3963C18.8156 19.4011 18.4273 20.4926 18.2329 21.6244C18.7017 20.7654 19.3351 20.003 20.0983 19.379ZM80.7047 45.1353C80.8829 44.9861 81.0254 44.8003 81.1221 44.5911C81.3073 44.7813 81.5152 44.9489 81.7413 45.0903L80.7047 45.1353ZM61.647 45.9477C62.6336 45.2586 63.1689 43.9098 63.5004 41.5196L75.6717 41.1085C75.7795 43.115 75.9732 44.5754 77.2854 45.2802L61.647 45.9477ZM53.5841 46.3099C54.6187 46.1141 55.4016 45.8439 56.0108 45.3311C56.3611 45.6677 56.766 45.9449 57.2091 46.1513L53.5841 46.3099ZM45.0539 46.674C45.6074 46.399 46.0723 45.979 46.3971 45.4606C46.7218 44.9423 46.8936 44.3458 46.8933 43.7376V42.0814L47.167 42.0521C47.2768 43.9979 48.3354 46.026 50.9138 46.4156L45.0539 46.674ZM41.313 46.8345C41.5291 46.7854 41.7398 46.716 41.9422 46.627C42.0575 46.6887 42.1762 46.7443 42.2977 46.7934L41.313 46.8345ZM33.5637 47.1653C34.5624 46.1474 35.4032 44.7007 36.1262 43.2305L37.2167 43.115V43.6338C37.2193 44.4258 37.5128 45.1903 38.0435 45.7874C38.5743 46.3846 39.3067 46.7743 40.1067 46.8854L33.5637 47.1653ZM13.4555 48.0247C14.7557 47.4277 15.7942 45.9947 15.8522 44.9611L22.4271 45.2821C22.6528 46.3373 23.4157 47.0557 24.4403 47.5451L13.4555 48.0247ZM47.4086 9.87867C61.8387 14.3812 83.1393 21.2779 85.9674 22.0159C69.0188 14.6807 46.5718 6.30016 46.5718 6.30016L38.8404 7.60784V11.5779H39.2399L38.8404 11.8402V12.5312C40.3397 12.0431 41.4662 11.8004 42.2198 11.803L43.8176 12.8131L43.6758 36.1303L40.63 35.9697C39.7459 34.5942 38.8085 33.5847 37.8179 32.9413V3.99996H36.9011V7.91519L30.6597 8.9723L30.5459 11.4428C29.1598 11.8206 27.8935 12.1378 26.7351 12.4373V5.03554H25.2472V12.8445C20.31 14.2148 17.6417 15.6771 16.1677 21.7281C8.6381 23.212 3.02185 25.3203 3.00787 28.0336L2.98391 33.0177C1.70567 33.6793 0.920746 34.3156 0.629148 34.9263L2.28882e-05 42.8958L0.772956 43.6788V44.1839L7.6954 44.548C7.68 44.6451 7.67266 44.7434 7.67344 44.8417C7.67344 46.212 8.6481 47.8818 10.4117 48.152L3.74086 48.4378V50.0039L87 46.4469V44.8808L85.1506 44.9611C85.6028 44.6123 85.9666 44.1658 86.2136 43.6564C86.4607 43.147 86.5842 42.5886 86.5746 42.0246C86.5801 41.2006 86.31 40.3975 85.8057 39.7382L86.978 39.466L86.8922 37.438L47.4166 35.1045V27.7987L86.5207 33.509L47.4166 25.892V22.0355L86.6365 29.8659L47.4166 20.1287V16.0745L86.98 25.4123L47.4166 14.1463L47.4086 9.87867Z" fill="white"/>
</g>
<path d="M220.381 9.18179V13.1591H207.838V9.18179H220.381ZM210.935 3.95451H216.077V24.4375C216.077 25.1288 216.181 25.6591 216.389 26.0284C216.607 26.3882 216.891 26.6344 217.241 26.767C217.592 26.8996 217.98 26.9659 218.406 26.9659C218.728 26.9659 219.022 26.9422 219.287 26.8949C219.562 26.8475 219.77 26.8049 219.912 26.767L220.778 30.7869C220.504 30.8816 220.111 30.9858 219.599 31.0994C219.098 31.213 218.482 31.2793 217.753 31.2983C216.465 31.3361 215.305 31.142 214.273 30.7159C213.241 30.2803 212.421 29.6079 211.815 28.6988C211.219 27.7897 210.925 26.6534 210.935 25.2897V3.95451Z" fill="white"/>
<path d="M199.056 31V9.18179H204.198V31H199.056ZM201.641 6.0852C200.827 6.0852 200.126 5.81531 199.539 5.27554C198.952 4.72629 198.658 4.06815 198.658 3.3011C198.658 2.52459 198.952 1.86644 199.539 1.32667C200.126 0.777428 200.827 0.502808 201.641 0.502808C202.465 0.502808 203.166 0.777428 203.744 1.32667C204.331 1.86644 204.624 2.52459 204.624 3.3011C204.624 4.06815 204.331 4.72629 203.744 5.27554C203.166 5.81531 202.465 6.0852 201.641 6.0852Z" fill="white"/>
<path d="M176.311 31V27.7329L187.561 13.6278V13.4431H176.68V9.18179H193.854V12.6903L183.143 26.5539V26.7386H194.223V31H176.311Z" fill="white"/>
<path d="M157.362 18.2159V31H152.22V9.18179H157.135V12.8892H157.391C157.893 11.6676 158.693 10.6969 159.791 9.97724C160.899 9.25755 162.268 8.8977 163.896 8.8977C165.402 8.8977 166.714 9.21967 167.831 9.86361C168.958 10.5075 169.829 11.4403 170.445 12.6619C171.07 13.8835 171.377 15.3655 171.368 17.1079V31H166.226V17.9034C166.226 16.445 165.847 15.3039 165.089 14.4801C164.341 13.6562 163.304 13.2443 161.979 13.2443C161.079 13.2443 160.279 13.4432 159.578 13.8409C158.887 14.2291 158.342 14.7926 157.945 15.5312C157.556 16.2699 157.362 17.1647 157.362 18.2159Z" fill="white"/>
<path d="M135.53 31.4403C134.147 31.4403 132.902 31.1941 131.794 30.7017C130.696 30.1998 129.824 29.4611 129.18 28.4858C128.546 27.5104 128.229 26.3077 128.229 24.8778C128.229 23.6467 128.456 22.6288 128.911 21.8238C129.365 21.0189 129.985 20.375 130.771 19.892C131.557 19.4091 132.443 19.0445 133.428 18.7983C134.422 18.5426 135.449 18.3579 136.51 18.2443C137.788 18.1117 138.825 17.9933 139.621 17.8892C140.416 17.7755 140.994 17.6051 141.354 17.3778C141.723 17.1411 141.908 16.7765 141.908 16.2841V16.1988C141.908 15.1288 141.59 14.3002 140.956 13.713C140.322 13.1259 139.408 12.8324 138.214 12.8324C136.955 12.8324 135.956 13.107 135.217 13.6562C134.488 14.2055 133.996 14.8541 133.74 15.6022L128.939 14.9204C129.318 13.5947 129.943 12.4867 130.814 11.5966C131.685 10.6969 132.75 10.0246 134.01 9.57951C135.269 9.12497 136.661 8.8977 138.186 8.8977C139.237 8.8977 140.284 9.0208 141.325 9.26701C142.367 9.51323 143.319 9.92042 144.18 10.4886C145.042 11.0473 145.733 11.8096 146.254 12.7755C146.785 13.7414 147.05 14.9488 147.05 16.3977V31H142.107V28.0028H141.936C141.624 28.6089 141.183 29.1771 140.615 29.7074C140.056 30.2282 139.351 30.6496 138.499 30.9716C137.656 31.2841 136.666 31.4403 135.53 31.4403ZM136.865 27.6619C137.897 27.6619 138.792 27.4583 139.55 27.0511C140.307 26.6344 140.89 26.0852 141.297 25.4034C141.714 24.7216 141.922 23.9782 141.922 23.1733V20.6022C141.761 20.7348 141.486 20.8579 141.098 20.9716C140.719 21.0852 140.293 21.1846 139.82 21.2699C139.346 21.3551 138.877 21.4308 138.413 21.4971C137.949 21.5634 137.547 21.6202 137.206 21.6676C136.439 21.7718 135.752 21.9422 135.146 22.1789C134.54 22.4157 134.062 22.7471 133.712 23.1733C133.361 23.5899 133.186 24.1297 133.186 24.7926C133.186 25.7396 133.532 26.4545 134.223 26.9375C134.914 27.4204 135.795 27.6619 136.865 27.6619Z" fill="white"/>
<path d="M113.783 31V9.18179H118.768V12.8181H118.996C119.393 11.5587 120.075 10.588 121.041 9.90622C122.017 9.21493 123.129 8.86929 124.379 8.86929C124.663 8.86929 124.981 8.88349 125.331 8.9119C125.691 8.93084 125.989 8.96398 126.226 9.01133V13.7414C126.008 13.6657 125.662 13.5994 125.189 13.5426C124.725 13.4763 124.275 13.4431 123.839 13.4431C122.902 13.4431 122.059 13.6467 121.311 14.0539C120.572 14.4517 119.99 15.0056 119.564 15.7159C119.138 16.4261 118.925 17.2452 118.925 18.1733V31H113.783Z" fill="white"/>
<path d="M88.5909 6.32667V1.90906H111.801V6.32667H102.81V31H97.5824V6.32667H88.5909Z" fill="white"/>
<path d="M218.611 47.0712C218.611 46.9149 218.575 46.7704 218.505 46.6376C218.439 46.5009 218.3 46.3778 218.089 46.2684C217.882 46.1552 217.569 46.0575 217.152 45.9755C216.8 45.9012 216.482 45.8134 216.196 45.7118C215.915 45.6102 215.675 45.4872 215.476 45.3427C215.28 45.1981 215.13 45.0282 215.025 44.8329C214.919 44.6376 214.866 44.4091 214.866 44.1473C214.866 43.8973 214.921 43.661 215.03 43.4384C215.144 43.2157 215.302 43.0184 215.505 42.8466C215.712 42.6747 215.96 42.5399 216.249 42.4423C216.538 42.3446 216.861 42.2958 217.216 42.2958C217.724 42.2958 218.157 42.3856 218.517 42.5653C218.876 42.745 219.152 42.9852 219.343 43.286C219.534 43.5829 219.63 43.913 219.63 44.2762H218.546C218.546 44.1005 218.493 43.9305 218.388 43.7665C218.286 43.5985 218.136 43.4598 217.937 43.3505C217.741 43.2411 217.501 43.1864 217.216 43.1864C216.915 43.1864 216.671 43.2333 216.484 43.327C216.3 43.4169 216.165 43.5321 216.079 43.6727C215.997 43.8134 215.956 43.9618 215.956 44.118C215.956 44.2352 215.976 44.3407 216.015 44.4344C216.058 44.5243 216.132 44.6083 216.237 44.6864C216.343 44.7606 216.491 44.8309 216.683 44.8973C216.874 44.9637 217.118 45.0302 217.415 45.0966C217.935 45.2137 218.362 45.3544 218.698 45.5184C219.034 45.6825 219.284 45.8837 219.448 46.1219C219.612 46.3602 219.694 46.6493 219.694 46.9891C219.694 47.2665 219.636 47.5204 219.519 47.7509C219.405 47.9813 219.239 48.1805 219.021 48.3485C218.806 48.5126 218.548 48.6415 218.247 48.7352C217.95 48.8251 217.616 48.87 217.245 48.87C216.687 48.87 216.214 48.7704 215.827 48.5712C215.441 48.3719 215.148 48.1141 214.948 47.7977C214.749 47.4813 214.65 47.1473 214.65 46.7958H215.739C215.755 47.0927 215.841 47.329 215.997 47.5048C216.153 47.6766 216.345 47.7997 216.571 47.8739C216.798 47.9442 217.023 47.9794 217.245 47.9794C217.542 47.9794 217.79 47.9403 217.989 47.8622C218.193 47.7841 218.347 47.6766 218.452 47.5399C218.558 47.4032 218.611 47.2469 218.611 47.0712Z" fill="white"/>
<path d="M201.575 47.9794C201.833 47.9794 202.071 47.9266 202.29 47.8212C202.509 47.7157 202.688 47.5712 202.829 47.3876C202.969 47.2001 203.05 46.9872 203.069 46.7489H204.1C204.081 47.1239 203.954 47.4735 203.719 47.7977C203.489 48.118 203.186 48.3778 202.811 48.577C202.436 48.7723 202.024 48.87 201.575 48.87C201.098 48.87 200.682 48.786 200.327 48.618C199.975 48.4501 199.682 48.2196 199.448 47.9266C199.218 47.6337 199.044 47.2977 198.927 46.9188C198.813 46.536 198.757 46.1317 198.757 45.7059V45.4598C198.757 45.0341 198.813 44.6317 198.927 44.2528C199.044 43.87 199.218 43.5321 199.448 43.2391C199.682 42.9462 199.975 42.7157 200.327 42.5477C200.682 42.3798 201.098 42.2958 201.575 42.2958C202.071 42.2958 202.505 42.3973 202.876 42.6005C203.247 42.7997 203.538 43.0731 203.749 43.4208C203.964 43.7645 204.081 44.1552 204.1 44.5927H203.069C203.05 44.3309 202.975 44.0946 202.846 43.8837C202.721 43.6727 202.55 43.5048 202.331 43.3798C202.116 43.2509 201.864 43.1864 201.575 43.1864C201.243 43.1864 200.964 43.2528 200.737 43.3856C200.514 43.5145 200.337 43.6903 200.204 43.913C200.075 44.1317 199.981 44.3759 199.923 44.6454C199.868 44.911 199.841 45.1825 199.841 45.4598V45.7059C199.841 45.9833 199.868 46.2567 199.923 46.5262C199.977 46.7958 200.069 47.0399 200.198 47.2587C200.331 47.4774 200.509 47.6532 200.731 47.786C200.958 47.9149 201.239 47.9794 201.575 47.9794Z" fill="white"/>
<path d="M187.698 42.413V48.7528H186.608V42.413H187.698ZM186.526 40.7313C186.526 40.5555 186.578 40.4071 186.684 40.286C186.793 40.1649 186.953 40.1044 187.164 40.1044C187.371 40.1044 187.53 40.1649 187.639 40.286C187.752 40.4071 187.809 40.5555 187.809 40.7313C187.809 40.8993 187.752 41.0438 187.639 41.1649C187.53 41.2821 187.371 41.3407 187.164 41.3407C186.953 41.3407 186.793 41.2821 186.684 41.1649C186.578 41.0438 186.526 40.8993 186.526 40.7313Z" fill="white"/>
<path d="M175.648 42.413V43.245H172.221V42.413H175.648ZM173.381 40.8719H174.465V47.1825C174.465 47.3973 174.498 47.5594 174.564 47.6688C174.631 47.7782 174.717 47.8505 174.822 47.8856C174.928 47.9208 175.041 47.9384 175.162 47.9384C175.252 47.9384 175.346 47.9305 175.443 47.9149C175.545 47.8954 175.621 47.8798 175.672 47.868L175.678 48.7528C175.592 48.7802 175.478 48.8055 175.338 48.829C175.201 48.8563 175.035 48.87 174.84 48.87C174.574 48.87 174.33 48.8173 174.107 48.7118C173.885 48.6063 173.707 48.4305 173.574 48.1844C173.445 47.9344 173.381 47.5985 173.381 47.1766V40.8719Z" fill="white"/>
<path d="M160.886 47.0712C160.886 46.9149 160.851 46.7704 160.781 46.6376C160.714 46.5009 160.576 46.3778 160.365 46.2684C160.158 46.1552 159.845 46.0575 159.427 45.9755C159.076 45.9012 158.757 45.8134 158.472 45.7118C158.191 45.6102 157.951 45.4872 157.752 45.3427C157.556 45.1981 157.406 45.0282 157.3 44.8329C157.195 44.6376 157.142 44.4091 157.142 44.1473C157.142 43.8973 157.197 43.661 157.306 43.4384C157.419 43.2157 157.578 43.0184 157.781 42.8466C157.988 42.6747 158.236 42.5399 158.525 42.4423C158.814 42.3446 159.136 42.2958 159.492 42.2958C160 42.2958 160.433 42.3856 160.793 42.5653C161.152 42.745 161.427 42.9852 161.619 43.286C161.81 43.5829 161.906 43.913 161.906 44.2762H160.822C160.822 44.1005 160.769 43.9305 160.664 43.7665C160.562 43.5985 160.412 43.4598 160.212 43.3505C160.017 43.2411 159.777 43.1864 159.492 43.1864C159.191 43.1864 158.947 43.2333 158.759 43.327C158.576 43.4169 158.441 43.5321 158.355 43.6727C158.273 43.8134 158.232 43.9618 158.232 44.118C158.232 44.2352 158.252 44.3407 158.291 44.4344C158.334 44.5243 158.408 44.6083 158.513 44.6864C158.619 44.7606 158.767 44.8309 158.959 44.8973C159.15 44.9637 159.394 45.0302 159.691 45.0966C160.211 45.2137 160.638 45.3544 160.974 45.5184C161.31 45.6825 161.56 45.8837 161.724 46.1219C161.888 46.3602 161.97 46.6493 161.97 46.9891C161.97 47.2665 161.912 47.5204 161.794 47.7509C161.681 47.9813 161.515 48.1805 161.296 48.3485C161.082 48.5126 160.824 48.6415 160.523 48.7352C160.226 48.8251 159.892 48.87 159.521 48.87C158.962 48.87 158.49 48.7704 158.103 48.5712C157.716 48.3719 157.423 48.1141 157.224 47.7977C157.025 47.4813 156.925 47.1473 156.925 46.7958H158.015C158.031 47.0927 158.117 47.329 158.273 47.5048C158.429 47.6766 158.621 47.7997 158.847 47.8739C159.074 47.9442 159.298 47.9794 159.521 47.9794C159.818 47.9794 160.066 47.9403 160.265 47.8622C160.468 47.7841 160.623 47.6766 160.728 47.5399C160.834 47.4032 160.886 47.2469 160.886 47.0712Z" fill="white"/>
<path d="M145.855 42.413V48.7528H144.765V42.413H145.855ZM144.683 40.7313C144.683 40.5555 144.736 40.4071 144.841 40.286C144.95 40.1649 145.111 40.1044 145.321 40.1044C145.528 40.1044 145.687 40.1649 145.796 40.286C145.909 40.4071 145.966 40.5555 145.966 40.7313C145.966 40.8993 145.909 41.0438 145.796 41.1649C145.687 41.2821 145.528 41.3407 145.321 41.3407C145.111 41.3407 144.95 41.2821 144.841 41.1649C144.736 41.0438 144.683 40.8993 144.683 40.7313Z" fill="white"/>
<path d="M132.446 42.413H133.43V48.618C133.43 49.1766 133.317 49.6532 133.091 50.0477C132.864 50.4423 132.548 50.7411 132.141 50.9442C131.739 51.1512 131.274 51.2548 130.747 51.2548C130.528 51.2548 130.27 51.2196 129.973 51.1493C129.68 51.0829 129.391 50.9677 129.106 50.8036C128.825 50.6434 128.589 50.4266 128.397 50.1532L128.966 49.5087C129.231 49.829 129.509 50.0516 129.798 50.1766C130.091 50.3016 130.38 50.3641 130.665 50.3641C131.009 50.3641 131.305 50.2997 131.555 50.1708C131.805 50.0419 131.999 49.8505 132.136 49.5966C132.276 49.3466 132.346 49.038 132.346 48.6708V43.8075L132.446 42.413ZM128.081 45.6532V45.5302C128.081 45.0458 128.137 44.6063 128.251 44.2118C128.368 43.8134 128.534 43.4716 128.749 43.1864C128.968 42.9012 129.231 42.6825 129.54 42.5302C129.848 42.3739 130.196 42.2958 130.583 42.2958C130.981 42.2958 131.329 42.3661 131.626 42.5067C131.927 42.6434 132.18 42.8446 132.387 43.1102C132.598 43.3719 132.764 43.6884 132.886 44.0594C133.007 44.4305 133.091 44.8505 133.137 45.3192V45.8583C133.094 46.3231 133.011 46.7411 132.886 47.1122C132.764 47.4833 132.598 47.7997 132.387 48.0614C132.18 48.3231 131.927 48.5243 131.626 48.6649C131.325 48.8016 130.973 48.87 130.571 48.87C130.192 48.87 129.848 48.7899 129.54 48.6298C129.235 48.4696 128.973 48.245 128.755 47.9559C128.536 47.6669 128.368 47.327 128.251 46.9364C128.137 46.5419 128.081 46.1141 128.081 45.6532ZM129.165 45.5302V45.6532C129.165 45.9696 129.196 46.2665 129.259 46.5438C129.325 46.8212 129.425 47.0653 129.557 47.2762C129.694 47.4872 129.868 47.6532 130.079 47.7743C130.29 47.8915 130.542 47.9501 130.835 47.9501C131.194 47.9501 131.491 47.8739 131.725 47.7216C131.96 47.5692 132.145 47.368 132.282 47.118C132.423 46.868 132.532 46.5966 132.61 46.3036V44.8915C132.567 44.6766 132.501 44.4696 132.411 44.2704C132.325 44.0673 132.212 43.8876 132.071 43.7313C131.934 43.5712 131.764 43.4442 131.561 43.3505C131.358 43.2567 131.12 43.2098 130.846 43.2098C130.55 43.2098 130.294 43.2723 130.079 43.3973C129.868 43.5184 129.694 43.6864 129.557 43.9012C129.425 44.1122 129.325 44.3583 129.259 44.6395C129.196 44.9169 129.165 45.2137 129.165 45.5302Z" fill="white"/>
<path d="M111.608 45.6532V45.5184C111.608 45.0614 111.674 44.6376 111.807 44.2469C111.94 43.8524 112.131 43.5106 112.381 43.2216C112.631 42.9286 112.934 42.702 113.289 42.5419C113.645 42.3778 114.043 42.2958 114.485 42.2958C114.93 42.2958 115.33 42.3778 115.686 42.5419C116.045 42.702 116.35 42.9286 116.6 43.2216C116.854 43.5106 117.047 43.8524 117.18 44.2469C117.313 44.6376 117.379 45.0614 117.379 45.5184V45.6532C117.379 46.1102 117.313 46.5341 117.18 46.9247C117.047 47.3153 116.854 47.6571 116.6 47.9501C116.35 48.2391 116.047 48.4657 115.692 48.6298C115.34 48.7899 114.942 48.87 114.496 48.87C114.051 48.87 113.651 48.7899 113.295 48.6298C112.94 48.4657 112.635 48.2391 112.381 47.9501C112.131 47.6571 111.94 47.3153 111.807 46.9247C111.674 46.5341 111.608 46.1102 111.608 45.6532ZM112.692 45.5184V45.6532C112.692 45.9696 112.729 46.2684 112.803 46.5497C112.877 46.827 112.989 47.0731 113.137 47.288C113.289 47.5028 113.479 47.6727 113.705 47.7977C113.932 47.9188 114.196 47.9794 114.496 47.9794C114.793 47.9794 115.053 47.9188 115.276 47.7977C115.502 47.6727 115.69 47.5028 115.838 47.288C115.987 47.0731 116.098 46.827 116.172 46.5497C116.25 46.2684 116.289 45.9696 116.289 45.6532V45.5184C116.289 45.2059 116.25 44.911 116.172 44.6337C116.098 44.3524 115.985 44.1044 115.832 43.8895C115.684 43.6708 115.496 43.4989 115.27 43.3739C115.047 43.2489 114.786 43.1864 114.485 43.1864C114.188 43.1864 113.926 43.2489 113.7 43.3739C113.477 43.4989 113.289 43.6708 113.137 43.8895C112.989 44.1044 112.877 44.3524 112.803 44.6337C112.729 44.911 112.692 45.2059 112.692 45.5184Z" fill="white"/>
<path d="M101.164 47.8329V48.7528H96.8984V47.8329H101.164ZM97.1211 40.2216V48.7528H95.9902V40.2216H97.1211Z" fill="white"/>
<defs>
<clipPath id="clip0_790_205">
<rect width="87" height="46" fill="white" transform="translate(0 3.99997)"/>
</clipPath>
</defs>
</svg>
