<svg width="222" height="51" viewBox="0 0 222 51" fill="none" xmlns="http://www.w3.org/2000/svg">
<path d="M13.5 21L7.49999 23L4.49998 24.5C4.49998 24.8333 4.39998 25.6 3.99998 26C3.49998 26.5 2.99998 31.5 2.99998 32.5C2.99998 33.5 1.99998 36 1.99998 37C1.99998 38 0.999985 39.5 0.499985 40.5C-1.49012e-05 41.5 1.99998 41.5 2.49998 41.5C2.99998 41.5 5.49999 41.5 7.99999 42C10.5 42.5 9.49998 42 11 42C12.5 42 13.5 42 15.5 42.5C17.5 43 18.5 41.5 19 42C19.5 42.5 21.5 42 25 42C28.5 42 26 41.5 26.5 41C27 40.5 26 38.5 26 37.5C26 36.5 26.5 36.5 27 35.7353C27.5 34.9706 27.5 35 29 34.5C30.5 34 31 34 31.5 34C32 34 32 34.5 33.5 35.5C35 36.5 34 37 35 38C36 39 38 38 40 38C42 38 43 37.5 43.5 37.5C44 37.5 44 36 44.5 34.5C44.9 33.3 43.3333 33.6667 42.5 34H39C38.5 34 37 31 37 30.5V28C37 27 37.5 25.5 37.5 20.5C37.5 17 37.5 16.5 37 16.5C36.6 16.5 37.6667 8.83333 37 8.5L29 10L25 11L21.5 12.5L19 14.5L16.5 20L13.5 21Z" fill="white"/>
<path fill-rule="evenodd" clip-rule="evenodd" d="M5.46646 38.1331L4.77941 38.0998V24.9623H5.46646V38.1331ZM7.1761 38.2173L6.48905 38.1899V24.9623H7.1761V38.2173ZM8.88574 38.2995L8.19869 38.2662V24.9545H8.88574V38.2995ZM10.5954 38.3837L9.90833 38.3504V24.9623H10.5954V38.3837ZM12.305 38.4659L11.618 38.4326V24.9623H12.305V38.4659ZM14.0147 38.5501L13.3276 38.5168V24.9623H14.0147V38.5501ZM15.7243 38.6343L15.0373 38.599V24.9623H15.7243V38.6343ZM17.4339 38.7165L16.7469 38.6832V24.9623H17.4339V38.7165ZM32.2655 29.1986C27.4721 28.5826 23.3877 29.6678 20.0124 32.4541C21.3843 32.3347 22.7667 32.4878 24.0768 32.9043C26.1446 30.4443 28.8742 29.209 32.2655 29.1986ZM30.5219 36.1579C29.763 36.1579 29.1478 36.9625 29.1478 37.955C29.1478 38.9475 29.763 39.7501 30.5219 39.7501C31.2809 39.7501 31.896 38.9475 31.896 37.955C31.896 36.9625 31.2809 36.1579 30.5219 36.1579ZM29.9467 35.0362C28.0992 35.0362 26.5993 36.9214 26.5993 39.247C26.5993 41.5727 28.0992 43.4559 29.9467 43.4559C31.7941 43.4559 33.2941 41.5707 33.2941 39.247C33.2941 39.1628 33.2941 39.0787 33.2941 38.9964C33.1982 40.954 31.912 42.4888 30.3381 42.4888C28.7024 42.4888 27.3762 40.819 27.3762 38.7694C27.3762 36.7902 28.6025 35.1732 30.1524 35.0499C30.0805 35.0381 30.0166 35.0362 29.9467 35.0362ZM43.6718 34.398L43.6598 36.2714C39.0022 36.7197 36.1002 36.9449 36.1002 36.9449C33.7415 26.0135 23.6454 34.165 24.9975 41.4239L22.1055 41.8624L1.37211 40.8522C1.4227 40.3172 1.44999 39.9439 1.45399 39.7325L20.1822 40.6467V38.8516L18.9838 38.7928V26.6556C22.712 25.2279 27.6559 23.8504 33.8154 22.5231C29.5852 22.3724 24.5262 22.4487 18.9838 23.6468C18.9279 23.7192 9.79648 23.3512 8.39841 23.3649C8.39841 23.3649 11.6979 21.7636 16.5871 20.5949L16.5751 20.6556C16.9466 20.5401 17.3521 20.4285 17.7915 20.3247C22.2773 19.3909 26.2778 19.5006 30.8335 19.8706C30.8934 19.6376 31.1291 16.5563 31.4646 15.1547C27.3043 14.8434 23.1421 15.047 18.9818 15.1547C20.7114 11.398 31.1171 9.75752 36.9031 9.39732V10.8538L36.5036 11.1141L36.9031 10.9615V15.691L32.8367 15.2858C32.4552 17.6604 32.2635 20.1113 32.2635 20.1113C34.2434 20.3971 35.7893 20.6497 36.9011 20.8689V30.2028C36.2527 29.9317 35.55 29.8085 34.8459 29.8426C36.5303 30.6544 37.5043 32.2264 37.7679 34.5585L43.6718 34.398ZM22.8425 34.2199H20.6655V37.1387H22.8425V34.2199ZM63.4585 37.6985C63.1669 37.2639 63.083 36.7706 62.6596 36.4652H74.4952V37.5869L63.4585 37.6985ZM52.6733 36.3047C52.0362 36.3223 51.5409 37.0134 51.5649 37.8454C51.5888 38.6773 52.1281 39.3371 52.7632 39.3194C53.3983 39.3018 53.8957 38.6108 53.8697 37.7788C53.8437 36.9468 53.3205 36.2851 52.6833 36.3047H52.6733ZM59.6238 36.2616C58.9866 36.2616 58.4694 36.937 58.4694 37.769C58.4694 38.601 58.9866 39.2764 59.6238 39.2764C60.2609 39.2764 60.7762 38.6029 60.7762 37.769C60.7762 36.9351 60.2709 36.2616 59.6337 36.2616H59.6238ZM59.1404 35.32C57.5886 35.32 56.3303 36.9018 56.3303 38.8535C56.3303 40.8053 57.5886 42.389 59.1404 42.389C60.6923 42.389 61.9506 40.8053 61.9506 38.8535C61.9506 38.7831 61.9506 38.7126 61.9506 38.6441C61.8687 40.2806 60.7882 41.5805 59.468 41.5805C58.0939 41.5805 56.9814 40.1808 56.9814 38.4483C56.9814 36.7882 58.01 35.4297 59.3122 35.3279L59.1404 35.32ZM52.1621 35.3768C50.6102 35.4218 49.4019 37.0408 49.4598 38.9906C49.5177 40.9403 50.8359 42.4966 52.3857 42.4438C53.9356 42.3909 55.1479 40.7798 55.088 38.8281C55.088 38.7576 55.088 38.6871 55.076 38.6186C55.0461 40.2571 54.0055 41.5824 52.6793 41.6196C51.3052 41.6608 50.1508 40.2924 50.0989 38.5658C50.049 36.9057 51.0356 35.5178 52.3338 35.3788C52.28 35.3754 52.226 35.3747 52.172 35.3768H52.1621ZM79.8798 38.3622C79.5043 38.3622 79.2107 38.7811 79.2247 39.2744C79.2387 39.7677 79.5583 40.1573 79.9338 40.1455C80.3092 40.1338 80.6048 39.7266 80.5908 39.2333C80.5769 38.74 80.2673 38.3504 79.8898 38.3622H79.8798ZM83.9941 38.3367C83.6167 38.3367 83.3111 38.7282 83.3111 39.2274C83.3111 39.7266 83.6167 40.1201 83.9941 40.1201C84.3716 40.1201 84.6772 39.7286 84.6772 39.2274C84.6772 38.7263 84.3796 38.3367 84.0041 38.3367H83.9941ZM83.7085 37.7788C82.7898 37.7788 82.0448 38.7145 82.0448 39.8695C82.0448 41.0245 82.7898 41.9622 83.7085 41.9622C84.6273 41.9622 85.3723 41.0245 85.3723 39.8695C85.3723 39.8284 85.3723 39.7873 85.3723 39.7462C85.3243 40.7133 84.6852 41.4806 83.9023 41.4806C83.1194 41.4806 82.4323 40.6526 82.4323 39.6287C82.4323 38.6499 83.0315 37.8414 83.8104 37.7827C83.7799 37.7797 83.7492 37.7784 83.7185 37.7788H83.7085ZM79.5782 37.8121C78.6595 37.8395 77.9445 38.7909 77.9804 39.9517C78.0164 41.1126 78.7794 42.0209 79.7061 41.9935C80.6328 41.9661 81.3418 41.0147 81.3039 39.8558V39.7305C81.2839 40.7093 80.6687 41.4924 79.8878 41.5081C79.0749 41.5315 78.3919 40.725 78.3599 39.6992C78.33 38.7204 78.9152 37.8963 79.6821 37.814L79.5782 37.8121ZM20.0983 17.1318C22.9424 16.4976 26.1965 16.1139 29.8608 15.9808C25.2205 15.9025 21.7274 15.9586 19.3813 16.1491C18.8155 17.154 18.4272 18.2454 18.2328 19.3772C18.7017 18.5182 19.335 17.7559 20.0983 17.1318ZM80.7047 42.8882C80.8829 42.739 81.0254 42.5532 81.1221 42.3439C81.3073 42.5342 81.5151 42.7018 81.7412 42.8431L80.7047 42.8882ZM61.647 43.7006C62.6336 43.0115 63.1689 41.6627 63.5004 39.2725L75.6716 38.8614C75.7795 40.8679 75.9732 42.3283 77.2854 43.033L61.647 43.7006ZM53.5841 44.0627C54.6187 43.867 55.4016 43.5968 56.0107 43.0839C56.361 43.4206 56.766 43.6978 57.2091 43.9042L53.5841 44.0627ZM45.0538 44.4268C45.6074 44.1518 46.0723 43.7318 46.397 43.2135C46.7218 42.6951 46.8935 42.0987 46.8933 41.4904V39.8343L47.1669 39.8049C47.2768 41.7508 48.3353 43.7789 50.9138 44.1684L45.0538 44.4268ZM41.313 44.5874C41.5291 44.5383 41.7398 44.4688 41.9422 44.3799C42.0575 44.4416 42.1762 44.4971 42.2977 44.5463L41.313 44.5874ZM33.5637 44.9182C34.5623 43.9003 35.4032 42.4536 36.1262 40.9834L37.2167 40.8679V41.3867C37.2192 42.1786 37.5128 42.9432 38.0435 43.5403C38.5742 44.1375 39.3067 44.5272 40.1067 44.6383L33.5637 44.9182ZM13.4554 45.7776C14.7556 45.1805 15.7942 43.7476 15.8521 42.7139L22.4271 43.035C22.6528 44.0901 23.4157 44.8086 24.4403 45.298L13.4554 45.7776ZM47.4086 7.63155C61.8387 12.1341 83.1393 19.0307 85.9674 19.7688C69.0188 12.4336 46.5718 4.05303 46.5718 4.05303L38.8404 5.36072V9.33076H39.2399L38.8404 9.59308V10.2841C40.3397 9.79602 41.4661 9.55328 42.2198 9.55589L43.8176 10.566L43.6758 33.8831L40.63 33.7226C39.7458 32.3471 38.8085 31.3376 37.8178 30.6942V1.75284H36.9011V5.66806L30.6597 6.72517L30.5459 9.19569C29.1598 9.57351 27.8935 9.89064 26.7351 10.1902V2.78842H25.2472V10.5973C20.31 11.9677 17.6417 13.43 16.1677 19.481C8.63807 20.9649 3.02183 23.0732 3.00785 25.7865L2.98388 30.7705C1.70565 31.4322 0.920723 32.0684 0.629125 32.6792L0 40.6487L0.772933 41.4317V41.9368L7.69538 42.3009C7.67998 42.398 7.67264 42.4962 7.67341 42.5945C7.67341 43.9649 8.64807 45.6347 10.4116 45.9048L3.74084 46.1907V47.7568L87 44.1998V42.6337L85.1506 42.7139C85.6028 42.3652 85.9666 41.9187 86.2136 41.4093C86.4606 40.8999 86.5842 40.3414 86.5746 39.7775C86.5801 38.9535 86.31 38.1503 85.8056 37.491L86.978 37.2189L86.8922 35.1908L47.4166 32.8574V25.5515L86.5207 31.2619L47.4166 23.6448V19.7883L86.6365 27.6188L47.4166 17.8816V13.8274L86.98 23.1652L47.4166 11.8992L47.4086 7.63155Z" fill="#E10006"/>
<path d="M221.381 9.18179V13.1591H208.838V9.18179H221.381ZM211.934 3.95451H217.077V24.4375C217.077 25.1288 217.181 25.6591 217.389 26.0284C217.607 26.3882 217.891 26.6344 218.241 26.767C218.592 26.8996 218.98 26.9659 219.406 26.9659C219.728 26.9659 220.022 26.9422 220.287 26.8949C220.561 26.8475 220.77 26.8049 220.912 26.767L221.778 30.7869C221.504 30.8816 221.111 30.9858 220.599 31.0994C220.097 31.213 219.482 31.2793 218.753 31.2983C217.465 31.3361 216.305 31.142 215.273 30.7159C214.24 30.2803 213.421 29.6079 212.815 28.6988C212.219 27.7897 211.925 26.6534 211.934 25.2897V3.95451Z" fill="white"/>
<path d="M200.056 31V9.18179H205.198V31H200.056ZM202.641 6.0852C201.827 6.0852 201.126 5.81531 200.539 5.27554C199.952 4.72629 199.658 4.06815 199.658 3.3011C199.658 2.52459 199.952 1.86644 200.539 1.32667C201.126 0.777428 201.827 0.502808 202.641 0.502808C203.465 0.502808 204.166 0.777428 204.743 1.32667C205.331 1.86644 205.624 2.52459 205.624 3.3011C205.624 4.06815 205.331 4.72629 204.743 5.27554C204.166 5.81531 203.465 6.0852 202.641 6.0852Z" fill="white"/>
<path d="M177.311 31V27.7329L188.561 13.6278V13.4431H177.68V9.18179H194.854V12.6903L184.143 26.5539V26.7386H195.223V31H177.311Z" fill="white"/>
<path d="M158.362 18.2159V31H153.22V9.18179H158.135V12.8892H158.39C158.892 11.6676 159.693 10.6969 160.791 9.97724C161.899 9.25755 163.267 8.8977 164.896 8.8977C166.402 8.8977 167.713 9.21967 168.831 9.86361C169.958 10.5075 170.829 11.4403 171.444 12.6619C172.069 13.8835 172.377 15.3655 172.368 17.1079V31H167.226V17.9034C167.226 16.445 166.847 15.3039 166.089 14.4801C165.341 13.6562 164.304 13.2443 162.978 13.2443C162.079 13.2443 161.279 13.4432 160.578 13.8409C159.887 14.2291 159.342 14.7926 158.944 15.5312C158.556 16.2699 158.362 17.1647 158.362 18.2159Z" fill="white"/>
<path d="M136.53 31.4403C135.147 31.4403 133.902 31.1941 132.794 30.7017C131.695 30.1998 130.824 29.4611 130.18 28.4858C129.546 27.5104 129.229 26.3077 129.229 24.8778C129.229 23.6467 129.456 22.6288 129.91 21.8238C130.365 21.0189 130.985 20.375 131.771 19.892C132.557 19.4091 133.443 19.0445 134.427 18.7983C135.422 18.5426 136.449 18.3579 137.51 18.2443C138.788 18.1117 139.825 17.9933 140.621 17.8892C141.416 17.7755 141.994 17.6051 142.354 17.3778C142.723 17.1411 142.907 16.7765 142.907 16.2841V16.1988C142.907 15.1288 142.59 14.3002 141.956 13.713C141.321 13.1259 140.407 12.8324 139.214 12.8324C137.955 12.8324 136.956 13.107 136.217 13.6562C135.488 14.2055 134.996 14.8541 134.74 15.6022L129.939 14.9204C130.318 13.5947 130.943 12.4867 131.814 11.5966C132.685 10.6969 133.75 10.0246 135.01 9.57951C136.269 9.12497 137.661 8.8977 139.186 8.8977C140.237 8.8977 141.283 9.0208 142.325 9.26701C143.367 9.51323 144.318 9.92042 145.18 10.4886C146.042 11.0473 146.733 11.8096 147.254 12.7755C147.784 13.7414 148.05 14.9488 148.05 16.3977V31H143.106V28.0028H142.936C142.623 28.6089 142.183 29.1771 141.615 29.7074C141.056 30.2282 140.351 30.6496 139.498 30.9716C138.656 31.2841 137.666 31.4403 136.53 31.4403ZM137.865 27.6619C138.897 27.6619 139.792 27.4583 140.55 27.0511C141.307 26.6344 141.889 26.0852 142.297 25.4034C142.713 24.7216 142.922 23.9782 142.922 23.1733V20.6022C142.761 20.7348 142.486 20.8579 142.098 20.9716C141.719 21.0852 141.293 21.1846 140.819 21.2699C140.346 21.3551 139.877 21.4308 139.413 21.4971C138.949 21.5634 138.547 21.6202 138.206 21.6676C137.439 21.7718 136.752 21.9422 136.146 22.1789C135.54 22.4157 135.062 22.7471 134.711 23.1733C134.361 23.5899 134.186 24.1297 134.186 24.7926C134.186 25.7396 134.532 26.4545 135.223 26.9375C135.914 27.4204 136.795 27.6619 137.865 27.6619Z" fill="white"/>
<path d="M114.782 31V9.18179H119.768V12.8181H119.996C120.393 11.5587 121.075 10.588 122.041 9.90622C123.016 9.21493 124.129 8.86929 125.379 8.86929C125.663 8.86929 125.98 8.88349 126.331 8.9119C126.691 8.93084 126.989 8.96398 127.226 9.01133V13.7414C127.008 13.6657 126.662 13.5994 126.189 13.5426C125.725 13.4763 125.275 13.4431 124.839 13.4431C123.902 13.4431 123.059 13.6467 122.311 14.0539C121.572 14.4517 120.99 15.0056 120.564 15.7159C120.138 16.4261 119.925 17.2452 119.925 18.1733V31H114.782Z" fill="white"/>
<path d="M89.5908 6.32667V1.90906H112.801V6.32667H103.81V31H98.5823V6.32667H89.5908Z" fill="white"/>
<path d="M219.611 46.0712C219.611 45.9149 219.575 45.7704 219.505 45.6376C219.439 45.5009 219.3 45.3778 219.089 45.2685C218.882 45.1552 218.57 45.0575 218.152 44.9755C217.8 44.9013 217.482 44.8134 217.197 44.7118C216.915 44.6103 216.675 44.4872 216.476 44.3427C216.281 44.1982 216.13 44.0282 216.025 43.8329C215.919 43.6376 215.866 43.4091 215.866 43.1474C215.866 42.8974 215.921 42.661 216.031 42.4384C216.144 42.2157 216.302 42.0185 216.505 41.8466C216.712 41.6747 216.96 41.5399 217.249 41.4423C217.538 41.3446 217.861 41.2958 218.216 41.2958C218.724 41.2958 219.157 41.3857 219.517 41.5653C219.876 41.745 220.152 41.9853 220.343 42.286C220.534 42.5829 220.63 42.913 220.63 43.2763H219.546C219.546 43.1005 219.493 42.9306 219.388 42.7665C219.286 42.5985 219.136 42.4599 218.937 42.3505C218.741 42.2411 218.501 42.1864 218.216 42.1864C217.915 42.1864 217.671 42.2333 217.484 42.3271C217.3 42.4169 217.165 42.5321 217.079 42.6728C216.997 42.8134 216.956 42.9618 216.956 43.1181C216.956 43.2353 216.976 43.3407 217.015 43.4345C217.058 43.5243 217.132 43.6083 217.238 43.6864C217.343 43.7607 217.491 43.831 217.683 43.8974C217.874 43.9638 218.118 44.0302 218.415 44.0966C218.935 44.2138 219.363 44.3544 219.698 44.5185C220.034 44.6825 220.284 44.8837 220.448 45.122C220.613 45.3603 220.695 45.6493 220.695 45.9892C220.695 46.2665 220.636 46.5204 220.519 46.7509C220.406 46.9814 220.24 47.1806 220.021 47.3485C219.806 47.5126 219.548 47.6415 219.247 47.7353C218.95 47.8251 218.616 47.87 218.245 47.87C217.687 47.87 217.214 47.7704 216.827 47.5712C216.441 47.372 216.148 47.1142 215.948 46.7978C215.749 46.4814 215.65 46.1474 215.65 45.7958H216.74C216.755 46.0927 216.841 46.329 216.997 46.5048C217.154 46.6767 217.345 46.7997 217.572 46.8739C217.798 46.9442 218.023 46.9794 218.245 46.9794C218.542 46.9794 218.79 46.9403 218.99 46.8622C219.193 46.7841 219.347 46.6767 219.452 46.5399C219.558 46.4032 219.611 46.247 219.611 46.0712Z" fill="white"/>
<path d="M202.575 46.9794C202.833 46.9794 203.071 46.9267 203.29 46.8212C203.509 46.7157 203.688 46.5712 203.829 46.3876C203.969 46.2001 204.05 45.9872 204.069 45.7489H205.1C205.081 46.1239 204.954 46.4735 204.719 46.7978C204.489 47.1181 204.186 47.3778 203.811 47.5771C203.436 47.7724 203.024 47.87 202.575 47.87C202.098 47.87 201.682 47.786 201.327 47.6181C200.975 47.4501 200.682 47.2196 200.448 46.9267C200.218 46.6337 200.044 46.2978 199.927 45.9189C199.813 45.536 199.757 45.1317 199.757 44.706V44.4599C199.757 44.0341 199.813 43.6317 199.927 43.2528C200.044 42.87 200.218 42.5321 200.448 42.2392C200.682 41.9462 200.975 41.7157 201.327 41.5478C201.682 41.3798 202.098 41.2958 202.575 41.2958C203.071 41.2958 203.505 41.3974 203.876 41.6005C204.247 41.7997 204.538 42.0732 204.749 42.4208C204.964 42.7646 205.081 43.1552 205.1 43.5927H204.069C204.05 43.331 203.975 43.0946 203.846 42.8837C203.721 42.6728 203.55 42.5048 203.331 42.3798C203.116 42.2509 202.864 42.1864 202.575 42.1864C202.243 42.1864 201.964 42.2528 201.737 42.3857C201.514 42.5146 201.337 42.6903 201.204 42.913C201.075 43.1317 200.981 43.3759 200.923 43.6454C200.868 43.911 200.841 44.1825 200.841 44.4599V44.706C200.841 44.9833 200.868 45.2567 200.923 45.5263C200.977 45.7958 201.069 46.0399 201.198 46.2587C201.331 46.4774 201.509 46.6532 201.731 46.786C201.958 46.9149 202.239 46.9794 202.575 46.9794Z" fill="white"/>
<path d="M188.698 41.413V47.7528H187.608V41.413H188.698ZM187.526 39.7314C187.526 39.5556 187.579 39.4071 187.684 39.286C187.793 39.1649 187.954 39.1044 188.165 39.1044C188.372 39.1044 188.53 39.1649 188.639 39.286C188.752 39.4071 188.809 39.5556 188.809 39.7314C188.809 39.8993 188.752 40.0439 188.639 40.1649C188.53 40.2821 188.372 40.3407 188.165 40.3407C187.954 40.3407 187.793 40.2821 187.684 40.1649C187.579 40.0439 187.526 39.8993 187.526 39.7314Z" fill="white"/>
<path d="M176.648 41.413V42.245H173.221V41.413H176.648ZM174.381 39.872H175.465V46.1825C175.465 46.3974 175.498 46.5595 175.564 46.6689C175.631 46.7782 175.717 46.8505 175.822 46.8857C175.928 46.9208 176.041 46.9384 176.162 46.9384C176.252 46.9384 176.346 46.9306 176.443 46.9149C176.545 46.8954 176.621 46.8798 176.672 46.8681L176.678 47.7528C176.592 47.7802 176.479 47.8056 176.338 47.829C176.201 47.8564 176.035 47.87 175.84 47.87C175.574 47.87 175.33 47.8173 175.107 47.7118C174.885 47.6064 174.707 47.4306 174.574 47.1845C174.445 46.9345 174.381 46.5985 174.381 46.1767V39.872Z" fill="white"/>
<path d="M161.886 46.0712C161.886 45.9149 161.851 45.7704 161.781 45.6376C161.714 45.5009 161.576 45.3778 161.365 45.2685C161.158 45.1552 160.845 45.0575 160.427 44.9755C160.076 44.9013 159.757 44.8134 159.472 44.7118C159.191 44.6103 158.951 44.4872 158.751 44.3427C158.556 44.1982 158.406 44.0282 158.3 43.8329C158.195 43.6376 158.142 43.4091 158.142 43.1474C158.142 42.8974 158.197 42.661 158.306 42.4384C158.419 42.2157 158.578 42.0185 158.781 41.8466C158.988 41.6747 159.236 41.5399 159.525 41.4423C159.814 41.3446 160.136 41.2958 160.492 41.2958C161 41.2958 161.433 41.3857 161.792 41.5653C162.152 41.745 162.427 41.9853 162.619 42.286C162.81 42.5829 162.906 42.913 162.906 43.2763H161.822C161.822 43.1005 161.769 42.9306 161.664 42.7665C161.562 42.5985 161.412 42.4599 161.212 42.3505C161.017 42.2411 160.777 42.1864 160.492 42.1864C160.191 42.1864 159.947 42.2333 159.759 42.3271C159.576 42.4169 159.441 42.5321 159.355 42.6728C159.273 42.8134 159.232 42.9618 159.232 43.1181C159.232 43.2353 159.251 43.3407 159.291 43.4345C159.333 43.5243 159.408 43.6083 159.513 43.6864C159.619 43.7607 159.767 43.831 159.958 43.8974C160.15 43.9638 160.394 44.0302 160.691 44.0966C161.21 44.2138 161.638 44.3544 161.974 44.5185C162.31 44.6825 162.56 44.8837 162.724 45.122C162.888 45.3603 162.97 45.6493 162.97 45.9892C162.97 46.2665 162.912 46.5204 162.794 46.7509C162.681 46.9814 162.515 47.1806 162.296 47.3485C162.082 47.5126 161.824 47.6415 161.523 47.7353C161.226 47.8251 160.892 47.87 160.521 47.87C159.962 47.87 159.49 47.7704 159.103 47.5712C158.716 47.372 158.423 47.1142 158.224 46.7978C158.025 46.4814 157.925 46.1474 157.925 45.7958H159.015C159.031 46.0927 159.117 46.329 159.273 46.5048C159.429 46.6767 159.621 46.7997 159.847 46.8739C160.074 46.9442 160.298 46.9794 160.521 46.9794C160.818 46.9794 161.066 46.9403 161.265 46.8622C161.468 46.7841 161.623 46.6767 161.728 46.5399C161.833 46.4032 161.886 46.247 161.886 46.0712Z" fill="white"/>
<path d="M146.855 41.413V47.7528H145.765V41.413H146.855ZM145.683 39.7314C145.683 39.5556 145.736 39.4071 145.841 39.286C145.95 39.1649 146.111 39.1044 146.322 39.1044C146.529 39.1044 146.687 39.1649 146.796 39.286C146.909 39.4071 146.966 39.5556 146.966 39.7314C146.966 39.8993 146.909 40.0439 146.796 40.1649C146.687 40.2821 146.529 40.3407 146.322 40.3407C146.111 40.3407 145.95 40.2821 145.841 40.1649C145.736 40.0439 145.683 39.8993 145.683 39.7314Z" fill="white"/>
<path d="M133.446 41.413H134.43V47.6181C134.43 48.1767 134.317 48.6532 134.091 49.0478C133.864 49.4423 133.548 49.7411 133.141 49.9442C132.739 50.1513 132.274 50.2548 131.747 50.2548C131.528 50.2548 131.27 50.2196 130.973 50.1493C130.68 50.0829 130.391 49.9677 130.106 49.8036C129.825 49.6435 129.589 49.4267 129.397 49.1532L129.966 48.5087C130.231 48.829 130.509 49.0517 130.798 49.1767C131.091 49.3017 131.38 49.3642 131.665 49.3642C132.009 49.3642 132.305 49.2997 132.555 49.1708C132.805 49.0419 132.999 48.8505 133.135 48.5966C133.276 48.3466 133.346 48.038 133.346 47.6708V42.8075L133.446 41.413ZM129.081 44.6532V44.5302C129.081 44.0458 129.137 43.6064 129.251 43.2118C129.368 42.8134 129.534 42.4716 129.749 42.1864C129.968 41.9013 130.231 41.6825 130.54 41.5302C130.848 41.3739 131.196 41.2958 131.583 41.2958C131.981 41.2958 132.329 41.3661 132.626 41.5067C132.927 41.6435 133.18 41.8446 133.387 42.1103C133.598 42.372 133.764 42.6884 133.885 43.0595C134.007 43.4306 134.091 43.8505 134.137 44.3192V44.8583C134.094 45.3232 134.01 45.7411 133.885 46.1122C133.764 46.4833 133.598 46.7997 133.387 47.0614C133.18 47.3232 132.927 47.5243 132.626 47.6649C132.325 47.8017 131.973 47.87 131.571 47.87C131.192 47.87 130.848 47.7899 130.54 47.6298C130.235 47.4696 129.973 47.245 129.755 46.956C129.536 46.6669 129.368 46.3271 129.251 45.9364C129.137 45.5419 129.081 45.1142 129.081 44.6532ZM130.165 44.5302V44.6532C130.165 44.9696 130.196 45.2665 130.259 45.5439C130.325 45.8212 130.425 46.0653 130.557 46.2763C130.694 46.4872 130.868 46.6532 131.079 46.7743C131.29 46.8915 131.542 46.9501 131.835 46.9501C132.194 46.9501 132.491 46.8739 132.725 46.7216C132.96 46.5692 133.145 46.3681 133.282 46.1181C133.423 45.8681 133.532 45.5966 133.61 45.3036V43.8915C133.567 43.6767 133.501 43.4696 133.411 43.2704C133.325 43.0673 133.212 42.8876 133.071 42.7314C132.934 42.5712 132.764 42.4442 132.561 42.3505C132.358 42.2567 132.12 42.2099 131.846 42.2099C131.55 42.2099 131.294 42.2724 131.079 42.3974C130.868 42.5185 130.694 42.6864 130.557 42.9013C130.425 43.1122 130.325 43.3583 130.259 43.6396C130.196 43.9169 130.165 44.2138 130.165 44.5302Z" fill="white"/>
<path d="M112.608 44.6532V44.5185C112.608 44.0614 112.674 43.6376 112.807 43.247C112.94 42.8524 113.131 42.5107 113.381 42.2216C113.631 41.9286 113.934 41.7021 114.29 41.5419C114.645 41.3778 115.043 41.2958 115.485 41.2958C115.93 41.2958 116.331 41.3778 116.686 41.5419C117.045 41.7021 117.35 41.9286 117.6 42.2216C117.854 42.5107 118.047 42.8524 118.18 43.247C118.313 43.6376 118.379 44.0614 118.379 44.5185V44.6532C118.379 45.1103 118.313 45.5341 118.18 45.9247C118.047 46.3153 117.854 46.6571 117.6 46.9501C117.35 47.2392 117.047 47.4657 116.692 47.6298C116.34 47.7899 115.942 47.87 115.497 47.87C115.051 47.87 114.651 47.7899 114.295 47.6298C113.94 47.4657 113.635 47.2392 113.381 46.9501C113.131 46.6571 112.94 46.3153 112.807 45.9247C112.674 45.5341 112.608 45.1103 112.608 44.6532ZM113.692 44.5185V44.6532C113.692 44.9696 113.729 45.2685 113.803 45.5497C113.877 45.8271 113.989 46.0732 114.137 46.288C114.29 46.5028 114.479 46.6728 114.706 46.7978C114.932 46.9189 115.196 46.9794 115.497 46.9794C115.793 46.9794 116.053 46.9189 116.276 46.7978C116.502 46.6728 116.69 46.5028 116.838 46.288C116.987 46.0732 117.098 45.8271 117.172 45.5497C117.25 45.2685 117.29 44.9696 117.29 44.6532V44.5185C117.29 44.206 117.25 43.911 117.172 43.6337C117.098 43.3524 116.985 43.1044 116.833 42.8896C116.684 42.6708 116.497 42.4989 116.27 42.3739C116.047 42.2489 115.786 42.1864 115.485 42.1864C115.188 42.1864 114.926 42.2489 114.7 42.3739C114.477 42.4989 114.29 42.6708 114.137 42.8896C113.989 43.1044 113.877 43.3524 113.803 43.6337C113.729 43.911 113.692 44.206 113.692 44.5185Z" fill="white"/>
<path d="M102.164 46.8329V47.7528H97.8984V46.8329H102.164ZM98.1211 39.2216V47.7528H96.9902V39.2216H98.1211Z" fill="white"/>
</svg>
