<svg width="131" height="30" viewBox="0 0 131 30" fill="none" xmlns="http://www.w3.org/2000/svg">
<g clip-path="url(#clip0_790_1806)">
<path d="M7.97999 13.4445L4.43333 14.6268L2.66 15.5134C2.66 15.7105 2.60089 16.1636 2.36444 16.4001C2.06889 16.6956 1.77333 19.6512 1.77333 20.2423C1.77333 20.8334 1.18222 22.3112 1.18222 22.9023C1.18222 23.4934 0.591113 24.3801 0.295557 24.9712C2.33948e-06 25.5623 1.18222 25.5623 1.47778 25.5623C1.77333 25.5623 3.25111 25.5623 4.72888 25.8579C6.20666 26.1534 5.61555 25.8579 6.50221 25.8579C7.38888 25.8579 7.97999 25.8579 9.16221 26.1534C10.3444 26.449 10.9355 25.5623 11.2311 25.8579C11.5267 26.1534 12.7089 25.8579 14.7778 25.8579C16.8466 25.8579 15.3689 25.5623 15.6644 25.2667C15.96 24.9712 15.3689 23.789 15.3689 23.1979C15.3689 22.6068 15.6644 22.6068 15.96 22.1547C16.2555 21.7027 16.2555 21.7201 17.1422 21.4245C18.0289 21.129 18.3244 21.129 18.62 21.129C18.9155 21.129 18.9155 21.4245 19.8022 22.0156C20.6889 22.6068 20.0977 22.9023 20.6889 23.4934C21.28 24.0845 22.4622 23.4934 23.6444 23.4934C24.8266 23.4934 25.4177 23.1979 25.7133 23.1979C26.0089 23.1979 26.0089 22.3112 26.3044 21.4245C26.5409 20.7152 25.6148 20.9319 25.1222 21.129H23.0533C22.7577 21.129 21.8711 19.3556 21.8711 19.0601V17.5823C21.8711 16.9912 22.1666 16.1045 22.1666 13.149C22.1666 11.0801 22.1666 10.7845 21.8711 10.7845C21.6346 10.7845 22.2652 6.2527 21.8711 6.05566L17.1422 6.94233L14.7778 7.53344L12.7089 8.4201L11.2311 9.60233L9.75332 12.8534L7.97999 13.4445Z" fill="white"/>
<path fill-rule="evenodd" clip-rule="evenodd" d="M3.2313 23.5721L2.82517 23.5525V15.7867H3.2313V23.5721ZM4.24188 23.6219L3.83576 23.6057V15.7867H4.24188V23.6219ZM5.25247 23.6705L4.84634 23.6508V15.7821H5.25247V23.6705ZM6.26305 23.7203L5.85693 23.7006V15.7867H6.26305V23.7203ZM7.27364 23.7689L6.86752 23.7492V15.7867H7.27364V23.7689ZM8.28423 23.8186L7.8781 23.7989V15.7867H8.28423V23.8186ZM9.29481 23.8684L8.88869 23.8476V15.7867H9.29481V23.8684ZM10.3054 23.917L9.89928 23.8973V15.7867H10.3054V23.917ZM19.0725 18.2908C16.2391 17.9267 13.8247 18.5682 11.8295 20.2152C12.6405 20.1446 13.4576 20.2351 14.2321 20.4814C15.4544 19.0272 17.0678 18.297 19.0725 18.2908ZM18.0418 22.4046C17.5932 22.4046 17.2296 22.8802 17.2296 23.4668C17.2296 24.0535 17.5932 24.528 18.0418 24.528C18.4904 24.528 18.8541 24.0535 18.8541 23.4668C18.8541 22.8802 18.4904 22.4046 18.0418 22.4046ZM17.7018 21.7415C16.6098 21.7415 15.7231 22.8559 15.7231 24.2306C15.7231 25.6053 16.6098 26.7185 17.7018 26.7185C18.7939 26.7185 19.6805 25.6041 19.6805 24.2306C19.6805 24.1808 19.6805 24.1311 19.6805 24.0825C19.6238 25.2396 18.8635 26.1468 17.9332 26.1468C16.9663 26.1468 16.1824 25.1598 16.1824 23.9482C16.1824 22.7783 16.9073 21.8225 17.8234 21.7496C17.7809 21.7427 17.7431 21.7415 17.7018 21.7415ZM25.8148 21.3643L25.8078 22.4717C23.0546 22.7367 21.3392 22.8697 21.3392 22.8697C19.9449 16.4081 13.977 21.2266 14.7763 25.5173L13.0668 25.7765L0.811081 25.1794C0.84099 24.8632 0.857121 24.6425 0.859483 24.5176L11.9299 25.0579V23.9968L11.2215 23.9621V16.7877C13.4253 15.9437 16.3477 15.1295 19.9886 14.3449C17.4881 14.2558 14.4977 14.3009 11.2215 15.0091C11.1885 15.0519 5.79082 14.8344 4.9644 14.8425C4.9644 14.8425 6.91474 13.8959 9.80483 13.2051L9.79775 13.241C10.0173 13.1727 10.257 13.1067 10.5167 13.0454C13.1683 12.4934 15.5331 12.5582 18.226 12.777C18.2614 12.6392 18.4007 10.8179 18.5991 9.98934C16.1399 9.80535 13.6795 9.92569 11.2204 9.98934C12.2428 7.76874 18.3936 6.79903 21.8138 6.58612V7.44704L21.5777 7.60095L21.8138 7.51069V10.3064L19.4101 10.0669C19.1846 11.4705 19.0713 12.9193 19.0713 12.9193C20.2417 13.0882 21.1554 13.2375 21.8126 13.3671V18.8845C21.4294 18.7242 21.014 18.6514 20.5978 18.6715C21.5934 19.1514 22.1692 20.0806 22.325 21.4592L25.8148 21.3643ZM13.5024 21.259H12.2156V22.9843H13.5024V21.259ZM37.511 23.3153C37.3386 23.0584 37.289 22.7668 37.0387 22.5862H44.0349V23.2493L37.511 23.3153ZM31.1358 22.4914C30.7592 22.5018 30.4664 22.9102 30.4805 23.402C30.4947 23.8938 30.8135 24.2838 31.1889 24.2734C31.5643 24.263 31.8583 23.8545 31.8429 23.3627C31.8276 22.8709 31.5183 22.4798 31.1417 22.4914H31.1358ZM35.2442 22.4659C34.8676 22.4659 34.5619 22.8651 34.5619 23.3569C34.5619 23.8487 34.8676 24.2479 35.2442 24.2479C35.6208 24.2479 35.9254 23.8499 35.9254 23.3569C35.9254 22.864 35.6267 22.4659 35.2501 22.4659H35.2442ZM34.9585 21.9093C34.0412 21.9093 33.2974 22.8443 33.2974 23.998C33.2974 25.1517 34.0412 26.0878 34.9585 26.0878C35.8758 26.0878 36.6196 25.1517 36.6196 23.998C36.6196 23.9563 36.6196 23.9147 36.6196 23.8742C36.5712 24.8416 35.9325 25.6099 35.1521 25.6099C34.3399 25.6099 33.6823 24.7825 33.6823 23.7584C33.6823 22.7772 34.2903 21.9741 35.0601 21.9139L34.9585 21.9093ZM30.8335 21.9429C29.9162 21.9695 29.202 22.9265 29.2362 24.079C29.2704 25.2315 30.0496 26.1515 30.9658 26.1202C31.8819 26.089 32.5985 25.1366 32.5631 23.9829C32.5631 23.9413 32.5631 23.8996 32.556 23.8591C32.5383 24.8277 31.9232 25.6111 31.1393 25.6331C30.3271 25.6574 29.6447 24.8485 29.614 23.8279C29.5845 22.8466 30.1677 22.0262 30.9351 21.944C30.9032 21.942 30.8713 21.9416 30.8394 21.9429H30.8335ZM47.2178 23.7075C46.9958 23.7075 46.8223 23.9552 46.8306 24.2468C46.8388 24.5384 47.0277 24.7687 47.2497 24.7617C47.4716 24.7548 47.6463 24.5141 47.6381 24.2225C47.6298 23.9309 47.4468 23.7006 47.2237 23.7075H47.2178ZM49.6498 23.6925C49.4267 23.6925 49.246 23.9239 49.246 24.219C49.246 24.5141 49.4267 24.7467 49.6498 24.7467C49.8729 24.7467 50.0536 24.5152 50.0536 24.219C50.0536 23.9228 49.8777 23.6925 49.6557 23.6925H49.6498ZM49.481 23.3627C48.9379 23.3627 48.4976 23.9158 48.4976 24.5986C48.4976 25.2813 48.9379 25.8356 49.481 25.8356C50.0241 25.8356 50.4644 25.2813 50.4644 24.5986C50.4644 24.5743 50.4644 24.55 50.4644 24.5257C50.4361 25.0973 50.0583 25.5509 49.5955 25.5509C49.1327 25.5509 48.7266 25.0614 48.7266 24.4562C48.7266 23.8776 49.0808 23.3997 49.5412 23.365C49.5232 23.3632 49.505 23.3625 49.4869 23.3627H49.481ZM47.0395 23.3824C46.4965 23.3986 46.0738 23.961 46.0951 24.6472C46.1163 25.3334 46.5673 25.8703 47.1151 25.8541C47.6629 25.8379 48.082 25.2755 48.0596 24.5905V24.5164C48.0478 25.095 47.6841 25.5578 47.2225 25.5671C46.742 25.581 46.3383 25.1042 46.3194 24.4979C46.3017 23.9193 46.6476 23.4321 47.1009 23.3835L47.0395 23.3824ZM11.8803 11.1581C13.5615 10.7832 15.485 10.5563 17.651 10.4777C14.9081 10.4314 12.8433 10.4645 11.4565 10.5772C11.1221 11.1712 10.8926 11.8163 10.7776 12.4853C11.0548 11.9776 11.4292 11.5269 11.8803 11.1581ZM47.7054 26.3829C47.8107 26.2947 47.8949 26.1849 47.9521 26.0612C48.0616 26.1736 48.1844 26.2727 48.3181 26.3563L47.7054 26.3829ZM36.4402 26.8631C37.0234 26.4558 37.3398 25.6585 37.5358 24.2456L44.7303 24.0026C44.794 25.1887 44.9086 26.052 45.6842 26.4685L36.4402 26.8631ZM31.6741 27.0772C32.2857 26.9615 32.7485 26.8018 33.1085 26.4986C33.3156 26.6976 33.555 26.8615 33.8169 26.9835L31.6741 27.0772ZM26.6318 27.2924C26.959 27.1299 27.2338 26.8816 27.4258 26.5752C27.6177 26.2688 27.7193 25.9162 27.7191 25.5567V24.5777L27.8809 24.5604C27.9458 25.7106 28.5715 26.9094 30.0957 27.1397L26.6318 27.2924ZM24.4206 27.3873C24.5483 27.3583 24.6728 27.3172 24.7924 27.2647C24.8606 27.3011 24.9308 27.334 25.0026 27.363L24.4206 27.3873ZM19.8399 27.5829C20.4302 26.9812 20.9272 26.126 21.3546 25.257L21.9992 25.1887V25.4954C22.0007 25.9635 22.1742 26.4154 22.4879 26.7684C22.8016 27.1214 23.2346 27.3518 23.7075 27.4174L19.8399 27.5829ZM7.95366 28.0909C8.72223 27.7379 9.33614 26.8909 9.37037 26.2799L13.2569 26.4697C13.3903 27.0934 13.8413 27.5181 14.4469 27.8074L7.95366 28.0909ZM28.0237 5.54235C36.5535 8.20383 49.1445 12.2805 50.8162 12.7168C40.7977 8.38088 27.5291 3.42705 27.5291 3.42705L22.959 4.20004V6.54677H23.1951L22.959 6.70183V7.11031C23.8452 6.82179 24.5111 6.6783 24.9565 6.67985L25.901 7.27694L25.8172 21.0599L24.0168 20.9651C23.4942 20.1519 22.9401 19.5552 22.3545 19.1749V2.06738H21.8126V4.38171L18.1233 5.00658L18.056 6.46693C17.2367 6.69026 16.4882 6.87772 15.8034 7.05477V2.67952H14.9239V7.29546C12.0055 8.10547 10.4282 8.96987 9.5569 12.5467C5.10607 13.4238 1.78625 14.6701 1.77799 16.2739L1.76382 19.22C1.00824 19.6112 0.544264 19.9872 0.371897 20.3483L1.52588e-05 25.0591L0.456904 25.522V25.8205L4.54883 26.0357C4.53973 26.0932 4.53539 26.1512 4.53585 26.2093C4.53585 27.0193 5.11198 28.0064 6.15444 28.1661L2.21126 28.335V29.2608L51.4266 27.1582V26.2325L50.3334 26.2799C50.6007 26.0738 50.8158 25.8098 50.9618 25.5087C51.1078 25.2076 51.1808 24.8775 51.1751 24.5442C51.1784 24.0571 51.0187 23.5823 50.7206 23.1926L51.4136 23.0317L51.3629 21.8329L28.0285 20.4536V16.135L51.1433 19.5105L28.0285 15.008V12.7283L51.2117 17.357L28.0285 11.6013V9.20478L51.4148 14.7245L28.0285 8.06497L28.0237 5.54235Z" fill="#E10006"/>
</g>
<path d="M130.269 5.13091V7.48192H122.855V5.13091H130.269ZM124.686 2.04102H127.725V14.1487C127.725 14.5573 127.787 14.8708 127.91 15.0891C128.039 15.3018 128.207 15.4474 128.414 15.5257C128.621 15.6041 128.85 15.6433 129.102 15.6433C129.293 15.6433 129.466 15.6293 129.623 15.6013C129.785 15.5733 129.908 15.5481 129.992 15.5257L130.504 17.9019C130.342 17.9579 130.11 18.0195 129.807 18.0866C129.511 18.1538 129.147 18.193 128.716 18.2042C127.955 18.2266 127.269 18.1118 126.659 17.8599C126.049 17.6024 125.564 17.205 125.206 16.6676C124.854 16.1303 124.68 15.4585 124.686 14.6525V2.04102Z" fill="white"/>
<path d="M117.664 18.0272V5.13023H120.704V18.0272H117.664ZM119.192 3.29981C118.711 3.29981 118.297 3.14027 117.95 2.82121C117.603 2.49654 117.429 2.10751 117.429 1.6541C117.429 1.19509 117.603 0.806059 117.95 0.486994C118.297 0.162331 118.711 0 119.192 0C119.679 0 120.093 0.162331 120.435 0.486994C120.782 0.806059 120.956 1.19509 120.956 1.6541C120.956 2.10751 120.782 2.49654 120.435 2.82121C120.093 3.14027 119.679 3.29981 119.192 3.29981Z" fill="white"/>
<path d="M104.219 18.0268V16.0956L110.869 7.75797V7.64882H104.438V5.12988H114.589V7.20381L108.258 15.3987V15.5079H114.807V18.0268H104.219Z" fill="white"/>
<path d="M93.0184 10.47V18.0268H89.9789V5.12984H92.8841V7.32132H93.0352C93.3319 6.59922 93.8049 6.02546 94.4542 5.60004C95.1091 5.17462 95.918 4.96191 96.8808 4.96191C97.7708 4.96191 98.5461 5.15223 99.2066 5.53287C99.8727 5.91351 100.388 6.46488 100.752 7.18697C101.121 7.90907 101.303 8.7851 101.297 9.81506V18.0268H98.2578V10.2853C98.2578 9.42323 98.0339 8.74871 97.5861 8.26172C97.1439 7.77472 96.5309 7.53123 95.7473 7.53123C95.2155 7.53123 94.7425 7.64878 94.3283 7.88388C93.9196 8.11338 93.5978 8.44644 93.3627 8.88306C93.1332 9.31967 93.0184 9.84865 93.0184 10.47Z" fill="white"/>
<path d="M80.1131 18.2871C79.2958 18.2871 78.5597 18.1415 77.9048 17.8505C77.2555 17.5538 76.7405 17.1172 76.3599 16.5406C75.9848 15.9641 75.7973 15.2532 75.7973 14.4079C75.7973 13.6802 75.9316 13.0785 76.2003 12.6027C76.469 12.1269 76.8357 11.7462 77.3003 11.4608C77.7649 11.1753 78.2882 10.9598 78.8704 10.8142C79.4582 10.6631 80.0655 10.554 80.6924 10.4868C81.4481 10.4084 82.0611 10.3384 82.5313 10.2769C83.0015 10.2097 83.3429 10.1089 83.5556 9.9746C83.7739 9.83465 83.8831 9.61915 83.8831 9.32807V9.27769C83.8831 8.64516 83.6956 8.15536 83.3205 7.80831C82.9455 7.46126 82.4053 7.28773 81.7 7.28773C80.9555 7.28773 80.365 7.45006 79.9284 7.77473C79.4973 8.09939 79.2063 8.48283 79.0551 8.92504L76.2171 8.52201C76.441 7.73834 76.8105 7.08342 77.3255 6.55724C77.8404 6.02546 78.4702 5.62803 79.2147 5.36494C79.9591 5.09626 80.782 4.96191 81.6832 4.96191C82.3046 4.96191 82.9231 5.03468 83.5388 5.18022C84.1546 5.32576 84.7171 5.56646 85.2265 5.90232C85.7359 6.23258 86.1445 6.68319 86.4524 7.25415C86.7659 7.8251 86.9226 8.5388 86.9226 9.39524V18.0268H84.0006V16.2551H83.8999C83.7152 16.6134 83.4549 16.9492 83.119 17.2627C82.7887 17.5706 82.3717 17.8197 81.8679 18.01C81.3697 18.1947 80.7848 18.2871 80.1131 18.2871ZM80.9023 16.0536C81.5125 16.0536 82.0415 15.9333 82.4893 15.6926C82.9371 15.4463 83.2813 15.1216 83.522 14.7186C83.7683 14.3156 83.8915 13.8761 83.8915 13.4003V11.8806C83.7963 11.959 83.634 12.0317 83.4045 12.0989C83.1806 12.1661 82.9287 12.2248 82.6488 12.2752C82.3689 12.3256 82.0918 12.3704 81.8176 12.4096C81.5433 12.4488 81.3054 12.4823 81.1039 12.5103C80.6505 12.5719 80.2446 12.6727 79.8864 12.8126C79.5281 12.9525 79.2454 13.1485 79.0383 13.4003C78.8312 13.6466 78.7277 13.9657 78.7277 14.3575C78.7277 14.9173 78.932 15.3399 79.3406 15.6254C79.7492 15.9109 80.2698 16.0536 80.9023 16.0536Z" fill="white"/>
<path d="M67.2581 18.027V5.13003H70.2053V7.27953H70.3396C70.5747 6.53504 70.9777 5.96128 71.5487 5.55825C72.1253 5.14963 72.783 4.94531 73.5219 4.94531C73.6898 4.94531 73.8773 4.95371 74.0844 4.9705C74.2971 4.9817 74.4735 5.00129 74.6134 5.02928V7.8253C74.4847 7.78051 74.2804 7.74133 74.0005 7.70774C73.7262 7.66856 73.4603 7.64897 73.2028 7.64897C72.6486 7.64897 72.1505 7.76932 71.7082 8.01002C71.2716 8.24512 70.9274 8.57258 70.6755 8.9924C70.4236 9.41223 70.2976 9.89642 70.2976 10.445V18.027H67.2581Z" fill="white"/>
<path d="M52.367 3.44235V0.831055H66.0868V3.44235H60.7719V18.027H57.682V3.44235H52.367Z" fill="white"/>
<path d="M129.223 27.5259C129.223 27.4335 129.202 27.3481 129.161 27.2696C129.121 27.1888 129.039 27.1161 128.915 27.0514C128.792 26.9844 128.608 26.9267 128.361 26.8782C128.153 26.8344 127.965 26.7824 127.796 26.7224C127.63 26.6623 127.488 26.5896 127.37 26.5042C127.254 26.4187 127.166 26.3183 127.103 26.2028C127.041 26.0874 127.01 25.9523 127.01 25.7976C127.01 25.6498 127.042 25.5101 127.107 25.3785C127.174 25.2469 127.267 25.1303 127.387 25.0287C127.51 24.9271 127.656 24.8474 127.827 24.7897C127.998 24.732 128.188 24.7031 128.399 24.7031C128.699 24.7031 128.955 24.7562 129.168 24.8624C129.38 24.9687 129.543 25.1107 129.656 25.2885C129.769 25.4639 129.826 25.6591 129.826 25.8738H129.185C129.185 25.7699 129.154 25.6695 129.091 25.5725C129.031 25.4732 128.942 25.3912 128.825 25.3266C128.709 25.2619 128.567 25.2296 128.399 25.2296C128.221 25.2296 128.077 25.2573 127.966 25.3127C127.857 25.3658 127.777 25.4339 127.727 25.5171C127.678 25.6002 127.654 25.6879 127.654 25.7803C127.654 25.8496 127.666 25.9119 127.689 25.9673C127.714 26.0204 127.758 26.0701 127.82 26.1162C127.883 26.1601 127.97 26.2017 128.083 26.2409C128.197 26.2802 128.341 26.3194 128.516 26.3587C128.823 26.428 129.076 26.5111 129.275 26.6081C129.473 26.705 129.621 26.824 129.718 26.9648C129.815 27.1057 129.864 27.2765 129.864 27.4774C129.864 27.6414 129.829 27.7914 129.76 27.9277C129.693 28.0639 129.595 28.1817 129.465 28.281C129.338 28.3779 129.186 28.4541 129.008 28.5096C128.833 28.5627 128.635 28.5892 128.416 28.5892C128.086 28.5892 127.806 28.5303 127.578 28.4126C127.349 28.2948 127.176 28.1424 127.058 27.9554C126.94 27.7684 126.882 27.5709 126.882 27.3631H127.526C127.535 27.5386 127.586 27.6783 127.678 27.7822C127.771 27.8838 127.884 27.9565 128.018 28.0004C128.152 28.042 128.284 28.0628 128.416 28.0628C128.591 28.0628 128.738 28.0397 128.856 27.9935C128.976 27.9473 129.067 27.8838 129.129 27.803C129.192 27.7222 129.223 27.6298 129.223 27.5259Z" fill="white"/>
<path d="M119.153 28.0628C119.305 28.0628 119.446 28.0316 119.576 27.9692C119.705 27.9069 119.811 27.8215 119.894 27.7129C119.977 27.6021 120.025 27.4763 120.036 27.3354H120.646C120.634 27.5571 120.559 27.7637 120.421 27.9554C120.284 28.1447 120.106 28.2983 119.884 28.416C119.662 28.5315 119.419 28.5892 119.153 28.5892C118.871 28.5892 118.625 28.5396 118.415 28.4403C118.208 28.341 118.034 28.2048 117.896 28.0316C117.76 27.8584 117.657 27.6598 117.588 27.4359C117.521 27.2096 117.487 26.9706 117.487 26.7189V26.5734C117.487 26.3218 117.521 26.0839 117.588 25.8599C117.657 25.6337 117.76 25.4339 117.896 25.2608C118.034 25.0876 118.208 24.9513 118.415 24.8521C118.625 24.7528 118.871 24.7031 119.153 24.7031C119.446 24.7031 119.703 24.7632 119.922 24.8832C120.141 25.001 120.313 25.1626 120.438 25.3681C120.565 25.5713 120.634 25.8022 120.646 26.0608H120.036C120.025 25.9061 119.981 25.7664 119.905 25.6417C119.831 25.5171 119.729 25.4178 119.6 25.3439C119.473 25.2677 119.324 25.2296 119.153 25.2296C118.957 25.2296 118.792 25.2688 118.658 25.3473C118.526 25.4235 118.421 25.5274 118.343 25.6591C118.266 25.7884 118.211 25.9327 118.176 26.092C118.144 26.249 118.128 26.4095 118.128 26.5734V26.7189C118.128 26.8828 118.144 27.0445 118.176 27.2038C118.209 27.3631 118.263 27.5074 118.339 27.6367C118.418 27.766 118.523 27.87 118.654 27.9485C118.788 28.0247 118.954 28.0628 119.153 28.0628Z" fill="white"/>
<path d="M110.95 24.7728V28.5204H110.306V24.7728H110.95ZM110.257 23.7788C110.257 23.6749 110.288 23.5872 110.351 23.5156C110.415 23.444 110.51 23.4082 110.635 23.4082C110.757 23.4082 110.851 23.444 110.915 23.5156C110.982 23.5872 111.016 23.6749 111.016 23.7788C111.016 23.8781 110.982 23.9635 110.915 24.0351C110.851 24.1044 110.757 24.139 110.635 24.139C110.51 24.139 110.415 24.1044 110.351 24.0351C110.288 23.9635 110.257 23.8781 110.257 23.7788Z" fill="white"/>
<path d="M103.828 24.7732V25.265H101.801V24.7732H103.828ZM102.487 23.8623H103.128V27.5925C103.128 27.7195 103.148 27.8154 103.187 27.88C103.226 27.9447 103.277 27.9874 103.339 28.0082C103.402 28.0289 103.469 28.0393 103.54 28.0393C103.593 28.0393 103.649 28.0347 103.706 28.0255C103.766 28.0139 103.811 28.0047 103.841 27.9978L103.845 28.5208C103.794 28.5369 103.727 28.5519 103.644 28.5658C103.563 28.582 103.465 28.59 103.35 28.59C103.193 28.59 103.048 28.5589 102.917 28.4965C102.785 28.4342 102.68 28.3303 102.601 28.1848C102.525 28.037 102.487 27.8384 102.487 27.5891V23.8623Z" fill="white"/>
<path d="M95.1015 27.5259C95.1015 27.4335 95.0808 27.3481 95.0392 27.2696C94.9999 27.1888 94.918 27.1161 94.7933 27.0514C94.6709 26.9844 94.4862 26.9267 94.2391 26.8782C94.0313 26.8344 93.8431 26.7824 93.6746 26.7224C93.5083 26.6623 93.3663 26.5896 93.2486 26.5042C93.1331 26.4187 93.0442 26.3183 92.9819 26.2028C92.9195 26.0874 92.8883 25.9523 92.8883 25.7976C92.8883 25.6498 92.9207 25.5101 92.9853 25.3785C93.0523 25.2469 93.1458 25.1303 93.2659 25.0287C93.3882 24.9271 93.5349 24.8474 93.7057 24.7897C93.8766 24.732 94.0671 24.7031 94.2772 24.7031C94.5774 24.7031 94.8337 24.7562 95.0461 24.8624C95.2586 24.9687 95.4213 25.1107 95.5345 25.2885C95.6476 25.4639 95.7042 25.6591 95.7042 25.8738H95.0634C95.0634 25.7699 95.0323 25.6695 94.9699 25.5725C94.9099 25.4732 94.821 25.3912 94.7032 25.3266C94.5878 25.2619 94.4458 25.2296 94.2772 25.2296C94.0994 25.2296 93.9551 25.2573 93.8443 25.3127C93.7358 25.3658 93.6561 25.4339 93.6053 25.5171C93.5568 25.6002 93.5326 25.6879 93.5326 25.7803C93.5326 25.8496 93.5441 25.9119 93.5672 25.9673C93.5926 26.0204 93.6365 26.0701 93.6988 26.1162C93.7612 26.1601 93.8489 26.2017 93.962 26.2409C94.0752 26.2802 94.2195 26.3194 94.395 26.3587C94.7021 26.428 94.9549 26.5111 95.1535 26.6081C95.3521 26.705 95.4999 26.824 95.5968 26.9648C95.6938 27.1057 95.7423 27.2765 95.7423 27.4774C95.7423 27.6414 95.7077 27.7914 95.6384 27.9277C95.5714 28.0639 95.4733 28.1817 95.344 28.281C95.217 28.3779 95.0646 28.4541 94.8868 28.5096C94.7113 28.5627 94.5139 28.5892 94.2945 28.5892C93.9643 28.5892 93.685 28.5303 93.4564 28.4126C93.2278 28.2948 93.0546 28.1424 92.9368 27.9554C92.8191 27.7684 92.7602 27.5709 92.7602 27.3631H93.4044C93.4136 27.5386 93.4644 27.6783 93.5568 27.7822C93.6492 27.8838 93.7623 27.9565 93.8962 28.0004C94.0302 28.042 94.1629 28.0628 94.2945 28.0628C94.47 28.0628 94.6166 28.0397 94.7344 27.9935C94.8545 27.9473 94.9457 27.8838 95.008 27.803C95.0704 27.7222 95.1015 27.6298 95.1015 27.5259Z" fill="white"/>
<path d="M86.2162 24.7728V28.5204H85.572V24.7728H86.2162ZM85.5235 23.7788C85.5235 23.6749 85.5547 23.5872 85.617 23.5156C85.6817 23.444 85.7763 23.4082 85.901 23.4082C86.0234 23.4082 86.1169 23.444 86.1816 23.5156C86.2485 23.5872 86.282 23.6749 86.282 23.7788C86.282 23.8781 86.2485 23.9635 86.1816 24.0351C86.1169 24.1044 86.0234 24.139 85.901 24.139C85.7763 24.139 85.6817 24.1044 85.617 24.0351C85.5547 23.9635 85.5235 23.8781 85.5235 23.7788Z" fill="white"/>
<path d="M78.2903 24.7724H78.8721V28.4403C78.8721 28.7705 78.8052 29.0522 78.6713 29.2854C78.5373 29.5186 78.3503 29.6952 78.1102 29.8153C77.8723 29.9377 77.5976 29.9989 77.2858 29.9989C77.1565 29.9989 77.0041 29.9781 76.8287 29.9365C76.6555 29.8973 76.4846 29.8292 76.316 29.7322C76.1498 29.6375 76.0101 29.5094 75.897 29.3477L76.2329 28.9667C76.3899 29.1561 76.5539 29.2877 76.7247 29.3616C76.8979 29.4355 77.0688 29.4724 77.2373 29.4724C77.4405 29.4724 77.616 29.4343 77.7638 29.3581C77.9116 29.2819 78.0259 29.1688 78.1067 29.0187C78.1898 28.8709 78.2314 28.6885 78.2314 28.4715V25.5967L78.2903 24.7724ZM75.7099 26.6877V26.615C75.7099 26.3287 75.7434 26.0689 75.8104 25.8357C75.8796 25.6002 75.9778 25.3981 76.1048 25.2296C76.2341 25.061 76.3899 24.9317 76.5724 24.8417C76.7548 24.7493 76.9603 24.7031 77.1889 24.7031C77.4244 24.7031 77.6299 24.7447 77.8054 24.8278C77.9832 24.9086 78.1333 25.0275 78.2556 25.1846C78.3803 25.3393 78.4785 25.5263 78.55 25.7456C78.6216 25.965 78.6713 26.2132 78.699 26.4903V26.809C78.6736 27.0837 78.6239 27.3308 78.55 27.5502C78.4785 27.7695 78.3803 27.9565 78.2556 28.1112C78.1333 28.2659 77.9832 28.3849 77.8054 28.468C77.6276 28.5488 77.4198 28.5892 77.1819 28.5892C76.958 28.5892 76.7548 28.5419 76.5724 28.4472C76.3922 28.3525 76.2375 28.2198 76.1082 28.0489C75.9789 27.878 75.8796 27.6771 75.8104 27.4462C75.7434 27.213 75.7099 26.9602 75.7099 26.6877ZM76.3507 26.615V26.6877C76.3507 26.8748 76.3692 27.0502 76.4061 27.2142C76.4454 27.3781 76.5042 27.5224 76.5827 27.6471C76.6636 27.7718 76.7663 27.87 76.891 27.9415C77.0157 28.0108 77.1646 28.0454 77.3378 28.0454C77.5502 28.0454 77.7257 28.0004 77.8643 27.9104C78.0028 27.8203 78.1125 27.7014 78.1933 27.5536C78.2764 27.4058 78.3411 27.2454 78.3872 27.0722V26.2375C78.3618 26.1105 78.3226 25.9881 78.2695 25.8703C78.2187 25.7503 78.1517 25.6441 78.0686 25.5517C77.9878 25.457 77.8873 25.382 77.7673 25.3266C77.6472 25.2711 77.5064 25.2434 77.3447 25.2434C77.1692 25.2434 77.018 25.2804 76.891 25.3543C76.7663 25.4258 76.6636 25.5251 76.5827 25.6521C76.5042 25.7768 76.4454 25.9223 76.4061 26.0885C76.3692 26.2525 76.3507 26.428 76.3507 26.615Z" fill="white"/>
<path d="M65.9725 26.6877V26.6081C65.9725 26.3379 66.0118 26.0874 66.0903 25.8565C66.1688 25.6233 66.2819 25.4212 66.4297 25.2504C66.5775 25.0772 66.7564 24.9433 66.9666 24.8486C67.1767 24.7516 67.4122 24.7031 67.6731 24.7031C67.9364 24.7031 68.173 24.7516 68.3832 24.8486C68.5956 24.9433 68.7757 25.0772 68.9235 25.2504C69.0736 25.4212 69.1879 25.6233 69.2664 25.8565C69.3449 26.0874 69.3841 26.3379 69.3841 26.6081V26.6877C69.3841 26.9579 69.3449 27.2084 69.2664 27.4393C69.1879 27.6702 69.0736 27.8723 68.9235 28.0454C68.7757 28.2163 68.5967 28.3502 68.3866 28.4472C68.1788 28.5419 67.9433 28.5892 67.6801 28.5892C67.4168 28.5892 67.1802 28.5419 66.97 28.4472C66.7599 28.3502 66.5798 28.2163 66.4297 28.0454C66.2819 27.8723 66.1688 27.6702 66.0903 27.4393C66.0118 27.2084 65.9725 26.9579 65.9725 26.6877ZM66.6133 26.6081V26.6877C66.6133 26.8748 66.6352 27.0514 66.6791 27.2177C66.723 27.3816 66.7888 27.5271 66.8765 27.6541C66.9666 27.7811 67.0786 27.8815 67.2125 27.9554C67.3464 28.027 67.5023 28.0628 67.6801 28.0628C67.8555 28.0628 68.0091 28.027 68.1407 27.9554C68.2746 27.8815 68.3855 27.7811 68.4732 27.6541C68.561 27.5271 68.6268 27.3816 68.6706 27.2177C68.7168 27.0514 68.7399 26.8748 68.7399 26.6877V26.6081C68.7399 26.4233 68.7168 26.249 68.6706 26.0851C68.6268 25.9188 68.5598 25.7722 68.4697 25.6452C68.382 25.5159 68.2712 25.4143 68.1372 25.3404C68.0056 25.2665 67.8509 25.2296 67.6731 25.2296C67.4976 25.2296 67.3429 25.2665 67.209 25.3404C67.0774 25.4143 66.9666 25.5159 66.8765 25.6452C66.7888 25.7722 66.723 25.9188 66.6791 26.0851C66.6352 26.249 66.6133 26.4233 66.6133 26.6081Z" fill="white"/>
<path d="M59.7991 27.9767V28.5204H57.2777V27.9767H59.7991ZM57.4093 23.4775V28.5204H56.7408V23.4775H57.4093Z" fill="white"/>
<defs>
<clipPath id="clip0_790_1806">
<rect width="51.4266" height="27.1911" fill="white" transform="translate(0 2.06738)"/>
</clipPath>
</defs>
</svg>
