<svg width="1920" height="879" viewBox="0 0 1920 879" fill="none" xmlns="http://www.w3.org/2000/svg">
<g opacity="0.3">
<path d="M1346.14 -233.417C1354.78 -241.206 1363.95 -248.673 1373.68 -255.868C1401.66 -276.558 1433.62 -294.412 1471.37 -310.448C1541.28 -340.143 1619.3 -358.355 1694.75 -375.968C1752.48 -389.443 1807.01 -402.171 1857.09 -419.499C1924.59 -442.852 2006.32 -479.637 2039.5 -557.463C2067.55 -623.266 2056.64 -700.128 2047.02 -767.943C2046.43 -772.103 2045.84 -776.241 2045.26 -780.352L2045.63 -780.403C2046.2 -776.292 2046.79 -772.155 2047.38 -767.995C2052.32 -733.192 2057.42 -697.205 2057.82 -661.428C2058.27 -620.831 2052.39 -586.776 2039.84 -557.319C2032.21 -539.422 2021.51 -522.684 2008.05 -507.569C1995.87 -493.899 1981.01 -481.097 1963.88 -469.517C1936.06 -450.706 1902.16 -434.703 1857.21 -419.152C1807.11 -401.817 1752.57 -389.088 1694.84 -375.61C1541.88 -339.906 1383.72 -302.987 1295.67 -175.49C1235.07 -87.7559 1228.25 22.7064 1226.61 119.357C1226.01 154.358 1226.28 189.999 1226.53 224.468C1227.17 311.897 1227.83 402.304 1214.6 490.497C1205.37 552.01 1189.09 609.278 1166.2 660.711C1141.34 716.56 1108.45 766.001 1068.45 807.658C991.505 887.795 884.579 947.772 750.643 985.93C693.505 1002.21 633.268 1014.03 571.605 1021.07C514.44 1027.6 453.828 1030.26 391.452 1028.98C284.1 1026.77 169.631 1013.49 31.2133 987.19L31.282 986.829C230.938 1024.77 493.124 1058.92 750.542 985.577C884.415 947.437 991.285 887.49 1068.19 807.404C1145.65 726.739 1194.78 620.098 1214.24 490.443C1227.46 402.279 1226.8 311.886 1226.16 224.47C1225.91 190 1225.65 154.356 1226.24 119.352C1227.03 73.0705 1229.19 18.6721 1239.27 -33.8886C1250.09 -90.3271 1268.44 -136.713 1295.36 -175.698C1309.99 -196.874 1326.75 -215.949 1346.14 -233.417Z" fill="#001F3F"/>
<path d="M1326.23 -215.935C1336.2 -224.922 1346.96 -233.486 1358.57 -241.696C1386.69 -261.581 1419.11 -278.848 1457.68 -294.486C1529.07 -323.428 1609.3 -341.598 1686.88 -359.17C1749.75 -373.41 1809.13 -386.859 1862.14 -405.343C1924.91 -427.245 2012.41 -465.674 2047.27 -546.173C2076.21 -612.99 2066.22 -691.153 2057.4 -760.115C2056.88 -764.223 2056.35 -768.31 2055.84 -772.373L2056.21 -772.419C2056.72 -768.356 2057.24 -764.269 2057.77 -760.162C2062.3 -724.737 2066.98 -688.106 2066.93 -651.755C2066.89 -610.526 2060.56 -575.941 2047.61 -546.026C2039.75 -527.888 2028.84 -510.896 2015.18 -495.522C2002.79 -481.585 1987.73 -468.517 1970.41 -456.682C1941.94 -437.231 1907.58 -420.807 1862.26 -404.996C1809.23 -386.505 1749.84 -373.054 1686.96 -358.812C1529.38 -323.121 1366.44 -286.214 1281.37 -164.833C1220.69 -78.2603 1212.28 32.22 1209.16 128.98C1207.99 165.458 1207.71 202.666 1207.44 238.65C1206.74 330.954 1206.02 426.401 1190.16 518.969C1167.88 649.021 1117.56 754.373 1040.6 832.099C1000.16 873.039 950.699 908.856 893.602 938.554C843.607 964.559 786.404 986.564 723.582 1003.96C668.713 1019.15 610.984 1030.21 552 1036.82C497.142 1042.97 439.113 1045.51 379.528 1044.35C324.394 1043.28 267.919 1039.22 206.875 1031.92C153.041 1025.49 96.7387 1016.65 34.7501 1004.91L34.8185 1004.55C224.27 1040.43 473.757 1072.76 723.484 1003.61C845.755 969.748 945.024 918.867 1019.03 852.188C1026.39 845.557 1033.48 838.783 1040.34 831.841C1117.25 754.169 1167.53 648.883 1189.8 518.906C1205.65 426.368 1206.37 330.937 1207.07 238.646C1207.34 202.661 1207.62 165.45 1208.8 128.967C1210.3 82.4795 1213.25 27.9632 1223.77 -23.8996C1235.19 -80.1626 1253.93 -126.332 1281.07 -165.045C1294.01 -183.523 1308.95 -200.365 1326.23 -215.935Z" fill="#001F3F"/>
<path d="M1306.83 -199.157C1317.91 -209.136 1330.07 -218.591 1343.42 -227.626C1371.65 -246.722 1404.48 -263.406 1443.8 -278.629C1516.56 -306.801 1598.93 -324.896 1678.59 -342.396C1746.82 -357.386 1811.27 -371.544 1867.18 -391.19C1930.49 -413.458 2018.85 -452.581 2055.04 -534.885C2084.89 -602.738 2075.81 -682.226 2067.79 -752.357C2067.33 -756.39 2066.87 -760.404 2066.42 -764.396L2066.79 -764.437C2067.24 -760.445 2067.7 -756.431 2068.16 -752.399C2072.28 -716.341 2076.54 -679.057 2076.05 -642.119C2075.5 -600.243 2068.74 -565.118 2055.37 -534.737C2047.29 -516.357 2036.17 -499.111 2022.31 -483.478C2009.71 -469.272 1994.45 -455.939 1976.94 -443.849C1948.23 -424.033 1912.37 -406.695 1867.31 -390.844C1811.37 -371.19 1746.91 -357.03 1678.67 -342.038C1516.7 -306.456 1349.22 -269.663 1267.07 -154.179C1206.13 -68.5243 1196.22 41.8593 1191.72 138.6C1189.94 176.871 1189.12 215.961 1188.33 253.763C1186.31 350.624 1184.23 450.783 1165.72 547.439C1153.97 608.794 1136.17 664.896 1112.79 714.187C1086.72 769.18 1053.06 817.074 1012.75 856.539C991.88 877.059 968.472 896.343 943.174 913.853C919.453 930.273 893.372 945.615 865.657 959.452C815.793 984.349 760.468 1004.81 696.52 1021.99C643.928 1036.12 588.714 1046.43 532.411 1052.62C479.864 1058.4 424.42 1060.8 367.617 1059.77C268.854 1057.96 161.128 1045.81 38.2855 1022.63L38.3535 1022.26C304.739 1072.55 507.695 1072.36 696.424 1021.64C833.38 984.831 936.767 930.74 1012.49 856.277C1089.03 781.344 1140.46 677.413 1165.36 547.37C1183.86 450.745 1185.95 350.602 1187.96 253.756C1188.75 215.951 1189.57 176.859 1191.35 138.584C1193.63 89.6456 1197.25 37.3014 1208.23 -13.9069C1220.26 -69.978 1239.41 -115.931 1266.77 -154.392C1278.22 -170.496 1291.48 -185.329 1306.83 -199.157Z" fill="#001F3F"/>
<path d="M1287.91 -183.009C1299.87 -193.792 1313.26 -203.957 1328.23 -213.647C1356.53 -231.969 1389.73 -248.07 1429.72 -262.87C1503.73 -290.255 1588.18 -308.242 1669.85 -325.638C1743.68 -341.365 1813.42 -356.219 1872.23 -377.036C1936.06 -399.663 2025.27 -439.473 2062.81 -523.596C2093.57 -592.502 2085.75 -669.856 2078.19 -744.662C2077.79 -748.599 2077.39 -752.518 2077 -756.418L2077.37 -756.454C2077.76 -752.555 2078.15 -748.636 2078.55 -744.699C2082.26 -707.999 2086.1 -670.048 2085.17 -632.513C2084.13 -589.978 2076.92 -554.303 2063.14 -523.446C2054.83 -504.825 2043.49 -487.325 2029.44 -471.433C2016.63 -456.956 2001.16 -443.357 1983.46 -431.015C1954.14 -410.567 1917.79 -392.798 1872.35 -376.69C1813.52 -355.864 1743.77 -341.008 1669.92 -325.279C1503.82 -289.897 1332.06 -253.31 1252.76 -143.524C1191.41 -58.5773 1180.08 51.6097 1174.27 148.221C1171.85 188.561 1170.49 229.813 1169.19 269.707C1165.87 370.843 1162.45 475.423 1141.28 575.909C1128.39 637.08 1109.86 692.599 1086.18 740.927C1073.19 767.445 1058.36 792.406 1042.1 815.117C1024.95 839.084 1005.7 861.242 984.893 880.979C963.976 900.95 940.511 919.656 915.153 936.576C891.499 952.36 865.446 967.088 837.718 980.352C788.764 1003.77 733.726 1023.29 669.457 1040.02C619.155 1053.12 566.462 1062.69 512.839 1068.46C462.61 1073.87 409.749 1076.15 355.723 1075.22C260.639 1073.59 157.961 1062.18 41.8207 1040.34L41.8884 1039.98C289.973 1086.63 489.358 1086.53 669.365 1039.66C807.024 1003.83 910.15 951.833 984.64 880.712C1060.98 808.291 1113.56 705.715 1140.92 575.833C1162.08 475.379 1165.51 370.816 1168.82 269.695C1170.13 229.799 1171.48 188.544 1173.91 148.198C1176.85 99.2485 1181.16 46.9416 1192.66 -3.91654C1205.3 -59.7802 1224.86 -105.516 1252.47 -143.739C1262.58 -157.749 1274.33 -170.776 1287.91 -183.009Z" fill="#001F3F"/>
<path d="M1269.42 -167.434C1282.09 -178.846 1296.54 -189.562 1312.99 -199.754C1341.33 -217.317 1374.84 -232.837 1415.45 -247.204C1490.6 -273.787 1577.04 -291.635 1660.64 -308.896C1740.31 -325.345 1815.56 -340.881 1877.27 -362.881C1979.55 -399.404 2040.97 -446.885 2070.58 -512.307C2102.27 -582.288 2095.31 -660.958 2088.59 -737.037C2088.25 -740.854 2087.91 -744.655 2087.58 -748.439L2087.95 -748.471C2088.28 -744.687 2088.62 -740.886 2088.95 -737.07C2092.26 -699.714 2095.67 -661.087 2094.31 -622.941C2092.76 -579.734 2085.11 -543.495 2070.91 -512.155C2062.38 -493.29 2050.82 -475.536 2036.57 -459.386C2023.55 -444.639 2007.88 -430.775 1989.99 -418.18C1960.05 -397.101 1923.22 -378.899 1877.4 -362.535C1815.66 -340.527 1740.4 -324.987 1660.72 -308.536C1577.13 -291.278 1490.7 -273.433 1415.58 -246.857C1330.61 -216.798 1272.67 -179.512 1238.46 -132.867C1176.55 -48.4442 1163.86 61.4574 1156.83 157.844C1153.72 200.489 1151.82 244.144 1149.98 286.362C1145.4 391.534 1140.67 500.287 1116.84 604.381C1102.92 665.18 1083.65 720.097 1059.56 767.607C1046.28 793.813 1031.21 818.421 1014.77 840.748C997.395 864.35 977.972 886.109 957.04 905.421C936.026 924.809 912.48 942.915 887.064 959.227C863.459 974.379 837.437 988.498 809.724 1001.19C761.635 1023.21 706.9 1041.81 642.396 1058.05C594.394 1070.14 544.227 1078.99 493.288 1084.35C445.381 1089.4 395.101 1091.54 343.845 1090.72C252.522 1089.25 154.886 1078.57 45.3566 1058.06L45.4238 1057.7C278.949 1101.43 468.612 1101.42 642.306 1057.7C779.628 1023.13 878.439 975.793 952.595 908.976C954.007 907.704 955.397 906.437 956.79 905.151C1034.25 833.683 1086.49 735.274 1116.48 604.3C1140.31 500.238 1145.04 391.502 1149.61 286.345C1151.45 244.125 1153.35 200.468 1156.46 157.817C1160.03 108.944 1164.99 56.7354 1177.06 6.07688C1190.31 -49.5664 1210.3 -95.0861 1238.17 -133.084C1247.09 -145.249 1257.45 -156.653 1269.42 -167.434Z" fill="#001F3F"/>
<path d="M1251.33 -152.376C1264.52 -164.26 1279.9 -175.381 1297.71 -185.945C1326.05 -202.76 1359.83 -217.702 1400.98 -231.626C1477.14 -257.396 1565.49 -275.072 1650.94 -292.166C1736.7 -309.323 1817.7 -325.53 1882.32 -348.726C1984 -385.296 2048.12 -435.112 2078.35 -501.017C2110.98 -572.094 2104.89 -652.104 2098.99 -729.48C2098.72 -733.154 2098.44 -736.815 2098.16 -740.461L2098.53 -740.488C2098.8 -736.843 2099.08 -733.182 2099.36 -729.508C2102.26 -691.486 2105.25 -652.169 2103.44 -613.403C2101.4 -569.51 2093.3 -532.698 2078.68 -500.864C2069.92 -481.755 2058.15 -463.748 2043.7 -447.341C2030.47 -432.322 2014.59 -418.193 1996.52 -405.346C1965.97 -383.634 1928.65 -365.001 1882.44 -348.38C1817.8 -325.175 1736.78 -308.967 1651.01 -291.806C1565.58 -274.714 1477.24 -257.039 1401.1 -231.278C1315.01 -202.152 1257.14 -166.476 1224.16 -122.211C1161.54 -38.1582 1147.57 71.3848 1139.38 167.465C1135.53 212.61 1133.07 258.87 1130.7 303.606C1124.9 412.616 1118.91 525.337 1092.4 632.851C1077.49 693.31 1057.52 747.643 1033.04 794.344C1019.46 820.248 1004.14 844.504 987.511 866.438C969.897 889.671 950.284 911.005 929.184 929.861C888.232 966.468 840.017 996.633 781.787 1022.08C734.749 1042.64 680.302 1060.3 615.332 1076.08C569.641 1087.18 522.007 1095.32 473.751 1100.29C428.173 1104.97 380.474 1106.98 331.981 1106.26C244.502 1104.94 151.903 1094.98 48.8901 1075.78L48.9578 1075.42C268.072 1116.25 448.014 1116.35 615.245 1075.73C711.274 1052.4 833.713 1014.71 928.939 929.588C1006.55 860.224 1059.89 763.129 1092.04 632.764C1118.54 525.284 1124.54 412.579 1130.33 303.586C1132.71 258.847 1135.17 212.585 1139.01 167.433C1143.16 118.713 1148.75 66.6544 1161.42 16.0651C1175.29 -39.3453 1195.72 -84.6476 1223.87 -122.431C1231.71 -132.965 1240.83 -142.912 1251.33 -152.376Z" fill="#001F3F"/>
<path d="M1233.62 -137.786C1247.17 -150.001 1263.33 -161.396 1282.37 -172.213C1310.69 -188.293 1344.68 -202.659 1386.31 -216.133C1463.36 -241.077 1553.52 -258.551 1640.72 -275.45C1732.82 -293.301 1819.82 -310.162 1887.37 -334.572C1989.83 -371.681 2054.85 -422.433 2086.12 -489.728C2119.7 -561.923 2114.47 -643.3 2109.42 -721.997C2109.19 -725.504 2108.97 -729 2108.75 -732.483L2109.11 -732.506C2109.33 -729.023 2109.56 -725.527 2109.78 -722.021C2112.27 -683.32 2114.84 -643.302 2112.59 -603.9C2110.04 -559.306 2101.49 -521.91 2086.45 -489.573C2077.46 -470.221 2065.47 -451.959 2050.83 -435.296C2037.39 -420.005 2021.31 -405.61 2003.05 -392.512C1971.89 -370.168 1934.09 -351.103 1887.49 -334.227C1819.92 -309.808 1732.91 -292.944 1640.78 -275.089C1553.6 -258.193 1463.45 -240.721 1386.42 -215.784C1299.38 -187.607 1241.62 -153.513 1209.86 -111.555C1146.42 -27.7398 1131.21 81.3821 1121.94 177.086C1117.3 224.885 1114.27 273.909 1111.34 321.32C1104.37 434.013 1097.16 550.542 1067.96 661.322C1051.9 722.231 1031.82 774.492 1006.55 821.089C992.677 846.683 977.105 870.587 960.272 892.134C942.416 914.99 922.587 935.908 901.332 954.302C860.421 989.713 812.183 1018.72 753.863 1042.98C707.35 1062.33 654.732 1078.57 588.273 1094.11C544.905 1104.25 499.809 1111.71 454.235 1116.27C410.993 1120.61 365.875 1122.48 320.136 1121.84C236.587 1120.67 149.019 1111.4 52.4291 1093.5L52.4958 1093.14C257.361 1131.11 427.581 1131.31 588.188 1093.76C690.808 1069.76 808.233 1034.4 901.091 954.025C978.985 886.614 1033.44 790.842 1067.6 661.229C1096.79 550.483 1104 433.972 1110.97 321.297C1113.9 273.884 1116.94 224.856 1121.57 177.051C1126.05 130.87 1132.42 76.8163 1145.76 26.051C1160.25 -29.1168 1181.13 -74.2006 1209.57 -111.776C1216.45 -120.871 1224.44 -129.517 1233.62 -137.786Z" fill="#001F3F"/>
<path d="M1216.24 -123.617C1230.02 -136.034 1246.82 -147.587 1266.99 -158.553C1295.23 -173.909 1329.39 -187.703 1371.42 -200.72C1449.25 -224.827 1541.11 -242.069 1629.94 -258.742C1728.67 -277.272 1821.92 -294.774 1892.41 -320.417C1995.66 -358.056 2061.56 -409.746 2093.89 -478.438C2128.44 -551.769 2124.07 -634.538 2119.85 -714.583C2119.67 -717.899 2119.5 -721.207 2119.32 -724.504L2119.69 -724.523C2119.86 -721.226 2120.04 -717.918 2120.21 -714.602C2122.29 -675.211 2124.44 -634.48 2121.75 -594.431C2118.7 -549.123 2109.7 -511.13 2094.22 -478.282C2061.85 -409.497 1995.88 -357.747 1892.54 -320.072C1822.01 -294.419 1728.75 -276.914 1630.01 -258.382C1541.18 -241.71 1449.33 -224.471 1371.53 -200.37C1283.68 -173.159 1226.12 -140.623 1195.56 -100.898C1131.17 -17.2117 1114.79 91.438 1104.49 186.707C1099.02 237.281 1095.4 289.2 1091.9 339.409C1087.85 397.49 1083.67 457.55 1076.59 516.147C1068.64 581.893 1057.83 638.693 1043.52 689.793C1026.59 750.252 1005.84 801.95 980.105 847.842C965.928 873.119 950.094 896.667 933.044 917.833C914.941 940.307 894.899 960.8 873.477 978.743C832.61 1012.97 784.352 1040.82 725.944 1063.88C680.117 1081.98 629.311 1096.86 561.21 1112.14C520.177 1121.35 477.624 1128.14 434.734 1132.31C393.835 1136.29 351.299 1138.03 308.304 1137.47C228.77 1136.43 146.228 1127.85 55.9631 1111.21L56.0294 1110.85C244.209 1145.53 409.428 1145.83 561.129 1111.79C664.433 1088.6 782.299 1054.63 873.241 978.462C951.531 912.89 1007.11 818.431 1043.16 689.694C1075.05 575.808 1083.43 455.617 1091.54 339.382C1095.04 289.17 1098.66 237.248 1104.12 186.667C1109.09 140.742 1116.05 86.9316 1130.07 36.0324C1145.19 -18.8847 1166.51 -63.7487 1195.27 -101.123C1201.29 -108.944 1208.26 -116.426 1216.24 -123.617Z" fill="#001F3F"/>
<path d="M1199.16 -109.833C1213.04 -122.336 1230.37 -133.943 1251.55 -144.965C1279.69 -159.609 1313.96 -172.832 1356.32 -185.388C1434.79 -208.648 1528.23 -225.627 1618.59 -242.046C1724.21 -261.238 1823.98 -279.365 1897.45 -306.262C2001.47 -344.425 2068.26 -397.052 2101.66 -467.149C2137.18 -541.639 2133.68 -625.827 2130.29 -707.242C2130.16 -710.344 2130.03 -713.438 2129.9 -716.525L2130.27 -716.54C2130.4 -713.454 2130.52 -710.359 2130.65 -707.257C2132.32 -667.164 2134.05 -625.705 2130.91 -584.998C2127.36 -538.961 2117.9 -500.361 2101.99 -466.99C2092.53 -447.147 2080.12 -428.378 2065.08 -411.203C2051.22 -395.365 2034.74 -380.44 2016.1 -366.842C1983.74 -343.233 1944.97 -323.305 1897.58 -305.917C1824.07 -279.01 1724.29 -260.88 1618.66 -241.685C1528.3 -225.267 1434.87 -208.291 1356.42 -185.036C1267.93 -158.805 1210.64 -127.799 1181.26 -90.2423C1115.82 -6.599 1098.31 101.537 1087.04 196.328C1080.69 249.768 1076.47 304.682 1072.39 357.788C1067.8 417.604 1063.05 479.456 1055.21 539.756C1046.42 607.411 1034.6 665.802 1019.07 718.264C1001.32 778.23 979.935 829.37 953.685 874.604C939.206 899.556 923.104 922.749 905.828 943.538C887.474 965.625 867.215 985.694 845.62 1003.18C804.802 1036.25 756.525 1062.94 698.032 1084.79C641.515 1105.91 583.47 1119.58 534.143 1130.18C495.458 1138.48 455.455 1144.62 415.247 1148.41C376.701 1152.04 336.743 1153.64 296.484 1153.15C221.052 1152.23 143.533 1144.31 59.4955 1128.93L59.5615 1128.57C234.046 1160.5 389.258 1160.91 534.066 1129.82C643.346 1106.35 756.697 1074.74 845.389 1002.9C924.209 939.06 980.904 845.922 1018.72 718.16C1053.33 601.239 1062.83 477.462 1072.02 357.761C1076.1 304.65 1080.32 249.733 1086.68 196.285C1092.1 150.653 1099.63 97.1127 1114.35 46.0091C1130.09 -8.6491 1151.88 -53.2913 1180.97 -90.4683C1186.21 -97.1682 1192.26 -103.612 1199.16 -109.833Z" fill="#001F3F"/>
<path d="M1182.29 -96.2865C1257.37 -163.952 1434.72 -195.129 1606.64 -225.36C1719.45 -245.198 1826 -263.934 1902.5 -292.109C2007.27 -330.789 2074.96 -384.352 2109.43 -455.861C2145.94 -531.532 2143.3 -617.165 2140.74 -699.978C2140.66 -702.841 2140.57 -705.698 2140.48 -708.548L2140.85 -708.559C2140.94 -705.709 2141.02 -702.853 2141.11 -699.99C2142.37 -659.18 2143.67 -616.982 2140.09 -575.603C2136.04 -528.823 2126.12 -489.603 2109.76 -455.701C2100.07 -435.612 2087.44 -416.588 2072.21 -399.159C2058.13 -383.047 2041.45 -367.856 2022.63 -354.009C1990.13 -330.105 1949.75 -309.163 1902.63 -291.764C1826.1 -263.578 1719.53 -244.839 1606.7 -224.999C1421.48 -192.43 1229.95 -158.754 1166.96 -79.588C1103.54 0.0998571 1082.69 104.74 1069.59 205.947C1062.3 262.325 1057.48 320.317 1052.82 376.398C1047.7 437.913 1042.41 501.523 1033.83 563.485C1024.21 633.005 1011.39 692.946 994.632 746.732C976.114 806.168 954.089 856.752 927.297 901.373C912.514 925.994 896.139 948.83 878.627 969.244C860.016 990.939 839.54 1010.58 817.766 1027.62C776.998 1059.53 728.707 1085.08 670.134 1105.71C615.848 1124.84 559.686 1137.44 507.082 1148.2C369.318 1176.4 224.069 1175.89 63.031 1146.65L63.0971 1146.29C224.087 1175.52 369.291 1176.03 507.008 1147.84C614.276 1125.89 726.613 1098.5 817.539 1027.33C896.993 965.145 954.808 873.323 994.282 746.622C1031.63 626.751 1042.21 499.464 1052.45 376.367C1057.11 320.281 1061.94 262.286 1069.23 205.9C1075.09 160.586 1083.17 107.338 1098.62 55.9759C1114.98 1.58072 1137.24 -42.8375 1166.67 -79.8175C1171.22 -85.5353 1176.45 -91.025 1182.29 -96.2865Z" fill="#001F3F"/>
<path d="M1165.7 -83.1043C1237.82 -148.098 1418.72 -178.86 1594.05 -208.682C1714.35 -229.146 1827.99 -248.474 1907.55 -277.953C2011.6 -316.598 2082.14 -372.657 2117.2 -444.571C2154.71 -521.445 2152.94 -608.551 2151.22 -692.79L2151.06 -700.569L2151.43 -700.576L2151.59 -692.798C2152.44 -651.26 2153.31 -608.307 2149.28 -566.243C2144.72 -518.705 2134.34 -478.853 2117.53 -444.41C2098.42 -405.217 2068.69 -370.485 2029.15 -341.175C1996.07 -316.646 1955.2 -295.26 1907.67 -277.61C1828.08 -248.119 1714.43 -228.787 1594.11 -208.321C1406.77 -176.454 1213.05 -143.502 1152.66 -68.9312C1088.07 10.8188 1066.18 114.935 1052.15 215.569C1043.87 274.934 1038.44 336.062 1033.18 395.176C1027.57 458.367 1021.76 523.709 1012.45 587.308C1002.01 658.663 988.19 720.124 970.192 775.203C950.954 834.08 928.301 884.111 900.937 928.154C885.848 952.44 869.194 974.917 851.438 994.959C832.568 1016.26 811.868 1035.47 789.912 1052.07C701.12 1119.17 592.66 1144.36 480.02 1166.24C413.194 1179.21 343.508 1185.41 272.9 1184.65C206.866 1183.95 137.445 1177.12 66.5684 1164.37L66.6328 1164.01C214.346 1190.59 349.543 1191.2 479.95 1165.87C592.546 1144.01 700.961 1118.83 789.691 1051.77C869.883 991.164 928.812 900.659 969.843 775.088C1009.95 652.336 1021.58 521.587 1032.82 395.143C1038.07 336.024 1043.51 274.892 1051.79 215.518C1057.69 173.17 1066.56 117.897 1082.86 65.9386C1099.85 11.8099 1122.58 -32.3823 1152.37 -69.1636C1156.27 -73.9757 1160.73 -78.6271 1165.7 -83.1043Z" fill="#001F3F"/>
<path d="M1149.55 -70.4221C1163.07 -82.6049 1181.34 -93.8706 1204.89 -104.599C1232.5 -117.173 1266.78 -128.701 1309.67 -139.843C1389.27 -160.515 1486.63 -176.528 1580.79 -192.015C1703.27 -212.157 1829.92 -232.986 1912.59 -263.799C2017.37 -302.938 2088.83 -359.96 2124.97 -433.28C2163.5 -511.378 2162.59 -599.984 2161.72 -685.674L2161.65 -692.589L2162.01 -692.593L2162.08 -685.678C2162.52 -643.398 2162.96 -599.678 2158.48 -556.916C2153.42 -508.606 2142.56 -468.111 2125.3 -433.118C2105.72 -393.388 2075.56 -358.136 2035.68 -328.339C2002.02 -303.187 1960.65 -281.356 1912.72 -263.454C1875.6 -249.619 1826.55 -236.622 1762.76 -223.721C1705.8 -212.201 1642.28 -201.753 1580.86 -191.651C1486.7 -176.167 1389.34 -160.155 1309.77 -139.486C1266.89 -128.35 1232.63 -116.829 1205.05 -104.264C1174.05 -90.1477 1152.23 -75.1031 1138.36 -58.2736C1072.52 21.5631 1049.63 125.146 1034.71 225.192C1025.4 287.579 1019.35 351.891 1013.5 414.086C1007.4 478.934 1001.09 545.991 991.071 611.206C979.828 684.372 965.005 747.328 945.754 803.674C926.113 861.16 902.173 912.055 874.598 954.945C859.203 978.892 842.266 1001.01 824.258 1020.68C805.128 1041.58 784.201 1060.36 762.06 1076.51C721.387 1106.17 673.076 1129.42 614.368 1147.59C562.474 1163.66 508.406 1174.11 452.959 1184.27C390.595 1195.69 326.054 1201.15 261.13 1200.49C199.404 1199.86 135.133 1193.67 70.1051 1182.09L70.1697 1181.73C204.838 1205.7 330.028 1206.42 452.893 1183.91C548.847 1166.33 668.266 1144.45 761.843 1076.21C842.864 1017.13 902.907 927.944 945.405 803.556C988.309 677.983 1000.93 543.808 1013.13 414.051C1018.98 351.852 1025.03 287.535 1034.34 225.138C1049.28 125.041 1072.18 21.3989 1138.07 -58.5066C1141.43 -62.5798 1145.25 -66.5481 1149.55 -70.4221Z" fill="#001F3F"/>
<path d="M1133.47 -57.8343C1146.7 -69.7511 1165.08 -80.765 1189.22 -91.2709C1216.57 -103.175 1250.73 -114.145 1293.65 -124.807C1373.34 -144.603 1471.71 -160.237 1566.84 -175.357C1697.09 -196.059 1831.79 -217.466 1917.64 -249.644C2023.14 -289.271 2095.51 -347.257 2132.74 -421.991C2172.3 -501.337 2172.26 -591.476 2172.23 -678.645L2172.22 -684.611L2172.59 -684.611L2172.59 -678.646C2172.61 -635.609 2172.63 -591.108 2167.7 -547.633C2162.12 -498.534 2150.8 -457.382 2133.07 -421.827C2095.79 -347.008 2023.35 -288.961 1917.77 -249.3C1879.23 -234.855 1827.6 -221.343 1759.92 -207.989C1699.54 -196.076 1632.11 -185.358 1566.89 -174.994C1471.77 -159.876 1373.41 -144.243 1293.74 -124.451C1250.84 -113.794 1216.7 -102.831 1189.37 -90.9339C1158.69 -77.5814 1137.32 -63.412 1124.05 -47.6178C1056.91 32.3086 1033.04 135.359 1017.26 234.812C1006.87 300.245 1000.21 367.776 993.765 433.082C987.204 499.58 980.418 568.342 969.691 635.159C957.655 710.12 941.83 774.554 921.311 832.144C901.039 889.039 876.467 939.372 848.276 981.746C832.574 1005.35 815.351 1027.1 797.085 1046.4C777.69 1066.9 756.533 1085.25 734.203 1100.95C693.571 1129.51 645.255 1151.63 586.497 1168.56C533.542 1183.82 478.817 1193.21 425.894 1202.3C368.041 1212.23 308.65 1216.96 249.371 1216.37C192.042 1215.8 132.917 1210.23 73.6391 1199.81L73.7021 1199.44C195.583 1220.87 310.765 1221.69 425.832 1201.94C532.556 1183.62 642.914 1164.67 733.991 1100.65C815.921 1043.05 877.081 955.186 920.964 832.022C966.693 703.677 980.269 566.097 993.399 433.047C999.844 367.735 1006.51 300.199 1016.9 234.756C1023.51 193.055 1033.41 138.443 1051.29 85.84C1069.51 32.249 1093.22 -11.4822 1123.77 -47.8533C1126.63 -51.2533 1129.86 -54.5776 1133.47 -57.8343Z" fill="#001F3F"/>
<path d="M1117.59 -45.4778C1130.45 -57.0668 1148.87 -67.7717 1173.48 -78.0048C1200.53 -89.2499 1234.52 -99.6653 1277.38 -109.845C1357.01 -128.758 1456.21 -143.985 1552.14 -158.71C1690.51 -179.949 1833.59 -201.911 1922.68 -235.489C2028.89 -275.597 2102.18 -334.547 2140.51 -410.701C2181.12 -491.319 2181.95 -583.02 2182.76 -671.701L2182.8 -676.631L2183.17 -676.628L2183.13 -671.697C2182.32 -582.974 2181.48 -491.231 2140.83 -410.536C2120.29 -369.723 2089.3 -333.433 2048.73 -302.67C2013.92 -276.27 1971.55 -253.551 1922.81 -235.145C1833.68 -201.554 1690.58 -179.589 1552.19 -158.347C1456.27 -143.622 1357.08 -128.397 1277.46 -109.487C1234.62 -99.3118 1200.65 -88.9029 1173.62 -77.6649C1143.31 -65.0634 1122.42 -51.7509 1109.75 -36.9611C1041.05 43.2539 1015.62 150.3 999.81 244.433C988.304 312.927 981.027 383.704 973.99 452.15C966.984 520.291 959.739 590.751 948.316 659.16C935.5 735.903 918.671 801.8 896.867 860.614C875.998 916.907 850.8 966.681 821.971 1008.56C805.962 1031.81 788.448 1053.2 769.917 1072.14C750.255 1092.22 728.867 1110.14 706.345 1125.39C685.009 1139.83 662.231 1152.16 636.708 1163.07C614.003 1172.77 589.654 1181.11 562.269 1188.57C511.452 1202.41 457.998 1210.91 406.302 1219.14L398.828 1220.33C345.539 1228.82 291.302 1232.86 237.625 1232.32C184.785 1231.79 130.8 1226.81 77.172 1217.52L77.2344 1217.16C185.084 1235.84 293.264 1236.78 398.77 1219.97L406.245 1218.78C510.048 1202.26 617.385 1185.18 706.139 1125.09C789.053 1068.95 851.328 982.399 896.523 860.487C945.113 729.416 959.608 588.444 973.625 452.114C980.663 383.661 987.94 312.878 999.448 244.373C1009.77 182.902 1020.88 137.071 1035.47 95.7732C1054.3 42.449 1078.51 -1.04682 1109.47 -37.1991C1111.88 -40.0106 1114.58 -42.7697 1117.59 -45.4778Z" fill="#001F3F"/>
<path d="M1101.89 -33.335C1114.32 -44.5371 1132.69 -54.8875 1157.68 -64.8018C1184.39 -75.3977 1218.14 -85.2625 1260.85 -94.9574C1340.27 -112.983 1440.11 -127.775 1536.67 -142.08C1683.5 -163.831 1835.32 -186.323 1927.73 -221.337C2034.63 -261.92 2108.84 -321.834 2148.28 -399.415C2189.95 -481.328 2191.66 -574.619 2193.31 -664.838L2193.38 -668.655L2193.75 -668.648L2193.68 -664.831C2192.03 -574.571 2190.32 -481.236 2148.6 -399.248C2127.58 -357.89 2096.17 -321.079 2055.26 -289.838C2019.87 -262.814 1977.01 -239.652 1927.86 -220.993C1835.41 -185.965 1683.57 -163.471 1536.72 -141.716C1440.17 -127.412 1340.34 -112.622 1260.93 -94.5993C1218.24 -84.908 1184.51 -75.0489 1157.82 -64.4597C1127.92 -52.5965 1107.52 -40.1183 1095.45 -26.307C1025.33 53.9491 998.934 160.453 982.366 254.051C969.7 325.609 961.814 399.65 954.188 471.253C946.756 541.037 939.07 613.196 926.958 683.19C913.371 761.712 895.534 829.06 872.428 889.082C850.993 944.764 825.173 993.984 795.687 1035.37C762.073 1082.56 722.644 1121.06 678.492 1149.83C639.513 1175.22 593.641 1194.48 538.253 1208.69C488.963 1221.35 437.174 1228.86 387.092 1236.13C381.979 1236.87 376.871 1237.61 371.768 1238.36C323.101 1245.47 274.023 1248.82 225.897 1248.32C177.638 1247.81 128.79 1243.41 80.7105 1235.24L80.7717 1234.88C176.582 1251.16 274.469 1252.21 371.715 1237.99C376.818 1237.25 381.927 1236.51 387.039 1235.76C487.521 1221.19 591.424 1206.11 678.292 1149.52C761.089 1095.58 826.29 1007.91 872.086 888.95C923.578 755.188 938.953 610.824 953.823 471.214C961.45 399.605 969.336 325.557 982.005 253.987C992.66 193.793 1004.62 146.67 1019.63 105.69C1039.08 52.6281 1063.79 9.37252 1095.17 -26.5489C1097.18 -28.8462 1099.42 -31.1078 1101.89 -33.335Z" fill="#001F3F"/>
<path d="M1086.35 -21.3767C1098.31 -32.1451 1116.55 -42.0974 1141.81 -51.6544C1168.13 -61.6124 1201.58 -70.9297 1244.06 -80.1388C1323.1 -97.2727 1418.92 -110.964 1520.38 -125.458C1676.02 -147.695 1836.97 -170.689 1932.77 -207.181C2040.37 -248.231 2115.49 -309.11 2156.05 -388.123C2198.8 -471.355 2201.39 -566.269 2203.89 -658.057L2203.96 -660.674L2204.33 -660.664L2204.26 -658.048C2201.76 -566.218 2199.17 -471.262 2156.37 -387.955C2134.86 -346.048 2103.04 -308.717 2061.79 -277.003C2025.83 -249.354 1982.47 -225.747 1932.9 -206.837C1837.06 -170.332 1676.1 -147.335 1520.43 -125.095C1418.98 -110.601 1323.16 -96.9117 1244.14 -79.7801C1201.67 -70.5754 1168.24 -61.2632 1141.94 -51.3111C1112.51 -40.1749 1092.62 -28.51 1081.15 -15.6498C1009.56 64.5931 982.22 170.579 964.921 263.674C951.053 338.295 942.564 415.617 934.354 490.392C926.513 561.819 918.404 635.678 905.612 707.254C891.263 787.55 872.413 856.339 847.987 917.554C826.012 972.625 799.576 1021.29 769.414 1062.21C735.172 1108.66 695.209 1146.36 650.637 1174.27C612.292 1198.28 567.399 1216.25 513.392 1229.21C465.318 1240.75 414.88 1247.28 366.103 1253.6C358.963 1254.53 351.827 1255.45 344.704 1256.39C300.729 1262.18 256.814 1264.87 214.179 1264.38C170.593 1263.88 126.877 1260.04 84.2452 1252.96L84.3049 1252.6C169.584 1266.75 254.745 1267.87 344.656 1256.02C351.78 1255.09 358.915 1254.16 366.056 1253.24C463.861 1240.57 564.996 1227.46 650.442 1173.96C734.331 1121.43 800.68 1035.12 847.646 917.418C902.08 781.001 918.302 633.244 933.99 490.352C942.199 415.57 950.689 338.242 964.559 263.607C975.667 203.832 988.128 156.801 1003.77 115.598C1023.83 62.7916 1049.05 19.78 1080.87 -15.8932C1082.53 -17.745 1084.35 -19.5728 1086.35 -21.3767Z" fill="#001F3F"/>
<path d="M1070.97 -9.59406C1082.39 -19.8873 1100.44 -29.4056 1125.87 -38.5712C1151.76 -47.9008 1184.83 -56.6762 1226.99 -65.3974C1305.48 -81.6359 1401.53 -94.8583 1503.23 -108.857C1668.07 -131.549 1838.53 -155.015 1937.82 -193.028C2046.09 -234.538 2122.13 -296.38 2163.82 -376.835C2207.67 -461.412 2211.14 -557.98 2214.5 -651.369L2214.55 -652.697L2214.91 -652.684L2214.87 -651.356C2211.51 -557.926 2208.03 -461.316 2164.14 -376.666C2142.14 -334.206 2109.9 -296.357 2068.32 -264.169C2031.79 -235.897 1987.93 -211.845 1937.95 -192.684C1838.62 -154.656 1668.14 -131.189 1503.28 -108.493C1401.59 -94.495 1305.54 -81.2736 1227.06 -65.0375C1184.93 -56.3201 1151.87 -47.5495 1126 -38.2253C1097.08 -27.8035 1077.73 -16.9315 1066.85 -4.99461C993.331 75.6281 964.436 186.077 947.476 273.293C932.37 350.973 923.286 431.583 914.5 509.54C906.265 582.615 897.75 658.179 884.285 731.337C869.181 813.406 849.314 883.63 823.548 946.021C775.434 1062.53 707.887 1147.55 622.784 1198.71C584.832 1221.52 540.611 1238.34 487.594 1250.11C440.391 1260.58 390.953 1266.14 343.143 1271.52C334.778 1272.46 326.128 1273.44 317.642 1274.42C278.439 1278.96 239.69 1281 202.471 1280.51C163.657 1279.99 125.07 1276.68 87.7838 1270.68L87.841 1270.31C161.604 1282.19 236.759 1283.41 317.6 1274.05C326.087 1273.07 334.737 1272.1 343.102 1271.16C438.936 1260.38 538.032 1249.23 622.595 1198.39C707.628 1147.27 775.125 1062.32 823.208 945.882C880.627 806.842 897.662 655.682 914.136 509.499C922.921 431.535 932.007 350.917 947.115 273.223C958.664 213.835 971.622 166.89 987.896 125.486C1008.56 72.9243 1034.29 30.1628 1066.58 -5.24208C1067.91 -6.70837 1069.38 -8.15871 1070.97 -9.59406Z" fill="#001F3F"/>
<path d="M1055.66 2.09943C1104.4 -41.8239 1289.48 -66.3466 1485.16 -92.2748C1659.6 -115.39 1839.99 -139.292 1942.86 -178.874C2050.27 -220.249 2129.37 -284.799 2171.59 -365.546C2216.55 -451.493 2220.91 -549.723 2225.13 -644.719L2225.49 -644.702C2221.27 -549.666 2216.91 -451.395 2171.91 -365.376C2149.42 -322.361 2116.76 -283.993 2074.84 -251.335C2037.75 -222.439 1993.39 -197.944 1943 -178.531C1840.08 -138.934 1659.67 -115.028 1485.21 -91.9103C1284.74 -65.347 1095.4 -40.2664 1052.55 5.6613C977.497 86.0984 947.648 196.081 930.029 282.913C913.646 363.644 903.975 447.553 894.624 528.7C886.011 603.43 877.105 680.704 862.974 755.444C855.366 795.683 846.895 831.987 837.079 866.43C826.058 905.096 813.637 940.442 799.106 974.49C776.12 1028.35 748.464 1075.92 716.905 1115.9C681.408 1160.87 640.369 1196.95 594.928 1223.15C557.055 1244.98 513.114 1260.77 460.594 1271.41C413.833 1280.88 364.957 1285.45 317.69 1289.88C308.796 1290.71 299.598 1291.57 290.576 1292.45C219.179 1299.4 154.001 1298.07 91.3193 1288.39L91.3746 1288.03C154.026 1297.71 219.174 1299.03 290.541 1292.08C299.563 1291.2 308.761 1290.34 317.656 1289.51C412.395 1280.65 510.359 1271.48 594.744 1222.83C680.969 1173.12 749.611 1089.52 798.768 974.347C859.215 832.718 877.03 678.143 894.258 528.658C903.611 447.504 913.283 363.586 929.669 282.84C941.649 223.798 955.098 176.935 971.993 135.357C993.257 83.0284 1019.52 40.5227 1052.28 5.41167C1053.32 4.29587 1054.45 3.19012 1055.66 2.09943Z" fill="#001F3F"/>
<path d="M1040.6 13.5259C1050.86 4.28092 1068.32 -4.2833 1093.78 -12.5823C1118.65 -20.6899 1150.77 -28.3943 1191.98 -36.1372C1268.84 -50.5779 1364.67 -62.7869 1466.13 -75.7131C1650.59 -99.2139 1841.34 -123.514 1947.91 -164.718C2055.98 -206.536 2136.01 -272.077 2179.36 -354.255C2225.45 -441.592 2230.66 -540.798 2235.71 -636.738L2236.07 -636.719C2233.58 -589.319 2231.01 -540.305 2223.2 -492.023C2214.49 -438.184 2200.25 -393.065 2179.68 -354.084C2156.7 -310.511 2123.62 -271.624 2081.37 -238.5C2043.72 -208.979 1998.86 -184.04 1948.04 -164.375C1900.33 -145.93 1830.75 -129.155 1735.32 -113.091C1650.92 -98.8842 1557 -86.9195 1466.18 -75.348C1266.9 -49.9602 1078.68 -25.9671 1038.25 16.3192C961.656 96.4468 930.86 206.024 912.587 292.534C894.893 376.303 884.646 463.515 874.736 547.856C865.762 624.248 856.48 703.241 841.688 779.567C833.725 820.659 824.847 857.711 814.546 892.841C802.983 932.277 789.939 968.298 774.668 1002.96C751.166 1056.31 722.917 1103.37 690.709 1142.84C654.564 1187.13 612.967 1222.37 567.076 1247.59C528.956 1268.73 484.86 1283.65 432.269 1293.19C385.453 1301.69 336.632 1305.2 289.417 1308.59C280.919 1309.2 272.134 1309.83 263.516 1310.48C202.055 1315.11 146.887 1313.68 94.8595 1306.11L94.9127 1305.75C146.912 1313.32 202.054 1314.74 263.488 1310.11C272.107 1309.46 280.894 1308.83 289.391 1308.22C384.062 1301.42 481.955 1294.38 566.898 1247.27C654.225 1199.28 724.015 1117.03 774.332 1002.81C837.855 858.623 856.42 700.618 874.372 547.814C884.283 463.465 894.53 376.244 912.227 292.459C924.635 233.717 938.567 186.927 956.072 145.208C977.938 93.0946 1004.73 50.8516 1037.98 16.0659C1038.8 15.2136 1039.67 14.3659 1040.6 13.5259Z" fill="#001F3F"/>
<path d="M1025.59 24.8903C1035.23 16.2077 1052.29 8.15243 1077.61 0.320256C1101.9 -7.19197 1133.44 -14.3701 1174.01 -21.6234C1249.77 -35.1633 1345.12 -46.8283 1446.07 -59.1785C1641 -83.0234 1842.56 -107.681 1952.95 -150.563C2061.66 -192.817 2142.64 -259.349 2187.13 -342.966C2234.36 -431.711 2240.69 -536.397 2246.29 -628.759L2246.65 -628.737C2243.9 -583.192 2240.77 -531.569 2232.39 -482.253C2223.14 -427.854 2208.44 -382.237 2187.45 -342.793C2163.97 -298.658 2130.48 -259.252 2087.9 -225.665C2049.68 -195.521 2004.33 -170.137 1953.09 -150.22C1903.7 -131.036 1830.62 -113.684 1729.68 -97.1742C1640.57 -82.6008 1541.72 -70.508 1446.12 -58.8133C1345.17 -46.4635 1249.82 -34.7995 1174.08 -21.2614C1133.51 -14.0107 1102 -6.83629 1077.72 0.672044C1050.69 9.0321 1033.1 17.6349 1023.94 26.9766C944.925 107.546 912.587 222.613 895.137 302.155C876.096 388.949 865.284 479.471 854.829 567.012C845.505 645.075 835.865 725.795 820.417 803.707C812.101 845.653 802.815 883.453 792.028 919.267C779.919 959.47 766.245 996.159 750.223 1031.43C726.271 1084.16 697.417 1130.68 664.461 1169.69C627.696 1213.21 585.558 1247.64 539.217 1272.03C499.779 1292.93 454.292 1307.2 400.158 1315.66C351.996 1323.19 301.943 1325.49 253.538 1327.72C247.834 1327.98 242.136 1328.24 236.445 1328.51C185.497 1330.93 140.34 1329.4 98.3924 1323.83L98.4409 1323.47C140.366 1329.03 185.503 1330.56 236.427 1328.14C242.118 1327.87 247.817 1327.61 253.521 1327.35C350.682 1322.89 451.15 1318.27 539.046 1271.71C627.672 1225.07 698.61 1144.18 749.889 1031.28C816.531 884.561 835.815 723.107 854.463 566.969C864.92 479.419 875.733 388.888 894.777 302.077C907.434 244.382 922.264 196.284 940.116 155.032C950.769 130.416 962.816 107.555 975.922 87.0823C990.196 64.7845 1006.26 44.4751 1023.68 26.7188C1024.28 26.106 1024.92 25.4964 1025.59 24.8903Z" fill="#001F3F"/>
<path d="M1010.69 36.1408C1019.68 28.037 1036.3 20.5073 1061.37 13.1589C1085.03 6.22919 1115.89 -0.427747 1155.73 -7.19284C1230.17 -19.8317 1324.77 -30.9276 1424.93 -42.6754C1621.2 -65.6959 1843.66 -91.7871 1958 -136.41C2067.35 -179.095 2149.26 -246.617 2194.9 -331.677C2243.28 -421.846 2250.5 -527.534 2256.87 -620.782L2257.24 -620.756C2254.1 -574.86 2250.55 -522.84 2241.58 -472.485C2231.8 -417.527 2216.64 -371.411 2195.22 -331.504C2171.24 -286.804 2137.33 -246.878 2094.43 -212.832C2055.66 -182.064 2009.8 -156.237 1958.14 -136.068C1907.02 -116.119 1830.26 -98.1794 1723.49 -81.2254C1629.45 -66.2931 1525.5 -54.1012 1424.97 -42.3105C1324.82 -30.5638 1230.22 -19.4677 1155.79 -6.83037C1072.38 7.33216 1025.94 21.4574 1009.64 37.6307C929.073 117.561 895.75 232.369 877.694 311.774C857.273 401.576 845.909 495.41 834.919 586.154C825.261 665.896 815.275 748.354 799.177 827.857C790.51 870.66 780.816 909.207 769.54 945.703C756.881 986.672 742.569 1024.03 725.786 1059.9C701.399 1112.03 671.94 1158 638.228 1196.55C600.844 1239.3 558.162 1272.92 511.366 1296.47C469.312 1317.71 421.084 1331.59 363.923 1338.89C314.696 1345.17 264.809 1346.07 209.381 1346.54C169.902 1346.87 134.757 1345.24 101.935 1341.55L101.976 1341.18C134.782 1344.87 169.914 1346.5 209.377 1346.17C306.037 1345.36 415.593 1344.43 511.2 1296.14C599.898 1251.5 673.985 1169.76 725.453 1059.74C795.264 910.524 815.238 745.601 834.554 586.108C845.545 495.355 856.911 401.512 877.335 311.692C890.414 254.18 905.724 206.139 924.143 164.824C935.08 140.29 947.412 117.53 960.795 97.177C975.361 75.0267 991.708 54.9043 1009.38 37.3696C1009.8 36.9588 1010.23 36.549 1010.69 36.1408Z" fill="#001F3F"/>
<path d="M995.872 47.2915C1011.9 32.8489 1056.87 20.0764 1137.1 7.15721C1210.01 -4.58252 1303.57 -15.0859 1402.63 -26.2059C1609.79 -49.4628 1844.6 -75.8222 1963.05 -122.253C2073.02 -165.364 2155.88 -233.876 2202.67 -320.386C2252.22 -411.995 2260.31 -518.676 2267.45 -612.8L2267.81 -612.772C2264.48 -568.818 2260.33 -514.117 2250.78 -462.712C2240.46 -407.197 2224.83 -360.585 2202.99 -320.211C2156.16 -233.624 2073.23 -165.053 1963.18 -121.911C1844.69 -75.4623 1609.86 -49.0999 1402.67 -25.8408C1303.62 -14.721 1210.06 -4.21824 1137.16 7.52033C1055.65 20.6454 1010.59 33.5829 995.339 48.2901C913.241 127.371 878.92 242.03 860.246 321.397C838.413 414.192 826.509 511.34 814.997 605.29C805.019 686.723 794.7 770.929 777.956 852.027C768.942 895.687 758.838 934.983 747.069 972.159C733.856 1013.89 718.9 1051.9 701.344 1088.37C676.534 1139.91 646.472 1185.34 611.995 1223.43C573.996 1265.4 530.767 1298.2 483.509 1320.91C439.956 1341.85 391.71 1355.21 336.016 1361.75C291.607 1366.97 242.764 1367.87 182.308 1364.57C156.703 1363.18 130.707 1361.19 105.566 1359.28L105.475 1359.27L105.503 1358.9L105.594 1358.91C130.733 1360.83 156.727 1362.81 182.327 1364.2C270.248 1369 383.919 1368.38 483.35 1320.58C573.396 1277.3 648.663 1196.95 701.012 1088.21C774.039 936.524 794.675 768.112 814.633 605.244C826.146 511.285 838.051 414.126 859.889 321.312C873.394 263.915 889.175 215.921 908.134 174.587C919.355 150.124 931.972 127.465 945.634 107.241C960.497 85.2385 977.135 65.3152 995.084 48.0253C995.338 47.7808 995.601 47.5356 995.872 47.2915Z" fill="#001F3F"/>
<path d="M1002.73 61.0877C1005.18 58.8793 1007.66 56.7174 1010.18 54.5943C1044.6 25.5292 1202.61 9.69451 1385.58 -8.63983C1406.8 -10.7662 1428.75 -12.9654 1450.66 -15.2029C1651.02 -35.1528 1855.91 -58.127 1966.69 -99.9171C2074.24 -140.941 2156.75 -207.735 2205.31 -293.08C2259.72 -388.706 2267.7 -504.256 2274.12 -597.101L2274.49 -597.075C2270.79 -543.599 2266.68 -491.383 2257.03 -440.488C2246.09 -382.737 2229.28 -334.46 2205.63 -292.898C2157.03 -207.478 2074.45 -140.627 1966.82 -99.5726C1856 -57.7674 1651.08 -34.7891 1450.7 -14.8367C1428.79 -12.5995 1406.84 -10.4007 1385.62 -8.27435C1202.71 10.0542 1044.75 25.8827 1010.41 54.8757C954.086 102.436 913.015 172.11 881.166 274.128C876.863 287.94 872.66 302.718 868.674 318.053C846.653 402.873 834.153 490.05 821.215 587.029C820.386 593.238 819.558 599.448 818.731 605.658C809.999 671.194 800.97 738.96 788.644 804.718C774.817 878.477 758.213 941.809 737.886 998.332C727.487 1027.24 715.803 1055.2 703.157 1081.44C680.787 1127.85 654.181 1169.49 624.08 1205.2C591.167 1244.24 553.98 1276.25 513.551 1300.34C504.885 1305.51 495.938 1310.38 486.957 1314.83C443.829 1336.18 396.007 1350.18 340.76 1357.61C296.631 1363.54 248.076 1365.3 187.955 1363.12C162.427 1362.22 136.498 1360.74 111.423 1359.3L111.32 1359.3L111.341 1358.93L111.444 1358.94C136.517 1360.37 162.444 1361.85 187.968 1362.76C275.341 1365.91 388.266 1363.28 486.795 1314.5C495.768 1310.06 504.707 1305.19 513.363 1300.03C590.49 1254.06 656.005 1178.42 702.828 1081.28C715.468 1055.06 727.147 1027.11 737.541 998.207C782.843 872.241 800.902 736.694 818.367 605.608C819.194 599.398 820.022 593.188 820.852 586.979C833.79 489.988 846.293 402.799 868.318 317.959C872.306 302.619 876.511 287.835 880.816 274.018C895.487 227.022 911.698 187.83 930.372 154.203C951.207 116.686 974.945 86.1264 1002.73 61.0877Z" fill="#001F3F"/>
<path d="M1004.43 78.1994C1011.14 72.1534 1018.08 66.4832 1025.27 61.1654C1061.56 34.3172 1211.22 21.509 1384.52 6.67811C1409.18 4.56712 1434.69 2.38399 1460.23 0.127902C1626 -14.5124 1853.02 -34.5639 1970.33 -77.5785C2075.31 -116.071 2157.48 -181.146 2207.95 -265.773C2262.73 -357.604 2273.35 -463.046 2280.8 -581.401L2281.16 -581.378C2277.83 -528.417 2273.71 -472.197 2263.32 -418.264C2251.76 -358.253 2233.75 -308.311 2208.27 -265.584C2182.28 -222.005 2147.76 -183.418 2105.67 -150.898C2066.3 -120.481 2020.81 -95.6959 1970.46 -77.2332C1919.73 -58.6316 1845.92 -42.92 1744.82 -29.2001C1655.91 -17.1351 1559.49 -8.26939 1460.27 0.494237C1434.72 2.74998 1409.21 4.9334 1384.55 7.04474C1211.31 21.8711 1061.7 34.6755 1025.49 61.4614C967.356 104.462 925.756 169.24 890.603 271.489C885.955 285.059 881.412 299.6 877.1 314.71C853.195 398.704 839.74 485.367 825.836 581.806C824.663 589.91 823.496 598.016 822.329 606.123C813.074 670.423 803.504 736.912 790.828 801.46C776.609 873.867 759.907 936.064 739.766 991.605C729.301 1020.46 717.595 1048.35 704.973 1074.51C682.614 1120.85 656.143 1162.47 626.297 1198.21C593.642 1237.32 556.786 1269.55 516.752 1294C508.171 1299.24 499.307 1304.2 490.407 1308.75C447.701 1330.52 400.303 1345.15 345.503 1353.46C301.648 1360.12 253.381 1362.73 193.602 1361.68C168.141 1361.26 142.266 1360.28 117.244 1359.33L117.165 1359.33L117.179 1358.96L117.258 1358.97C142.278 1359.91 168.151 1360.89 193.608 1361.31C280.424 1362.84 392.598 1358.2 490.239 1308.42C499.132 1303.88 507.988 1298.92 516.561 1293.69C592.84 1247.1 657.879 1171.26 704.642 1074.35C717.258 1048.21 728.96 1020.32 739.421 991.48C784.307 867.7 803.452 734.695 821.967 606.071C823.133 597.964 824.3 589.857 825.473 581.754C839.379 485.301 852.836 398.625 876.748 314.61C881.061 299.494 885.606 284.946 890.256 271.37C906.257 224.829 923.387 186.673 942.625 154.724C960.979 124.242 981.343 99.0049 1004.43 78.1994Z" fill="#001F3F"/>
<path d="M1007.58 92.886C1017.96 83.5331 1028.87 75.1756 1040.36 67.7379C1078.08 43.3386 1217.01 33.5001 1377.87 22.1084C1407.77 19.9915 1438.68 17.8023 1469.8 15.4595C1681.37 -0.467259 1865.33 -16.78 1973.98 -55.2397C2076.72 -91.6109 2158.54 -154.969 2210.6 -238.464C2269.73 -333.307 2280.7 -447.373 2287.47 -565.701L2287.84 -565.68C2284.71 -510.966 2280.72 -452.799 2269.64 -396.037C2257.47 -333.744 2238.26 -282.138 2210.91 -238.27C2184.27 -195.54 2149.68 -157.877 2108.1 -126.33C2068.76 -96.479 2023.68 -72.4442 1974.1 -54.8936C1923.06 -36.8271 1849.71 -22.0655 1749.85 -9.76455C1662.88 0.947761 1567.77 8.45302 1469.83 15.8255C1438.71 18.1682 1407.8 20.3575 1377.9 22.4747C1217.09 33.8631 1078.2 43.698 1040.57 68.0462C964.51 117.244 925.516 201.202 900.042 268.85C895.043 282.19 890.16 296.495 885.528 311.367C859.753 394.422 845.339 480.617 830.458 576.582C828.895 586.613 827.343 596.647 825.791 606.683C816.04 669.733 805.956 734.931 792.956 798.254C778.373 869.29 761.59 930.335 741.647 984.879C731.113 1013.68 719.386 1041.51 706.79 1067.58C684.441 1113.84 658.105 1155.44 628.514 1191.23C596.116 1230.41 559.591 1262.86 519.955 1287.66C511.459 1292.98 502.679 1298.03 493.857 1302.66C451.573 1324.86 404.598 1340.12 350.247 1349.32C306.659 1356.7 258.679 1360.16 199.25 1360.23C173.843 1360.3 148.011 1359.82 123.03 1359.36L123.018 1358.99C148.016 1359.46 173.846 1359.94 199.25 1359.87C285.499 1359.76 396.912 1353.13 493.686 1302.34C502.5 1297.71 511.272 1292.66 519.76 1287.35C596.272 1239.47 659.085 1165.48 706.459 1067.42C719.051 1041.36 730.773 1013.54 741.302 984.752C785.748 863.192 805.92 732.762 825.429 606.626C826.981 596.59 828.533 586.555 830.096 576.525C844.98 480.545 859.396 394.335 885.178 311.257C889.812 296.378 894.697 282.065 899.699 268.719C916.95 222.909 935.043 185.809 955.01 155.302C971.036 130.814 988.418 110.156 1007.58 92.886Z" fill="#001F3F"/>
<path d="M1011.49 106.027C1025.24 93.6384 1039.84 83.1216 1055.46 74.3128C1094.63 52.2266 1223.77 45.1117 1373.29 36.8735C1407.73 34.9762 1443.34 33.0139 1479.38 30.7921C1648.85 20.3398 1859.76 7.33152 1977.62 -32.9003C2078.29 -67.2649 2159.77 -128.904 2213.24 -211.156C2276.79 -308.904 2287.77 -427.214 2294.15 -550L2294.51 -549.981C2291.71 -495.885 2287.73 -433.197 2275.98 -373.802C2263.21 -309.207 2242.79 -255.939 2213.55 -210.955C2186.32 -169.078 2151.68 -132.335 2110.57 -101.747C2071.28 -72.5087 2026.59 -49.228 1977.74 -32.5525C1926.38 -15.022 1853.48 -1.21011 1754.88 9.67187C1669.58 19.0849 1575.9 25.2071 1479.4 31.1585C1443.36 33.3806 1407.75 35.3429 1373.31 37.2402C1223.83 45.4761 1094.74 52.588 1055.64 74.633C977.797 118.519 936.64 200.07 909.478 266.213C904.132 279.311 898.909 293.379 893.955 308.026C866.37 389.928 850.365 479.324 835.079 571.361C833.076 583.346 831.059 595.542 829.109 607.335C818.891 669.123 808.325 733.016 795.026 795.099C780.107 864.746 763.261 924.624 743.526 978.155C732.925 1006.91 721.176 1034.66 708.605 1060.65C686.265 1106.84 660.064 1148.42 630.73 1184.25C598.589 1223.5 562.395 1256.16 523.156 1281.32C514.745 1286.72 506.047 1291.85 497.306 1296.58C455.441 1319.2 408.889 1335.1 354.99 1345.18C311.661 1353.28 263.968 1357.61 204.898 1358.79C179.603 1359.35 153.873 1359.37 128.99 1359.39L128.855 1359.39L128.855 1359.02L128.99 1359.03C153.871 1359 179.598 1358.98 204.891 1358.42C290.565 1356.7 401.208 1348.08 497.131 1296.26C505.865 1291.53 514.555 1286.4 522.958 1281.01C598.609 1232.51 660.957 1158.32 708.274 1060.49C720.84 1034.51 732.585 1006.77 743.181 978.028C787.165 858.724 808.304 730.895 828.746 607.275C830.698 595.481 832.714 583.287 834.717 571.301C850.006 479.249 866.014 389.837 893.607 307.908C898.564 293.254 903.79 279.179 909.139 266.074C927.553 221.231 946.646 185.212 967.511 155.958C981.223 136.731 995.803 120.162 1011.49 106.027Z" fill="#001F3F"/>
<path d="M1015.65 118.185C1032.66 102.858 1050.85 90.5161 1070.55 80.8841C1111.22 61.0037 1231.53 56.3794 1370.84 51.0243C1409.12 49.5529 1448.7 48.0312 1488.94 46.121C1655.5 38.2148 1862.79 28.3759 1981.26 -10.5635C2080.03 -43.0264 2161.16 -102.947 2215.88 -183.849C2283.83 -284.303 2294.83 -406.942 2300.82 -534.302L2301.19 -534.285C2298.56 -478.324 2294.72 -413.438 2282.36 -351.562C2269 -284.644 2247.35 -229.717 2216.19 -183.643C2161.41 -102.674 2080.22 -42.7033 1981.38 -10.2156C1929.68 6.77696 1857.23 19.6377 1759.9 29.1032C1675.99 37.2633 1583.86 41.9825 1488.96 46.4871C1448.72 48.397 1409.13 49.9186 1370.85 51.3899C1231.58 56.7433 1111.31 61.3664 1070.71 81.2134C989.939 120.704 945.392 204.201 918.913 263.571C913.217 276.429 907.654 290.261 902.379 304.681C872.97 385.465 855.948 474.451 839.697 566.135C837.203 580.108 834.699 594.329 832.277 608.082C810.956 729.172 788.908 854.384 745.404 971.426C734.734 1000.12 722.963 1027.81 710.417 1053.72C688.087 1099.83 662.02 1141.4 632.944 1177.26C601.058 1216.59 565.196 1249.46 526.356 1274.97C518.026 1280.45 509.411 1285.67 500.752 1290.5C459.306 1313.54 413.178 1330.07 359.732 1341.03C316.654 1349.86 269.248 1355.05 210.543 1357.34C185.301 1358.39 159.613 1358.91 134.772 1359.42L134.698 1359.42L134.69 1359.05L134.765 1359.05C159.604 1358.55 185.289 1358.02 210.529 1356.98C295.618 1353.65 405.482 1343.04 500.574 1290.18C509.226 1285.36 517.832 1280.14 526.154 1274.67C600.938 1225.55 662.823 1151.16 710.087 1053.56C722.628 1027.66 734.394 999.984 745.06 971.297C788.552 854.288 810.597 729.091 831.917 608.018C834.338 594.265 836.842 580.043 839.336 566.07C855.589 474.37 872.616 385.366 902.035 304.554C907.312 290.127 912.878 276.288 918.579 263.422C938.065 219.731 958.191 184.819 980.108 156.691C991.408 142.192 1003.21 129.39 1015.65 118.185Z" fill="#001F3F"/>
<path d="M1019.59 129.885C1024.64 125.332 1029.78 121.05 1034.99 117.053C1050.82 104.9 1067.86 94.9437 1085.65 87.4607C1127.83 69.7078 1240.26 67.3601 1370.44 64.6413C1411.89 63.7755 1454.75 62.8808 1498.51 61.4533C1662.06 56.1196 1865.59 49.482 1984.9 11.7756C2081.92 -18.8826 2162.7 -77.0848 2218.53 -156.54C2290.82 -259.436 2302.12 -391.822 2307.5 -518.601L2307.86 -518.585C2305.41 -460.686 2301.7 -393.535 2288.77 -329.306C2274.82 -260.046 2251.94 -203.465 2218.83 -156.328C2162.96 -76.8078 2082.11 -18.5567 1985.02 12.1264C1932.96 28.5772 1860.97 40.4882 1764.93 48.5397C1682.13 55.4818 1591.67 58.7832 1498.53 61.8202C1454.76 63.2479 1411.9 64.1429 1370.44 65.0086C1240.3 67.7268 1127.91 70.0741 1085.79 87.799C1022.56 114.407 972.533 169.422 928.351 260.936C922.302 273.556 916.399 287.151 910.807 301.341C879.591 380.951 861.545 469.552 844.319 560.915C841.282 576.905 838.241 593.184 835.3 608.927C813.163 727.441 790.274 849.992 747.284 964.703C736.546 993.349 724.753 1020.97 712.234 1046.79C689.91 1092.83 663.979 1134.38 635.16 1170.28C603.529 1209.68 567.999 1242.77 529.557 1268.64C521.314 1274.19 512.783 1279.5 504.202 1284.42C463.17 1307.89 417.465 1325.05 364.476 1336.89C321.64 1346.46 274.522 1352.5 216.192 1355.9C191.002 1357.44 165.357 1358.46 140.556 1359.45L140.528 1359.09C165.34 1358.1 190.984 1357.07 216.17 1355.53C300.664 1350.6 409.74 1338.03 504.019 1284.1C512.593 1279.18 521.116 1273.88 529.352 1268.33C603.272 1218.6 664.69 1144.01 711.903 1046.63C724.418 1020.82 736.206 993.209 746.94 964.575C789.919 849.893 812.806 727.359 834.939 608.86C837.88 593.116 840.92 576.837 843.958 560.848C861.187 469.466 879.238 380.848 910.465 301.207C916.061 287.009 921.968 273.406 928.02 260.777C948.496 218.365 969.682 184.589 992.789 157.52C1001.37 147.47 1010.34 138.224 1019.59 129.885Z" fill="#001F3F"/>
<path d="M1022.98 141.292C1031.47 133.644 1040.21 126.716 1049.13 120.58C1065.35 109.425 1082.71 100.494 1100.74 94.0343C1144.47 78.3592 1249.88 78.0999 1371.93 77.7994C1415.94 77.691 1461.45 77.5792 1508.08 76.7834C1668.5 74.0457 1868.14 70.6386 1988.55 34.1129C2083.96 5.17031 2164.39 -51.3138 2221.16 -129.233C2297.85 -234.481 2309.16 -371.54 2314.17 -502.903L2314.53 -502.889C2312.25 -442.985 2308.68 -373.509 2295.2 -307.038C2280.68 -235.417 2256.56 -177.186 2221.46 -129.016C2164.64 -51.0327 2084.14 5.49826 1988.65 34.4641C1936.22 50.3705 1864.68 61.3311 1769.95 67.9728C1687.98 73.7201 1599.31 75.5938 1508.09 77.1506C1461.45 77.9463 1415.94 78.0585 1371.94 78.1668C1249.92 78.4671 1144.54 78.7264 1100.86 94.38C1035.71 117.73 983.888 169.816 937.785 258.295C931.387 270.668 925.144 284.026 919.231 297.997C886.229 376.382 867.149 464.619 848.936 555.69C845.301 573.728 841.673 592.1 838.165 609.866C815.276 725.776 791.609 845.632 749.161 957.975C738.353 986.573 726.538 1014.12 714.046 1039.86C691.729 1085.83 665.934 1127.36 637.374 1163.3C605.997 1202.77 570.797 1236.08 532.756 1262.29C524.596 1267.92 516.148 1273.32 507.647 1278.34C467.029 1302.23 421.748 1320.03 369.216 1332.74C326.615 1343.05 279.784 1349.95 221.836 1354.45C196.734 1356.48 171.166 1358 146.441 1359.48L146.384 1359.48L146.362 1359.12L146.419 1359.11C171.142 1357.64 196.707 1356.11 221.807 1354.09C305.696 1347.57 413.975 1333.03 507.46 1278.02C515.953 1273.01 524.394 1267.62 532.546 1261.99C605.595 1211.66 666.549 1136.87 713.716 1039.7C726.203 1013.97 738.013 986.433 748.817 957.846C791.253 845.532 814.918 725.691 837.804 609.796C841.312 592.029 844.94 573.657 848.575 555.619C866.792 464.529 885.877 376.272 918.892 297.855C924.809 283.876 931.055 270.509 937.458 258.127C958.852 217.068 981.118 184.457 1005.53 158.428C1011.2 152.378 1017.03 146.657 1022.98 141.292Z" fill="#001F3F"/>
<path d="M1025.79 152.436C1037.82 141.593 1050.42 132.12 1063.34 124.201C1079.92 114.035 1097.59 106.098 1115.83 100.61C1161.14 86.9852 1260.32 88.6512 1375.16 90.5802C1421.17 91.3528 1468.74 92.1519 1517.66 92.114C1710.67 91.9637 1879.6 89.1764 1992.19 56.4507C2086.14 29.1428 2166.24 -25.6225 2223.81 -101.925C2304.88 -209.365 2316.2 -351.169 2320.85 -487.203L2321.21 -487.191C2319.1 -425.224 2315.67 -353.368 2301.67 -284.751C2286.58 -210.752 2261.21 -150.876 2224.1 -101.704C2166.48 -25.3379 2086.32 29.4727 1992.29 56.8033C1939.46 72.1601 1868.37 82.1704 1774.98 87.4067C1693.57 91.9707 1606.81 92.4109 1517.66 92.4806C1468.74 92.5183 1421.16 91.7192 1375.15 90.9464C1260.34 89.0177 1161.19 87.3518 1115.94 100.961C1049.61 120.907 994.423 171.508 947.222 255.656C940.473 267.782 933.891 280.903 927.658 294.653C892.887 371.78 872.767 459.668 853.558 550.466C849.269 570.582 845.003 591.081 840.877 610.904C817.3 724.177 792.922 841.309 751.042 951.248C740.165 979.796 728.329 1007.28 715.863 1032.93C668.715 1129.94 608.186 1204.98 535.959 1255.95C527.885 1261.66 519.521 1267.14 511.098 1272.25C470.891 1296.58 426.033 1315.01 373.961 1328.6C331.587 1339.65 285.044 1347.41 227.485 1353.01C202.426 1355.52 176.908 1357.55 152.231 1359.51L152.202 1359.15C176.878 1357.19 202.393 1355.16 227.449 1352.64C310.723 1344.54 418.197 1328.04 510.908 1271.94C519.322 1266.83 527.68 1261.35 535.747 1255.65C607.923 1204.71 668.412 1129.73 715.532 1032.77C727.993 1007.13 739.825 979.655 750.699 951.118C792.568 841.206 816.944 724.089 840.518 610.828C844.644 591.005 848.91 570.507 853.2 550.39C872.412 459.572 892.538 371.663 927.323 294.502C933.561 280.743 940.147 267.612 946.902 255.477C969.156 215.803 992.514 184.383 1018.31 159.42C1020.78 157.033 1023.27 154.704 1025.79 152.436Z" fill="#001F3F"/>
<path d="M1028.04 163.222C1029.06 162.298 1030.09 161.389 1031.12 160.488C1061.38 134.004 1094.96 116.07 1130.92 107.184C1177.81 95.5975 1271.47 99.0524 1379.91 103.052C1427.44 104.804 1476.58 106.617 1527.22 107.443C1709.16 110.41 1881.91 110.451 1995.83 78.7867C2088.47 53.0402 2168.21 -0.00651369 2226.45 -74.6188C2311.91 -184.099 2323.24 -330.716 2327.52 -471.506L2327.89 -471.494C2325.94 -407.409 2322.65 -333.121 2308.17 -262.446C2292.51 -186.047 2265.88 -124.534 2226.74 -74.3925C2197.46 -36.875 2162.68 -4.67118 2123.39 21.3259C2084.68 46.9421 2041.79 66.3942 1995.93 79.1412C1942.68 93.9435 1872.04 103.004 1780 106.841C1698.99 110.219 1610.7 109.172 1527.22 107.81C1476.57 106.984 1427.43 105.171 1379.9 103.418C1271.48 99.4198 1177.85 95.9666 1131.01 107.54C1062.46 124.477 1005.43 172.061 956.656 253.015C949.554 264.898 942.632 277.782 936.082 291.309C899.561 367.147 878.392 454.699 858.176 545.241C853.174 567.471 848.217 590.131 843.422 612.046C819.225 722.653 794.203 837.025 752.92 944.521C741.97 973.023 730.112 1000.44 717.676 1026C670.57 1122.81 610.506 1198.04 539.158 1249.61C531.168 1255.39 522.886 1260.96 514.544 1266.17C474.747 1290.93 430.312 1310 378.702 1324.45C336.547 1336.25 290.291 1344.87 233.13 1351.56C208.144 1354.57 182.69 1357.1 158.073 1359.54L158.036 1359.18C182.651 1356.73 208.104 1354.2 233.088 1351.2C315.735 1341.52 422.393 1323.08 514.35 1265.86C522.684 1260.66 530.958 1255.09 538.943 1249.31C610.241 1197.78 670.266 1122.59 717.345 1025.84C729.778 1000.28 741.631 972.882 752.576 944.389C793.849 836.92 818.869 722.561 843.063 611.968C847.858 590.053 852.815 567.391 857.818 545.162C878.037 454.598 899.213 367.023 935.75 291.15C942.305 277.613 949.232 264.719 956.341 252.827C978.219 216.516 1002.33 186.389 1028.04 163.222Z" fill="#001F3F"/>
<path d="M1029.32 174.013C1064.51 142.301 1103.53 122.126 1146.02 113.763C1194.51 104.218 1283.28 109.348 1386.06 115.287C1434.66 118.096 1484.92 121 1536.8 122.777C1714.63 128.869 1883.83 131.798 1999.48 101.129C2090.92 76.8767 2170.32 25.5475 2229.1 -47.3071C2318.94 -158.679 2330.28 -310.176 2334.19 -455.803L2334.56 -455.793C2332.78 -389.538 2329.63 -312.766 2314.69 -240.113C2298.49 -161.295 2270.58 -98.1527 2229.38 -47.0767C2199.83 -10.4488 2165.06 20.8574 2126.03 45.9737C2087.49 70.7752 2044.94 89.4518 1999.57 101.483C1945.88 115.724 1875.7 123.835 1785.02 126.281C1704.14 128.462 1618.04 125.928 1536.78 123.144C1484.9 121.366 1434.64 118.462 1386.04 115.654C1283.28 109.716 1194.53 104.587 1146.09 114.124C1076.16 127.889 1015.6 173.732 966.094 250.38C958.643 262.007 951.381 274.655 944.51 287.97C906.256 362.498 884.031 449.722 862.799 540.022C857.025 564.394 851.323 589.252 845.808 613.292C821.056 721.202 795.461 832.784 754.801 937.798C743.781 966.253 731.902 993.597 719.494 1019.07C672.427 1115.69 612.83 1191.12 542.362 1243.27C534.459 1249.13 526.261 1254.79 517.996 1260.09C478.606 1285.29 434.595 1304.99 383.448 1320.31C341.505 1332.87 295.536 1342.34 238.781 1350.12C213.865 1353.61 188.475 1356.64 163.92 1359.58L163.877 1359.21C188.43 1356.28 213.818 1353.25 238.73 1349.75C320.742 1338.52 426.576 1318.14 517.797 1259.78C526.056 1254.48 534.247 1248.83 542.143 1242.97C612.564 1190.86 672.122 1115.47 719.163 1018.91C731.567 993.446 743.442 966.112 754.459 937.665C795.109 832.677 820.701 721.107 845.45 613.21C850.965 589.17 856.667 564.31 862.442 539.938C883.679 449.615 905.911 362.367 944.183 287.801C951.06 274.476 958.328 261.818 965.786 250.181C985.281 219.996 1006.5 194.576 1029.32 174.013Z" fill="#001F3F"/>
<path d="M1030.32 184.021C1038.9 176.289 1047.72 169.22 1056.76 162.828C1088.78 140.201 1123.89 125.905 1161.11 120.338C1211.21 112.846 1295.67 119.561 1393.47 127.337C1442.75 131.255 1493.72 135.308 1546.37 138.105C1713.05 146.962 1885.61 153.127 2003.12 123.464C2093.5 100.647 2172.56 51.0377 2231.74 -20.002C2325.97 -133.122 2337.32 -289.564 2340.87 -440.106L2341.24 -440.098C2339.62 -371.621 2336.61 -292.32 2321.25 -217.762C2304.5 -136.505 2275.32 -71.7401 2232.02 -19.7664C2202.25 15.9661 2167.48 46.3779 2128.68 70.6251C2090.33 94.587 2048.11 112.485 2003.21 123.82C1949.05 137.492 1879.32 144.655 1790.04 145.718C1709.12 146.681 1621.82 142.483 1546.35 138.472C1493.69 135.674 1442.73 131.622 1393.44 127.703C1295.66 119.93 1211.22 113.216 1161.16 120.702C1088.76 131.529 1026.31 174.27 975.529 247.738C967.726 259.116 960.124 271.526 952.934 284.624C912.966 357.826 889.677 444.731 867.418 534.796C860.81 561.341 854.309 588.431 848.023 614.63C822.784 719.811 796.687 828.574 756.68 931.069C745.587 959.482 733.685 986.758 721.308 1012.14C699.008 1057.86 673.751 1099.32 646.238 1135.36C615.87 1175.14 581.998 1209.31 545.563 1236.92C537.744 1242.86 529.629 1248.6 521.444 1254C482.458 1279.64 438.871 1299.98 388.19 1316.16C346.451 1329.49 300.77 1339.82 244.428 1348.67C219.609 1352.65 194.282 1356.18 169.789 1359.6L169.714 1359.24C194.229 1355.82 219.554 1352.29 244.37 1348.31C325.734 1335.53 430.734 1313.22 521.242 1253.7C529.42 1248.3 537.528 1242.56 545.341 1236.63C614.88 1183.94 673.972 1108.35 720.978 1011.98C733.351 986.606 745.248 959.34 756.339 930.936C796.336 828.465 822.431 719.714 847.666 614.545C853.953 588.344 860.453 561.253 867.062 534.708C877.351 493.075 888.551 448.828 902.339 405.796C917.617 358.118 934.061 318.425 952.613 284.448C959.809 271.338 967.417 258.918 975.227 247.53C992.141 223.057 1010.59 201.795 1030.32 184.021Z" fill="#001F3F"/>
<path d="M1030.96 193.436C1043.29 182.329 1056.18 172.528 1069.58 164.084C1102.4 143.397 1138.28 130.893 1176.2 126.918C1227.93 121.497 1308.61 129.732 1402.03 139.268C1451.64 144.332 1502.94 149.569 1555.94 153.439C1718.42 165.304 1887.07 174.488 2006.76 145.804C2096.21 124.37 2174.92 76.4792 2234.38 7.3089C2333.01 -107.419 2344.37 -268.87 2347.54 -424.405L2347.91 -424.398C2346.47 -353.649 2343.6 -271.772 2327.83 -195.378C2310.56 -111.663 2280.08 -45.2853 2234.66 7.54826C2204.71 42.3816 2169.95 71.902 2131.34 95.2888C2093.2 118.389 2051.32 135.505 2006.85 146.162C1952.21 159.256 1882.93 165.471 1795.06 165.161C1713.97 164.875 1629.1 159.149 1555.91 153.805C1502.91 149.935 1451.61 144.698 1401.99 139.633C1308.59 130.099 1227.93 121.866 1176.24 127.282C1102.3 135.031 1036.16 175.771 984.965 245.1C976.808 256.229 968.866 268.402 961.36 281.283C919.697 353.139 895.335 439.733 872.039 529.575C864.532 558.325 857.178 587.685 850.066 616.079C824.412 718.5 797.884 824.409 758.559 924.345C747.392 952.719 735.469 979.925 723.122 1005.21C700.823 1050.87 675.702 1092.31 648.454 1128.38C618.335 1168.24 584.794 1202.63 548.764 1230.58C541.028 1236.59 532.997 1242.43 524.892 1247.92C486.309 1274.01 443.145 1294.97 392.933 1312.02C351.39 1326.12 305.996 1337.31 250.075 1347.22C225.318 1351.7 200.047 1355.73 175.608 1359.63L175.55 1359.27C199.987 1355.37 225.256 1351.34 250.01 1346.86C330.717 1332.55 434.873 1308.34 524.686 1247.62C532.784 1242.13 540.809 1236.3 548.538 1230.29C617.189 1177.03 675.816 1101.25 722.792 1005.05C735.134 979.772 747.053 952.574 758.217 924.21C797.533 824.296 824.058 718.399 849.709 615.989C856.821 587.594 864.175 558.233 871.683 529.482C882.446 487.973 894.155 443.88 908.511 401.253C924.488 353.809 941.672 314.506 961.043 281.098C968.554 268.206 976.504 256.021 984.669 244.882C998.983 225.498 1014.47 208.299 1030.96 193.436Z" fill="#001F3F"/>
<path d="M1031.71 201.875C1077.5 160.621 1131.83 137.198 1191.29 133.494C1244.69 130.167 1322.08 139.881 1411.69 151.128C1461.29 157.356 1512.59 163.794 1565.51 168.769C1716.74 182.985 1888.3 195.833 2010.41 168.141C2099.03 148.042 2177.39 101.87 2237.02 34.616C2340.13 -81.6746 2351.29 -241.443 2354.22 -408.707L2354.59 -408.701C2353.31 -335.633 2350.59 -251.133 2334.45 -172.97C2316.65 -86.7748 2284.87 -18.7935 2237.3 34.8595C2207.21 68.7913 2172.46 97.4228 2134.02 119.956C2096.11 142.175 2054.55 158.506 2010.49 168.499C1955.34 181.006 1886.51 186.275 1800.07 184.604C1722.6 183.106 1641.53 176.284 1565.47 169.134C1512.55 164.159 1461.25 157.719 1411.64 151.493C1322.05 140.248 1244.68 130.535 1191.32 133.86C1114.72 138.633 1046.63 176.185 994.4 242.46C985.893 253.332 977.611 265.269 969.786 277.939C926.442 348.443 901.002 434.728 876.659 524.35C868.187 555.337 859.924 587.004 851.933 617.628C825.935 717.258 799.052 820.279 760.439 917.617C749.195 945.953 737.251 973.091 724.937 998.277C702.638 1043.89 677.65 1085.31 650.67 1121.39C620.799 1161.34 587.59 1195.94 551.965 1224.24C544.314 1230.33 536.366 1236.25 528.341 1241.84C490.157 1268.37 447.417 1289.97 397.677 1307.87C356.323 1322.76 311.216 1334.8 255.722 1345.78C231.027 1350.74 205.825 1355.28 181.453 1359.66L181.388 1359.3C205.758 1354.92 230.959 1350.38 255.651 1345.42C335.69 1329.59 438.993 1303.47 528.131 1241.54C536.149 1235.95 544.091 1230.03 551.737 1223.95C619.496 1170.13 677.658 1094.15 724.608 998.116C736.917 972.939 748.858 945.809 760.098 917.482C798.702 820.165 825.583 717.154 851.578 617.536C859.569 586.91 867.832 555.243 876.305 524.254C887.547 482.864 899.771 438.921 914.685 396.71C931.364 349.498 949.285 310.585 969.473 277.746C977.306 265.065 985.595 253.117 994.111 242.234C1005.87 227.312 1018.43 213.842 1031.71 201.875Z" fill="#001F3F"/>
<path d="M1033.09 208.924C1081.67 165.143 1140.85 141.503 1206.38 140.074C1261.52 138.872 1336.09 150.048 1422.43 162.99C1471.7 170.374 1522.64 178.009 1575.08 184.102C1722.06 201.178 1889.31 217.161 2014.05 190.48C2101.96 171.676 2179.98 127.222 2239.66 61.9261C2347.18 -55.6983 2358.36 -220.385 2360.89 -393.007L2361.26 -393.001C2360.1 -314.109 2357.59 -230.402 2341.09 -150.527C2322.77 -61.8314 2289.69 7.74297 2239.93 62.1737C2209.74 95.2048 2175.01 122.949 2136.7 144.636C2099.05 165.951 2057.81 181.497 2014.12 190.84C1958.44 202.75 1890.07 207.072 1805.08 204.055C1727.11 201.286 1645.03 192.599 1575.04 184.466C1522.59 178.374 1471.65 170.738 1422.38 163.353C1336.05 150.414 1261.5 139.239 1206.39 140.441C1127.03 142.172 1056.98 176.535 1003.83 239.822C994.973 250.44 986.352 262.14 978.208 274.597C933.202 343.743 906.676 429.722 881.276 519.129C871.772 552.386 862.543 586.399 853.617 619.292C827.348 716.095 800.185 816.194 762.316 910.893C750.998 939.188 739.032 966.258 726.751 991.348C704.447 1036.91 679.596 1078.31 652.885 1114.41C623.261 1154.44 590.385 1189.26 555.164 1217.9C547.597 1224.06 539.732 1230.07 531.788 1235.76C494.002 1262.74 451.684 1284.97 402.418 1303.73C361.81 1319.19 315.672 1332.47 261.368 1344.33C236.732 1349.79 211.6 1354.83 187.296 1359.7L187.224 1359.34C211.526 1354.47 236.655 1349.43 261.289 1343.97C379.173 1318.22 462.532 1284.76 531.573 1235.46C539.513 1229.78 547.371 1223.77 554.932 1217.61C621.793 1163.24 679.491 1087.06 726.42 991.187C738.698 966.105 750.66 939.045 761.975 910.757C799.837 816.078 826.997 715.99 853.262 619.197C862.189 586.302 871.418 552.288 880.923 519.029C892.651 477.75 905.394 433.952 920.855 392.167C938.238 345.189 956.898 306.666 977.901 274.397C986.052 261.928 994.682 250.217 1003.55 239.587C1012.89 228.47 1022.75 218.238 1033.09 208.924Z" fill="#001F3F"/>
<path d="M1034.94 214.881C1085.94 168.924 1149.83 145.443 1221.48 146.651C1278.46 147.612 1354.14 160.874 1434.27 174.914C1482.86 183.428 1533.11 192.233 1584.65 199.431C1737.76 220.813 1896.19 237.233 2017.69 212.817C2106.25 195.021 2181.83 153.442 2242.31 89.2326C2354.23 -29.5877 2365.42 -199.252 2367.57 -377.309L2367.93 -377.304C2366.95 -295.885 2364.59 -209.573 2347.77 -128.054C2328.94 -36.8357 2294.54 34.3217 2242.58 89.4844C2212.31 121.614 2177.6 148.474 2139.4 169.317C2102.02 189.714 2061.1 204.47 2017.77 213.177C1896.21 237.604 1737.74 221.181 1584.6 199.795C1533.05 192.595 1482.8 183.79 1434.21 175.276C1354.09 161.238 1278.43 147.979 1221.47 147.018C1139.25 145.631 1067.26 176.808 1013.27 237.18C1004.06 247.544 995.096 259.007 986.636 271.252C936.123 344.644 907.094 442.473 885.898 513.904C875.292 549.461 865.04 585.856 855.124 621.052C828.659 714.999 801.293 812.144 764.197 904.164C752.803 932.424 740.815 959.424 728.567 984.416C706.26 1029.93 681.543 1071.32 655.101 1107.42C625.725 1147.54 593.18 1182.57 558.367 1211.55C550.889 1217.79 543.107 1223.88 535.237 1229.67C497.847 1257.11 455.953 1279.97 407.162 1299.58C366.727 1315.83 320.885 1330 267.017 1342.88C242.436 1348.84 217.376 1354.37 193.141 1359.72L193.062 1359.36C217.295 1354.01 242.353 1348.48 266.93 1342.53C383.791 1314.57 466.473 1279.67 535.02 1229.38C542.883 1223.59 550.659 1217.5 558.131 1211.27C625.02 1155.58 680.663 1081.32 728.237 984.254C740.481 959.27 752.465 932.278 763.857 904.027C800.944 812.025 828.307 714.89 854.771 620.953C864.686 585.756 874.939 549.359 885.546 513.799C897.764 472.623 911.032 428.963 927.029 387.621C945.117 340.875 964.516 302.742 986.333 271.043C994.801 258.787 1003.77 247.311 1012.99 236.936C1020.01 229.092 1027.33 221.734 1034.94 214.881Z" fill="#001F3F"/>
<path d="M1037.36 219.756C1090.38 171.976 1158.8 149.039 1236.57 153.229C1295.55 156.407 1369.23 171.261 1447.23 186.988C1494.8 196.578 1543.99 206.496 1594.22 214.762C1735.44 238 1896.61 258.594 2021.33 235.155C2109.39 218.607 2184.63 178.698 2244.95 116.541C2361.29 -3.34054 2372.49 -178.041 2374.24 -361.609L2374.61 -361.606C2373.81 -277.611 2371.59 -188.651 2354.47 -105.543C2335.15 -11.7809 2299.41 60.9466 2245.21 116.796C2214.9 148.028 2180.21 174.005 2142.1 194.007C2105.02 213.468 2064.41 227.433 2021.4 235.516C1964.6 246.192 1897.11 248.628 1815.1 242.965C1736.06 237.507 1655.51 225.22 1594.16 215.125C1543.92 206.858 1494.73 196.939 1447.15 187.348C1369.17 171.624 1295.51 156.773 1236.55 153.596C1151.39 149.008 1077.44 177 1022.7 234.54C1013.14 244.645 1003.84 255.871 995.059 267.908C946.716 334.409 919.113 416.294 890.517 508.68C878.734 546.573 867.4 585.391 856.439 622.93C829.853 713.985 802.363 808.138 766.074 897.437C754.44 926.062 742.763 952.246 730.379 977.485C708.066 1022.96 683.484 1064.33 657.315 1100.44C628.182 1140.64 595.966 1175.89 561.566 1205.21C554.173 1211.52 546.475 1217.7 538.684 1223.59C501.686 1251.48 460.216 1274.98 411.903 1295.43C371.635 1312.48 326.089 1327.53 272.662 1341.44C248.149 1347.88 223.154 1353.92 198.984 1359.75L198.897 1359.4C223.067 1353.56 248.058 1347.52 272.569 1341.08C388.391 1310.93 470.395 1274.61 538.463 1223.3C546.247 1217.41 553.94 1211.24 561.328 1204.93C565.112 1201.71 568.873 1198.41 572.587 1195.07C633.614 1140.08 685.216 1068.69 730.05 977.325C742.431 952.093 754.103 925.917 765.735 897.3C802.016 808.018 829.503 713.874 856.087 622.829C867.048 585.287 878.383 546.468 890.166 508.572C903.408 465.792 916.663 424.003 933.201 383.077C951.996 336.565 972.133 298.822 994.762 267.693C1003.55 255.643 1012.86 244.404 1022.44 234.288C1027.26 229.216 1032.24 224.367 1037.36 219.756Z" fill="#001F3F"/>
<path d="M1040.48 223.524C1067.3 199.358 1098.48 181.682 1133.33 170.906C1169.41 159.752 1209.22 156.018 1251.66 159.81C1312.87 165.28 1384.99 181.807 1461.35 199.304C1507.53 209.887 1555.29 220.831 1603.79 230.096C1740.36 256.183 1897.2 279.838 2024.98 257.495C2112.64 242.168 2187.53 203.933 2247.59 143.852C2368.35 23.0433 2379.57 -156.751 2380.92 -345.909L2381.28 -345.906C2380.66 -259.283 2378.61 -167.63 2361.2 -82.9932C2341.4 13.3367 2304.32 87.6236 2247.85 144.112C2217.53 174.449 2182.86 199.546 2144.81 218.706C2108.06 237.216 2067.76 250.388 2025.04 257.858C1967.64 267.896 1900.6 269.392 1820.09 262.433C1739.91 255.502 1658.21 240.865 1603.73 230.457C1555.21 221.191 1507.45 210.247 1461.27 199.663C1384.92 182.168 1312.81 165.644 1251.62 160.177C1163.46 152.299 1087.57 177.103 1032.14 231.903C1022.22 241.749 1012.58 252.739 1003.48 264.568C953.53 329.697 924.861 411.29 895.137 503.46C882.105 543.719 869.632 584.999 857.569 624.919C830.939 713.047 803.403 804.176 767.954 890.714C756.237 919.312 744.54 945.429 732.195 970.558C709.873 1015.99 685.425 1057.34 659.531 1093.46C630.642 1133.75 598.759 1169.22 564.768 1198.87C557.457 1205.26 549.841 1211.53 542.132 1217.51C505.525 1245.86 464.478 1270 416.647 1291.29C376.54 1309.15 331.29 1325.08 278.31 1339.99C253.867 1346.93 228.937 1353.47 204.828 1359.79L204.736 1359.43C228.842 1353.11 253.77 1346.58 278.21 1339.64C391.428 1307.77 475.22 1268.87 541.908 1217.22C549.611 1211.24 557.221 1204.98 564.527 1198.6C629.572 1141.84 684.306 1067.2 731.866 970.398C744.208 945.276 755.902 919.166 767.615 890.576C803.058 804.054 830.591 712.934 857.218 624.815C869.281 584.893 881.755 543.611 894.788 503.349C908.552 460.667 922.32 419.005 939.374 378.538C958.877 332.259 979.753 294.906 1003.19 264.346C1012.3 252.504 1021.95 241.502 1031.88 231.644C1034.69 228.861 1037.56 226.152 1040.48 223.524Z" fill="#001F3F"/>
<path d="M1044.18 226.374C1073.01 200.395 1107.25 182.226 1146 172.34C1182.55 163.016 1223.18 161.014 1266.75 166.389C1330.48 174.253 1401.49 192.57 1476.68 211.964C1521.09 223.421 1567.02 235.268 1613.37 245.428C1737.49 272.638 1896.87 301.138 2028.62 279.834C2115.98 265.709 2190.54 229.145 2250.23 171.16C2385.79 39.4889 2386.83 -174.189 2387.59 -330.21L2387.96 -330.208C2387.5 -237.204 2385.64 -146.586 2367.96 -60.407C2347.68 38.5135 2309.25 114.346 2250.49 171.424C2220.17 200.872 2185.53 225.092 2147.53 243.409C2111.12 260.954 2071.14 273.331 2028.68 280.196C1970.66 289.579 1904.06 290.138 1825.08 281.905C1763.91 275.528 1696.61 264.051 1613.29 245.787C1566.93 235.626 1521 223.778 1476.58 212.32C1401.41 192.929 1330.41 174.614 1266.7 166.754C1175.46 155.496 1097.61 177.109 1041.57 229.262C1031.31 238.849 1021.33 249.603 1011.91 261.224C956.165 330.169 924.888 423.357 899.757 498.236C885.398 540.894 871.726 584.677 858.504 627.019C831.909 712.186 804.41 800.253 769.834 883.987C758.037 912.553 746.319 938.603 734.011 963.627C686.883 1059.44 633.144 1133.81 569.799 1190.89C569.186 1191.44 568.584 1191.98 567.969 1192.53C560.744 1198.99 553.213 1205.34 545.582 1211.42C509.362 1240.24 468.739 1265.01 421.39 1287.15C381.44 1305.82 336.486 1322.63 283.958 1338.55C259.56 1345.98 234.707 1353.01 210.673 1359.81L210.573 1359.46C234.605 1352.66 259.456 1345.63 283.851 1338.19C396.015 1304.22 479.11 1263.84 545.353 1211.14C552.978 1205.06 560.505 1198.71 567.724 1192.26C568.331 1191.71 568.948 1191.16 569.553 1190.62C632.87 1133.57 686.568 1059.24 733.681 963.464C745.986 938.448 757.701 912.405 769.495 883.847C804.063 800.128 831.562 712.069 858.154 626.909C871.376 584.566 885.049 540.781 899.409 498.118C913.702 455.53 927.987 413.99 945.547 373.991C965.761 327.946 987.374 290.983 1011.62 260.992C1021.05 249.358 1031.04 238.592 1041.32 228.993C1042.27 228.113 1043.22 227.238 1044.18 226.374Z" fill="#001F3F"/>
<path d="M1048.15 228.674C1049.02 227.89 1049.89 227.114 1050.77 226.345C1080.93 199.907 1117.23 182.223 1158.64 173.784C1195.6 166.253 1237.05 165.978 1281.84 172.968C1348.45 183.363 1418.77 203.626 1493.22 225.08C1535.47 237.255 1579.16 249.844 1622.94 260.759C1733.22 288.252 1895.63 322.458 2032.27 302.172C2119.41 289.233 2193.63 254.344 2252.88 198.468C2318.11 136.946 2353.14 58.4451 2372.01 -24.9916C2350.59 70.2801 2311.63 143.563 2253.13 198.735C2193.83 254.659 2119.54 289.585 2032.32 302.535C2001.98 307.039 1968.75 309.113 1933.55 308.701C1901.44 308.324 1866.62 305.863 1830.06 301.385C1769.64 293.984 1701.86 280.812 1622.85 261.115C1579.06 250.198 1535.37 237.608 1493.12 225.432C1418.68 203.982 1348.37 183.722 1281.78 173.33C1186.05 158.389 1108.41 176.319 1051.01 226.621C1040.39 235.948 1030.07 246.466 1020.34 257.879C962.884 325.341 930.444 418.31 904.378 493.012C888.614 538.102 873.684 584.431 859.245 629.234C832.765 711.405 805.383 796.373 771.715 877.26C759.834 905.802 748.095 931.786 735.827 956.696C688.233 1053.33 634.374 1128.4 571.172 1186.19C564.037 1192.71 556.589 1199.16 549.032 1205.34C513.197 1234.63 472.997 1260.03 426.135 1283C386.338 1302.5 341.679 1320.2 289.607 1337.1C265.3 1345.02 240.501 1352.56 216.52 1359.84L216.413 1359.49C240.393 1352.2 265.19 1344.67 289.493 1336.75C400.592 1300.7 482.988 1258.85 548.8 1205.06C556.351 1198.88 563.795 1192.44 570.924 1185.92C634.092 1128.16 687.924 1053.13 735.498 956.535C747.762 931.632 759.498 905.655 771.377 877.12C805.038 796.246 832.418 711.285 858.896 629.122C873.335 584.317 888.266 537.986 904.033 492.892C918.862 450.393 933.668 408.973 951.722 369.448C972.647 323.638 995 287.066 1020.06 257.642C1029 247.155 1038.44 237.423 1048.15 228.674ZM2394.27 -314.512L2394.63 -314.511C2394.48 -257.579 2393.81 -201.547 2389.54 -147.077C2393.97 -204.499 2394.12 -261.522 2394.27 -314.512Z" fill="#001F3F"/>
<path d="M1051.25 231.431C1054.21 228.766 1057.2 226.186 1060.21 223.696C1091.13 198.169 1128.49 181.865 1171.25 175.237C1208.55 169.455 1250.83 170.905 1296.93 179.546C1366.84 192.652 1436.83 215.047 1510.93 238.757C1550.62 251.459 1591.67 264.593 1632.51 276.09C1801.06 323.539 1929.24 338.925 2035.91 324.509C2122.94 312.747 2196.83 279.52 2255.52 225.775C2400.69 92.8235 2400.83 -124.328 2400.94 -298.813L2401.3 -298.813C2401.28 -253.167 2401.03 -204.57 2398.42 -156.408C2395.51 -102.709 2390 -56.4899 2381.57 -15.11C2371.47 34.4743 2357.29 77.2151 2338.21 115.554C2327.84 136.383 2315.88 156.02 2302.65 173.919C2288.73 192.764 2272.96 210.302 2255.77 226.047C2225.53 253.749 2190.94 276.215 2152.97 292.83C2117.36 308.411 2077.99 319.192 2035.96 324.874C2005.36 329.009 1972.15 330.648 1937.26 329.748C1905.29 328.924 1870.89 325.938 1835.03 320.876C1774.58 312.344 1708.3 297.81 1632.41 276.445C1591.57 264.946 1550.51 251.811 1510.81 239.108C1436.73 215.402 1366.75 193.009 1296.86 179.908C1197.88 161.353 1118.34 176.181 1060.44 223.98C1049.47 233.049 1038.81 243.331 1028.76 254.536C969.618 320.517 936.004 413.264 908.996 487.788C891.743 535.343 875.495 584.259 859.783 631.564C833.497 710.702 806.316 792.535 773.591 870.534C761.624 899.057 749.864 924.974 737.639 949.765C690.026 1046.32 636.621 1121.58 574.37 1179.84C567.318 1186.45 559.951 1192.98 552.477 1199.26C487.048 1254.19 405.313 1297.53 295.25 1335.65C271.015 1344.06 246.28 1352.1 222.36 1359.87L222.246 1359.52C246.165 1351.75 270.897 1343.71 295.13 1335.31C405.149 1297.2 486.848 1253.88 552.241 1198.98C559.71 1192.7 567.071 1186.17 574.118 1179.58C636.337 1121.34 689.717 1046.12 737.309 949.603C749.53 924.818 761.287 898.908 773.252 870.391C805.971 792.406 833.15 710.58 859.434 631.448C875.147 584.141 891.395 535.223 908.65 487.663C924.021 445.25 939.353 403.947 957.891 364.903C979.529 319.328 1002.62 283.145 1028.48 254.29C1035.79 246.146 1043.42 238.49 1051.25 231.431Z" fill="#001F3F"/>
<path d="M1054.36 233.871C1059.36 229.365 1064.45 225.096 1069.65 221.051C1086.04 208.302 1104.33 198.072 1124 190.644C1142.39 183.703 1162.52 179.011 1183.83 176.698C1221.93 172.562 1263.86 175.646 1312.02 186.127C1385.69 202.163 1458.9 228.052 1529.69 253.089C1566.48 266.097 1604.51 279.548 1642.08 291.424C1926.52 381.335 2128.04 368.794 2258.16 253.086C2258.75 252.565 2259.34 252.033 2259.92 251.509C2408.16 117.95 2407.85 -104.346 2407.61 -283.113L2407.98 -283.113C2408.12 -177.539 2406.75 -82.792 2388.42 7.60675C2378.11 58.4341 2363.53 102.132 2343.83 141.199C2333.12 162.443 2320.75 182.427 2307.05 200.596C2292.63 219.734 2276.26 237.486 2258.41 253.36C2238.57 271 2216.75 286.46 2193.55 299.31C2171.43 311.564 2147.44 321.784 2122.25 329.686C2075.79 344.263 2023.3 351.551 1966.25 351.347C1873.81 351.017 1767.74 331.53 1641.97 291.775C1604.4 279.896 1566.36 266.445 1529.57 253.435C1458.79 228.402 1385.59 202.517 1311.94 186.486C1208.22 163.913 1129.04 175.313 1069.88 221.341C1064.67 225.394 1059.61 229.642 1054.72 234.047C982.658 298.975 944.593 400.195 913.616 482.567C894.791 532.62 877.166 584.166 860.122 634.014C834.112 710.084 807.216 788.743 775.471 863.809C748.436 927.736 721.103 981.876 691.913 1029.32C656.986 1086.09 619.585 1133.25 577.572 1173.5C540.663 1208.87 498.404 1239.68 448.385 1267.71C405.734 1291.61 357.49 1313.36 300.898 1334.21C276.737 1343.11 252.065 1351.65 228.204 1359.91L228.085 1359.56C251.943 1351.3 276.613 1342.76 300.771 1333.86C421.472 1289.4 509.345 1238.36 577.317 1173.24C654.046 1099.73 716.904 1001.36 775.133 863.667C806.873 788.613 833.767 709.959 859.775 633.896C876.82 584.045 894.446 532.498 913.273 482.439C932.768 430.6 950.83 384.111 974.475 340.127C998.436 295.553 1024.69 260.598 1054.36 233.871Z" fill="#001F3F"/>
</g>
</svg>
