<svg width="448" height="404" viewBox="0 0 448 404" fill="none" xmlns="http://www.w3.org/2000/svg">
<path d="M439.81 173.064L356.947 29.541C346.605 11.6279 327.331 0.5 306.646 0.5H140.92C120.235 0.5 100.961 11.6279 90.6195 29.541L7.75659 173.064C-2.58564 190.977 -2.58564 213.233 7.75659 231.146L90.6195 374.669C100.962 392.583 120.236 403.71 140.92 403.71H306.646C327.331 403.71 346.604 392.583 356.946 374.669L439.81 231.146C450.152 213.234 450.152 190.977 439.81 173.064ZM416.947 217.946L334.084 361.469C328.443 371.24 317.929 377.31 306.647 377.31L247.772 345.117C232.824 336.943 214.743 336.943 199.795 345.117L140.92 377.31C129.638 377.31 119.124 371.24 113.483 361.469L30.6198 217.946C24.9787 208.175 24.9787 196.035 30.6198 186.264L113.483 42.741C119.124 32.97 129.637 26.9006 140.92 26.9006H141.215C154.976 26.9006 164.982 39.7449 161.879 53.1513C160.878 57.4742 160.32 61.9666 160.255 66.5778C159.761 101.547 188.521 130.789 223.493 130.851C258.54 130.914 286.97 102.522 286.97 67.4908C286.97 62.4883 286.391 57.6212 285.294 52.953C282.166 39.6377 292.325 26.9 306.002 26.9H306.646C317.928 26.9 328.441 32.97 334.082 42.7405L416.945 186.264C422.587 196.036 422.587 208.175 416.947 217.946Z" fill="#001F3F"/>
</svg>
