<svg width="30" height="30" viewBox="0 0 30 30" fill="none" xmlns="http://www.w3.org/2000/svg">
<path d="M6.85388 5.53542C7.09658 5.53542 7.29334 5.33866 7.29334 5.09596C7.29334 4.85327 7.09658 4.65651 6.85388 4.65651C6.61119 4.65651 6.41443 4.85327 6.41443 5.09596C6.41443 5.33866 6.61113 5.53542 6.85388 5.53542ZM3.33826 5.53542C3.58096 5.53542 3.77771 5.33866 3.77771 5.09596C3.77771 4.85327 3.58096 4.65651 3.33826 4.65651C3.09557 4.65651 2.89881 4.85327 2.89881 5.09596C2.89881 5.33866 3.09551 5.53542 3.33826 5.53542ZM5.09607 5.53542C5.33877 5.53542 5.53553 5.33866 5.53553 5.09596C5.53553 4.85327 5.33877 4.65651 5.09607 4.65651C4.85338 4.65651 4.65662 4.85327 4.65662 5.09596C4.65662 5.33866 4.85332 5.53542 5.09607 5.53542ZM4.99969 10.1909C5.00238 10.1909 5.00508 10.1909 5.00777 10.1909L8.98095 10.1919H8.98119C9.2557 10.1919 9.48873 10.0141 9.56121 9.74936C9.63375 9.48452 9.52365 9.2127 9.2874 9.07296L8.68312 8.71542C9.65437 7.75278 10.2006 6.43934 10.192 5.06321C10.1746 2.31118 7.92211 0.0401466 5.1709 0.000537259C2.32002 -0.0404198 0 2.26565 0 5.09608C0 7.81032 2.23641 10.1321 4.99969 10.1909ZM2.13574 2.09257C2.94609 1.29382 4.01719 0.863447 5.1583 0.879326C7.43484 0.91208 9.29865 2.79141 9.31306 5.06872C9.32086 6.29737 8.79398 7.46579 7.8675 8.27426C7.71258 8.40938 7.63142 8.61217 7.65017 8.81672C7.66892 9.02116 7.7857 9.20561 7.96236 9.31008L7.96675 9.31266L5.01211 9.31196C2.72801 9.26813 0.878906 7.38645 0.878906 5.09608C0.878906 3.95813 1.32527 2.89149 2.13574 2.09257ZM29.5605 29.1211H29.1211V22.5768C29.1211 20.8622 28.1079 19.3052 26.535 18.608L24.2191 17.6154C24.7826 17.4376 25.2917 17.1205 25.706 16.6806C26.331 16.017 26.6894 15.1166 26.6894 14.2102C26.6894 13.3774 26.3985 12.5913 25.8479 11.9367C25.1592 11.1189 24.7799 10.0796 24.7799 9.01003V6.90417C24.7799 5.05975 24.0616 3.32608 22.7574 2.02255C21.4532 0.718252 19.7194 9.91583e-06 17.8752 9.91583e-06C14.0682 9.91583e-06 10.9711 3.09716 10.9711 6.90411V8.94141C10.9713 10.0481 10.5364 11.1045 9.82963 11.9561C8.94011 13.0277 8.75531 14.4767 9.3474 15.7375C9.78685 16.6733 10.5795 17.3457 11.5284 17.6303L9.22863 18.6304C7.61513 19.3093 6.57252 20.8791 6.57252 22.6296V27.8028C6.57252 28.0455 6.76922 28.2422 7.01197 28.2422C7.25472 28.2422 7.45142 28.0455 7.45142 27.8028V22.6296C7.45142 21.2337 8.28281 19.9819 9.57433 19.4384L12.457 18.1849V20.8301H11.1326C10.7594 20.8301 10.4021 20.9892 10.1525 21.2667C9.90287 21.5442 9.78228 21.9162 9.82166 22.2874L10.5461 29.1211H0.439453C0.196699 29.1211 0 29.3179 0 29.5605C0 29.8032 0.196699 30 0.439453 30H29.5605C29.8033 30 30 29.8032 30 29.5605C30 29.3179 29.8033 29.1211 29.5605 29.1211ZM25.1754 12.5026C25.5909 12.9966 25.8105 13.587 25.8105 14.2102C25.8105 14.8949 25.5392 15.5757 25.0662 16.078C24.5654 16.6097 23.8773 16.9025 23.1288 16.9025H22.5561L21.8038 16.5801C21.1467 16.2983 20.6971 15.6941 20.6052 14.9987C21.9612 14.2686 22.885 12.8357 22.885 11.1908V7.88714C23.0136 7.89587 23.1421 7.90061 23.2703 7.90061C23.4816 7.90061 23.6921 7.8886 23.901 7.86493V9.00997C23.901 10.2864 24.3537 11.5268 25.1754 12.5026ZM17.982 19.4402C16.4099 19.468 14.8496 19.2688 13.3359 18.849V17.8027L13.463 17.7474C13.464 17.747 13.465 17.7465 13.4661 17.7461L14.2501 17.4052C15.1227 17.0258 15.7394 16.2488 15.9264 15.3407C16.3091 15.4519 16.713 15.5128 17.1311 15.5128H18.5631C18.9828 15.5128 19.3882 15.4515 19.7722 15.3394C19.9653 16.2433 20.5843 17.0134 21.4574 17.3879L22.2942 17.7465C22.2947 17.7468 22.2952 17.747 22.2957 17.7472L22.3577 17.7737V18.7626C20.9355 19.1864 19.4651 19.4143 17.982 19.4402ZM22.3576 19.6776V20.8301H13.3359V19.759C14.7606 20.1326 16.2233 20.3216 17.6959 20.3216C17.7964 20.3216 17.8969 20.3207 17.9974 20.319C19.4733 20.2932 20.9372 20.0775 22.3576 19.6776ZM23.901 6.97876C22.6905 7.14229 21.326 6.81803 20.3859 6.08966C20.1942 5.94106 19.9181 5.97598 19.7694 6.16788C19.6208 6.35971 19.6558 6.63575 19.8476 6.7844C20.4622 7.26053 21.2035 7.59592 22.0061 7.76503V10.1575C21.7949 10.6388 21.5599 11.039 21.0299 11.4762C20.8067 11.6603 20.5625 11.8132 20.301 11.9345C20.0874 11.5177 19.6536 11.2317 19.1541 11.2317H18.1242C17.4139 11.2317 16.836 11.8096 16.836 12.5198C16.836 13.2301 17.4139 13.808 18.1242 13.808H19.1541C19.7518 13.808 20.2557 13.3987 20.4004 12.8457C20.9883 12.6217 21.9468 11.8226 21.947 11.8223C21.6494 13.42 20.2458 14.6336 18.5631 14.6336H17.131C15.2326 14.6336 13.6881 13.0891 13.6881 11.1906V7.79374C15.1806 7.55977 16.5907 7.05469 17.8839 6.28981C19.8528 5.12514 21.1158 3.60323 21.878 2.40083C23.1821 3.56233 23.924 5.22751 23.901 6.97876ZM19.5632 12.5211C19.5626 12.7463 19.3793 12.9292 19.154 12.9292H18.1242C17.8985 12.9292 17.7149 12.7456 17.7149 12.52C17.7149 12.2943 17.8985 12.1107 18.1242 12.1107H19.154C19.3792 12.1107 19.5625 12.2936 19.5632 12.5186V12.5211ZM11.85 6.90411C11.85 3.58179 14.5529 0.878916 17.8752 0.878916C19.0667 0.878916 20.2053 1.22286 21.1782 1.86317C20.4768 2.98753 19.2962 4.43339 17.4364 5.53354C16.1605 6.28823 14.761 6.77005 13.2766 6.96563H13.2492C13.249 6.96563 13.2488 6.96563 13.2486 6.96563C13.2483 6.96563 13.2482 6.96563 13.248 6.96563H11.8499V6.90411H11.85ZM10.1429 15.3639C9.69726 14.4148 9.83636 13.324 10.5054 12.518C11.3449 11.5066 11.8509 10.257 11.85 8.94141V7.84454H12.8092V11.1908C12.8092 12.8367 13.7342 14.2702 15.0913 14.9999C15.0064 15.7006 14.5583 16.3127 13.8995 16.5991L13.2018 16.9025H12.5648C11.5166 16.9025 10.5886 16.313 10.1429 15.3639ZM25.4409 22.1948L24.7067 29.1211H11.4299L10.6956 22.1948C10.6823 22.0692 10.7215 21.9484 10.8059 21.8546C10.8903 21.7607 11.0064 21.709 11.1326 21.709H25.0039C25.1301 21.709 25.2462 21.7607 25.3307 21.8546C25.4151 21.9484 25.4542 22.0692 25.4409 22.1948ZM28.2422 29.1211H25.5905L26.3149 22.2875C26.3543 21.9163 26.2336 21.5443 25.9841 21.2668C25.7344 20.9893 25.3772 20.8301 25.0039 20.8301H23.2365V18.1505L26.1838 19.4137C27.4342 19.968 28.2422 21.2095 28.2422 22.5768V29.1211ZM18.0683 23.7451C17.1475 23.7451 16.3983 24.4942 16.3983 25.415C16.3983 26.3358 17.1475 27.085 18.0683 27.085C18.9891 27.085 19.7382 26.3358 19.7382 25.415C19.7382 24.4942 18.9891 23.7451 18.0683 23.7451ZM18.0683 26.2061C17.6321 26.2061 17.2772 25.8512 17.2772 25.415C17.2772 24.9789 17.6321 24.624 18.0683 24.624C18.5044 24.624 18.8593 24.9789 18.8593 25.415C18.8593 25.8512 18.5045 26.2061 18.0683 26.2061Z" fill="white"/>
</svg>
