<svg width="50" height="37" viewBox="0 0 50 37" fill="none" xmlns="http://www.w3.org/2000/svg">
<path d="M40.6849 27.8188C39.4107 27.8188 38.374 28.8555 38.374 30.1297C38.374 31.4039 39.4106 32.4405 40.6849 32.4405C41.9591 32.4405 42.9957 31.4039 42.9957 30.1297C42.9957 28.8555 41.959 27.8188 40.6849 27.8188ZM40.6849 30.9756C40.2185 30.9756 39.8389 30.5961 39.8389 30.1296C39.8389 29.6631 40.2184 29.2836 40.6849 29.2836C41.1514 29.2836 41.5309 29.6631 41.5309 30.1296C41.5309 30.5961 41.1513 30.9756 40.6849 30.9756Z" fill="white"/>
<path d="M9.31475 27.8188C8.04063 27.8188 7.00391 28.8555 7.00391 30.1297C7.00391 31.4039 8.04053 32.4405 9.31475 32.4405C10.589 32.4405 11.6256 31.4039 11.6256 30.1297C11.6256 28.8555 10.589 27.8188 9.31475 27.8188ZM9.31475 30.9756C8.84834 30.9756 8.46875 30.5961 8.46875 30.1296C8.46875 29.6631 8.84824 29.2836 9.31475 29.2836C9.78125 29.2836 10.1607 29.6631 10.1607 30.1296C10.1607 30.5961 9.78125 30.9756 9.31475 30.9756Z" fill="white"/>
<path d="M45.1245 16.4594C46.0724 16.4594 46.8435 15.6883 46.8435 14.7405V12.9053C46.8435 12.4462 46.6646 12.0146 46.34 11.6899L42.4536 7.80347C42.129 7.47876 41.6973 7.30005 41.2382 7.30005H36.4436C35.4957 7.30005 34.7246 8.07114 34.7246 9.01899V14.7406C34.7246 15.6884 35.4957 16.4595 36.4436 16.4595L45.1245 16.4594ZM36.1894 14.7405V9.0189C36.1894 8.87876 36.3033 8.76479 36.4435 8.76479H41.2381C41.306 8.76479 41.3698 8.79126 41.4178 8.83921L45.3041 12.7256C45.3521 12.7737 45.3786 12.8375 45.3786 12.9053V14.7405C45.3786 14.8806 45.2646 14.9946 45.1245 14.9946H36.4434C36.3033 14.9946 36.1894 14.8806 36.1894 14.7405Z" fill="white"/>
<path d="M50 12.0062C50 11.2933 49.7108 10.596 49.2074 10.0938L44.0501 4.93555C43.539 4.42441 42.8595 4.14287 42.1367 4.14287H33.6807C32.5153 4.14287 31.5674 5.09131 31.5674 6.25713V9.67021C31.5674 10.0747 31.8953 10.4026 32.2998 10.4026C32.7043 10.4026 33.0322 10.0747 33.0322 9.67021V6.25713C33.0322 5.89902 33.3231 5.60771 33.6807 5.60771H42.1367C42.4682 5.60771 42.7799 5.73682 43.0143 5.97129L48.1723 11.1303C48.4028 11.3603 48.5352 11.6796 48.5352 12.0062V18.1513H43.546C42.8157 18.1513 42.2217 18.7453 42.2217 19.4756V21.4485C42.2217 22.1788 42.8157 22.7729 43.546 22.7729H48.5352V27.8188H46.3917C45.4758 25.5652 43.2637 23.9716 40.6852 23.9716C38.1066 23.9716 35.8945 25.5653 34.9786 27.8188H33.0322V13.098C33.0322 12.6936 32.7043 12.3656 32.2998 12.3656C31.8953 12.3656 31.5674 12.6936 31.5674 13.098V18.7436H29.0865V11.5838C29.0865 10.6359 28.3154 9.86484 27.3676 9.86484H23.1676V1.71895C23.1676 0.771093 22.3965 0 21.4486 0H11.5838C10.6359 0 9.86484 0.771093 9.86484 1.71895V9.86494H5.66484C4.71699 9.86494 3.9459 10.636 3.9459 11.5839V18.7437H1.91602C0.85957 18.7436 0 19.603 0 20.6596V22.2992C0 22.7037 0.32793 23.0316 0.732422 23.0316C1.13691 23.0316 1.46484 22.7037 1.46484 22.2992V20.6596C1.46484 20.4108 1.66729 20.2084 1.91602 20.2084H31.5674V27.8189H15.0214C14.1055 25.5653 11.8934 23.9717 9.31484 23.9717C6.73633 23.9717 4.52422 25.5654 3.6083 27.8189H1.46484V25.727C1.46484 25.3225 1.13691 24.9945 0.732422 24.9945C0.32793 24.9945 0 25.3225 0 25.727V30.5243C0 31.581 0.85957 32.4405 1.91621 32.4405H3.6083C4.52422 34.694 6.73633 36.2878 9.31484 36.2878C11.8933 36.2878 14.1053 34.6941 15.0213 32.4407H26.209C26.6135 32.4407 26.9414 32.1128 26.9414 31.7083C26.9414 31.3038 26.6135 30.9759 26.209 30.9759H15.4134C15.4517 30.699 15.4729 30.4169 15.4729 30.1297C15.4729 29.8426 15.4517 29.5605 15.4134 29.2837H34.5866C34.5484 29.5605 34.5271 29.8426 34.5271 30.1297C34.5271 30.4169 34.5483 30.699 34.5866 30.9759H29.6367C29.2322 30.9759 28.9043 31.3038 28.9043 31.7083C28.9043 32.1128 29.2322 32.4407 29.6367 32.4407H34.9787C35.8947 34.6941 38.1067 36.2878 40.6852 36.2878C43.2637 36.2878 45.4758 34.694 46.3917 32.4405H48.0838C49.1404 32.4405 50 31.581 50 30.5243V12.0062ZM27.6217 11.5838V18.7433H17.2486V11.3297H20.1243V13.8312C20.1243 14.2407 20.3468 14.6185 20.705 14.817C21.0631 15.0154 21.5013 15.004 21.8486 14.7869L22.4351 14.4204L23.0215 14.7869C23.2038 14.9009 23.4112 14.9581 23.6189 14.9581C23.8068 14.9581 23.995 14.9112 24.1651 14.8169C24.5233 14.6184 24.7459 14.2407 24.7459 13.8312V11.3296H27.3676C27.5077 11.3298 27.6217 11.4438 27.6217 11.5838ZM23.2811 11.3298V13.2219L23.0323 13.0664C22.6694 12.8396 22.2005 12.8396 21.8378 13.0664L21.5892 13.2218V11.3297H23.2811V11.3298ZM15.6702 1.46494H17.3621V3.35703L17.1135 3.20166C16.7507 2.9749 16.2818 2.9748 15.9188 3.20166L15.6702 3.35703V1.46494ZM11.3297 1.71895C11.3297 1.57881 11.4437 1.46484 11.5838 1.46484H14.2055V3.96641C14.2055 4.37588 14.4279 4.75371 14.7861 4.95215C15.1442 5.15059 15.5824 5.13926 15.9298 4.92207L16.5162 4.55557L17.1026 4.92207C17.285 5.03604 17.4923 5.09326 17.7 5.09326C17.8879 5.09326 18.0762 5.04639 18.2463 4.95205C18.6045 4.75352 18.827 4.37578 18.827 3.96631V1.46494H21.4486C21.5888 1.46494 21.7027 1.57891 21.7027 1.71904V9.86504H11.3297V1.71895ZM9.75137 11.3298H11.4433V13.2219L11.1946 13.0665C10.8318 12.8397 10.363 12.8397 10 13.0665L9.75137 13.2219V11.3298ZM5.41084 11.5838C5.41084 11.4437 5.5248 11.3297 5.66494 11.3297H8.28652V13.8312C8.28652 14.2407 8.50908 14.6185 8.86729 14.817C9.0374 14.9113 9.22559 14.9582 9.41348 14.9582C9.62119 14.9582 9.82861 14.901 10.0108 14.787L10.5973 14.4205L11.1837 14.787C11.5311 15.0041 11.9692 15.0155 12.3273 14.8171C12.6855 14.6186 12.908 14.2409 12.908 13.8313V11.3298H15.7837V18.7434H5.41084V11.5838ZM1.91621 30.9757C1.66729 30.9757 1.46484 30.7732 1.46484 30.5243V29.2838H3.21631C3.17813 29.5605 3.15674 29.8427 3.15674 30.1298C3.15674 30.4169 3.17803 30.699 3.21631 30.9758H1.91621V30.9757ZM9.31484 34.8229C6.72695 34.8229 4.62158 32.7176 4.62158 30.1297C4.62158 27.5418 6.72695 25.4364 9.31484 25.4364C11.9027 25.4364 14.0081 27.5418 14.0081 30.1297C14.0081 32.7176 11.9027 34.8229 9.31484 34.8229ZM43.6865 19.6162H45.3784V21.3081H43.6865V19.6162ZM46.8433 21.3081V19.6162H48.5352V21.3081H46.8433ZM40.6852 34.8229C38.0973 34.8229 35.9919 32.7176 35.9919 30.1297C35.9919 27.5418 38.0973 25.4364 40.6852 25.4364C43.273 25.4364 45.3784 27.5418 45.3784 30.1297C45.3784 32.7176 43.273 34.8229 40.6852 34.8229ZM48.5352 30.5243C48.5352 30.7732 48.3327 30.9757 48.0838 30.9757H46.7837C46.8219 30.6989 46.8433 30.4168 46.8433 30.1297C46.8433 29.8426 46.822 29.5605 46.7837 29.2837H48.5352V30.5243Z" fill="white"/>
<path d="M0.732422 1.46484H7.44053C7.84502 1.46484 8.17295 1.13691 8.17295 0.732422C8.17295 0.32793 7.84502 0 7.44053 0H0.732422C0.32793 0 0 0.32793 0 0.732422C0 1.13691 0.32793 1.46484 0.732422 1.46484Z" fill="white"/>
<path d="M7.44092 3.15674H4.08691C3.68242 3.15674 3.35449 3.48467 3.35449 3.88916C3.35449 4.29365 3.68242 4.62158 4.08691 4.62158H7.44092C7.84541 4.62158 8.17334 4.29365 8.17334 3.88916C8.17334 3.48467 7.84541 3.15674 7.44092 3.15674Z" fill="white"/>
<path d="M7.44082 6.31348H2.46777C2.06328 6.31348 1.73535 6.64141 1.73535 7.0459C1.73535 7.45039 2.06328 7.77832 2.46777 7.77832H7.44082C7.84531 7.77832 8.17324 7.45039 8.17324 7.0459C8.17324 6.64141 7.84531 6.31348 7.44082 6.31348Z" fill="white"/>
</svg>
