<svg width="54" height="50" viewBox="0 0 54 50" fill="none" xmlns="http://www.w3.org/2000/svg">
<path d="M52.7083 25.0437C48.7286 25.0298 44.8541 23.7639 41.6339 21.4252C41.0431 20.983 40.3373 21.5999 39.8499 21.9101L39.5064 21.7928L37.6446 10.6764C37.454 9.64669 36.8689 8.73206 36.014 8.12729C35.1591 7.52252 34.1019 7.27539 33.0675 7.43852V5.87336C33.0665 5.17569 32.789 4.50686 32.2956 4.01352C31.8023 3.52019 31.1335 3.24263 30.4358 3.24169H27.5215V1.95191C27.521 1.43454 27.3153 0.938502 26.9495 0.572584C26.5838 0.206666 26.0879 0.000748649 25.5705 0H21.3914C20.8741 0.000748649 20.3781 0.206666 20.0124 0.572584C19.6467 0.938502 19.441 1.43454 19.4405 1.95191V3.2417H16.5261C15.8284 3.24264 15.1596 3.5202 14.6663 4.01353C14.1729 4.50687 13.8954 5.1757 13.8944 5.87337V7.43843C12.8604 7.27543 11.8036 7.52229 10.9489 8.12649C10.0941 8.7307 9.50875 9.64458 9.31742 10.6737L7.45538 21.7938L3.47004 23.1559C2.70223 23.4631 2.08762 24.0623 1.76109 24.822C1.43455 25.5818 1.42276 26.4401 1.72831 27.2085C2.16474 28.1929 7.10332 40.6812 7.68336 42.052C5.04908 41.58 4.62287 40.2824 1.28195 40.3111C1.03202 40.3151 0.793663 40.4172 0.618324 40.5953C0.442984 40.7735 0.344717 41.0134 0.344727 41.2634C0.344737 41.5133 0.443023 41.7533 0.618377 41.9314C0.793731 42.1095 1.03209 42.2116 1.28202 42.2155C4.8959 42.2605 4.92513 44.0638 8.83479 44.0307C12.5538 44.0904 12.8919 42.2537 16.3968 42.2154C20.0166 42.2612 20.0421 44.0644 23.9599 44.0307C26.9758 44.0314 27.5751 43.0573 29.7131 42.4148C30.3316 43.5371 31.1471 44.5389 32.1207 45.3721C30.4633 45.2497 28.8045 45.5898 27.329 46.3547C26.2981 46.9199 25.1353 47.2008 23.9599 47.1683C22.7846 47.2008 21.6218 46.9199 20.5908 46.3546C19.3021 45.6659 17.8577 45.321 16.3969 45.3531C12.4798 45.3172 12.4533 47.1244 8.83477 47.1683C5.2222 47.1241 5.19759 45.3168 1.28195 45.3532C1.03217 45.3573 0.794039 45.4595 0.618884 45.6376C0.44373 45.8158 0.345578 46.0556 0.345586 46.3054C0.345593 46.5552 0.443759 46.795 0.618924 46.9731C0.794089 47.1512 1.03223 47.2534 1.282 47.2575C2.45746 47.2247 3.62041 47.5059 4.65102 48.0722C5.93644 48.7597 7.37734 49.1043 8.83472 49.0728C10.2952 49.1048 11.7394 48.7598 13.0278 48.0712C14.0587 47.5059 15.2216 47.2251 16.3969 47.2576C17.5725 47.225 18.7357 47.5058 19.7669 48.0712C21.0553 48.7598 22.4994 49.1048 23.9599 49.0728C27.8778 49.1056 27.9029 47.3033 31.5229 47.2575C35.0719 47.2988 35.1257 49.0317 38.9104 49.0656L40.7134 49.9097C40.8396 49.9692 40.9774 50 41.1169 50C41.2565 50 41.3943 49.9692 41.5205 49.9097L47.2219 47.2408C51.1898 45.3838 53.655 41.8696 53.655 38.0718V25.9959C53.655 25.7443 53.5554 25.503 53.378 25.3245C53.2007 25.1461 52.9599 25.0451 52.7083 25.0437ZM21.3914 1.90447L25.617 1.95191V3.2417H21.3645L21.3914 1.90447ZM15.799 5.8734C15.7992 5.68062 15.8759 5.49582 16.0123 5.3595C16.1486 5.22319 16.3334 5.14648 16.5261 5.1462C16.5261 5.1462 28.1097 5.14499 30.4358 5.1462C30.6286 5.14648 30.8134 5.22318 30.9498 5.35949C31.0861 5.49581 31.1628 5.68061 31.1631 5.8734V7.43752H15.7989L15.799 5.8734ZM11.1958 10.9852C11.2714 10.5248 11.5088 10.1065 11.8652 9.80543C12.2216 9.50439 12.6738 9.3404 13.1403 9.34293H33.8217C34.2886 9.34047 34.7411 9.50485 35.0976 9.80645C35.4541 10.1081 35.6912 10.5271 35.7661 10.988L37.4584 21.0934L23.7841 16.4233C23.5847 16.3545 23.368 16.3545 23.1685 16.4233L9.50356 21.0938L11.1958 10.9852ZM4.13122 24.9414L23.4763 18.3306L37.6551 23.1729C36.6556 23.6606 35.613 24.0546 34.5408 24.3498L24.5113 20.6702C23.8711 20.4318 23.1664 20.4315 22.5259 20.6693L3.95837 27.651L3.49701 26.5008C3.3789 26.2095 3.37908 25.8836 3.49752 25.5923C3.61595 25.3011 3.84329 25.0676 4.13122 24.9414ZM27.329 41.3117C26.2983 41.8778 25.1354 42.159 23.9599 42.1263C22.7845 42.1588 21.6217 41.8779 20.5908 41.3126C19.3021 40.6239 17.8577 40.279 16.3969 40.3111C12.9291 40.2794 12.5996 41.6842 9.74273 42.0727L4.66738 29.4187L23.1815 22.4566C23.3948 22.3767 23.6297 22.3757 23.8436 22.4538L30.7687 24.9942C30.3558 25.023 29.9413 25.0414 29.5254 25.0437C29.2739 25.0452 29.0331 25.1462 28.8557 25.3246C28.6784 25.503 28.5788 25.7444 28.5788 25.9959V38.0718C28.5812 38.9472 28.7134 39.8173 28.9711 40.6539C28.4066 40.8277 27.8574 41.0477 27.329 41.3117ZM51.7505 38.0718C51.7505 41.1229 49.7056 43.9749 46.4146 45.5168L41.1169 47.9959L35.8191 45.5168C32.5282 43.9749 30.4833 41.1229 30.4833 38.0718V26.9221C34.291 26.7506 37.9747 25.5161 41.1169 23.3586C44.2593 25.5158 47.9428 26.7502 51.7505 26.9221V38.0718Z" fill="white"/>
<path d="M40.5997 25.6528C38.4427 27.2233 35.8453 28.0736 33.1771 28.0827C32.9255 28.0842 32.6848 28.1852 32.5074 28.3636C32.3301 28.542 32.2305 28.7833 32.2305 29.0349V37.3047C32.2876 38.7199 32.7493 40.0891 33.5609 41.2499C34.3724 42.4107 35.4998 43.3145 36.8094 43.8541C37.0094 43.9157 40.9868 45.9064 41.1168 45.7726C41.2321 45.9399 45.2333 43.8888 45.4242 43.8542C46.7337 43.3146 47.8611 42.4108 48.6727 41.25C49.4842 40.0891 49.9459 38.72 50.0031 37.3047V29.0349C50.0031 28.7834 49.9035 28.542 49.7261 28.3636C49.5488 28.1852 49.308 28.0842 49.0564 28.0827C46.7327 28.086 44.455 27.4343 42.4847 26.2024C41.9739 25.9088 41.219 25.1764 40.5997 25.6528ZM48.0986 29.9519V37.3047C48.0381 38.3571 47.6783 39.3703 47.0615 40.2252C46.4448 41.08 45.5966 41.7409 44.617 42.1301L41.1168 43.7686C38.1117 42.3506 34.1458 41.1017 34.1351 37.3047L34.135 29.9519C36.6303 29.7932 39.0391 28.977 41.1168 27.5861C43.1947 28.9767 45.6034 29.7929 48.0986 29.9519Z" fill="white"/>
<path d="M37.5499 34.7725C37.4589 34.5403 37.2804 34.353 37.0528 34.2509C36.8252 34.1488 36.5666 34.14 36.3326 34.2265C36.0986 34.3129 35.9078 34.4877 35.8013 34.7132C35.6947 34.9388 35.6809 35.1971 35.7627 35.4328L37.2784 39.5383C37.3334 39.6868 37.4244 39.8192 37.5434 39.9237C37.6623 40.0281 37.8054 40.1013 37.9598 40.1365C38.1141 40.1718 38.2747 40.168 38.4272 40.1256C38.5798 40.0832 38.7193 40.0034 38.8332 39.8935L46.2391 32.7499C46.4152 32.5732 46.5149 32.3346 46.5169 32.0852C46.519 31.8358 46.4231 31.5956 46.25 31.4162C46.0768 31.2367 45.8402 31.1323 45.5909 31.1254C45.3416 31.1185 45.0996 31.2096 44.9167 31.3792L38.5608 37.5102L37.5499 34.7725Z" fill="white"/>
<path d="M21.4291 10.4263H13.4337C13.3086 10.4262 13.1848 10.4508 13.0692 10.4986C12.9536 10.5464 12.8486 10.6166 12.7602 10.705C12.6718 10.7935 12.6016 10.8985 12.5538 11.014C12.506 11.1296 12.4814 11.2534 12.4814 11.3785V14.5114C12.4814 14.6364 12.506 14.7603 12.5538 14.8759C12.6016 14.9914 12.6717 15.0964 12.7602 15.1849C12.8486 15.2733 12.9536 15.3434 13.0692 15.3913C13.1848 15.4391 13.3086 15.4637 13.4337 15.4636H21.4291C21.5542 15.4637 21.6781 15.4391 21.7936 15.3913C21.9092 15.3434 22.0142 15.2733 22.1026 15.1849C22.1911 15.0964 22.2612 14.9914 22.309 14.8759C22.3569 14.7603 22.3814 14.6364 22.3814 14.5114V11.3785C22.3814 11.2534 22.3569 11.1296 22.309 11.014C22.2612 10.8985 22.1911 10.7935 22.1026 10.705C22.0142 10.6166 21.9092 10.5464 21.7936 10.4986C21.6781 10.4508 21.5542 10.4262 21.4291 10.4263ZM20.4769 13.5591H14.3859V12.3307H20.4769V13.5591Z" fill="white"/>
<path d="M25.5333 15.4636H33.5287C33.6538 15.4637 33.7777 15.4391 33.8932 15.3913C34.0088 15.3434 34.1138 15.2733 34.2022 15.1849C34.2907 15.0964 34.3608 14.9914 34.4086 14.8759C34.4565 14.7603 34.4811 14.6364 34.481 14.5114V11.3785C34.4811 11.2534 34.4565 11.1296 34.4086 11.014C34.3608 10.8985 34.2907 10.7935 34.2022 10.705C34.1138 10.6166 34.0088 10.5464 33.8932 10.4986C33.7777 10.4508 33.6538 10.4262 33.5287 10.4263H25.5333C25.4082 10.4262 25.2844 10.4508 25.1688 10.4986C25.0532 10.5464 24.9482 10.6166 24.8598 10.705C24.7714 10.7935 24.7012 10.8985 24.6534 11.014C24.6056 11.1296 24.581 11.2534 24.5811 11.3785V14.5114C24.581 14.6364 24.6056 14.7603 24.6534 14.8759C24.7012 14.9914 24.7714 15.0964 24.8598 15.1849C24.9482 15.2733 25.0532 15.3434 25.1688 15.3913C25.2844 15.4391 25.4082 15.4637 25.5333 15.4636ZM26.4855 12.3307H32.5765V13.5591H26.4855V12.3307Z" fill="white"/>
</svg>
