<svg width="40" height="40" viewBox="0 0 40 40" fill="none" xmlns="http://www.w3.org/2000/svg">
<path d="M38.8959 3.54345L32.2291 0.21001C31.9512 0.0718819 31.645 0 31.3347 0C31.0244 0 30.7182 0.0718819 30.4403 0.21001L23.7734 3.54345C23.4404 3.70868 23.1603 3.96387 22.9648 4.28012C22.7693 4.59638 22.6663 4.96105 22.6674 5.33284V11.333H22.0007C21.6222 11.3328 21.2479 11.4134 20.903 11.5695C20.5581 11.7255 20.2505 11.9533 20.0007 12.2377C19.7509 11.9533 19.4432 11.7255 19.0983 11.5695C18.7534 11.4134 18.3791 11.3328 18.0006 11.333H17.3339V5.33284C17.3351 4.96112 17.2322 4.5965 17.0368 4.28025C16.8415 3.964 16.5615 3.70877 16.2285 3.54345L9.56165 0.21001C9.28375 0.0718819 8.97763 0 8.66729 0C8.35695 0 8.05083 0.0718819 7.77293 0.21001L1.10605 3.54345C0.772984 3.70868 0.492849 3.96387 0.29737 4.28012C0.101891 4.59638 -0.00111892 4.96105 9.16696e-06 5.33284V15.9999C9.16696e-06 16.3535 0.14049 16.6926 0.390546 16.9427C0.640603 17.1928 0.979752 17.3332 1.33339 17.3332H16.0005C16.3542 17.3332 16.6933 17.1928 16.9434 16.9427C17.1934 16.6926 17.3339 16.3535 17.3339 15.9999V12.6664H18.0006C18.3542 12.6664 18.6934 12.8069 18.9434 13.057C19.1935 13.307 19.334 13.6462 19.334 13.9998V20H9.33365C8.80319 20 8.29447 20.2107 7.91939 20.5858C7.5443 20.9609 7.33358 21.4696 7.33358 22.0001V32.0004C6.97995 32.0004 6.6408 32.1409 6.39074 32.3909C6.14068 32.641 6.0002 32.9801 6.0002 33.3338V35.3338C6.0002 35.6875 6.14068 36.0266 6.39074 36.2767C6.6408 36.5267 6.97995 36.6672 7.33358 36.6672H9.39365C9.55034 37.5989 10.0321 38.4449 10.7535 39.0551C11.4748 39.6652 12.389 40 13.3338 40C14.2786 40 15.1928 39.6652 15.9141 39.0551C16.6354 38.4449 17.1172 37.5989 17.2739 36.6672H23.3941C23.5508 37.5989 24.0326 38.4449 24.7539 39.0551C25.4752 39.6652 26.3895 40 27.3342 40C28.279 40 29.1932 39.6652 29.9146 39.0551C30.6359 38.4449 31.1177 37.5989 31.2744 36.6672H32.6677C33.0214 36.6672 33.3605 36.5267 33.6106 36.2767C33.8606 36.0266 34.0011 35.6875 34.0011 35.3338V33.3338C34.0011 32.9801 33.8606 32.641 33.6106 32.3909C33.3605 32.1409 33.0214 32.0004 32.6677 32.0004V26.0002C32.6667 24.9396 32.2449 23.9228 31.495 23.1728C30.745 22.4229 29.7282 22.0011 28.6676 22.0001H23.3341C23.3341 21.4696 23.1234 20.9609 22.7483 20.5858C22.3732 20.2107 21.8645 20 21.334 20H20.6673V13.9998C20.6673 13.6462 20.8078 13.307 21.0579 13.057C21.3079 12.8069 21.6471 12.6664 22.0007 12.6664H22.6674V15.9999C22.6674 16.3535 22.8079 16.6926 23.0579 16.9427C23.308 17.1928 23.6472 17.3332 24.0008 17.3332H38.6679C39.0216 17.3332 39.3607 17.1928 39.6108 16.9427C39.8608 16.6926 40.0013 16.3535 40.0013 15.9999V5.33284C40.0025 4.96112 39.8996 4.5965 39.7042 4.28025C39.5089 3.964 39.2289 3.70877 38.8959 3.54345ZM13.3338 7.9996H4.00014V6.66622H13.3338V7.9996ZM4.00014 9.33297H13.3338V15.9999H12.0004V14.6665C12.0004 14.3128 11.8599 13.9737 11.6099 13.7236C11.3598 13.4736 11.0207 13.3331 10.667 13.3331H9.33365V11.9997C9.33365 11.6461 9.19316 11.3069 8.94311 11.0569C8.69305 10.8068 8.3539 10.6664 8.00027 10.6664H6.66689C6.31326 10.6664 5.97411 10.8068 5.72405 11.0569C5.474 11.3069 5.33352 11.6461 5.33352 11.9997V15.9999H4.00014V9.33297ZM8.00027 13.3331H6.66689V11.9997H8.00027V13.3331ZM6.66689 14.6665H8.00027V15.9999H6.66689V14.6665ZM9.33365 15.9999V14.6665H10.667V15.9999H9.33365ZM14.6672 15.9999V6.66622C14.6672 6.31259 14.5267 5.97344 14.2766 5.72338C14.0266 5.47332 13.6874 5.33284 13.3338 5.33284H4.00014C3.64651 5.33284 3.30736 5.47332 3.0573 5.72338C2.80724 5.97344 2.66676 6.31259 2.66676 6.66622V15.9999H1.33339V5.33284C1.33286 5.20885 1.36714 5.08721 1.43231 4.98173C1.49749 4.87625 1.59094 4.79117 1.70206 4.73616L8.36895 1.40272C8.46151 1.35658 8.56354 1.33262 8.66696 1.33271C8.77013 1.33143 8.87217 1.35426 8.96497 1.39938L15.6319 4.73282C15.7435 4.78808 15.8373 4.87368 15.9025 4.97981C15.9677 5.08593 16.0017 5.20829 16.0005 5.33284V15.9999H14.6672ZM7.33358 33.3338H10.3603C9.8551 33.8954 9.51985 34.589 9.39365 35.3338H7.33358V33.3338ZM13.3338 38.6673C12.8063 38.6673 12.2908 38.5109 11.8522 38.2178C11.4137 37.9248 11.0719 37.5083 10.87 37.021C10.6682 36.5337 10.6154 35.9976 10.7183 35.4803C10.8212 34.963 11.0751 34.4878 11.4481 34.1148C11.821 33.7419 12.2962 33.4879 12.8135 33.385C13.3308 33.2821 13.867 33.3349 14.3543 33.5368C14.8416 33.7386 15.2581 34.0804 15.5511 34.5189C15.8441 34.9575 16.0005 35.4731 16.0005 36.0005C16.0005 36.7078 15.7196 37.3861 15.2195 37.8862C14.7193 38.3863 14.041 38.6673 13.3338 38.6673ZM24.3608 33.3338C23.8556 33.8954 23.5203 34.589 23.3941 35.3338H17.2739C17.1477 34.589 16.8125 33.8954 16.3072 33.3338H24.3608ZM27.3342 38.6673C26.8068 38.6673 26.2912 38.5109 25.8527 38.2178C25.4141 37.9248 25.0723 37.5083 24.8705 37.021C24.6686 36.5337 24.6158 35.9976 24.7187 35.4803C24.8216 34.963 25.0756 34.4878 25.4486 34.1148C25.8215 33.7419 26.2967 33.4879 26.814 33.385C27.3313 33.2821 27.8675 33.3349 28.3548 33.5368C28.842 33.7386 29.2585 34.0804 29.5516 34.5189C29.8446 34.9575 30.001 35.4731 30.001 36.0005C30.001 36.7078 29.72 37.3861 29.2199 37.8862C28.7198 38.3863 28.0415 38.6673 27.3342 38.6673ZM32.6677 35.3338H31.2744C31.1482 34.589 30.8129 33.8954 30.3077 33.3338H32.6677V35.3338ZM29.5603 23.4981L28.8629 24.1955C28.7993 24.257 28.7485 24.3305 28.7135 24.4119C28.6786 24.4932 28.6602 24.5807 28.6594 24.6692C28.6587 24.7577 28.6755 24.8455 28.7091 24.9275C28.7426 25.0094 28.7921 25.0838 28.8547 25.1464C28.9173 25.209 28.9917 25.2585 29.0737 25.292C29.1556 25.3256 29.2434 25.3424 29.3319 25.3417C29.4204 25.3409 29.5079 25.3225 29.5892 25.2876C29.6706 25.2526 29.7441 25.2018 29.8056 25.1382L30.6777 24.2668C31.0985 24.7465 31.3317 25.3621 31.3344 26.0002V26.6669H28.0009C27.8241 26.6669 27.6545 26.5966 27.5295 26.4716C27.4045 26.3466 27.3342 26.177 27.3342 26.0002V23.3334H28.6676C28.9724 23.3365 29.2744 23.3922 29.5603 23.4981ZM26.0009 23.3334V26.0002C26.0009 26.5306 26.2116 27.0394 26.5867 27.4144C26.9617 27.7895 27.4705 28.0002 28.0009 28.0002H31.3344V32.0004H23.3341V23.3334H26.0009ZM22.0007 22.0001V32.0004H8.66696V22.0001C8.66696 21.8232 8.7372 21.6537 8.86223 21.5286C8.98725 21.4036 9.15683 21.3334 9.33365 21.3334H21.334C21.5109 21.3334 21.6804 21.4036 21.8055 21.5286C21.9305 21.6537 22.0007 21.8232 22.0007 22.0001ZM36.0012 7.9996H26.6675V6.66622H36.0012V7.9996ZM26.6675 9.33297H36.0012V15.9999H34.6678V14.6665C34.6678 14.3128 34.5273 13.9737 34.2773 13.7236C34.0272 13.4736 33.6881 13.3331 33.3344 13.3331H32.001V11.9997C32.001 11.6461 31.8606 11.3069 31.6105 11.0569C31.3605 10.8068 31.0213 10.6664 30.6677 10.6664H29.3343C28.9807 10.6664 28.6415 10.8068 28.3915 11.0569C28.1414 11.3069 28.0009 11.6461 28.0009 11.9997V15.9999H26.6675V9.33297ZM30.6677 13.3331H29.3343V11.9997H30.6677V13.3331ZM29.3343 14.6665H30.6677V15.9999H29.3343V14.6665ZM32.001 15.9999V14.6665H33.3344V15.9999H32.001ZM37.3346 15.9999V6.66622C37.3346 6.31259 37.1941 5.97344 36.944 5.72338C36.694 5.47332 36.3548 5.33284 36.0012 5.33284H26.6675C26.3139 5.33284 25.9748 5.47332 25.7247 5.72338C25.4746 5.97344 25.3342 6.31259 25.3342 6.66622V15.9999H24.0008V5.33284C24.0003 5.20885 24.0345 5.08721 24.0997 4.98173C24.1649 4.87625 24.2584 4.79117 24.3695 4.73616L31.0364 1.40272C31.1289 1.35658 31.2309 1.33262 31.3344 1.33271C31.4375 1.33143 31.5396 1.35426 31.6324 1.39938L38.2993 4.73282C38.4109 4.78808 38.5047 4.87368 38.5699 4.97981C38.6351 5.08593 38.6691 5.20829 38.6679 5.33284V15.9999H37.3346Z" fill="#E10006"/>
<path d="M9.33356 2.66614H8.00018C7.82337 2.66614 7.65379 2.73638 7.52876 2.86141C7.40374 2.98643 7.3335 3.15601 7.3335 3.33283C7.3335 3.50964 7.40374 3.67922 7.52876 3.80425C7.65379 3.92927 7.82337 3.99951 8.00018 3.99951H9.33356C9.51038 3.99951 9.67995 3.92927 9.80498 3.80425C9.93001 3.67922 10.0002 3.50964 10.0002 3.33283C10.0002 3.15601 9.93001 2.98643 9.80498 2.86141C9.67995 2.73638 9.51038 2.66614 9.33356 2.66614Z" fill="#E10006"/>
<path d="M32.001 2.66614H30.6677C30.4908 2.66614 30.3213 2.73638 30.1962 2.86141C30.0712 2.98643 30.001 3.15601 30.001 3.33283C30.001 3.50964 30.0712 3.67922 30.1962 3.80425C30.3213 3.92927 30.4908 3.99951 30.6677 3.99951H32.001C32.1779 3.99951 32.3474 3.92927 32.4725 3.80425C32.5975 3.67922 32.6677 3.50964 32.6677 3.33283C32.6677 3.15601 32.5975 2.98643 32.4725 2.86141C32.3474 2.73638 32.1779 2.66614 32.001 2.66614Z" fill="#E10006"/>
<path d="M28.0012 30.667H29.3345C29.5114 30.667 29.6809 30.5968 29.806 30.4717C29.931 30.3467 30.0012 30.1771 30.0012 30.0003C30.0012 29.8235 29.931 29.6539 29.806 29.5289C29.6809 29.4039 29.5114 29.3336 29.3345 29.3336H28.0012C27.8243 29.3336 27.6548 29.4039 27.5297 29.5289C27.4047 29.6539 27.3345 29.8235 27.3345 30.0003C27.3345 30.1771 27.4047 30.3467 27.5297 30.4717C27.6548 30.5968 27.8243 30.667 28.0012 30.667Z" fill="#E10006"/>
<path d="M19.3338 29.3336H12.0002C11.8234 29.3336 11.6538 29.4039 11.5288 29.5289C11.4037 29.6539 11.3335 29.8235 11.3335 30.0003C11.3335 30.1771 11.4037 30.3467 11.5288 30.4717C11.6538 30.5968 11.8234 30.667 12.0002 30.667H19.3338C19.5106 30.667 19.6801 30.5968 19.8052 30.4717C19.9302 30.3467 20.0004 30.1771 20.0004 30.0003C20.0004 29.8235 19.9302 29.6539 19.8052 29.5289C19.6801 29.4039 19.5106 29.3336 19.3338 29.3336Z" fill="#E10006"/>
<path d="M19.3338 26.0002H12.0002C11.8234 26.0002 11.6538 26.0705 11.5288 26.1955C11.4037 26.3205 11.3335 26.4901 11.3335 26.6669C11.3335 26.8437 11.4037 27.0133 11.5288 27.1384C11.6538 27.2634 11.8234 27.3336 12.0002 27.3336H19.3338C19.5106 27.3336 19.6801 27.2634 19.8052 27.1384C19.9302 27.0133 20.0004 26.8437 20.0004 26.6669C20.0004 26.4901 19.9302 26.3205 19.8052 26.1955C19.6801 26.0705 19.5106 26.0002 19.3338 26.0002Z" fill="#E10006"/>
<path d="M19.3338 22.6667H12.0002C11.8234 22.6667 11.6538 22.737 11.5288 22.862C11.4037 22.987 11.3335 23.1566 11.3335 23.3334C11.3335 23.5103 11.4037 23.6798 11.5288 23.8049C11.6538 23.9299 11.8234 24.0001 12.0002 24.0001H19.3338C19.5106 24.0001 19.6801 23.9299 19.8052 23.8049C19.9302 23.6798 20.0004 23.5103 20.0004 23.3334C20.0004 23.1566 19.9302 22.987 19.8052 22.862C19.6801 22.737 19.5106 22.6667 19.3338 22.6667Z" fill="#E10006"/>
<path d="M14.0006 35.3337H12.6672C12.4904 35.3337 12.3208 35.404 12.1958 35.529C12.0707 35.654 12.0005 35.8236 12.0005 36.0004C12.0005 36.1772 12.0707 36.3468 12.1958 36.4718C12.3208 36.5969 12.4904 36.6671 12.6672 36.6671H14.0006C14.1774 36.6671 14.3469 36.5969 14.472 36.4718C14.597 36.3468 14.6672 36.1772 14.6672 36.0004C14.6672 35.8236 14.597 35.654 14.472 35.529C14.3469 35.404 14.1774 35.3337 14.0006 35.3337Z" fill="#E10006"/>
<path d="M28.001 35.3337H26.6677C26.4908 35.3337 26.3213 35.404 26.1962 35.529C26.0712 35.654 26.001 35.8236 26.001 36.0004C26.001 36.1772 26.0712 36.3468 26.1962 36.4718C26.3213 36.5969 26.4908 36.6671 26.6677 36.6671H28.001C28.1779 36.6671 28.3474 36.5969 28.4725 36.4718C28.5975 36.3468 28.6677 36.1772 28.6677 36.0004C28.6677 35.8236 28.5975 35.654 28.4725 35.529C28.3474 35.404 28.1779 35.3337 28.001 35.3337Z" fill="#E10006"/>
</svg>
