<svg width="50" height="35" viewBox="0 0 50 35" fill="none" xmlns="http://www.w3.org/2000/svg">
<path d="M41.8721 29.7471C41.4676 29.7471 41.1396 30.075 41.1396 30.4795C41.1396 30.884 41.4676 31.2119 41.8721 31.2119H41.8799C42.2844 31.2119 42.6084 30.884 42.6084 30.4795C42.6084 30.075 42.2767 29.7471 41.8721 29.7471Z" fill="white"/>
<path d="M17.6045 29.7471C17.2 29.7471 16.8721 30.075 16.8721 30.4795C16.8721 30.884 17.2 31.2119 17.6045 31.2119H17.6123C18.0168 31.2119 18.3408 30.884 18.3408 30.4795C18.3408 30.075 18.0091 29.7471 17.6045 29.7471Z" fill="white"/>
<path d="M49.2376 21.5994L46.8953 19.9248L46.8615 12.842C46.8563 11.7512 46.043 10.9594 44.9278 10.9594H39.2422C39.3088 10.5733 39.2234 10.1936 38.9982 9.90004C38.7513 9.57837 38.3627 9.3938 37.9322 9.3938H32.8281C32.4236 9.3938 32.0957 9.72172 32.0957 10.1262C32.0957 10.5307 32.4236 10.8586 32.8281 10.8586L37.7604 10.8587L32.6992 29.747H21.5762C21.5912 29.0134 21.3828 28.3259 20.9648 27.7811C20.3881 27.0296 19.4929 26.6157 18.444 26.6157C16.5589 26.6157 14.6876 27.9531 13.9505 29.747L10.7313 29.7469L12.1623 24.4062C12.267 24.0155 12.0352 23.6139 11.6444 23.5092C11.2544 23.4049 10.8521 23.6363 10.7473 24.0271L9.27908 29.507C9.16307 29.9398 9.24129 30.3768 9.49363 30.7056C9.7405 31.0272 10.1291 31.2118 10.5596 31.2118H13.6338C13.6188 31.9454 13.8271 32.6328 14.2451 33.1776C14.8218 33.9292 15.717 34.343 16.7659 34.343C18.651 34.343 20.5223 33.0056 21.2594 31.2118H37.9011C37.8861 31.9454 38.0944 32.6328 38.5124 33.1776C39.0891 33.9292 39.9843 34.343 41.0332 34.343C42.9183 34.343 44.7896 33.0056 45.5267 31.2118H45.7864C46.9794 31.2118 48.1622 30.2856 48.479 29.1032L49.9195 23.7272C50.147 22.878 49.8857 22.0627 49.2376 21.5994ZM20.0288 30.2898C19.6528 31.6929 18.1587 32.8782 16.7659 32.8782C16.1829 32.8782 15.7004 32.6678 15.4072 32.2859C15.092 31.8752 15.0117 31.301 15.1812 30.6689C15.557 29.2658 17.0513 28.0805 18.444 28.0805C19.027 28.0805 19.5095 28.2908 19.8027 28.6728C20.1178 29.0836 20.1982 29.6578 20.0288 30.2898ZM45.4288 19.5703H40.685C40.5611 19.5703 40.3932 19.5439 40.2962 19.4175C40.2107 19.3062 40.1926 19.1273 40.2464 18.9267L40.8756 16.5783C41.0216 16.0335 41.6186 15.5555 42.1532 15.5555H45.4095L45.4288 19.5703ZM44.2961 30.2898C43.9201 31.6929 42.426 32.8782 41.0332 32.8782C40.4502 32.8782 39.9677 32.6678 39.6745 32.2859C39.3593 31.8752 39.279 31.301 39.4485 30.6689C39.8243 29.2658 41.3185 28.0805 42.7113 28.0805C43.2943 28.0805 43.7768 28.2908 44.07 28.6728C44.3851 29.0836 44.4655 29.6578 44.2961 30.2898ZM47.064 28.7242C46.9232 29.2497 46.3628 29.7117 45.8435 29.7439C45.8578 29.0115 45.6495 28.3252 45.232 27.7812C44.6553 27.0297 43.7601 26.6158 42.7112 26.6158C40.8261 26.6158 38.9548 27.9532 38.2177 29.7471H34.2157L35.5012 24.9494H44.333C44.7374 24.9494 45.0654 24.6215 45.0654 24.217C45.0654 23.8125 44.7374 23.4845 44.333 23.4845H35.8937L38.8572 12.4243H44.9276C45.1406 12.4243 45.3949 12.4981 45.3965 12.8491L45.4025 14.0908H42.1531C40.9601 14.0908 39.7773 15.017 39.4605 16.1993L38.8313 18.5477C38.6587 19.1916 38.7691 19.8337 39.134 20.3093C39.488 20.7707 40.0533 21.0353 40.6849 21.0353H45.9297L48.3856 22.7911C48.5943 22.9403 48.5293 23.2553 48.5044 23.3482L48.4679 23.4845H47.4643C47.0598 23.4845 46.7319 23.8125 46.7319 24.217C46.7319 24.6215 47.0598 24.9494 47.4643 24.9494H48.0754L47.064 28.7242Z" fill="white"/>
<path d="M18.7368 23.3837C25.1837 23.3837 30.4286 18.1388 30.4286 11.6919C30.4286 5.24486 25.1837 0 18.7368 0C12.2899 0 7.04492 5.24496 7.04492 11.6919C7.04492 18.1388 12.2899 23.3837 18.7368 23.3837ZM18.7368 1.46483C24.376 1.46483 28.9638 6.05266 28.9638 11.6919C28.9638 17.331 24.3761 21.9189 18.7368 21.9189C13.0975 21.9189 8.50975 17.331 8.50975 11.6919C8.50975 6.05266 13.0976 1.46483 18.7368 1.46483Z" fill="white"/>
<path d="M15.6055 15.5554C15.7929 15.5554 15.9804 15.4839 16.1234 15.3409L17.715 13.7493C18.023 13.9029 18.3699 13.9898 18.7367 13.9898C20.0039 13.9898 21.0348 12.9589 21.0348 11.6918C21.0348 11.3249 20.9479 10.978 20.7942 10.67L24.7343 6.73003C25.0204 6.44399 25.0204 5.98023 24.7343 5.6943C24.4483 5.40817 23.9845 5.40827 23.6986 5.6943L19.7585 9.63429C19.4505 9.48068 19.1036 9.39386 18.7367 9.39386C17.4696 9.39386 16.4387 10.4248 16.4387 11.6919C16.4387 12.0588 16.5256 12.4056 16.6792 12.7136L15.0876 14.3052C14.8015 14.5913 14.8015 15.055 15.0876 15.341C15.2306 15.4839 15.418 15.5554 15.6055 15.5554ZM18.7367 10.8586C19.1962 10.8586 19.5699 11.2324 19.5699 11.6918C19.5699 12.1512 19.1961 12.525 18.7367 12.525C18.2774 12.525 17.9036 12.1512 17.9036 11.6918C17.9036 11.2324 18.2774 10.8586 18.7367 10.8586Z" fill="white"/>
<path d="M18.7373 5.37876C19.1418 5.37876 19.4697 5.05083 19.4697 4.64634V3.86353C19.4697 3.45903 19.1418 3.1311 18.7373 3.1311C18.3328 3.1311 18.0049 3.45903 18.0049 3.86353V4.64634C18.0049 5.05093 18.3328 5.37876 18.7373 5.37876Z" fill="white"/>
<path d="M18.7373 18.0049C18.3328 18.0049 18.0049 18.3328 18.0049 18.7373V19.5201C18.0049 19.9246 18.3328 20.2525 18.7373 20.2525C19.1418 20.2525 19.4697 19.9246 19.4697 19.5201V18.7373C19.4697 18.3328 19.1418 18.0049 18.7373 18.0049Z" fill="white"/>
<path d="M25.7822 12.4243H26.565C26.9695 12.4243 27.2975 12.0964 27.2975 11.6919C27.2975 11.2874 26.9695 10.9595 26.565 10.9595H25.7822C25.3777 10.9595 25.0498 11.2874 25.0498 11.6919C25.0498 12.0964 25.3777 12.4243 25.7822 12.4243Z" fill="white"/>
<path d="M12.4244 11.6919C12.4244 11.2874 12.0965 10.9595 11.692 10.9595H10.9092C10.5047 10.9595 10.1768 11.2874 10.1768 11.6919C10.1768 12.0964 10.5047 12.4243 10.9092 12.4243H11.692C12.0965 12.4243 12.4244 12.0964 12.4244 11.6919Z" fill="white"/>
<path d="M8.56054 21.136H0.732413C0.327926 21.136 0 21.4639 0 21.8684C0 22.2729 0.327926 22.6008 0.732413 22.6008H8.56054C8.96503 22.6008 9.29296 22.2729 9.29296 21.8684C9.29296 21.4639 8.96503 21.136 8.56054 21.136Z" fill="white"/>
<path d="M7.77803 24.2673H3.08105C2.67656 24.2673 2.34863 24.5953 2.34863 24.9998C2.34863 25.4042 2.67656 25.7322 3.08105 25.7322H7.77803C8.18252 25.7322 8.51045 25.4042 8.51045 24.9998C8.51045 24.5953 8.18252 24.2673 7.77803 24.2673Z" fill="white"/>
<path d="M6.99531 27.3984H5.42969C5.0252 27.3984 4.69727 27.7264 4.69727 28.1309C4.69727 28.5354 5.0252 28.8633 5.42969 28.8633H6.99531C7.3998 28.8633 7.72773 28.5354 7.72773 28.1309C7.72773 27.7264 7.3998 27.3984 6.99531 27.3984Z" fill="white"/>
</svg>
