<svg width="40" height="40" viewBox="0 0 40 40" fill="none" xmlns="http://www.w3.org/2000/svg">
<g clip-path="url(#clip0_341_150)">
<path d="M21.3313 9.08438L24.0625 11.2406V13.75H25C25.4971 13.7505 25.9737 13.9483 26.3252 14.2998C26.6767 14.6513 26.8745 15.1279 26.875 15.625V19.375H27.5867C27.5305 19.2804 27.5006 19.1725 27.5 19.0625C27.5 18.8967 27.5659 18.7378 27.6831 18.6206C27.8003 18.5034 27.9592 18.4375 28.125 18.4375H29.375C29.5408 18.4375 29.6997 18.5033 29.8169 18.6206C29.9342 18.7378 30 18.8967 30 19.0625C30 19.2283 29.9342 19.3872 29.8169 19.5044C29.6997 19.6217 29.5408 19.6875 29.375 19.6875H29.1592C29.4176 19.8582 29.6295 20.0902 29.7762 20.3629C29.923 20.6356 29.9998 20.9404 30 21.25V22.9787C30.3432 22.6701 30.7885 22.4996 31.25 22.5H36.875V11.2406L39.6062 9.08438C39.6802 9.02576 39.74 8.95119 39.7811 8.86624C39.8223 8.78128 39.8437 8.68814 39.8438 8.59375V5.9375C39.8433 5.77189 39.7773 5.6132 39.6602 5.49609C39.5431 5.37899 39.3844 5.31298 39.2188 5.3125H37.8125V2.8125C37.812 2.64689 37.746 2.4882 37.6289 2.37109C37.5118 2.25399 37.3531 2.18798 37.1875 2.1875H32.5V0.625C32.5 0.45924 32.4342 0.300269 32.3169 0.183058C32.1997 0.065848 32.0408 0 31.875 0C31.7092 0 31.5503 0.065848 31.4331 0.183058C31.3158 0.300269 31.25 0.45924 31.25 0.625V2.1875H30V1.5625C30 1.39674 29.9342 1.23777 29.8169 1.12056C29.6997 1.00335 29.5408 0.9375 29.375 0.9375C29.2092 0.9375 29.0503 1.00335 28.9331 1.12056C28.8158 1.23777 28.75 1.39674 28.75 1.5625V2.1875H23.75C23.5844 2.18798 23.4257 2.25399 23.3086 2.37109C23.1915 2.4882 23.1255 2.64689 23.125 2.8125V5.3125H21.7188C21.5531 5.31298 21.3944 5.37899 21.2773 5.49609C21.1602 5.6132 21.0942 5.77189 21.0938 5.9375V8.59375C21.0938 8.68814 21.1152 8.78128 21.1564 8.86624C21.1975 8.95119 21.2573 9.02576 21.3313 9.08438ZM29.375 17.1875H28.125C27.9592 17.1875 27.8003 17.1217 27.6831 17.0044C27.5658 16.8872 27.5 16.7283 27.5 16.5625C27.5 16.3967 27.5658 16.2378 27.6831 16.1206C27.8003 16.0033 27.9592 15.9375 28.125 15.9375H29.375C29.5408 15.9375 29.6997 16.0033 29.8169 16.1206C29.9342 16.2378 30 16.3967 30 16.5625C30 16.7283 29.9342 16.8872 29.8169 17.0044C29.6997 17.1217 29.5408 17.1875 29.375 17.1875ZM29.375 14.6875H28.125C27.9592 14.6875 27.8003 14.6217 27.6831 14.5044C27.5658 14.3872 27.5 14.2283 27.5 14.0625C27.5 13.8967 27.5658 13.7378 27.6831 13.6206C27.8003 13.5033 27.9592 13.4375 28.125 13.4375H29.375C29.5408 13.4375 29.6997 13.5033 29.8169 13.6206C29.9342 13.7378 30 13.8967 30 14.0625C30 14.2283 29.9342 14.3872 29.8169 14.5044C29.6997 14.6217 29.5408 14.6875 29.375 14.6875ZM33.125 22.1875H31.875C31.7092 22.1875 31.5503 22.1217 31.4331 22.0044C31.3158 21.8872 31.25 21.7283 31.25 21.5625C31.25 21.3967 31.3158 21.2378 31.4331 21.1206C31.5503 21.0033 31.7092 20.9375 31.875 20.9375H33.125C33.2908 20.9375 33.4497 21.0033 33.5669 21.1206C33.6842 21.2378 33.75 21.3967 33.75 21.5625C33.75 21.7283 33.6842 21.8872 33.5669 22.0044C33.4497 22.1217 33.2908 22.1875 33.125 22.1875ZM33.125 19.6875H31.875C31.7092 19.6875 31.5503 19.6217 31.4331 19.5044C31.3158 19.3872 31.25 19.2283 31.25 19.0625C31.25 18.8967 31.3158 18.7378 31.4331 18.6206C31.5503 18.5033 31.7092 18.4375 31.875 18.4375H33.125C33.2908 18.4375 33.4497 18.5033 33.5669 18.6206C33.6842 18.7378 33.75 18.8967 33.75 19.0625C33.75 19.2283 33.6842 19.3872 33.5669 19.5044C33.4497 19.6217 33.2908 19.6875 33.125 19.6875ZM33.125 17.1875H31.875C31.7092 17.1875 31.5503 17.1217 31.4331 17.0044C31.3158 16.8872 31.25 16.7283 31.25 16.5625C31.25 16.3967 31.3158 16.2378 31.4331 16.1206C31.5503 16.0033 31.7092 15.9375 31.875 15.9375H33.125C33.2908 15.9375 33.4497 16.0033 33.5669 16.1206C33.6842 16.2378 33.75 16.3967 33.75 16.5625C33.75 16.7283 33.6842 16.8872 33.5669 17.0044C33.4497 17.1217 33.2908 17.1875 33.125 17.1875ZM33.125 14.6875H31.875C31.7092 14.6875 31.5503 14.6217 31.4331 14.5044C31.3158 14.3872 31.25 14.2283 31.25 14.0625C31.25 13.8967 31.3158 13.7378 31.4331 13.6206C31.5503 13.5033 31.7092 13.4375 31.875 13.4375H33.125C33.2908 13.4375 33.4497 13.5033 33.5669 13.6206C33.6842 13.7378 33.75 13.8967 33.75 14.0625C33.75 14.2283 33.6842 14.3872 33.5669 14.5044C33.4497 14.6217 33.2908 14.6875 33.125 14.6875ZM22.3438 6.5625H38.5938V8.29063L36.0344 10.3125H24.9031L22.3438 8.29063V6.5625Z" fill="#E10006"/>
<path d="M0.625 36.25C1.37476 36.2297 2.11493 36.4222 2.7597 36.8054C3.58197 37.2802 4.5187 37.5205 5.46799 37.5C6.41723 37.5205 7.35393 37.2803 8.17611 36.8054C8.82095 36.4222 9.56117 36.2297 10.311 36.25C11.0609 36.2297 11.8012 36.4223 12.4461 36.8054C13.2684 37.2803 14.2052 37.5205 15.1546 37.5C16.1038 37.5205 17.0404 37.2802 17.8626 36.8053C18.5073 36.4223 19.2473 36.2297 19.9969 36.25C20.7469 36.2297 21.4873 36.4222 22.1323 36.8054C22.9623 37.2611 23.894 37.5 24.8409 37.5C25.7879 37.5 26.7195 37.2611 27.5496 36.8054C28.2025 36.4412 28.9377 36.25 29.6854 36.25C30.433 36.25 31.1682 36.4412 31.8211 36.8054C32.6513 37.2611 33.5831 37.5 34.5301 37.5C35.4771 37.5 36.4089 37.2611 37.2391 36.8054C37.8843 36.4222 38.6249 36.2296 39.375 36.25C39.5408 36.25 39.6997 36.1841 39.8169 36.0669C39.9342 35.9497 40 35.7908 40 35.625C40 35.4592 39.9342 35.3003 39.8169 35.1831C39.6997 35.0658 39.5408 35 39.375 35C38.4255 34.9794 37.4885 35.2197 36.666 35.6946C36.013 36.0588 35.2778 36.25 34.5301 36.25C33.7824 36.25 33.0472 36.0588 32.3943 35.6946C31.5641 35.2389 30.6323 35 29.6853 35C28.7383 35 27.8065 35.2389 26.9763 35.6946C26.3236 36.0588 25.5885 36.25 24.841 36.25C24.0935 36.25 23.3584 36.0588 22.7057 35.6946C21.8833 35.2197 20.9464 34.9795 19.9969 35C19.0478 34.9795 18.1112 35.2198 17.2891 35.6946C16.6444 36.0777 15.9043 36.2703 15.1546 36.25C14.4047 36.2703 13.6645 36.0777 13.0196 35.6946C12.1972 35.2197 11.2604 34.9795 10.311 35C9.36169 34.9795 8.42496 35.2198 7.60269 35.6946C6.95792 36.0777 6.21775 36.2703 5.46799 36.25C4.71818 36.2703 3.97796 36.0777 3.33313 35.6946C2.51094 35.2197 1.57425 34.9795 0.625 35C0.45924 35 0.300269 35.0658 0.183058 35.1831C0.065848 35.3003 0 35.4592 0 35.625C0 35.7908 0.065848 35.9497 0.183058 36.0669C0.300269 36.1841 0.45924 36.25 0.625 36.25Z" fill="#E10006"/>
<path d="M39.375 37.5C38.4255 37.4794 37.4885 37.7197 36.666 38.1946C36.013 38.5588 35.2778 38.75 34.5301 38.75C33.7824 38.75 33.0472 38.5588 32.3943 38.1946C31.5641 37.7389 30.6323 37.5 29.6853 37.5C28.7383 37.5 27.8065 37.7389 26.9763 38.1946C26.3236 38.5588 25.5885 38.75 24.841 38.75C24.0935 38.75 23.3584 38.5588 22.7057 38.1946C21.8833 37.7197 20.9464 37.4795 19.9969 37.5C19.0478 37.4795 18.1112 37.7198 17.2891 38.1946C16.6444 38.5777 15.9043 38.7703 15.1546 38.75C14.4047 38.7703 13.6645 38.5777 13.0196 38.1946C12.1972 37.7197 11.2604 37.4795 10.311 37.5C9.36169 37.4795 8.42496 37.7198 7.60269 38.1946C6.95792 38.5777 6.21775 38.7703 5.46799 38.75C4.71818 38.7703 3.97796 38.5777 3.33313 38.1946C2.51094 37.7197 1.57425 37.4795 0.625 37.5C0.45924 37.5 0.300269 37.5658 0.183058 37.6831C0.065848 37.8003 0 37.9592 0 38.125C0 38.2908 0.065848 38.4497 0.183058 38.5669C0.300269 38.6841 0.45924 38.75 0.625 38.75C1.37476 38.7297 2.11493 38.9222 2.7597 39.3054C3.58197 39.7802 4.5187 40.0205 5.46799 40C6.41723 40.0205 7.35393 39.7803 8.17611 39.3054C8.82095 38.9222 9.56117 38.7297 10.311 38.75C11.0609 38.7297 11.8012 38.9223 12.4461 39.3054C13.2684 39.7803 14.2052 40.0205 15.1546 40C16.1038 40.0205 17.0404 39.7802 17.8626 39.3053C18.5073 38.9223 19.2473 38.7297 19.9969 38.75C20.7469 38.7297 21.4873 38.9222 22.1323 39.3054C22.9623 39.7611 23.894 40 24.8409 40C25.7879 40 26.7195 39.7611 27.5496 39.3054C28.2025 38.9412 28.9377 38.75 29.6854 38.75C30.433 38.75 31.1682 38.9412 31.8211 39.3054C32.6513 39.7611 33.5831 40 34.5301 40C35.4771 40 36.4089 39.7611 37.2391 39.3054C37.8843 38.9222 38.6249 38.7296 39.375 38.75C39.5408 38.75 39.6997 38.6841 39.8169 38.5669C39.9342 38.4497 40 38.2908 40 38.125C40 37.9592 39.9342 37.8003 39.8169 37.6831C39.6997 37.5658 39.5408 37.5 39.375 37.5Z" fill="#E10006"/>
<path d="M2.32815 31.2375C2.87766 31.6687 3.33645 32.2044 3.67808 32.8136C4.01972 33.4229 4.23746 34.0937 4.31877 34.7875C4.38752 34.8156 4.45627 34.8438 4.52502 34.8656C4.53752 34.8719 4.55002 34.875 4.56252 34.8813C4.59065 34.8875 4.61879 34.8969 4.65002 34.9062C4.67502 34.9125 4.6969 34.9188 4.7219 34.925C4.75002 34.9313 4.77502 34.9375 4.80315 34.9438C4.85315 34.9531 4.90627 34.9625 4.96252 34.9688C4.98127 34.9719 5.00315 34.975 5.02502 34.9781C5.06877 34.9813 5.11877 34.9875 5.16877 34.9906C5.19065 34.9906 5.21252 34.9938 5.2344 34.9938C5.3094 34.9969 5.3844 35 5.46877 35C6.01837 35.02 6.56141 34.8753 7.02815 34.5844C8.02871 34.0178 9.16284 33.7296 10.3125 33.75C11.4612 33.7295 12.5944 34.0177 13.5938 34.5844C14.0605 34.8753 14.6035 35.02 15.1531 35C15.7038 35.0204 16.2479 34.8757 16.7156 34.5844C17.7149 34.0172 18.8481 33.729 19.9969 33.75C21.1457 33.729 22.2789 34.0172 23.2781 34.5844C23.7539 34.8567 24.2925 35 24.8406 35C25.3888 35 25.9274 34.8567 26.4031 34.5844C27.4107 34.0368 28.5392 33.75 29.686 33.75C30.8327 33.75 31.9612 34.0368 32.9688 34.5844C33.4445 34.8567 33.9831 35 34.5313 35C35.0794 35 35.6181 34.8567 36.0938 34.5844C36.5331 34.3448 36.996 34.1511 37.475 34.0063C37.9282 31.8221 38.7515 29.7316 39.9094 27.825C39.9667 27.7301 39.9977 27.6217 39.9994 27.5109C40.0011 27.4001 39.9734 27.2909 39.9191 27.1943C39.8647 27.0977 39.7858 27.0172 39.6902 26.9611C39.5946 26.9051 39.4858 26.8753 39.375 26.875H38.75V24.375C38.7495 24.2094 38.6835 24.0507 38.5664 23.9336C38.4493 23.8165 38.2906 23.7505 38.125 23.75H31.25C31.0844 23.7505 30.9257 23.8165 30.8086 23.9336C30.6915 24.0507 30.6255 24.2094 30.625 24.375V26.875H28.75V21.25C28.7495 21.0844 28.6835 20.9257 28.5664 20.8086C28.4493 20.6915 28.2906 20.6255 28.125 20.625H25.625V15.625C25.6245 15.4594 25.5585 15.3007 25.4414 15.1836C25.3243 15.0665 25.1656 15.0005 25 15H22.5V12.1875C22.4995 12.0219 22.4335 11.8632 22.3164 11.7461C22.1993 11.629 22.0406 11.563 21.875 11.5625H9.37502C9.20941 11.563 9.05072 11.629 8.93362 11.7461C8.81651 11.8632 8.75051 12.0219 8.75002 12.1875V15H6.25002C6.08441 15.0005 5.92572 15.0665 5.80862 15.1836C5.69151 15.3007 5.62551 15.4594 5.62502 15.625V20.625H3.12502C2.95941 20.6255 2.80072 20.6915 2.68362 20.8086C2.56651 20.9257 2.50051 21.0844 2.50002 21.25V23.75H0.915648C0.787561 23.7498 0.662498 23.7889 0.557407 23.8621C0.452317 23.9354 0.372282 24.0391 0.328148 24.1594C0.312523 24.2 -1.14373 28.3156 2.32815 31.2375ZM31.875 25H37.5V26.875H31.875V25ZM10 32.8125C9.69099 32.8125 9.3889 32.7209 9.13194 32.5492C8.87499 32.3775 8.67472 32.1335 8.55646 31.8479C8.4382 31.5624 8.40726 31.2483 8.46755 30.9452C8.52783 30.6421 8.67665 30.3637 8.89517 30.1451C9.11369 29.9266 9.3921 29.7778 9.69519 29.7175C9.99829 29.6572 10.3125 29.6882 10.598 29.8064C10.8835 29.9247 11.1275 30.125 11.2992 30.3819C11.4709 30.6389 11.5625 30.941 11.5625 31.25C11.5624 31.6644 11.3977 32.0617 11.1047 32.3547C10.8117 32.6477 10.4144 32.8123 10 32.8125ZM10.7844 26.875C10.652 26.8892 10.518 26.8764 10.3906 26.8375L10 26.4406V21.875H15V26.875H10.7844ZM13.125 20.625V16.25H18.125V20.625H13.125ZM16.25 32.8125C15.941 32.8125 15.6389 32.7209 15.3819 32.5492C15.125 32.3775 14.9247 32.1335 14.8065 31.8479C14.6882 31.5624 14.6573 31.2483 14.7175 30.9452C14.7778 30.6421 14.9266 30.3637 15.1452 30.1451C15.3637 29.9266 15.6421 29.7778 15.9452 29.7175C16.2483 29.6572 16.5625 29.6882 16.848 29.8064C17.1335 29.9247 17.3775 30.125 17.5492 30.3819C17.7209 30.6389 17.8125 30.941 17.8125 31.25C17.8124 31.6644 17.6477 32.0617 17.3547 32.3547C17.0617 32.6477 16.6644 32.8123 16.25 32.8125ZM16.25 26.875V21.875H21.25V26.875H16.25ZM22.5 32.8125C22.191 32.8125 21.8889 32.7209 21.6319 32.5492C21.375 32.3775 21.1747 32.1335 21.0565 31.8479C20.9382 31.5624 20.9073 31.2483 20.9675 30.9452C21.0278 30.6421 21.1766 30.3637 21.3952 30.1451C21.6137 29.9266 21.8921 29.7778 22.1952 29.7175C22.4983 29.6572 22.8125 29.6882 23.098 29.8064C23.3835 29.9247 23.6275 30.125 23.7992 30.3819C23.9709 30.6389 24.0625 30.941 24.0625 31.25C24.0624 31.6644 23.8977 32.0617 23.6047 32.3547C23.3117 32.6477 22.9144 32.8123 22.5 32.8125ZM27.5 21.875V26.875H22.5V21.875H27.5ZM24.375 16.25V20.625H19.375V16.25H24.375ZM16.25 12.8125H21.25V15H16.25V12.8125ZM10 12.8125H15V15H10V12.8125ZM6.87502 16.25H11.875V20.625H6.87502V16.25ZM3.75002 21.875H8.75002V25.1781L7.8844 24.3062C7.53191 23.9517 7.05308 23.7516 6.55315 23.75H3.75002V21.875Z" fill="#E10006"/>
</g>
<defs>
<clipPath id="clip0_341_150">
<rect width="40" height="40" fill="white"/>
</clipPath>
</defs>
</svg>
