<svg width="40" height="40" viewBox="0 0 40 40" fill="none" xmlns="http://www.w3.org/2000/svg">
<path d="M28.0974 28.0401C27.8675 28.0401 27.6456 27.9166 27.5371 27.6996C27.414 27.4526 27.465 27.1655 27.6488 26.9825C27.6593 26.9712 27.6707 26.9602 27.682 26.9497L35.3192 19.9762C35.6634 19.6559 35.6852 19.1076 35.3637 18.7578L31.1674 14.18C30.428 13.3156 30.5025 12.111 31.2872 11.387C31.7707 10.9404 32.4622 10.7712 33.1012 10.9461C34.494 11.2862 35.9873 10.9024 37.07 9.91645C38.0345 9.03661 38.5462 7.77575 38.4734 6.45741C38.4005 5.1346 37.7324 3.92031 36.6416 3.12631C35.3127 2.18451 33.4623 2.07479 32.0436 2.86069C30.3883 3.81382 29.5324 5.55003 29.8191 7.38665C29.9081 8.04663 29.6838 8.6726 29.2044 9.11637C28.4076 9.85167 27.1629 9.80389 26.426 9.00786L22.228 4.41955C22.0758 4.24788 21.8701 4.1511 21.6434 4.14017C21.415 4.13693 21.1964 4.209 21.0287 4.36408L16.4396 8.56328C16.4242 8.57745 16.3748 8.61551 16.3578 8.62807C15.5853 9.29736 14.3827 9.22974 13.6555 8.44343C13.2109 7.96241 13.0417 7.28704 13.202 6.63678C13.5559 5.22125 13.1794 3.73932 12.1955 2.67161C11.299 1.69418 10.0179 1.17186 8.70605 1.25122C7.37636 1.32613 6.20377 1.97275 5.40288 3.07205C4.44975 4.40457 4.34124 6.25293 5.13565 7.66724C6.06773 9.3253 7.80069 10.1829 9.65108 9.91078C10.2835 9.8043 10.9362 10.027 11.3881 10.5044C12.125 11.3389 12.0659 12.5584 11.2674 13.2961L6.68803 17.4937C6.33415 17.8189 6.30824 18.3525 6.62973 18.7084L11.0553 23.5304C11.1605 23.6453 11.2188 23.7952 11.2188 23.951C11.2188 24.2944 10.9403 24.577 10.5969 24.577C10.388 24.577 10.2025 24.4754 10.09 24.3183L5.7098 19.5457C4.93482 18.687 4.99799 17.3573 5.84746 16.5774L10.4252 12.3811C10.7208 12.1074 10.7419 11.651 10.4698 11.3437C10.3151 11.1801 10.0819 11.0996 9.84462 11.1392C7.49297 11.4883 5.22554 10.3639 4.05133 8.27661C3.02532 6.44971 3.16299 4.06608 4.39388 2.34445C5.40693 0.953622 6.95203 0.104145 8.6364 0.00939879C10.3402 -0.0881817 11.9647 0.577876 13.1113 1.82982C14.3787 3.20567 14.8645 5.11517 14.4094 6.9364C14.3503 7.17812 14.4094 7.42673 14.569 7.59962C14.8378 7.89075 15.2824 7.91463 15.5804 7.65874C15.5917 7.64862 15.6371 7.6146 15.6492 7.6057L20.1857 3.44982C20.5955 3.068 21.138 2.87244 21.7025 2.89794C22.2653 2.92426 22.7795 3.16882 23.1512 3.58587L27.3419 8.16567C27.6132 8.45882 28.061 8.47866 28.3598 8.20333C28.5396 8.03651 28.6214 7.80977 28.5882 7.56602C28.2278 5.25729 29.3429 2.98014 31.4322 1.77759C33.268 0.762105 35.6488 0.898151 37.3672 2.11609C38.7681 3.13562 39.6217 4.69124 39.7148 6.38898C39.8087 8.08186 39.1495 9.70267 37.9081 10.836C36.5169 12.1005 34.6017 12.5916 32.7886 12.1499C32.5546 12.0871 32.297 12.1487 32.131 12.3009C31.8427 12.5673 31.8136 13.0261 32.0671 13.3241L36.2804 17.9168C37.0619 18.7687 37.0092 20.1029 36.1622 20.8908L28.5728 27.8207C28.5201 27.8834 28.4546 27.9361 28.3792 27.9737C28.2894 28.0187 28.1922 28.0401 28.0974 28.0401Z" fill="#E10006"/>
<path d="M27.3266 24.7616C27.274 24.7616 27.2213 24.7579 27.1679 24.7507C26.8618 24.7114 26.6221 24.4502 26.6221 24.1336C26.6221 23.7902 26.8958 23.5117 27.2392 23.5117H27.2481C27.2796 23.5117 27.3112 23.5141 27.3428 23.519L28.2109 21.9228L26.7217 21.1155C26.4731 20.9725 26.3549 20.6782 26.4342 20.4029C26.584 19.8886 26.6593 19.3444 26.6593 18.7849C26.6593 18.231 26.584 17.6896 26.4342 17.1754C26.3549 16.9001 26.4731 16.6057 26.7217 16.4628L28.2231 15.6004L27.2732 14.0289L25.8285 14.9185C25.5799 15.0635 25.2633 15.0197 25.064 14.8104C24.3077 14.0172 23.344 13.4613 22.2759 13.2034C21.9965 13.1361 21.7998 12.8859 21.7998 12.5988V10.8659L19.9753 10.9072L20.0166 12.5988C20.0166 12.8855 19.8206 13.1353 19.5412 13.203C18.4772 13.4621 17.5159 14.018 16.7604 14.8104C16.562 15.0197 16.2454 15.0647 15.9959 14.9181L14.4954 14.0391L13.6143 15.6546L15.0954 16.4636C15.3408 16.6053 15.459 16.8948 15.3837 17.1677C15.2339 17.7115 15.1578 18.2557 15.1578 18.7849C15.1578 19.3198 15.2339 19.8668 15.3837 20.4105C15.4599 20.6843 15.34 20.9742 15.0946 21.1155L13.5933 21.9779L13.8686 22.3848C14.0573 22.6201 14.0557 22.9663 13.8476 23.1958C13.6168 23.4501 13.2281 23.4728 12.973 23.242C12.9252 23.1979 12.875 23.1383 12.8426 23.0813L12.5357 22.5423C12.211 21.9423 12.4053 21.226 12.973 20.8997L14.0702 20.2692C13.9666 19.7732 13.914 19.2756 13.914 18.7849C13.914 18.2982 13.9666 17.803 14.0702 17.3078L12.9811 16.6782C12.7049 16.5243 12.5017 16.2636 12.4183 15.9482C12.3365 15.6421 12.377 15.3198 12.5324 15.0408L13.475 13.4074C13.7982 12.845 14.5318 12.6426 15.1068 12.9564L16.2154 13.6054C16.9523 12.9341 17.8228 12.4316 18.7727 12.1279V10.8659C18.7727 10.2027 19.3121 9.66333 19.9753 9.66333H21.8492C22.5075 9.66333 23.0436 10.2027 23.0436 10.8659V12.1271C23.9975 12.43 24.8705 12.9329 25.609 13.6054L26.7015 12.9657C27.2918 12.6454 28.0052 12.8377 28.3437 13.3957L29.2871 15.0331C29.6143 15.6157 29.4135 16.351 28.8434 16.6786L27.7493 17.3074C27.8514 17.7872 27.9032 18.2824 27.9032 18.7849C27.9032 19.2918 27.8514 19.7898 27.7493 20.2709L28.8434 20.8993C29.4151 21.2288 29.6135 21.9455 29.2952 22.5318L28.3494 24.1631C28.1226 24.5413 27.7356 24.7616 27.3266 24.7616ZM20.909 21.869C19.21 21.869 17.8285 20.4871 17.8285 18.7885C17.8285 17.09 19.21 15.7085 20.909 15.7085C22.6071 15.7085 23.9886 17.09 23.9886 18.7885C23.9886 20.4871 22.6071 21.869 20.909 21.869ZM20.909 16.9523C19.8959 16.9523 19.0724 17.7759 19.0724 18.7885C19.0724 19.8012 19.8959 20.6251 20.909 20.6251C21.9212 20.6251 22.7448 19.8012 22.7448 18.7885C22.7448 17.7759 21.9212 16.9523 20.909 16.9523Z" fill="#E10006"/>
<path d="M25.9422 38.3399H12.4761C12.0323 38.3399 11.5958 38.2387 11.212 38.0476L7.30957 36.1535V25.4338L11.4347 22.9744C12.1222 22.5622 12.9101 22.344 13.711 22.344H24.2675C26.3649 22.344 28.1513 23.8413 28.5149 25.9039C28.5635 26.1642 28.5878 26.4213 28.5878 26.6643C28.5878 26.936 28.5627 27.204 28.5133 27.4656L33.9025 22.4387C35.2103 21.216 37.2947 21.2593 38.5523 22.5339C39.1743 23.1655 39.5168 23.9992 39.5168 24.8815C39.5168 25.7731 39.1475 26.6432 38.5046 27.2684L28.0064 37.5006C27.4557 38.0415 26.722 38.3399 25.9422 38.3399ZM8.1388 35.6344L11.5788 37.3038C11.8517 37.4398 12.1603 37.5107 12.4761 37.5107H25.9422C26.5034 37.5107 27.0305 37.2965 27.4265 36.9078L37.9264 26.6744C38.4098 26.2039 38.6876 25.5504 38.6876 24.8815C38.6876 24.2183 38.4301 23.5915 37.9612 23.1161C37.0178 22.1582 35.4516 22.1266 34.4685 23.0449L27.3253 29.7075H26.2029L26.8346 29.0086C27.4306 28.3754 27.7586 27.5425 27.7586 26.6643C27.7586 26.4715 27.7383 26.2654 27.6986 26.0513C27.4047 24.3823 25.9616 23.1732 24.2675 23.1732H13.711C13.0599 23.1732 12.4202 23.3506 11.8598 23.6862L8.1388 25.9051V35.6344Z" fill="#E10006"/>
<path d="M24.2703 31.1821H16.0096C15.6663 31.1821 15.3877 30.9036 15.3877 30.5602C15.3877 30.2168 15.6663 29.9383 16.0096 29.9383H24.2703C26.0778 29.9383 27.5476 28.4681 27.5476 26.661C27.5476 24.8536 26.0778 23.3834 24.2703 23.3834H13.7138C13.0968 23.3834 12.4902 23.5502 11.9614 23.8664L8.03958 26.2047C7.74644 26.3808 7.36421 26.2845 7.18687 25.9893C7.01114 25.6941 7.10751 25.3123 7.40308 25.1366L11.3241 22.7983C12.0456 22.3675 12.8716 22.1395 13.7138 22.1395H24.2703C26.7629 22.1395 28.7914 24.1677 28.7914 26.661C28.7914 29.154 26.7629 31.1821 24.2703 31.1821Z" fill="#E10006"/>
<path d="M25.9421 38.5464H12.4719C12.0079 38.5464 11.5415 38.4391 11.1244 38.2367L7.45038 36.4527C7.14104 36.3025 7.01228 35.9304 7.16209 35.6215C7.31271 35.3133 7.6836 35.183 7.99294 35.3336L11.667 37.1176C11.9164 37.2386 12.195 37.3026 12.4719 37.3026H25.9421C26.4458 37.3026 26.9219 37.1091 27.2831 36.7572L37.7829 26.5282C38.2251 26.0978 38.4721 25.5213 38.4785 24.9042C38.485 24.2871 38.2502 23.7049 37.8169 23.2652C36.9351 22.3703 35.5244 22.3424 34.6085 23.198L27.5852 29.7508C27.3341 29.9845 26.9422 29.9719 26.7057 29.7205C26.4717 29.4694 26.4855 29.0759 26.7365 28.8414L33.7599 22.2886C35.1746 20.969 37.3448 21.0152 38.7029 22.3922C39.3701 23.07 39.7321 23.9669 39.7224 24.9176C39.7119 25.8679 39.3321 26.7562 38.651 27.419L28.1512 37.6484C27.556 38.2274 26.7721 38.5464 25.9421 38.5464Z" fill="#E10006"/>
<path d="M6.8938 40H1.44954C0.650267 40 0 39.3497 0 38.5505V23.2283C0 22.4294 0.650267 21.7792 1.44954 21.7792H6.8938C7.69307 21.7792 8.34334 22.4294 8.34334 23.2283V38.5505C8.34334 39.3497 7.69307 40 6.8938 40ZM1.44954 23.023C1.33616 23.023 1.24385 23.1149 1.24385 23.2283V38.5505C1.24385 38.6638 1.33616 38.7562 1.44954 38.7562H6.8938C7.00717 38.7562 7.09949 38.6638 7.09949 38.5505V23.2283C7.09949 23.1149 7.00717 23.023 6.8938 23.023H1.44954Z" fill="#E10006"/>
<path d="M4.43862 26.0363H3.90415C3.5608 26.0363 3.28223 25.7578 3.28223 25.4144C3.28223 25.0711 3.5608 24.7925 3.90415 24.7925H4.43862C4.78197 24.7925 5.06054 25.0711 5.06054 25.4144C5.06054 25.7578 4.78197 26.0363 4.43862 26.0363Z" fill="#E10006"/>
<path d="M25.6272 27.2862C23.0253 27.2862 20.7846 25.431 20.2987 22.8748C20.2639 22.6926 20.3117 22.5048 20.4299 22.3622C20.5481 22.2193 20.7239 22.1367 20.9093 22.1367H24.2675C26.4661 22.1367 28.3384 23.7061 28.719 25.8679C28.7635 26.1201 28.6493 26.374 28.4307 26.5072C27.5942 27.017 26.6249 27.2862 25.6272 27.2862ZM21.7321 23.3806C22.3483 24.9597 23.8829 26.0424 25.6272 26.0424C26.2434 26.0424 26.8443 25.9096 27.3893 25.6561C26.9617 24.3147 25.7122 23.3806 24.2675 23.3806H21.7321Z" fill="#E10006"/>
</svg>
