<svg width="50" height="50" viewBox="0 0 50 50" fill="none" xmlns="http://www.w3.org/2000/svg">
<path d="M49 18H45V2C44.999 0.895996 44.104 0.000976562 43 0H7C5.896 0.000976562 5.00098 0.895996 5 2V18H1C0.447754 18 0 18.4478 0 19V27C0 27.5522 0.447754 28 1 28H5V37C5 37.2686 5.10889 37.5259 5.30176 37.7129C5.10547 38.1138 5.00244 38.5537 5 39V41C5.00195 42.6562 6.34375 43.998 8 44V47C8.00195 48.6562 9.34375 49.998 11 50H15C16.6562 49.998 17.998 48.6562 18 47V44H32V47C32.002 48.6562 33.3438 49.998 35 50H39C40.6562 49.998 41.998 48.6562 42 47V44C43.6562 43.998 44.998 42.6562 45 41V39C44.9976 38.5537 44.8945 38.1138 44.6987 37.7129C44.8911 37.5259 45 37.2686 45 37V28H49C49.5522 28 50 27.5522 50 27V19C50 18.4478 49.5522 18 49 18ZM42 36V29.5352L43 28.8687V36H42ZM14 36V33C14 32.7349 13.8945 32.4805 13.707 32.293L11.707 30.293C11.5195 30.1055 11.2651 30 11 30H10V13C10.002 11.3438 11.3438 10.002 13 10H37C38.6562 10.002 39.998 11.3438 40 13V30H39C38.7349 30 38.4805 30.1055 38.293 30.293L36.293 32.293C36.1055 32.4805 36 32.7349 36 33V36H14ZM7 36V28.8687L8 29.5352V36H7ZM10 32H10.5859L12 33.4141V36H10V32ZM38 33.4141L39.4141 32H40V36H38V33.4141ZM7 2H43V26.4648L42 27.1313V13C41.9966 10.2397 39.7603 8.00342 37 8H13C10.2397 8.00342 8.00342 10.2397 8 13V27.1313L7 26.4648V2ZM2 26V20H5V26H2ZM16 47C15.9995 47.5518 15.5518 47.9995 15 48H11C10.4482 47.9995 10.0005 47.5518 10 47V44H16V47ZM40 47C39.9995 47.5518 39.5518 47.9995 39 48H35C34.4482 47.9995 34.0005 47.5518 34 47V44H40V47ZM43 41C42.9995 41.5518 42.5518 41.9995 42 42H8C7.44824 41.9995 7.00049 41.5518 7 41V39C7.00049 38.4482 7.44824 38.0005 8 38H42C42.5518 38.0005 42.9995 38.4482 43 39V41ZM48 26H45V20H48V26Z" fill="white"/>
<path d="M16.6433 28H33.3572C33.4934 28 33.6277 27.9722 33.7527 27.9185L38.3958 25.9185C38.7625 25.7603 39.0003 25.3994 39.0003 25V14C39.0183 12.9155 38.156 12.021 37.0716 12H12.929C11.8445 12.021 10.9822 12.9155 11.0003 14V25C11.0003 25.3994 11.2381 25.7603 11.6048 25.9185L16.2478 27.9185C16.3728 27.9722 16.5071 28 16.6433 28ZM12.929 14H37.0003V24.3418L33.1512 26H30.0804L30.6516 25H33.5003C34.0525 25 34.5003 24.5522 34.5003 24C34.5003 23.4478 34.0525 23 33.5003 23H27.5003C26.948 23 26.5003 23.4478 26.5003 24C26.5003 24.5522 26.948 25 27.5003 25H28.3484L27.7771 26H20.0804L20.6516 25H23.5003C24.0525 25 24.5003 24.5522 24.5003 24C24.5003 23.4478 24.0525 23 23.5003 23H17.5003C16.948 23 16.5003 23.4478 16.5003 24C16.5003 24.5522 16.948 25 17.5003 25H18.3484L17.7771 26H16.8494L12.9959 24.3398L12.929 14Z" fill="white"/>
<path d="M22 39H18C17.4478 39 17 39.4478 17 40C17 40.5522 17.4478 41 18 41H22C22.5522 41 23 40.5522 23 40C23 39.4478 22.5522 39 22 39Z" fill="white"/>
<path d="M32 39H28C27.4478 39 27 39.4478 27 40C27 40.5522 27.4478 41 28 41H32C32.5522 41 33 40.5522 33 40C33 39.4478 32.5522 39 32 39Z" fill="white"/>
<path d="M33 33H17C16.4478 33 16 33.4478 16 34C16 34.5522 16.4478 35 17 35H33C33.5522 35 34 34.5522 34 34C34 33.4478 33.5522 33 33 33Z" fill="white"/>
<path d="M33 30H17C16.4478 30 16 30.4478 16 31C16 31.5522 16.4478 32 17 32H33C33.5522 32 34 31.5522 34 31C34 30.4478 33.5522 30 33 30Z" fill="white"/>
</svg>
