<svg width="40" height="40" viewBox="0 0 40 40" fill="none" xmlns="http://www.w3.org/2000/svg">
<path d="M36.1428 27.5511V16.2874C36.1428 15.298 35.7503 14.349 35.0514 13.6486C34.3525 12.9482 33.4043 12.5537 32.4149 12.5516H30.015V10.2876C30.6803 10.1727 31.2788 9.81365 31.6934 9.2808C32.108 8.74796 32.309 8.0796 32.257 7.40643C32.205 6.73327 31.9037 6.10372 31.4122 5.64089C30.9206 5.17806 30.2741 4.91524 29.599 4.90383H24.5592C23.8614 4.88688 23.1841 5.14041 22.669 5.61139C22.1538 6.08237 21.8408 6.7343 21.7953 7.4308C21.7499 8.1273 21.9755 8.81439 22.425 9.34835C22.8745 9.8823 23.5131 10.2217 24.2072 10.2956V12.5516H19.5673V6.28778C20.3125 6.0855 20.9594 5.62061 21.3887 4.97885C21.818 4.33709 22.0008 3.56175 21.9033 2.7958C21.8059 2.02986 21.4348 1.32499 20.8584 0.811171C20.2821 0.297355 19.5394 0.00925413 18.7674 0H3.51988C2.58635 0 1.69106 0.370844 1.03095 1.03095C0.370848 1.69105 4.25738e-06 2.58635 4.25738e-06 3.51988V34.7748C-0.00144654 35.9107 0.36793 37.0159 1.05201 37.9227C1.73608 38.8295 2.69746 39.4881 3.79006 39.7986C4.88266 40.1091 6.04675 40.0545 7.10545 39.643C8.16415 39.2314 9.05958 38.4856 9.65567 37.5187C10.145 38.3181 10.8417 38.9702 11.6717 39.4057C12.5017 39.8411 13.4341 40.0438 14.37 39.9921C15.3059 39.9404 16.2103 39.6364 16.9873 39.1122C17.7644 38.588 18.385 37.8632 18.7834 37.0147H23.5832C24.0622 38.0214 24.8512 38.8481 25.8344 39.3735C26.8176 39.899 27.9433 40.0957 29.0464 39.9346C30.1495 39.7736 31.172 39.2633 31.9639 38.4787C32.7559 37.6941 33.2756 36.6764 33.4468 35.5748H37.3267C37.8338 35.5751 38.3303 35.4298 38.7572 35.1561C39.1841 34.8825 39.5234 34.4921 39.7349 34.0312C39.9464 33.5703 40.0211 33.0584 39.9501 32.5564C39.8792 32.0543 39.6655 31.5831 39.3346 31.1989L36.1428 27.5511ZM34.5428 23.4312H27.943C27.192 23.4312 26.4717 23.1328 25.9406 22.6017C25.4095 22.0707 25.1111 21.3504 25.1111 20.5993C25.1111 19.8482 25.4095 19.1279 25.9406 18.5968C26.4717 18.0657 27.192 17.7674 27.943 17.7674H34.5428V23.4312ZM23.4232 7.62374C23.4232 7.32809 23.5401 7.04443 23.7484 6.83462C23.9567 6.62482 24.2395 6.50589 24.5352 6.50378H29.599C29.8786 6.52748 30.1392 6.65531 30.3291 6.86198C30.519 7.06864 30.6244 7.33908 30.6244 7.61974C30.6244 7.9004 30.519 8.17083 30.3291 8.3775C30.1392 8.58416 29.8786 8.712 29.599 8.7357H24.5592C24.4114 8.73781 24.2647 8.71067 24.1275 8.65584C23.9903 8.601 23.8653 8.51956 23.7597 8.41619C23.6541 8.31283 23.57 8.1896 23.5123 8.05359C23.4545 7.91759 23.4242 7.7715 23.4232 7.62374ZM25.7831 10.3356H28.439V12.5516H25.7831V10.3356ZM32.4149 14.1515C32.959 14.1528 33.4819 14.3625 33.8762 14.7374C34.2705 15.1124 34.5062 15.6241 34.5348 16.1674H27.943C26.7676 16.1674 25.6404 16.6344 24.8092 17.4655C23.9781 18.2966 23.5112 19.4239 23.5112 20.5993C23.5112 21.7747 23.9781 22.9019 24.8092 23.7331C25.6404 24.5642 26.7676 25.0311 27.943 25.0311H34.5428V27.0471H19.5673V14.1515H32.4149ZM1.59995 6.39978H17.9674V27.0471H1.59995V6.39978ZM1.59995 3.51988C1.60205 3.01133 1.80501 2.52421 2.16461 2.16461C2.52421 1.805 3.01133 1.60205 3.51988 1.59994H18.7674C19.1917 1.59994 19.5986 1.76851 19.8987 2.06856C20.1987 2.36861 20.3673 2.77556 20.3673 3.19989C20.3673 3.62422 20.1987 4.03117 19.8987 4.33122C19.5986 4.63127 19.1917 4.79983 18.7674 4.79983H1.59995V3.51988ZM5.22382 38.3987C4.60753 38.4005 4.0009 38.2455 3.46103 37.9483C2.92117 37.651 2.46583 37.2212 2.13788 36.6995C1.80993 36.1777 1.62015 35.581 1.58642 34.9656C1.55268 34.3502 1.6761 33.7364 1.94505 33.1819C2.214 32.6274 2.61963 32.1504 3.12376 31.7959C3.6279 31.4414 4.21395 31.221 4.82676 31.1555C5.43956 31.09 6.05896 31.1815 6.62665 31.4214C7.19433 31.6613 7.69163 32.0418 8.07173 32.5269H5.19182C4.61986 32.561 4.08253 32.8123 3.68964 33.2294C3.29675 33.6465 3.07794 34.1978 3.07794 34.7708C3.07794 35.3438 3.29675 35.8951 3.68964 36.3122C4.08253 36.7293 4.61986 36.9806 5.19182 37.0147H8.07173C7.73231 37.4454 7.29976 37.7937 6.80653 38.0334C6.31331 38.2731 5.77221 38.398 5.22382 38.3987ZM28.623 34.1268C28.7136 34.1167 28.8053 34.1258 28.8922 34.1536C28.979 34.1813 29.059 34.2271 29.1269 34.2879C29.1949 34.3486 29.2492 34.4231 29.2864 34.5063C29.3236 34.5895 29.3429 34.6796 29.3429 34.7708C29.3429 34.862 29.3236 34.9521 29.2864 35.0353C29.2492 35.1185 29.1949 35.193 29.1269 35.2537C29.059 35.3145 28.979 35.3603 28.8922 35.388C28.8053 35.4158 28.7136 35.4249 28.623 35.4148H5.19182C5.0334 35.3971 4.88706 35.3216 4.78078 35.2028C4.67449 35.084 4.61573 34.9302 4.61573 34.7708C4.61573 34.6114 4.67449 34.4576 4.78078 34.3388C4.88706 34.22 5.0334 34.1445 5.19182 34.1268H28.623ZM11.2396 32.5269C11.5779 32.096 12.0097 31.7477 12.5024 31.5081C12.9951 31.2686 13.5357 31.1441 14.0835 31.1441C14.6313 31.1441 15.172 31.2686 15.6646 31.5081C16.1573 31.7477 16.5891 32.096 16.9274 32.5269H11.2396ZM14.0795 38.3987C13.5323 38.3979 12.9924 38.273 12.5004 38.0333C12.0085 37.7935 11.5774 37.4453 11.2396 37.0147H16.9274C16.5876 37.445 16.155 37.793 15.6618 38.0326C15.1687 38.2722 14.6278 38.3974 14.0795 38.3987ZM28.311 38.3987C27.7627 38.3974 27.2218 38.2722 26.7287 38.0326C26.2356 37.793 25.8029 37.445 25.4631 37.0147H28.663C28.969 37.033 29.2754 36.9885 29.5635 36.884C29.8517 36.7795 30.1154 36.6172 30.3385 36.407C30.5615 36.1969 30.7393 35.9433 30.8608 35.6619C30.9823 35.3805 31.045 35.0773 31.045 34.7708C31.045 34.4643 30.9823 34.1611 30.8608 33.8797C30.7393 33.5983 30.5615 33.3447 30.3385 33.1346C30.1154 32.9244 29.8517 32.7621 29.5635 32.6576C29.2754 32.5531 28.969 32.5086 28.663 32.5269H25.4631C25.8437 32.0456 26.3403 31.6689 26.9062 31.432C27.4722 31.1951 28.089 31.1057 28.6989 31.1723C29.3089 31.239 29.8919 31.4593 30.3934 31.8128C30.8949 32.1663 31.2984 32.6413 31.5661 33.1934C31.8339 33.7454 31.9571 34.3564 31.9242 34.9691C31.8913 35.5817 31.7034 36.176 31.3781 36.6962C31.0528 37.2164 30.6007 37.6455 30.0643 37.9433C29.5278 38.2411 28.9246 38.3978 28.311 38.3987ZM38.3027 33.3589C38.2223 33.5439 38.0891 33.701 37.9197 33.8106C37.7504 33.9202 37.5524 33.9773 37.3507 33.9748H33.4708C33.306 32.8691 32.7897 31.8459 31.9983 31.0563C31.2069 30.2667 30.1824 29.7527 29.0764 29.5903C27.9703 29.428 26.8414 29.6258 25.8564 30.1547C24.8715 30.6835 24.0829 31.5152 23.6072 32.5269H18.8074C18.4116 31.6734 17.7917 30.9433 17.0137 30.4144C16.2357 29.8854 15.3288 29.5774 14.3896 29.5233C13.4504 29.4691 12.514 29.6707 11.6804 30.1067C10.8467 30.5426 10.147 31.1966 9.65567 31.9989C9.24579 31.3363 8.69224 30.7743 8.03595 30.3544C7.37966 29.9345 6.6374 29.6675 5.86403 29.573C5.09066 29.4785 4.30594 29.5591 3.56788 29.8086C2.82981 30.0582 2.15727 30.4705 1.59995 31.0149V28.615H34.9828L38.1347 32.2069C38.2774 32.3585 38.37 32.5504 38.4 32.7564C38.4301 32.9625 38.3961 33.1728 38.3027 33.3589Z" fill="#E10006"/>
<path d="M14.3194 9.24768H5.24773C5.03556 9.24768 4.83208 9.33196 4.68206 9.48199C4.53204 9.63201 4.44775 9.83549 4.44775 10.0477V23.3992C4.44775 23.6114 4.53204 23.8148 4.68206 23.9649C4.83208 24.1149 5.03556 24.1992 5.24773 24.1992H14.3194C14.5316 24.1992 14.7351 24.1149 14.8851 23.9649C15.0351 23.8148 15.1194 23.6114 15.1194 23.3992V10.0477C15.1194 9.83549 15.0351 9.63201 14.8851 9.48199C14.7351 9.33196 14.5316 9.24768 14.3194 9.24768ZM13.5194 22.5992H6.0477V10.8476H13.5194V22.5992Z" fill="#E10006"/>
</svg>
