<svg width="62" height="40" viewBox="0 0 62 40" fill="none" xmlns="http://www.w3.org/2000/svg">
<path d="M18.5475 27.6441H17.8599C17.5918 27.687 17.3175 27.6216 17.0976 27.4623C16.8776 27.3031 16.7299 27.0629 16.687 26.7948C16.6441 26.5266 16.7095 26.2523 16.8688 26.0324C17.0281 25.8124 17.2682 25.6647 17.5364 25.6218V8.75613H7.14192L2.18737 24.2062C2.13695 24.3687 2.1252 24.5407 2.15304 24.7086C2.18088 24.8764 2.24755 25.0354 2.34772 25.1729C2.4479 25.3104 2.57883 25.4226 2.73005 25.5006C2.88127 25.5785 3.04861 25.62 3.21873 25.6218H5.36233C5.6305 25.6218 5.88768 25.7284 6.07731 25.918C6.26693 26.1076 6.37346 26.3648 6.37346 26.633C6.37346 26.9011 6.26693 27.1583 6.07731 27.3479C5.88768 27.5376 5.6305 27.6441 5.36233 27.6441H3.34006C2.81486 27.6763 2.28995 27.5765 1.81312 27.354C1.3363 27.1315 0.922708 26.7933 0.610002 26.3701C0.317881 25.9785 0.123312 25.5229 0.0424234 25.0411C-0.0384649 24.5593 -0.00334187 24.0651 0.144881 23.5996L5.34211 7.42143C5.40697 7.21518 5.53624 7.03514 5.71094 6.90775C5.88564 6.78036 6.09658 6.71233 6.31279 6.71364H18.4464C18.7146 6.71364 18.9717 6.82017 19.1614 7.00979C19.351 7.19942 19.4575 7.45661 19.4575 7.72477V26.6127C19.4639 26.8677 19.3737 27.1157 19.2049 27.307C19.0361 27.4983 18.8013 27.6187 18.5475 27.6441Z" fill="#E10006"/>
<path d="M58.7507 28.3117H54.8881C54.62 28.3117 54.3628 28.2051 54.1732 28.0155C53.9835 27.8259 53.877 27.5687 53.877 27.3005C53.877 27.0324 53.9835 26.7752 54.1732 26.5856C54.3628 26.3959 54.62 26.2894 54.8881 26.2894H58.7507C59.0188 26.2894 59.276 26.1829 59.4656 25.9932C59.6553 25.8036 59.7618 25.5464 59.7618 25.2783C59.7618 25.0101 59.6553 24.7529 59.4656 24.5633C59.276 24.3737 59.0188 24.2671 58.7507 24.2671H18.548C18.2798 24.2671 18.0226 24.1606 17.833 23.971C17.6434 23.7814 17.5369 23.5242 17.5369 23.256C17.5369 22.9878 17.6434 22.7307 17.833 22.541C18.0226 22.3514 18.2798 22.2449 18.548 22.2449H58.7507C59.5552 22.2449 60.3267 22.5645 60.8956 23.1333C61.4645 23.7022 61.7841 24.4738 61.7841 25.2783C61.7841 26.0828 61.4645 26.8543 60.8956 27.4232C60.3267 27.9921 59.5552 28.3117 58.7507 28.3117Z" fill="#E10006"/>
<path d="M24.6752 28.3118H18.1635C17.8953 28.3118 17.6381 28.2053 17.4485 28.0157C17.2589 27.826 17.1523 27.5689 17.1523 27.3007C17.1523 27.0325 17.2589 26.7753 17.4485 26.5857C17.6381 26.3961 17.8953 26.2896 18.1635 26.2896H24.6752C24.9433 26.2896 25.2005 26.3961 25.3902 26.5857C25.5798 26.7753 25.6863 27.0325 25.6863 27.3007C25.6863 27.5689 25.5798 27.826 25.3902 28.0157C25.2005 28.2053 24.9433 28.3118 24.6752 28.3118Z" fill="#E10006"/>
<path d="M58.2045 34.156H54.4633C54.1951 34.156 53.9379 34.0494 53.7483 33.8598C53.5587 33.6702 53.4522 33.413 53.4522 33.1448C53.4522 32.8767 53.5587 32.6195 53.7483 32.4298C53.9379 32.2402 54.1951 32.1337 54.4633 32.1337H57.1125C56.9721 31.3013 56.6537 30.509 56.1791 29.811C55.7044 29.113 55.0847 28.5257 54.3622 28.0892C53.4462 27.5181 52.3879 27.2167 51.3086 27.2196H28.2547C27.1755 27.2178 26.1175 27.5191 25.2011 28.0892C24.7978 28.3347 24.4245 28.6266 24.0889 28.9587C23.2248 29.8201 22.652 30.9303 22.4508 32.1337H25.6056C25.8737 32.1337 26.1309 32.2402 26.3205 32.4298C26.5102 32.6195 26.6167 32.8767 26.6167 33.1448C26.6167 33.413 26.5102 33.6702 26.3205 33.8598C26.1309 34.0494 25.8737 34.156 25.6056 34.156H21.3588C21.0906 34.156 20.8334 34.0494 20.6438 33.8598C20.4542 33.6702 20.3477 33.413 20.3477 33.1448C20.3469 32.1069 20.552 31.0792 20.9512 30.1211C21.3504 29.163 21.9357 28.2936 22.6733 27.5634C23.1191 27.1233 23.6145 26.7364 24.1495 26.4107C25.3656 25.6608 26.7654 25.2618 28.1941 25.258H51.2479C52.2957 25.2473 53.3352 25.4444 54.3064 25.838C55.2775 26.2316 56.161 26.8138 56.9057 27.551C57.6504 28.2882 58.2416 29.1657 58.645 30.1328C59.0484 31.0999 59.2561 32.1374 59.2561 33.1853C59.2509 33.3181 59.2195 33.4486 59.1638 33.5693C59.1082 33.69 59.0292 33.7985 58.9315 33.8886C58.8339 33.9788 58.7194 34.0488 58.5946 34.0947C58.4699 34.1406 58.3373 34.1614 58.2045 34.156Z" fill="#E10006"/>
<path d="M45.828 34.1558H34.2404C33.9722 34.1558 33.715 34.0493 33.5254 33.8597C33.3358 33.67 33.2292 33.4128 33.2292 33.1447C33.2292 32.8765 33.3358 32.6193 33.5254 32.4297C33.715 32.2401 33.9722 32.1335 34.2404 32.1335H45.828C46.0961 32.1335 46.3533 32.2401 46.5429 32.4297C46.7326 32.6193 46.8391 32.8765 46.8391 33.1447C46.8391 33.4128 46.7326 33.67 46.5429 33.8597C46.3533 34.0493 46.0961 34.1558 45.828 34.1558Z" fill="#E10006"/>
<path d="M10.4183 18.2002H3.38079C3.22152 18.2011 3.06427 18.1644 2.92185 18.0931C2.77944 18.0218 2.65589 17.9178 2.56127 17.7897C2.46665 17.6616 2.40364 17.5129 2.37737 17.3558C2.3511 17.1987 2.36232 17.0376 2.4101 16.8857L5.44351 7.4417C5.50837 7.23544 5.63763 7.05541 5.81234 6.92802C5.98704 6.80063 6.19798 6.7326 6.41419 6.73391H13.755C14.0232 6.73391 14.2804 6.84044 14.47 7.03006C14.6596 7.21968 14.7662 7.47687 14.7662 7.74504V13.8118C14.7715 14.3862 14.663 14.9559 14.4469 15.4881C14.2308 16.0203 13.9114 16.5044 13.5071 16.9124C13.1028 17.3205 12.6217 17.6443 12.0915 17.8654C11.5614 18.0864 10.9927 18.2002 10.4183 18.2002ZM4.77616 16.1779H10.4183C11.0213 16.1783 11.6009 15.9444 12.0348 15.5256C12.4687 15.1068 12.7229 14.5358 12.7439 13.9332V8.75617H7.14221L4.77616 16.1779Z" fill="#E10006"/>
<path d="M57.9417 24.2672H21.5409C21.2728 24.2672 21.0156 24.1607 20.8259 23.971C20.6363 23.7814 20.5298 23.5242 20.5298 23.2561V6.0668H3.34053C2.53602 6.0668 1.76446 5.74721 1.19559 5.17834C0.626718 4.60946 0.307129 3.83791 0.307129 3.0334C0.307129 2.22889 0.626718 1.45733 1.19559 0.888462C1.76446 0.319589 2.53602 0 3.34053 0H25.5855C25.8536 0 26.1108 0.10653 26.3004 0.296154C26.4901 0.485779 26.5966 0.742964 26.5966 1.01113V6.0668H57.9417C58.2099 6.0668 58.4671 6.17333 58.6567 6.36295C58.8463 6.55258 58.9529 6.80976 58.9529 7.07793V23.2561C58.9529 23.5242 58.8463 23.7814 58.6567 23.971C58.4671 24.1607 58.2099 24.2672 57.9417 24.2672ZM22.5521 22.2449H56.9306V8.08907H25.5855C25.3173 8.08907 25.0601 7.98254 24.8705 7.79291C24.6809 7.60329 24.5743 7.3461 24.5743 7.07793V2.02227H3.34053C3.07236 2.02227 2.81517 2.1288 2.62555 2.31842C2.43593 2.50805 2.3294 2.76523 2.3294 3.0334C2.3294 3.30157 2.43593 3.55875 2.62555 3.74838C2.81517 3.938 3.07236 4.04453 3.34053 4.04453H21.5409C21.8091 4.04453 22.0663 4.15106 22.2559 4.34069C22.4455 4.53031 22.5521 4.7875 22.5521 5.05567V22.2449Z" fill="#E10006"/>
<path d="M31.6523 20.2227C30.8478 20.2227 30.0762 19.9031 29.5074 19.3342C28.9385 18.7653 28.6189 17.9938 28.6189 17.1893V13.1447C28.6189 12.3402 28.9385 11.5687 29.5074 10.9998C30.0762 10.4309 30.8478 10.1113 31.6523 10.1113C32.4568 10.1113 33.2284 10.4309 33.7972 10.9998C34.3661 11.5687 34.6857 12.3402 34.6857 13.1447V17.1893C34.6857 17.9938 34.3661 18.7653 33.7972 19.3342C33.2284 19.9031 32.4568 20.2227 31.6523 20.2227ZM31.6523 12.1336C31.3841 12.1336 31.1269 12.2401 30.9373 12.4297C30.7477 12.6194 30.6412 12.8766 30.6412 13.1447V17.1893C30.6412 17.4574 30.7477 17.7146 30.9373 17.9042C31.1269 18.0939 31.3841 18.2004 31.6523 18.2004C31.9205 18.2004 32.1777 18.0939 32.3673 17.9042C32.5569 17.7146 32.6634 17.4574 32.6634 17.1893V13.1447C32.6634 12.8766 32.5569 12.6194 32.3673 12.4297C32.1777 12.2401 31.9205 12.1336 31.6523 12.1336Z" fill="#E10006"/>
<path d="M39.7414 20.2227C38.9369 20.2227 38.1653 19.9031 37.5965 19.3342C37.0276 18.7653 36.708 17.9938 36.708 17.1893V13.1447C36.708 12.3402 37.0276 11.5687 37.5965 10.9998C38.1653 10.4309 38.9369 10.1113 39.7414 10.1113C40.5459 10.1113 41.3175 10.4309 41.8863 10.9998C42.4552 11.5687 42.7748 12.3402 42.7748 13.1447V17.1893C42.7748 17.9938 42.4552 18.7653 41.8863 19.3342C41.3175 19.9031 40.5459 20.2227 39.7414 20.2227ZM39.7414 12.1336C39.4732 12.1336 39.2161 12.2401 39.0264 12.4297C38.8368 12.6194 38.7303 12.8766 38.7303 13.1447V17.1893C38.7303 17.4574 38.8368 17.7146 39.0264 17.9042C39.2161 18.0939 39.4732 18.2004 39.7414 18.2004C40.0096 18.2004 40.2668 18.0939 40.4564 17.9042C40.646 17.7146 40.7525 17.4574 40.7525 17.1893V13.1447C40.7525 12.8766 40.646 12.6194 40.4564 12.4297C40.2668 12.2401 40.0096 12.1336 39.7414 12.1336Z" fill="#E10006"/>
<path d="M47.8303 20.2227C47.0258 20.2227 46.2542 19.9031 45.6853 19.3342C45.1165 18.7653 44.7969 17.9938 44.7969 17.1893V13.1447C44.7969 12.3402 45.1165 11.5687 45.6853 10.9998C46.2542 10.4309 47.0258 10.1113 47.8303 10.1113C48.6348 10.1113 49.4063 10.4309 49.9752 10.9998C50.5441 11.5687 50.8637 12.3402 50.8637 13.1447V17.1893C50.8637 17.9938 50.5441 18.7653 49.9752 19.3342C49.4063 19.9031 48.6348 20.2227 47.8303 20.2227ZM47.8303 12.1336C47.5621 12.1336 47.3049 12.2401 47.1153 12.4297C46.9257 12.6194 46.8191 12.8766 46.8191 13.1447V17.1893C46.8191 17.4574 46.9257 17.7146 47.1153 17.9042C47.3049 18.0939 47.5621 18.2004 47.8303 18.2004C48.0984 18.2004 48.3556 18.0939 48.5453 17.9042C48.7349 17.7146 48.8414 17.4574 48.8414 17.1893V13.1447C48.8414 12.8766 48.7349 12.6194 48.5453 12.4297C48.3556 12.2401 48.0984 12.1336 47.8303 12.1336Z" fill="#E10006"/>
<path d="M29.9333 38.2003C28.8774 38.2003 27.8452 37.8872 26.9672 37.3005C26.0892 36.7139 25.405 35.8801 25.0009 34.9046C24.5968 33.929 24.4911 32.8556 24.6971 31.8199C24.9031 30.7843 25.4115 29.833 26.1582 29.0864C26.9048 28.3398 27.8561 27.8313 28.8917 27.6253C29.9273 27.4193 31.0008 27.525 31.9763 27.9291C32.9519 28.3332 33.7857 29.0175 34.3723 29.8954C34.9589 30.7734 35.2721 31.8056 35.2721 32.8615C35.2667 34.2758 34.7025 35.6306 33.7025 36.6307C32.7024 37.6308 31.3476 38.1949 29.9333 38.2003ZM29.9333 29.5247C29.2773 29.5247 28.6361 29.7193 28.0907 30.0837C27.5453 30.4481 27.1202 30.9661 26.8692 31.5721C26.6182 32.1781 26.5525 32.8449 26.6805 33.4883C26.8084 34.1316 27.1243 34.7226 27.5881 35.1864C28.052 35.6502 28.6429 35.9661 29.2862 36.0941C29.9296 36.222 30.5964 36.1563 31.2024 35.9053C31.8085 35.6543 32.3264 35.2292 32.6909 34.6838C33.0553 34.1384 33.2498 33.4972 33.2498 32.8413C33.2524 32.4031 33.1688 31.9687 33.0035 31.5628C32.8383 31.157 32.5948 30.7876 32.2868 30.4759C31.9788 30.1642 31.6125 29.9162 31.2087 29.746C30.8048 29.5759 30.3715 29.487 29.9333 29.4843V29.5247Z" fill="#E10006"/>
<path d="M50.1559 38.2003C49.1 38.2003 48.0678 37.8872 47.1899 37.3005C46.3119 36.7139 45.6276 35.8801 45.2235 34.9046C44.8195 33.929 44.7137 32.8556 44.9197 31.8199C45.1257 30.7843 45.6342 29.833 46.3808 29.0864C47.1275 28.3398 48.0788 27.8313 49.1144 27.6253C50.15 27.4193 51.2235 27.525 52.199 27.9291C53.1745 28.3332 54.0083 29.0175 54.595 29.8954C55.1816 30.7734 55.4947 31.8056 55.4947 32.8615C55.4894 34.2758 54.9252 35.6306 53.9251 36.6307C52.9251 37.6308 51.5702 38.1949 50.1559 38.2003ZM50.1559 29.5247C49.5 29.5247 48.8588 29.7193 48.3134 30.0837C47.768 30.4481 47.3429 30.9661 47.0919 31.5721C46.8408 32.1781 46.7752 32.8449 46.9031 33.4883C47.0311 34.1316 47.347 34.7226 47.8108 35.1864C48.2746 35.6502 48.8656 35.9661 49.5089 36.0941C50.1522 36.222 50.8191 36.1563 51.4251 35.9053C52.0311 35.6543 52.5491 35.2292 52.9135 34.6838C53.2779 34.1384 53.4724 33.4972 53.4724 32.8413C53.4751 32.4031 53.3914 31.9687 53.2262 31.5628C53.061 31.157 52.8174 30.7876 52.5095 30.4759C52.2015 30.1642 51.8351 29.9162 51.4313 29.746C51.0275 29.5759 50.5941 29.487 50.1559 29.4843V29.5247Z" fill="#E10006"/>
<path d="M18.5475 31.7896H15.4939C15.2257 31.7896 14.9685 31.6831 14.7789 31.4935C14.5893 31.3039 14.4828 31.0467 14.4828 30.7785C14.4828 30.5103 14.5893 30.2531 14.7789 30.0635C14.9685 29.8739 15.2257 29.7674 15.4939 29.7674H17.5162V29.282C17.5179 28.735 17.4149 28.1927 17.2128 27.6844C17.1464 27.4898 17.0653 27.3005 16.9701 27.1182C16.5863 26.4369 16.0282 25.8699 15.353 25.4755C14.6778 25.081 13.9098 24.8732 13.1278 24.8735H10.1147C8.99901 24.8626 7.92389 25.2912 7.1217 26.0666C6.76498 26.3772 6.46404 26.7465 6.23191 27.1586C5.86728 27.8138 5.67913 28.5525 5.68589 29.3022V29.7876H7.8295C8.09767 29.7876 8.35485 29.8941 8.54448 30.0837C8.7341 30.2734 8.84063 30.5306 8.84063 30.7987C8.84063 31.0669 8.7341 31.3241 8.54448 31.5137C8.35485 31.7033 8.09767 31.8099 7.8295 31.8099H4.65454C4.38637 31.8099 4.12918 31.7033 3.93956 31.5137C3.74993 31.3241 3.6434 31.0669 3.6434 30.7987V29.3022C3.62509 28.1689 3.91144 27.0515 4.47253 26.0666C4.80758 25.4803 5.23818 24.954 5.74656 24.5095C6.92152 23.3869 8.48978 22.7698 10.1147 22.7905H13.1278C14.2814 22.7786 15.4171 23.0763 16.4166 23.6525C17.416 24.2286 18.2427 25.0623 18.8104 26.0666C18.9513 26.327 19.073 26.5974 19.1744 26.8755C19.4686 27.6156 19.6196 28.4048 19.6193 29.2011V30.6976C19.6312 30.8423 19.6118 30.9879 19.5625 31.1244C19.5131 31.2609 19.4349 31.3852 19.3332 31.4888C19.2315 31.5924 19.1087 31.6729 18.9731 31.7248C18.8376 31.7767 18.6924 31.7988 18.5475 31.7896Z" fill="#E10006"/>
<path d="M11.652 38.2003C10.5961 38.2003 9.56391 37.8872 8.68595 37.3005C7.80799 36.7139 7.12371 35.8801 6.71963 34.9046C6.31555 33.929 6.20982 32.8556 6.41582 31.8199C6.62182 30.7843 7.13029 29.833 7.87693 29.0864C8.62357 28.3398 9.57485 27.8313 10.6105 27.6253C11.6461 27.4193 12.7195 27.525 13.6951 27.9291C14.6706 28.3332 15.5044 29.0175 16.0911 29.8954C16.6777 30.7734 16.9908 31.8056 16.9908 32.8615C16.9855 34.2758 16.4213 35.6306 15.4212 36.6307C14.4212 37.6308 13.0663 38.1949 11.652 38.2003ZM11.652 29.5247C10.9961 29.5247 10.3549 29.7193 9.80946 30.0837C9.26406 30.4481 8.83898 30.9661 8.58796 31.5721C8.33694 32.1781 8.27126 32.8449 8.39923 33.4883C8.5272 34.1316 8.84306 34.7226 9.30689 35.1864C9.77071 35.6502 10.3617 35.9661 11.005 36.0941C11.6483 36.222 12.3152 36.1563 12.9212 35.9053C13.5272 35.6543 14.0452 35.2292 14.4096 34.6838C14.774 34.1384 14.9685 33.4972 14.9685 32.8413C14.9739 32.4023 14.8921 31.9667 14.7278 31.5597C14.5635 31.1526 14.3201 30.7822 14.0116 30.4699C13.7031 30.1577 13.3356 29.9098 12.9306 29.7406C12.5256 29.5714 12.091 29.4843 11.652 29.4843V29.5247Z" fill="#E10006"/>
<path d="M18.1029 21.1124H13.8966C13.6285 21.1124 13.3713 21.0058 13.1817 20.8162C12.992 20.6266 12.8855 20.3694 12.8855 20.1012C12.8855 19.8331 12.992 19.5759 13.1817 19.3862C13.3713 19.1966 13.6285 19.0901 13.8966 19.0901H18.1029C18.3711 19.0901 18.6283 19.1966 18.8179 19.3862C19.0075 19.5759 19.1141 19.8331 19.1141 20.1012C19.1141 20.3694 19.0075 20.6266 18.8179 20.8162C18.6283 21.0058 18.3711 21.1124 18.1029 21.1124Z" fill="#E10006"/>
<path d="M42.4712 34.1561H37.5976C37.3294 34.1561 37.0722 34.0495 36.8826 33.8599C36.693 33.6703 36.5864 33.4131 36.5864 33.1449V26.2895C36.5864 26.0213 36.693 25.7641 36.8826 25.5745C37.0722 25.3848 37.3294 25.2783 37.5976 25.2783H42.4712C42.7394 25.2783 42.9966 25.3848 43.1862 25.5745C43.3758 25.7641 43.4824 26.0213 43.4824 26.2895V33.1854C43.4719 33.4465 43.3608 33.6934 43.1723 33.8744C42.9838 34.0553 42.7325 34.1563 42.4712 34.1561ZM38.5885 32.1338H41.4601V27.3006H38.6087L38.5885 32.1338Z" fill="#E10006"/>
<path d="M11.6518 34.5604C11.3836 34.5604 11.1264 34.4539 10.9368 34.2643C10.7472 34.0746 10.6406 33.8174 10.6406 33.5493V32.1337C10.6406 31.8655 10.7472 31.6083 10.9368 31.4187C11.1264 31.2291 11.3836 31.1226 11.6518 31.1226C11.9199 31.1226 12.1771 31.2291 12.3667 31.4187C12.5564 31.6083 12.6629 31.8655 12.6629 32.1337V33.6099C12.6474 33.8675 12.5341 34.1093 12.3461 34.286C12.1581 34.4627 11.9097 34.5609 11.6518 34.5604Z" fill="#E10006"/>
<path d="M29.933 34.5604C29.6648 34.5604 29.4077 34.4539 29.218 34.2643C29.0284 34.0746 28.9219 33.8174 28.9219 33.5493V32.1337C28.9219 31.8655 29.0284 31.6083 29.218 31.4187C29.4077 31.2291 29.6648 31.1226 29.933 31.1226C30.2012 31.1226 30.4584 31.2291 30.648 31.4187C30.8376 31.6083 30.9441 31.8655 30.9441 32.1337V33.6099C30.9287 33.8675 30.8153 34.1093 30.6274 34.286C30.4394 34.4627 30.191 34.5609 29.933 34.5604Z" fill="#E10006"/>
<path d="M50.1557 34.5806C49.8875 34.5806 49.6303 34.4741 49.4407 34.2845C49.2511 34.0949 49.1445 33.8377 49.1445 33.5695V32.1337C49.1445 31.8655 49.2511 31.6083 49.4407 31.4187C49.6303 31.2291 49.8875 31.1226 50.1557 31.1226C50.4238 31.1226 50.681 31.2291 50.8706 31.4187C51.0603 31.6083 51.1668 31.8655 51.1668 32.1337V33.6099C51.1563 33.871 51.0452 34.118 50.8567 34.2989C50.6682 34.4799 50.417 34.5808 50.1557 34.5806Z" fill="#E10006"/>
<path d="M56.8091 40H7.12197C6.8538 40 6.59662 39.8935 6.40699 39.7039C6.21737 39.5143 6.11084 39.2571 6.11084 38.9889C6.11084 38.7207 6.21737 38.4636 6.40699 38.2739C6.59662 38.0843 6.8538 37.9778 7.12197 37.9778H56.8091C57.0772 37.9778 57.3344 38.0843 57.524 38.2739C57.7137 38.4636 57.8202 38.7207 57.8202 38.9889C57.8202 39.2571 57.7137 39.5143 57.524 39.7039C57.3344 39.8935 57.0772 40 56.8091 40Z" fill="#E10006"/>
<path d="M3.27967 39.9397H2.06631C1.79814 39.9397 1.54095 39.8332 1.35133 39.6436C1.16171 39.454 1.05518 39.1968 1.05518 38.9286C1.05518 38.6604 1.16171 38.4033 1.35133 38.2136C1.54095 38.024 1.79814 37.9175 2.06631 37.9175H3.27967C3.54784 37.9175 3.80502 38.024 3.99465 38.2136C4.18427 38.4033 4.2908 38.6604 4.2908 38.9286C4.2908 39.1968 4.18427 39.454 3.99465 39.6436C3.80502 39.8332 3.54784 39.9397 3.27967 39.9397Z" fill="#E10006"/>
<path d="M60.3278 39.9397H59.8424C59.5743 39.9397 59.3171 39.8332 59.1275 39.6436C58.9378 39.454 58.8313 39.1968 58.8313 38.9286C58.8313 38.6604 58.9378 38.4033 59.1275 38.2136C59.3171 38.024 59.5743 37.9175 59.8424 37.9175H60.3278C60.5959 37.9175 60.8531 38.024 61.0428 38.2136C61.2324 38.4033 61.3389 38.6604 61.3389 38.9286C61.3389 39.1968 61.2324 39.454 61.0428 39.6436C60.8531 39.8332 60.5959 39.9397 60.3278 39.9397Z" fill="#E10006"/>
</svg>
