<svg width="41" height="42" viewBox="0 0 41 42" fill="none" xmlns="http://www.w3.org/2000/svg">
<path d="M19.8668 9.37121V8.42676H17.9456C18.078 8.72727 18.1816 9.04311 18.2523 9.37121H19.8668Z" fill="#E10006"/>
<path d="M26.0525 8.09952C26.2758 8.04397 26.5034 8.05039 26.7149 8.10907C25.1433 5.43021 23.0362 3.72179 20.7075 3.53735V9.37129H20.9414L26.0525 8.09952Z" fill="#E10006"/>
<path d="M28.5814 30.1713C28.5814 29.9392 28.7696 29.751 29.0017 29.751H30.2244C29.7336 29.5818 29.2313 29.424 28.7169 29.2798C28.46 29.9403 28.1746 30.5731 27.8623 31.1743V33.3537H28.5814V30.1713Z" fill="#E10006"/>
<path d="M8.1327 8.42676C8.00745 8.5603 7.88428 8.69581 7.76343 8.8334C8.04241 8.96713 8.32716 9.09639 8.6173 9.22126C8.68562 8.94661 8.77721 8.68123 8.88937 8.42676H8.1327Z" fill="#E10006"/>
<path d="M27.4897 7.78655C27.9512 8.58434 28.3611 9.44685 28.7169 10.3618C30.1814 9.95106 31.5538 9.43615 32.8111 8.83346C30.3722 6.05693 27.0277 4.09457 23.2432 3.41455C24.8384 4.23281 26.293 5.71746 27.4897 7.78655Z" fill="#E10006"/>
<path d="M19.8668 13.8504C19.6917 13.5288 19.5922 13.1604 19.5922 12.7692C19.5922 12.7567 19.5938 12.7446 19.594 12.7322H18.202C17.7588 14.1227 16.4552 15.1328 14.9198 15.1328H11.9149C11.7512 15.1328 11.5904 15.1205 11.4327 15.0983C11.1973 16.4659 11.0608 17.9085 11.0393 19.4008H19.8668V13.8504Z" fill="#E10006"/>
<path d="M30.3757 19.4006H36.9505C36.8576 15.668 35.5315 12.2364 33.3654 9.49805C32.0134 10.1639 30.551 10.7187 29.0071 11.1557C29.8607 13.6366 30.3345 16.4571 30.3757 19.4006Z" fill="#E10006"/>
<path d="M19.8669 20.2412H11.0393C11.0816 23.1738 11.5657 25.9164 12.3783 28.2695C14.7344 27.676 17.2624 27.3507 19.8669 27.3191V20.2412Z" fill="#E10006"/>
<path d="M18.5192 31.514H19.8669V28.1597C17.3297 28.1914 14.9045 28.51 12.6721 29.0651C14.2446 33.0748 16.8092 35.7874 19.7358 36.092C19.6469 36.0296 19.5556 35.9699 19.4597 35.9161L18.3133 35.2721C18.1809 35.1977 18.0989 35.0576 18.0989 34.9057V31.9343C18.0989 31.7022 18.2871 31.514 18.5192 31.514Z" fill="#E10006"/>
<path d="M27.6846 28.1455C27.856 28.1855 28.0265 28.2268 28.1962 28.2695C29.0088 25.9163 29.4928 23.1738 29.5352 20.2412H20.7075V27.3191C21.1229 27.3241 21.5364 27.3364 21.9476 27.3563V23.1192C21.9476 22.8871 22.1358 22.6989 22.3679 22.6989H24.3907C24.6228 22.6989 24.811 22.8871 24.811 23.1192V27.3747H26.3912C26.949 27.3747 27.4353 27.6868 27.6846 28.1455Z" fill="#E10006"/>
<path d="M31.3024 29.2463V26.5686C31.3024 26.3365 31.4906 26.1483 31.7227 26.1483H35.7071C36.4607 24.3187 36.8986 22.3272 36.9505 20.2412H30.3757C30.3345 23.1848 29.8607 26.0052 29.0071 28.4861C29.7947 28.7091 30.561 28.9629 31.3024 29.2463Z" fill="#E10006"/>
<path d="M10.1986 20.2412H3.62378C3.71663 23.9738 5.0428 27.4054 7.20889 30.1438C8.56093 29.478 10.0234 28.9232 11.5673 28.4862C10.7136 26.0052 10.2398 23.1848 10.1986 20.2412Z" fill="#E10006"/>
<path d="M17.3314 3.41455C16.5521 3.55459 15.7917 3.7498 15.0537 3.99449L15.139 5.0511C15.8286 4.35747 16.5635 3.80843 17.3314 3.41455Z" fill="#E10006"/>
<path d="M4.97414 15.0376C4.75604 15.0376 4.54574 15.005 4.34601 14.9472C3.91268 16.3617 3.66222 17.8553 3.62378 19.4008H10.1986C10.2203 17.8484 10.3623 16.3302 10.6169 14.878C9.677 14.4941 8.94338 13.7069 8.63273 12.7322H7.2407C7.24091 12.7447 7.24259 12.7567 7.24259 12.7692C7.24259 14.02 6.22499 15.0376 4.97414 15.0376Z" fill="#E10006"/>
<path d="M21.8607 15.0375C21.4394 15.0375 21.0459 14.9199 20.7075 14.719V19.4006H29.5352C29.4928 16.468 29.0088 13.7255 28.1962 11.3723C26.8581 11.7094 25.4648 11.9603 24.0332 12.1196C24.0949 12.3255 24.1291 12.5433 24.1291 12.769C24.1291 14.0199 23.1115 15.0375 21.8607 15.0375Z" fill="#E10006"/>
<path d="M13.0848 31.855C12.6233 31.0572 12.2135 30.1947 11.8576 29.2798C10.3931 29.6905 9.02071 30.2054 7.76343 30.8081C10.2023 33.5847 13.5468 35.547 17.3313 36.2271C15.736 35.4088 14.2815 33.9241 13.0848 31.855Z" fill="#E10006"/>
<path d="M27.5877 9.84108C27.4572 10.178 27.1899 10.4483 26.8545 10.5827L25.7424 11.0282C26.4798 10.902 27.2006 10.7511 27.9024 10.5766C27.8026 10.3223 27.6991 10.0729 27.5915 9.82935C27.59 9.8332 27.5891 9.83722 27.5877 9.84108Z" fill="#E10006"/>
<path d="M19.2405 5.46824C19.3997 5.46824 19.5453 5.55819 19.6165 5.70055L19.8669 6.20128V3.53735C18.4387 3.65047 17.0939 4.33634 15.9048 5.46824H19.2405Z" fill="#E10006"/>
<path d="M7.06582 11.8912H8.47725C8.47332 11.8239 8.47456 10.2484 8.47603 10.2118H5.84217C5.808 10.2118 0.579614 8.91524 0.579614 8.91524C0.366179 8.86234 0.142179 8.9672 0.0463319 9.16505C-0.0108287 9.28294 -0.0832729 9.60928 0.293105 9.80232L3.47039 11.0752C3.87118 10.7189 4.39707 10.5004 4.97426 10.5004C5.9141 10.5004 6.72203 11.0749 7.06582 11.8912Z" fill="#E10006"/>
<path d="M4.97437 14.1967C5.7617 14.1967 6.40222 13.5562 6.40222 12.7689C6.40222 11.9816 5.76172 11.3411 4.97437 11.3411C4.18713 11.3411 3.54663 11.9816 3.54663 12.7689C3.54663 13.5562 4.18713 14.1967 4.97437 14.1967Z" fill="#E10006"/>
<path d="M21.8607 10.5005C22.4379 10.5005 22.9638 10.719 23.3646 11.0753L26.5419 9.8024C26.6635 9.75366 26.933 9.52974 26.7887 9.16501C26.693 8.96734 26.4691 8.86221 26.2554 8.9153L20.9929 10.2119H18.359L18.3577 11.8912H19.7691C20.1129 11.075 20.9209 10.5005 21.8607 10.5005Z" fill="#E10006"/>
<path d="M21.8607 14.1967C22.648 14.1967 23.2886 13.5562 23.2886 12.7689C23.2886 11.9816 22.6481 11.3411 21.8607 11.3411C21.0734 11.3411 20.4329 11.9816 20.4329 12.7689C20.4329 13.5562 21.0734 14.1967 21.8607 14.1967Z" fill="#E10006"/>
<path d="M16.1729 6.30908C16.6807 6.65101 17.1212 7.08516 17.472 7.5865H19.6195L18.9808 6.30908H16.1729Z" fill="#E10006"/>
<path d="M10.662 6.30908H7.85409L7.21533 7.5865H9.36292C9.71372 7.08516 10.1541 6.65101 10.662 6.30908Z" fill="#E10006"/>
<path d="M14.3363 5.55526L13.9258 0.468939C13.9045 0.206004 13.6814 0 13.4176 0C13.1537 0 12.9306 0.205985 12.9093 0.468939L12.4988 5.55526C12.7967 5.49903 13.1036 5.46833 13.4176 5.46833C13.7316 5.46833 14.0384 5.49905 14.3363 5.55526Z" fill="#E10006"/>
<path d="M9.47656 9.26449L12.11 10.7935C12.9166 11.2617 13.9184 11.2617 14.7247 10.7934L17.3581 9.26439C16.8592 7.55886 15.2819 6.30908 13.4173 6.30908C11.5527 6.30908 9.97546 7.5589 9.47656 9.26449ZM15.4226 8.94472H11.4119V8.10412H15.4226V8.94472Z" fill="#E10006"/>
<path d="M14.9198 14.292C16.3555 14.292 17.5235 13.124 17.5235 11.6883V11.268V10.4151C17.5235 10.3253 17.5205 10.2354 17.5146 10.1455L15.1469 11.5203C14.0801 12.1397 12.7546 12.1396 11.688 11.5203L9.3202 10.1456L9.31128 11.6883C9.31128 13.124 10.4793 14.292 11.915 14.292H14.9198Z" fill="#E10006"/>
<path d="M22.7883 23.5393H23.9705V27.3745H22.7883V23.5393Z" fill="#E10006"/>
<path d="M21.1167 31.514H23.916C24.017 31.514 24.1147 31.5504 24.1912 31.6166L26.1965 33.3537H27.0217V30.3818H21.1167L21.1167 31.514Z" fill="#E10006"/>
<path d="M27.0217 28.8455C27.0217 28.4979 26.7389 28.2151 26.3913 28.2151H21.7471C21.3995 28.2151 21.1167 28.4979 21.1167 28.8455V29.541H27.0217V28.8455Z" fill="#E10006"/>
<path d="M34.024 30.5918H29.4221V33.3539H34.024V30.5918ZM30.7656 32.6755H29.925V31.2702H30.7656V32.6755ZM32.1433 32.6755H31.3027V31.2702H32.1433V32.6755ZM33.5209 32.6755H32.6804V31.2702H33.5209V32.6755Z" fill="#E10006"/>
<path d="M39.4664 30.5918H34.8645V33.3539H39.4664V30.5918ZM36.208 32.6755H35.3674V31.2702H36.208V32.6755ZM37.5857 32.6755H36.7451V31.2702H37.5857V32.6755ZM38.9633 32.6755H38.1227V31.2702H38.9633V32.6755Z" fill="#E10006"/>
<path d="M36.7449 26.9883H32.1431V29.7504H36.7449V26.9883ZM33.4867 29.072H32.6461V27.6667H33.4867V29.072ZM34.8643 29.072H34.0238V27.6667H34.8643V29.072ZM36.2419 29.072H35.4013V27.6667H36.2419V29.072Z" fill="#E10006"/>
<path d="M26.0399 34.1944C25.9388 34.1944 25.8412 34.158 25.7647 34.0918L23.7594 32.3547H18.9397V33.5369H23.0058C23.1069 33.5369 23.2046 33.5734 23.281 33.6395L25.2863 35.3766H40.4704V34.1944H26.0399Z" fill="#E10006"/>
<path d="M24.8544 36.1143L22.8491 34.3772H18.9397V34.6595L19.8716 35.183C21.1431 35.8972 21.9404 37.2348 21.971 38.6888C22.0498 38.6792 22.1326 38.6736 22.2208 38.6736C22.9729 38.6736 23.3639 39.0479 23.6781 39.3486C23.8876 39.549 24.0531 39.7046 24.3129 39.7635H24.7955C25.0553 39.7046 25.2208 39.5491 25.4303 39.3486C25.7445 39.0479 26.1356 38.6736 26.8876 38.6736C27.6397 38.6736 28.0308 39.0479 28.345 39.3486C28.5545 39.549 28.72 39.7046 28.9799 39.7635H29.4625C29.7224 39.7046 29.888 39.549 30.0975 39.3485C30.4117 39.0479 30.8029 38.6736 31.5549 38.6736C32.307 38.6736 32.6981 39.0479 33.0124 39.3486C33.2219 39.549 33.3875 39.7046 33.6473 39.7635H34.1299C34.3899 39.7046 34.5554 39.5491 34.7649 39.3486C35.0792 39.0479 35.4703 38.6736 36.2224 38.6736C36.3164 38.6736 36.4048 38.6795 36.4881 38.6903C37.0711 38.766 37.405 39.0854 37.68 39.3485C37.7454 39.4111 37.8063 39.4692 37.8672 39.5217L40.4703 36.4556V36.2168H25.1296C25.0286 36.2169 24.9309 36.1804 24.8544 36.1143Z" fill="#E10006"/>
<path d="M38.5561 40.6312C37.8039 40.6312 37.4127 40.257 37.0984 39.9563C36.8305 39.6999 36.6369 39.5147 36.222 39.5147C35.8073 39.5147 35.6136 39.6999 35.3457 39.9563C35.0314 40.257 34.6404 40.6312 33.8882 40.6312C33.1362 40.6312 32.745 40.257 32.4308 39.9563C32.1629 39.6999 31.9693 39.5146 31.5545 39.5146C31.1398 39.5146 30.9462 39.6999 30.6783 39.9563C30.364 40.257 29.9729 40.6312 29.2208 40.6312C28.4687 40.6312 28.0776 40.257 27.7634 39.9563C27.4955 39.6999 27.3018 39.5146 26.8872 39.5146C26.4725 39.5146 26.279 39.6999 26.0111 39.9563C25.6969 40.257 25.3058 40.6312 24.5538 40.6312C23.8018 40.6312 23.4107 40.257 23.0965 39.9563C22.8286 39.6999 22.6351 39.5146 22.2204 39.5146C21.8059 39.5146 21.6124 39.6999 21.3445 39.9562C21.0303 40.2569 20.6394 40.6312 19.8873 40.6312C19.4173 40.6312 19.0883 40.485 18.8309 40.302C18.4881 40.0537 18.2543 39.7439 17.9741 39.6026V42.0002H40.47V39.6026C40.3945 39.6339 40.3165 39.6741 39.9466 40.0205C39.8776 40.0844 39.3609 40.6626 38.5561 40.6312Z" fill="#E10006"/>
</svg>
