<svg width="41" height="40" viewBox="0 0 41 40" fill="none" xmlns="http://www.w3.org/2000/svg">
<path d="M20 32.4139C20 32.231 20.0727 32.0556 20.202 31.9262C20.3313 31.7969 20.5068 31.7242 20.6897 31.7242H25.2704C25.887 30.1893 26.2049 28.5508 26.2069 26.8967C26.2089 25.1721 25.8519 23.4661 25.1586 21.887L22.8828 16.6856C22.5066 15.8259 21.888 15.0944 21.1026 14.5807C20.3172 14.067 19.3992 13.7933 18.4607 13.7932H7.74622C6.80765 13.7932 5.88943 14.0668 5.10392 14.5805C4.31842 15.0942 3.69969 15.8258 3.32346 16.6856L1.0476 21.887C0.354607 23.4661 -0.00215305 25.1722 9.77535e-06 26.8967C0.0055319 30.2492 1.29541 33.4723 3.60439 35.903C5.91337 38.3337 9.06593 39.7873 12.4138 39.9649V36.5518C12.4138 36.3689 12.4865 36.1935 12.6158 36.0642C12.7451 35.9348 12.9205 35.8622 13.1035 35.8622H20V32.4139ZM13.1035 34.4829C11.4666 34.4829 9.86659 33.9975 8.50564 33.0881C7.14468 32.1788 6.08394 30.8863 5.45756 29.374C4.83118 27.8618 4.66729 26.1978 4.98661 24.5925C5.30594 22.9871 6.09414 21.5125 7.25154 20.3551C8.40894 19.1977 9.88356 18.4095 11.4889 18.0902C13.0943 17.7708 14.7583 17.9347 16.2705 18.5611C17.7827 19.1875 19.0752 20.2482 19.9846 21.6092C20.8939 22.9701 21.3793 24.5702 21.3793 26.207C21.3769 28.4012 20.5043 30.5048 18.9528 32.0563C17.4012 33.6078 15.2976 34.4805 13.1035 34.4829Z" fill="#E10006"/>
<path d="M8.96553 9.65527C8.78263 9.65527 8.60721 9.72793 8.47787 9.85727C8.34854 9.9866 8.27588 10.162 8.27588 10.3449V12.4139H17.9311V10.3449C17.9311 10.162 17.8584 9.9866 17.7291 9.85727C17.5997 9.72793 17.4243 9.65527 17.2414 9.65527H8.96553Z" fill="#E10006"/>
<path d="M9.44814 8.27586H16.7585L19.3792 0.921379C19.4162 0.817519 19.4278 0.706287 19.413 0.597015C19.3982 0.487742 19.3574 0.383614 19.2941 0.293365C19.2307 0.203116 19.1466 0.129377 19.0489 0.0783318C18.9511 0.0272872 18.8426 0.000425575 18.7323 0H16.9778L15.793 2.37724C15.7292 2.48412 15.6389 2.57262 15.5307 2.63408C15.4225 2.69554 15.3002 2.72786 15.1757 2.72786C15.0513 2.72786 14.929 2.69554 14.8208 2.63408C14.7126 2.57262 14.6222 2.48412 14.5585 2.37724L13.3668 0H7.47435C7.364 0.000386511 7.25535 0.0272493 7.15753 0.078332C7.05971 0.129415 6.97557 0.203226 6.91219 0.293565C6.84881 0.383904 6.80804 0.488133 6.79329 0.597498C6.77855 0.706863 6.79026 0.81817 6.82745 0.922069L9.44814 8.27586Z" fill="#E10006"/>
<path d="M13.1033 19.3103C11.7393 19.3103 10.406 19.7148 9.27182 20.4726C8.13769 21.2304 7.25374 22.3075 6.73176 23.5677C6.20978 24.8278 6.0732 26.2145 6.33931 27.5523C6.60541 28.8901 7.26224 30.119 8.22674 31.0835C9.19124 32.048 10.4201 32.7048 11.7579 32.9709C13.0957 33.237 14.4824 33.1004 15.7425 32.5784C17.0027 32.0565 18.0798 31.1725 18.8376 30.0384C19.5954 28.9042 19.9999 27.5709 19.9999 26.2069C19.9979 24.3784 19.2706 22.6254 17.9777 21.3325C16.6848 20.0396 14.9318 19.3123 13.1033 19.3103ZM13.1033 25.5172C13.7739 25.5164 14.4217 25.7603 14.9252 26.2032C15.4287 26.6461 15.7532 27.2575 15.8378 27.9227C15.9225 28.5879 15.7615 29.2612 15.385 29.8161C15.0085 30.371 14.4424 30.7694 13.793 30.9365V32.4138H12.4137V30.9365C11.8232 30.7841 11.3 30.4403 10.9256 29.9589C10.5513 29.4775 10.347 28.8856 10.3447 28.2758H11.724C11.724 28.5486 11.8049 28.8153 11.9565 29.0421C12.108 29.269 12.3235 29.4457 12.5755 29.5501C12.8275 29.6545 13.1049 29.6818 13.3724 29.6286C13.64 29.5754 13.8858 29.444 14.0787 29.2511C14.2716 29.0582 14.4029 28.8125 14.4561 28.5449C14.5094 28.2774 14.4821 28 14.3777 27.748C14.2733 27.4959 14.0965 27.2805 13.8696 27.129C13.6428 26.9774 13.3761 26.8965 13.1033 26.8965C12.4328 26.8973 11.785 26.6534 11.2815 26.2105C10.778 25.7676 10.4535 25.1562 10.3688 24.491C10.2842 23.8258 10.4452 23.1525 10.8217 22.5976C11.1982 22.0427 11.7643 21.6443 12.4137 21.4772V20H13.793V21.4772C14.3834 21.6296 14.9067 21.9734 15.2811 22.4548C15.6554 22.9362 15.8597 23.5281 15.862 24.1379H14.4827C14.4827 23.8651 14.4018 23.5984 14.2502 23.3716C14.0986 23.1448 13.8832 22.968 13.6312 22.8636C13.3791 22.7592 13.1018 22.7319 12.8343 22.7851C12.5667 22.8383 12.3209 22.9697 12.128 23.1626C11.9351 23.3555 11.8038 23.6012 11.7505 23.8688C11.6973 24.1364 11.7246 24.4137 11.829 24.6657C11.9334 24.9178 12.1102 25.1332 12.337 25.2847C12.5639 25.4363 12.8305 25.5172 13.1033 25.5172Z" fill="#E10006"/>
<path d="M28.9656 35.8621V34.4828H30.3449V35.8621H32.4139V33.1035H21.3794V35.8621H23.4484V34.4828H24.8277V35.8621H26.207V34.4828H27.5863V35.8621H28.9656Z" fill="#E10006"/>
<path d="M28.9656 37.2415V40.0001H31.0345V38.6208H32.4139V40.0001H33.7932V38.6208H35.1725V40.0001H36.5518V38.6208H37.9311V40.0001H40.0001V37.2415H28.9656Z" fill="#E10006"/>
<path d="M13.7932 37.2415V40.0001H15.8622V38.6208H17.2415V40.0001H18.6208V38.6208H20.0001V40.0001H21.3794V38.6208H22.7587V40.0001H24.8277V37.2415H13.7932Z" fill="#E10006"/>
<path d="M40.6898 19.9999H38.6208V14.4827H35.8622V19.9999H33.7932L37.2415 23.4482L40.6898 19.9999Z" fill="#E10006"/>
<path d="M33.1033 13.1034H31.0344V7.58618H28.2758V13.1034H26.2068L29.6551 16.5517L33.1033 13.1034Z" fill="#E10006"/>
<path d="M37.9312 6.89648H39.3105V12.4137H37.9312V6.89648Z" fill="#E10006"/>
<path d="M35.1724 9.65527H36.5517V12.4139H35.1724V9.65527Z" fill="#E10006"/>
<path d="M35.1724 6.89648H36.5517V8.27579H35.1724V6.89648Z" fill="#E10006"/>
</svg>
