<svg width="40" height="40" viewBox="0 0 40 40" fill="none" xmlns="http://www.w3.org/2000/svg">
<g clip-path="url(#clip0_360_173)">
<path d="M19.9999 8.75C20.9452 8.74808 21.8645 8.44107 22.6213 7.87464C23.378 7.30822 23.9317 6.51264 24.1999 5.60625C27.8642 6.68223 30.9836 9.10872 32.9281 12.3956L31.8193 11.875C31.745 11.8402 31.6645 11.8203 31.5825 11.8166C31.5005 11.8128 31.4186 11.8252 31.3414 11.8532C31.2642 11.8811 31.1933 11.9239 31.1327 11.9792C31.072 12.0346 31.0229 12.1013 30.9881 12.1756C30.9532 12.2499 30.9334 12.3304 30.9296 12.4124C30.9259 12.4944 30.9383 12.5763 30.9662 12.6535C30.9941 12.7307 31.037 12.8016 31.0923 12.8623C31.1476 12.9229 31.2144 12.972 31.2887 13.0069L34.1174 14.3344C34.2052 14.3755 34.3014 14.3956 34.3984 14.3931C34.4953 14.3907 34.5903 14.3657 34.6759 14.3202C34.7615 14.2746 34.8354 14.2098 34.8916 14.1308C34.9479 14.0518 34.9849 13.9608 34.9999 13.865L35.4812 10.7769C35.4949 10.6953 35.4923 10.6119 35.4735 10.5313C35.4547 10.4508 35.4201 10.3748 35.3717 10.3077C35.3233 10.2406 35.2621 10.1838 35.1917 10.1406C35.1212 10.0973 35.0428 10.0685 34.9611 10.0558C34.8794 10.043 34.7959 10.0466 34.7156 10.0664C34.6353 10.0861 34.5597 10.1216 34.4932 10.1708C34.4267 10.2199 34.3707 10.2818 34.3283 10.3528C34.2858 10.4238 34.2579 10.5025 34.2462 10.5844L34.0506 11.8381C31.9161 8.18524 28.4474 5.50321 24.3749 4.35688V4.35C24.37 3.48579 24.1092 2.6424 23.6255 1.92623C23.1418 1.21006 22.4568 0.653201 21.6569 0.325897C20.8571 -0.00140574 19.9782 -0.0844864 19.1312 0.0871366C18.2842 0.25876 17.507 0.677397 16.8976 1.29024C16.2883 1.90307 15.874 2.68266 15.7073 3.53063C15.5405 4.37861 15.6285 5.25699 15.9604 6.05496C16.2923 6.85294 16.853 7.53475 17.5719 8.01438C18.2908 8.49402 19.1357 8.74999 19.9999 8.75ZM18.1499 3.93125C18.2679 3.81416 18.4274 3.74845 18.5937 3.74845C18.7599 3.74845 18.9194 3.81416 19.0374 3.93125L19.5312 4.43125L20.9624 2.99375C21.0207 2.93548 21.0899 2.88925 21.166 2.85771C21.2422 2.82618 21.3238 2.80994 21.4062 2.80994C21.4886 2.80994 21.5702 2.82618 21.6463 2.85771C21.7225 2.88925 21.7917 2.93548 21.8499 2.99375C21.9082 3.05203 21.9544 3.12121 21.986 3.19735C22.0175 3.27348 22.0337 3.35509 22.0337 3.4375C22.0337 3.51991 22.0175 3.60152 21.986 3.67766C21.9544 3.7538 21.9082 3.82298 21.8499 3.88125L19.9749 5.75625C19.8565 5.87245 19.6971 5.93754 19.5312 5.93754C19.3652 5.93754 19.2059 5.87245 19.0874 5.75625L18.1499 4.81875C18.0328 4.70075 17.9671 4.54124 17.9671 4.375C17.9671 4.20876 18.0328 4.04926 18.1499 3.93125Z" fill="#E10006"/>
<path d="M35.625 15.625C34.5714 15.6235 33.5525 16.0023 32.7558 16.6918C31.9591 17.3813 31.4379 18.3352 31.2882 19.3782C31.1384 20.4212 31.3701 21.4832 31.9406 22.369C32.5112 23.2548 33.3823 23.905 34.3938 24.2C33.3178 27.8643 30.8913 30.9837 27.6044 32.9281L28.125 31.8194C28.1599 31.7451 28.1797 31.6646 28.1835 31.5826C28.1872 31.5006 28.1748 31.4187 28.1469 31.3415C28.119 31.2643 28.0761 31.1934 28.0208 31.1328C27.9655 31.0721 27.8987 31.023 27.8244 30.9881C27.7501 30.9533 27.6696 30.9334 27.5876 30.9297C27.5056 30.9259 27.4237 30.9384 27.3465 30.9663C27.2693 30.9942 27.1984 31.0371 27.1378 31.0924C27.0771 31.1477 27.028 31.2144 26.9932 31.2888L25.6657 34.1175C25.6245 34.2053 25.6044 34.3015 25.6069 34.3984C25.6094 34.4954 25.6344 34.5904 25.6799 34.676C25.7254 34.7616 25.7902 34.8355 25.8692 34.8917C25.9482 34.9479 26.0392 34.985 26.135 35L29.2232 35.4813C29.2552 35.4862 29.2876 35.4887 29.32 35.4888C29.4773 35.4885 29.6288 35.429 29.7441 35.322C29.8594 35.2151 29.9302 35.0686 29.9423 34.9117C29.9544 34.7549 29.9068 34.5993 29.8092 34.4759C29.7116 34.3526 29.5711 34.2706 29.4157 34.2463L28.1619 34.0506C31.8148 31.9162 34.4968 28.4475 35.6432 24.375H35.65C36.8104 24.3717 37.9218 23.9076 38.74 23.0848C39.5581 22.262 40.0158 21.1478 40.0125 19.9875C40.0092 18.8272 39.5451 17.7157 38.7223 16.8976C37.8995 16.0795 36.7854 15.6217 35.625 15.625ZM37.475 19.5063L35.6 21.3813C35.4816 21.4975 35.3222 21.5626 35.1563 21.5626C34.9903 21.5626 34.831 21.4975 34.7125 21.3813L33.775 20.4438C33.6573 20.3261 33.5912 20.1665 33.5912 20C33.5912 19.8336 33.6573 19.674 33.775 19.5563C33.8927 19.4386 34.0523 19.3725 34.2188 19.3725C34.3852 19.3725 34.5448 19.4386 34.6625 19.5563L35.1563 20.0563L36.5875 18.6188C36.7052 18.5011 36.8648 18.435 37.0313 18.435C37.1977 18.435 37.3573 18.5011 37.475 18.6188C37.5927 18.7365 37.6588 18.8961 37.6588 19.0625C37.6588 19.229 37.5927 19.3886 37.475 19.5063Z" fill="#E10006"/>
<path d="M22.5 11.875H13.5375C13.3192 11.8749 13.1029 11.9179 12.9012 12.0014C12.6995 12.0849 12.5161 12.2074 12.3618 12.3618C12.2074 12.5161 12.0849 12.6995 12.0014 12.9012C11.9179 13.1029 11.8749 13.3192 11.875 13.5375V26.4625C11.8749 26.6808 11.9179 26.8971 12.0014 27.0988C12.0849 27.3005 12.2074 27.4839 12.3618 27.6382C12.5161 27.7926 12.6995 27.9151 12.9012 27.9986C13.1029 28.0821 13.3192 28.1251 13.5375 28.125H26.4625C26.6808 28.1251 26.8971 28.0821 27.0988 27.9986C27.3005 27.9151 27.4839 27.7926 27.6382 27.6382C27.7926 27.4839 27.9151 27.3005 27.9986 27.0988C28.0821 26.8971 28.1251 26.6808 28.125 26.4625V13.5375C28.1251 13.3192 28.0821 13.1029 27.9986 12.9012C27.9151 12.6995 27.7926 12.5161 27.6382 12.3618C27.4839 12.2074 27.3005 12.0849 27.0988 12.0014C26.8971 11.9179 26.6808 11.8749 26.4625 11.875H22.5ZM18.125 13.125V16.2L19.6125 15.0125C19.7221 14.9236 19.8589 14.8751 20 14.8751C20.1411 14.8751 20.2779 14.9236 20.3875 15.0125L21.875 16.2V13.125H23.125V17.5C23.1247 17.6178 23.091 17.7331 23.028 17.8326C22.965 17.9322 22.8751 18.0118 22.7688 18.0625C22.6854 18.1045 22.5933 18.1259 22.5 18.125C22.3587 18.1262 22.2215 18.0775 22.1125 17.9875L20 16.3L17.8875 17.9875C17.7968 18.0615 17.6867 18.1079 17.5704 18.1212C17.454 18.1345 17.3363 18.1141 17.2312 18.0625C17.1249 18.0118 17.035 17.9322 16.972 17.8326C16.909 17.7331 16.8753 17.6178 16.875 17.5V13.125H18.125ZM22.1875 20.625H17.8125C17.6467 20.625 17.4878 20.5592 17.3706 20.4419C17.2533 20.3247 17.1875 20.1658 17.1875 20C17.1875 19.8342 17.2533 19.6753 17.3706 19.5581C17.4878 19.4408 17.6467 19.375 17.8125 19.375H22.1875C22.3533 19.375 22.5122 19.4408 22.6294 19.5581C22.7467 19.6753 22.8125 19.8342 22.8125 20C22.8125 20.1658 22.7467 20.3247 22.6294 20.4419C22.5122 20.5592 22.3533 20.625 22.1875 20.625ZM22.8125 22.5C22.8125 22.6658 22.7467 22.8247 22.6294 22.9419C22.5122 23.0592 22.3533 23.125 22.1875 23.125H17.8125C17.6467 23.125 17.4878 23.0592 17.3706 22.9419C17.2533 22.8247 17.1875 22.6658 17.1875 22.5C17.1875 22.3342 17.2533 22.1753 17.3706 22.0581C17.4878 21.9408 17.6467 21.875 17.8125 21.875H22.1875C22.3533 21.875 22.5122 21.9408 22.6294 22.0581C22.7467 22.1753 22.8125 22.3342 22.8125 22.5ZM13.125 25.625V24.375H26.875V25.625H13.125Z" fill="#E10006"/>
<path d="M20.0001 31.25C19.0548 31.252 18.1354 31.559 17.3787 32.1254C16.622 32.6918 16.0683 33.4874 15.8001 34.3938C12.1358 33.3178 9.01639 30.8913 7.07193 27.6044L8.18068 28.125C8.33078 28.1954 8.50268 28.2033 8.65857 28.1469C8.81446 28.0905 8.94157 27.9745 9.01193 27.8244C9.0823 27.6743 9.09016 27.5024 9.03378 27.3465C8.9774 27.1906 8.8614 27.0635 8.71131 26.9932L5.88256 25.6657C5.79474 25.6245 5.69856 25.6044 5.60163 25.6069C5.50469 25.6094 5.40966 25.6344 5.32405 25.6799C5.23844 25.7254 5.1646 25.7902 5.10837 25.8692C5.05213 25.9482 5.01505 26.0392 5.00006 26.135L4.51881 29.2232C4.49309 29.3868 4.53342 29.554 4.63093 29.688C4.72844 29.8219 4.87515 29.9117 5.03881 29.9375C5.07108 29.9425 5.10367 29.945 5.13631 29.945C5.28527 29.9449 5.42928 29.8915 5.54238 29.7946C5.65549 29.6976 5.73024 29.5635 5.75318 29.4163L5.94881 28.1625C8.08349 31.8153 11.5524 34.4971 15.6251 35.6432V35.65C15.63 36.5142 15.8908 37.3576 16.3745 38.0738C16.8582 38.79 17.5432 39.3468 18.3431 39.6741C19.1429 40.0014 20.0218 40.0845 20.8688 39.9129C21.7158 39.7413 22.493 39.3226 23.1024 38.7098C23.7117 38.097 24.1259 37.3174 24.2927 36.4694C24.4595 35.6214 24.3714 34.743 24.0396 33.9451C23.7077 33.1471 23.147 32.4653 22.4281 31.9857C21.7091 31.506 20.8643 31.25 20.0001 31.25ZM21.8501 35.1313L19.9751 37.0063C19.8566 37.1225 19.6973 37.1876 19.5313 37.1876C19.3654 37.1876 19.206 37.1225 19.0876 37.0063L18.1501 36.0688C18.0918 36.0105 18.0456 35.9413 18.014 35.8652C17.9825 35.7891 17.9663 35.7074 17.9663 35.625C17.9663 35.5426 17.9825 35.461 18.014 35.3849C18.0456 35.3087 18.0918 35.2396 18.1501 35.1813C18.2083 35.123 18.2775 35.0768 18.3537 35.0452C18.4298 35.0137 18.5114 34.9975 18.5938 34.9975C18.6762 34.9975 18.7578 35.0137 18.834 35.0452C18.9101 35.0768 18.9793 35.123 19.0376 35.1813L19.5313 35.6813L20.9626 34.2438C21.0802 34.1261 21.2399 34.06 21.4063 34.06C21.5727 34.06 21.7324 34.1261 21.8501 34.2438C21.9677 34.3615 22.0339 34.5211 22.0339 34.6875C22.0339 34.854 21.9677 35.0136 21.8501 35.1313Z" fill="#E10006"/>
<path d="M8.75 19.9999C8.74808 19.0547 8.44107 18.1353 7.87464 17.3785C7.30822 16.6218 6.51264 16.0681 5.60625 15.7999C6.68211 12.1356 9.10864 9.01613 12.3956 7.07177L11.875 8.18052C11.8402 8.25484 11.8203 8.3353 11.8166 8.41729C11.8128 8.49929 11.8252 8.58122 11.8532 8.65841C11.8811 8.7356 11.9239 8.80653 11.9792 8.86716C12.0346 8.92779 12.1013 8.97693 12.1756 9.01177C12.2499 9.04661 12.3304 9.06648 12.4124 9.07022C12.4944 9.07397 12.5763 9.06153 12.6535 9.03362C12.7307 9.0057 12.8016 8.96286 12.8623 8.90753C12.9229 8.8522 12.972 8.78547 13.0069 8.71115L14.3344 5.8824C14.3755 5.79458 14.3956 5.6984 14.3931 5.60147C14.3907 5.50453 14.3657 5.4095 14.3202 5.32389C14.2746 5.23828 14.2098 5.16444 14.1308 5.10821C14.0518 5.05197 13.9608 5.01489 13.865 4.9999L10.7769 4.51865C10.6953 4.50495 10.6119 4.50757 10.5313 4.52635C10.4508 4.54514 10.3748 4.57973 10.3077 4.62811C10.2406 4.67648 10.1838 4.73769 10.1406 4.80818C10.0973 4.87867 10.0685 4.95704 10.0558 5.03875C10.043 5.12046 10.0466 5.20389 10.0664 5.2842C10.0861 5.36451 10.1216 5.4401 10.1708 5.50659C10.2199 5.57309 10.2818 5.62917 10.3528 5.67158C10.4238 5.71398 10.5025 5.74188 10.5844 5.75365L11.8381 5.94927C8.18524 8.08369 5.50321 11.5524 4.35688 15.6249H4.35C3.48579 15.6298 2.6424 15.8906 1.92623 16.3743C1.21006 16.8581 0.653201 17.5431 0.325897 18.3429C-0.00140574 19.1428 -0.0844864 20.0216 0.0871366 20.8686C0.25876 21.7157 0.677397 22.4929 1.29024 23.1022C1.90307 23.7116 2.68266 24.1258 3.53063 24.2926C4.37861 24.4594 5.25699 24.3713 6.05496 24.0394C6.85294 23.7076 7.53475 23.1468 8.01438 22.4279C8.49402 21.709 8.74999 20.8641 8.75 19.9999ZM6.225 19.5061L4.35 21.3811C4.23152 21.4973 4.0722 21.5624 3.90625 21.5624C3.74031 21.5624 3.58098 21.4973 3.4625 21.3811L2.525 20.4436C2.40731 20.326 2.34119 20.1663 2.34119 19.9999C2.34119 19.8335 2.40731 19.6738 2.525 19.5561C2.64269 19.4385 2.80231 19.3723 2.96875 19.3723C3.13519 19.3723 3.29481 19.4385 3.4125 19.5561L3.90625 20.0561L5.3375 18.6186C5.45519 18.501 5.61481 18.4348 5.78125 18.4348C5.94769 18.4348 6.10731 18.501 6.225 18.6186C6.34269 18.7363 6.40881 18.896 6.40881 19.0624C6.40881 19.2288 6.34269 19.3885 6.225 19.5061Z" fill="#E10006"/>
</g>
<defs>
<clipPath id="clip0_360_173">
<rect width="40" height="40" fill="white"/>
</clipPath>
</defs>
</svg>
