<svg width="40" height="40" viewBox="0 0 40 40" fill="none" xmlns="http://www.w3.org/2000/svg">
<path d="M12.5425 27.8284C11.2148 29.0709 9.44732 29.3334 7.7063 29.3818C9.66341 31.9459 12.3704 33.837 15.4513 34.7925C16.613 34.2366 17.7406 33.6122 18.8282 32.9225C16.6198 31.3698 14.5476 29.6319 12.634 27.7278C12.6018 27.7574 12.5766 27.7968 12.5425 27.8284Z" fill="#E10006"/>
<path d="M17.7439 26.8767C18.1308 25.3375 15.714 25.6979 14.8951 25.8011C14.1355 25.8966 13.7725 25.9578 13.4004 26.6703C15.4262 28.6986 17.6358 30.5346 20.0008 32.1546C20.22 32.0062 20.4386 31.8558 20.6566 31.7032C20.6953 31.5707 20.744 31.4414 20.8023 31.3163C21.0564 30.7688 21.1376 30.3278 20.5657 29.9177C19.7126 29.3057 18.4984 29.781 17.6685 29.1284C17.4989 29.0053 17.3663 28.8379 17.2854 28.6446C17.2044 28.4513 17.1781 28.2395 17.2094 28.0322C17.2738 27.5821 17.6349 27.2958 17.7439 26.8767Z" fill="#E10006"/>
<path d="M20.8823 9.01129C21.4723 9.45364 22.6684 9.36852 23.3732 9.39818C24.2634 9.42456 25.1518 9.30297 26.0021 9.03837C26.7417 8.8187 27.5379 8.89861 28.219 9.26084C28.9792 9.65598 29.8003 9.92061 30.6481 10.0437C31.0601 10.0882 31.4744 10.108 31.8887 10.103C29.8297 7.62946 27.0519 5.85811 23.9406 5.03467C23.5421 6.1457 23.1359 7.13099 21.9417 7.68489C21.5277 7.87769 20.0743 8.40451 20.8823 9.01129Z" fill="#E10006"/>
<path d="M8.17067 24.702C7.16346 24.5962 6.15753 24.4724 5.15161 24.3512C5.53984 25.6724 6.10373 26.9355 6.82815 28.1066C8.11402 28.2111 9.40717 28.0324 10.6165 27.583C11.0358 27.3955 11.4175 27.1333 11.743 26.8092C10.9499 25.9834 10.1926 25.1391 9.47128 24.2764C9.31673 24.4628 9.11259 24.6017 8.88244 24.677C8.65229 24.7523 8.40553 24.761 8.17067 24.702Z" fill="#E10006"/>
<path d="M15.0949 11.345C15.3432 11.2566 15.407 11.109 15.4818 10.8562C15.5889 10.4809 15.6391 10.4558 15.2142 10.3087C14.1207 10.048 13.0117 9.85679 11.894 9.73614C10.9815 9.58559 10.0994 9.28835 9.28184 8.85596C7.3874 10.6739 5.9858 12.9433 5.2085 15.4512C6.13678 17.3757 7.23748 19.2121 8.49709 20.938C8.80532 20.6943 9.14836 20.5066 9.47658 20.2932C10.0995 19.8844 10.0911 19.4775 10.2504 18.8101C10.3442 18.3781 10.5392 17.9746 10.8195 17.6328C11.0998 17.291 11.4572 17.0206 11.8624 16.844C12.3731 16.6216 12.7761 16.5635 13.0992 16.0606C13.4269 15.4926 13.6285 14.8608 13.6905 14.208C13.7859 13.4181 13.2894 12.1304 14.0574 11.5784C14.3966 11.3359 14.7396 11.4714 15.0949 11.345Z" fill="#E10006"/>
<path d="M30.6366 26.8164C30.9074 27.4515 30.8868 28.1757 31.1899 28.7953C31.3819 29.1738 31.6761 29.491 32.0391 29.711C33.42 28.0067 34.4213 26.0273 34.9758 23.905C35.5304 21.7827 35.6255 19.5665 35.2548 17.4045C33.6784 20.2825 31.7705 22.966 29.5701 25.4003C30.0209 25.7924 30.3842 26.2748 30.6366 26.8164Z" fill="#E10006"/>
<path d="M8.26465 23.4539C8.16083 23.0361 7.96867 22.655 7.89452 22.2823C6.72771 20.7342 5.6766 19.1022 4.74972 17.3997C4.42891 19.262 4.45427 21.1675 4.82452 23.0206L6.52814 23.2198L7.57469 23.3417C7.63724 23.3494 8.00672 23.4178 8.26465 23.4539Z" fill="#E10006"/>
<path d="M27.9482 23.6253C27.972 23.9587 28.1952 24.1373 28.4363 24.3707C28.4937 24.4262 28.553 24.4797 28.6124 24.5339C30.501 22.4348 32.1717 20.1494 33.5988 17.7129C32.8865 17.8673 32.15 17.8733 31.4354 17.7303C30.1094 17.3285 28.906 16.5994 27.9359 15.6102C26.9461 14.73 25.975 13.7202 24.7118 13.2391C24.389 13.0928 24.0396 13.0142 23.6853 13.0083C23.2623 13.0451 23.3325 13.2379 23.2539 13.6222C23.1324 14.1956 22.925 14.7473 22.6387 15.2587C22.2742 15.8089 21.8812 16.3397 21.4613 16.8489C21.3528 16.9557 21.269 17.085 21.2157 17.2276C21.1623 17.3702 21.1408 17.5227 21.1525 17.6745C21.1643 17.8263 21.209 17.9737 21.2836 18.1064C21.3582 18.2391 21.4609 18.3539 21.5844 18.4429C21.8254 18.7328 22.1241 18.9694 22.4614 19.1375C22.7988 19.3057 23.1675 19.4018 23.544 19.4198C24.2108 19.4346 24.8685 19.4236 25.534 19.4894C26.5857 19.5939 27.8992 19.6964 28.3151 20.8564C28.4953 21.4432 28.4725 22.0735 28.2506 22.6458C28.0889 22.9503 27.9863 23.2827 27.9482 23.6253Z" fill="#E10006"/>
<path d="M31.1821 30.6829C30.7836 30.4078 30.4457 30.0541 30.1891 29.6434C29.883 28.9828 29.6662 28.2843 29.5443 27.5665C29.3827 27.0921 29.0978 26.6693 28.7189 26.3413C28.3385 26.7475 27.9516 27.1525 27.5524 27.5516C25.7864 29.3202 23.8862 30.9496 21.8689 32.4252C21.8562 32.7754 21.9127 33.1247 22.0353 33.4531C22.8813 33.9534 23.7222 34.4029 24.5501 34.7956C27.0753 34.0127 29.3584 32.597 31.1821 30.6829Z" fill="#E10006"/>
<path d="M19.9949 33.709C19.127 34.2732 18.2597 34.791 17.4001 35.2527C18.78 35.4902 20.1858 35.5384 21.5786 35.3958C21.4051 35.0554 21.2227 34.7194 21.0569 34.3777C20.7029 34.1642 20.3489 33.9385 19.9949 33.709Z" fill="#E10006"/>
<path d="M2.11839 7.32053C1.82693 9.58773 2.41179 12.4146 3.8362 15.5607C4.00796 14.9332 4.21638 14.3164 4.46039 13.7133C3.65239 11.8191 3.27786 9.76821 3.36419 7.71065C3.53509 7.73495 3.70743 7.74766 3.88005 7.74869C4.90584 7.74767 5.88932 7.33972 6.61467 6.61438C7.34001 5.88903 7.74796 4.90555 7.74898 3.87976C7.74778 3.70843 7.73507 3.53739 7.71094 3.36777C9.7682 3.28027 11.819 3.65347 13.7136 4.4601C14.3166 4.21522 14.9335 4.00593 15.561 3.83333C12.4156 2.40956 9.58802 1.82406 7.32018 2.11552C7.04333 1.57099 6.64148 1.09975 6.14751 0.740373C5.65354 0.380995 5.08149 0.143691 4.47818 0.0478823C3.87487 -0.0479261 3.25745 0.000484197 2.67645 0.189151C2.09545 0.377818 1.56738 0.70138 1.13546 1.13335C0.703536 1.56533 0.38004 2.09344 0.191445 2.67447C0.00284954 3.25549 -0.0454843 3.87292 0.050399 4.47621C0.146282 5.07951 0.383657 5.65153 0.743097 6.14545C1.10254 6.63938 1.57382 7.04117 2.11839 7.31795V7.32053Z" fill="#E10006"/>
<path d="M26.6379 26.6373C27.0144 26.2607 27.3788 25.8789 27.7386 25.4953C27.3184 25.1699 26.9744 24.7566 26.7307 24.2843C26.4322 23.6343 26.7307 23.0527 26.9564 22.4343C27.0551 22.2577 27.1156 22.0623 27.1339 21.8608C27.1523 21.6592 27.128 21.4561 27.0628 21.2646C26.859 20.9112 26.3928 20.8912 26.0175 20.839C24.6376 20.6456 22.9669 21.0267 21.7443 20.2419C20.8119 19.6442 19.6976 18.6608 19.8266 17.4466C19.9691 16.106 21.3271 15.2619 21.7907 14.0413C22.0177 13.4416 21.9197 12.4937 22.4052 12.0294C22.626 11.8794 22.8751 11.7762 23.1373 11.7262C23.3995 11.6762 23.6691 11.6804 23.9296 11.7386C25.2271 11.9463 26.435 12.5307 27.4033 13.419C28.5188 14.3218 29.4835 15.4528 30.7783 16.115C31.9944 16.7373 33.2047 16.52 34.4254 16.1892C34.5427 15.9577 34.6685 15.7256 34.7781 15.4947L34.8097 15.5096C34.8045 15.4934 34.7981 15.4773 34.7929 15.4605C34.5689 14.7317 34.2913 14.0205 33.9624 13.3326C33.9534 13.3146 33.9431 13.2972 33.934 13.2791C33.7786 12.9567 33.6116 12.6388 33.4362 12.3293C33.2488 12.0009 33.0495 11.6804 32.8385 11.3679C31.9755 11.4228 31.1092 11.3954 30.2514 11.286C29.3184 11.111 28.4149 10.8049 27.5677 10.3768C26.6263 9.96343 25.6474 10.556 24.6731 10.6566C23.694 10.7272 22.7102 10.6924 21.7385 10.5528C21.3284 10.5528 20.9237 10.4594 20.555 10.2797C20.1863 10.1001 19.8633 9.83889 19.6106 9.51593C19.42 9.20777 19.3351 8.84585 19.3689 8.48509C19.4026 8.12434 19.5531 7.78444 19.7976 7.51698C20.345 6.86764 21.1633 6.76576 21.8223 6.29181C22.2719 5.8913 22.5794 5.35571 22.6986 4.76552C20.5217 4.3767 18.2866 4.46134 16.1453 5.01368C14.0041 5.56602 12.0069 6.57311 10.2897 7.96642C11.4953 8.42833 12.7647 8.70277 14.0535 8.78018C14.9189 8.89174 16.4471 9.00974 16.803 9.98987C16.8848 10.392 16.8673 10.8081 16.7521 11.202C16.637 11.5959 16.4276 11.9558 16.1421 12.2506C15.8414 12.4838 15.4762 12.6188 15.0962 12.6375C14.7557 12.702 14.9272 12.573 14.9672 12.831C15.0049 13.0871 15.021 13.3459 15.0156 13.6047C15.0203 14.7309 14.7226 15.8377 14.1534 16.8095C13.9306 17.1986 13.5974 17.5127 13.1959 17.7123C12.741 17.8441 12.3104 18.0483 11.9204 18.3171C11.1602 19.0496 11.5045 20.307 10.6585 21.0505C10.2716 21.3878 9.71707 21.5206 9.36306 21.8888C9.33425 21.9213 9.30956 21.9573 9.28955 21.9958C10.2807 23.2825 11.3377 24.517 12.4563 25.6945C12.554 25.499 12.6817 25.3199 12.8348 25.1638C13.6324 24.3991 15.3496 24.4004 16.3691 24.4004C16.8687 24.3469 17.3729 24.4456 17.8155 24.6837C18.258 24.9218 18.6183 25.2881 18.849 25.7345C19.0321 26.1381 19.0915 26.5868 19.0199 27.0242C18.8887 27.4152 18.7029 27.7858 18.468 28.1249C18.5782 28.3557 20.0755 28.3531 20.3689 28.4389C20.8698 28.5723 21.3277 28.8331 21.6979 29.1959C22.051 29.5373 22.261 30.0002 22.2853 30.4907C23.813 29.2958 25.2666 28.0089 26.6379 26.6373Z" fill="#E10006"/>
<path d="M32.2904 3.36763C32.2663 3.53725 32.2536 3.7083 32.2524 3.87962C32.2534 4.90541 32.6613 5.88889 33.3867 6.61424C34.112 7.33958 35.0955 7.74753 36.1213 7.74855C36.2924 7.74732 36.4632 7.73461 36.6326 7.71051C36.7196 9.76769 36.345 11.8183 35.5365 13.7119C35.7809 14.3136 35.9897 14.9292 36.1619 15.5554C37.5851 12.4126 38.1738 9.58952 37.881 7.32039C38.4256 7.04361 38.8969 6.64182 39.2563 6.14789C39.6158 5.65397 39.8531 5.08195 39.949 4.47865C40.0449 3.87536 39.9966 3.25793 39.808 2.67691C39.6194 2.09588 39.2959 1.56777 38.864 1.1358C38.432 0.703821 37.904 0.38026 37.323 0.191593C36.742 0.0029256 36.1245 -0.0454847 35.5212 0.0503237C34.9179 0.146132 34.3459 0.383436 33.8519 0.742815C33.3579 1.10219 32.9561 1.57343 32.6792 2.11796C30.4108 1.8265 27.5851 2.41136 24.4397 3.83642C25.0674 4.00773 25.6845 4.21594 26.2878 4.45996C28.1822 3.6528 30.2331 3.27958 32.2904 3.36763Z" fill="#E10006"/>
<path d="M37.8828 32.6809C38.1743 30.4124 37.5894 27.5868 36.165 24.4407C35.9931 25.0679 35.7847 25.6846 35.5408 26.2874C36.3488 28.1817 36.7233 30.2325 36.637 32.2901C36.4661 32.2658 36.2938 32.2531 36.1211 32.2521C35.0954 32.2531 34.1119 32.661 33.3865 33.3864C32.6612 34.1117 32.2532 35.0952 32.2522 36.121C32.2534 36.2923 32.2661 36.4634 32.2903 36.633C30.2329 36.72 28.1821 36.3454 26.2882 35.5368C25.6849 35.7814 25.0678 35.9906 24.4402 36.1636C26.6466 37.251 29.0556 37.8659 31.5132 37.9691C31.9043 37.9672 32.2948 37.9399 32.6823 37.8872C32.9595 38.4314 33.3616 38.9022 33.8557 39.2612C34.3498 39.6202 34.9219 39.8571 35.5251 39.9525C36.1284 40.048 36.7456 39.9993 37.3264 39.8104C37.9072 39.6215 38.4351 39.2978 38.8667 38.8657C39.2984 38.4337 39.6217 37.9056 39.8101 37.3246C39.9984 36.7436 40.0466 36.1263 39.9507 35.5232C39.8547 34.92 39.6173 34.3482 39.2579 33.8544C38.8985 33.3606 38.4273 32.9589 37.8828 32.6822V32.6809Z" fill="#E10006"/>
<path d="M7.71104 36.6368C7.79487 36.047 7.74033 35.4457 7.55174 34.8805C7.36314 34.3153 7.04566 33.8018 6.62439 33.3805C6.20312 32.9591 5.68962 32.6416 5.12448 32.4529C4.55934 32.2642 3.95806 32.2096 3.36816 32.2933C3.27981 30.235 3.65303 28.1829 4.46049 26.2874C4.21572 25.6846 4.00644 25.068 3.83373 24.4407C2.40931 27.5855 1.82446 30.413 2.11592 32.6809C1.57147 32.9576 1.10026 33.3593 0.740852 33.8531C0.381443 34.3469 0.144041 34.9187 0.0480678 35.5219C-0.0479053 36.125 0.000276978 36.7424 0.188673 37.3233C0.377069 37.9043 0.700326 38.4324 1.132 38.8644C1.56367 39.2965 2.0915 39.6202 2.67229 39.8091C3.25309 39.998 3.87035 40.0467 4.47359 39.9513C5.07683 39.8558 5.6489 39.6189 6.14301 39.2599C6.63711 38.9009 7.03921 38.4301 7.31641 37.8859C7.70395 37.938 8.09445 37.9652 8.48548 37.9671C10.9436 37.8644 13.3531 37.2494 15.5598 36.1616C14.9328 35.9911 14.3163 35.7837 13.7137 35.5406C11.8194 36.3485 9.76859 36.723 7.71104 36.6368Z" fill="#E10006"/>
</svg>
