<svg width="498" height="245" viewBox="0 0 498 245" fill="none" xmlns="http://www.w3.org/2000/svg">
<path opacity="0.3" d="M-40 220.351C-40 220.351 58.6509 222.068 78.8368 222.59C99.0227 223.112 99.7325 221.639 102.906 216.489C106.08 211.339 107.638 193.311 107.921 195.548C108.205 197.786 86.1534 192.301 83.8715 194.26C81.5897 196.219 84.0384 212.898 76.9681 217.832C69.8979 222.766 59.6539 221.863 55.4783 210.89C51.3026 199.916 49.41 172.372 60.8205 164.702C72.231 157.032 83.4235 176.46 81.2528 194.878C79.0821 213.297 65.7713 213.078 61.322 205.739C56.8727 198.4 55.7552 179.091 66.3884 176.011C77.0215 172.931 77.5241 200.588 71.2879 206.131C65.0517 211.673 60.1358 201.464 61.5455 188.402C62.9552 175.34 70.1585 178.623 72.9397 181.385C75.7209 184.148 78.5446 193.254 81.328 191.985C84.1114 190.717 82.1075 159.14 68.6714 155.781C55.2352 152.422 49.2977 167.874 47.6645 177.354C46.0313 186.834 53.1953 192.638 50.9679 190.455C48.7406 188.272 43.7309 190.455 43.5085 187.714C43.2861 184.973 48.0733 161.848 50.244 158.433C52.4147 155.018 57.203 158.265 52.527 158.214C47.8509 158.162 11.7747 155.527 11.1064 156.143C10.438 156.759 13.2225 188.277 11.6079 190.182C9.99322 192.086 -9.54289 191.581 -9.71406 190.125C-9.88523 188.669 -10.3824 182.903 -8.76773 182.121C-7.15307 181.339 40.6684 180.554 41.1655 181.902C41.6627 183.249 41.7782 189.905 40.4416 190.58C39.105 191.254 14.5537 191.027 14.6093 189.404C14.6649 187.782 30.3089 188.004 31.4787 186.436C32.6485 184.869 31.4787 175.016 32.9822 174.568C34.4856 174.121 42.4455 174.904 41.4992 175.52C40.5528 176.136 14.3869 175.855 13.8309 174.568C13.2749 173.281 12.7723 169.641 14.1089 169.196C15.4455 168.751 43.5597 167.236 43.3918 168.58C43.2239 169.924 32.5918 166.807 32.4806 165.454C32.3694 164.101 33.0377 158.446 32.425 158.446C31.8123 158.446 -6.71479 157.526 -6.71479 155.327C-6.71479 153.128 -6.10208 150.44 -5.21135 150.217C-4.32062 149.993 237.741 153.856 239.245 152.344C240.748 150.832 238.354 5.60804 239.913 4.93597C241.472 4.26389 352.147 7.95975 353.038 9.07914C353.929 10.1985 353.261 49.3882 354.263 50.1721C355.265 50.956 357.047 50.7324 357.158 50.2818C357.269 49.8311 357.826 6.72523 356.156 5.49401C354.486 4.26279 247.101 1 238.583 1C230.065 1 -5.59511 17.2942 -6.76386 18.9739C-7.9326 20.6535 -7.43218 147.459 -5.76192 147.459C-4.09166 147.459 -6.26235 142.253 -1.58628 140.741C3.08978 139.229 237.396 140.704 238.064 141.748C238.732 142.793 236.876 157.646 235.985 158.619C235.094 159.593 73.4597 157.201 75.686 156.305C77.9123 155.409 81.4207 155.465 84.0929 167.166C86.7651 178.866 84.9836 189.448 86.1524 190.847C87.3211 192.246 108.088 191.912 109.201 190.195C110.314 188.478 110.649 158.488 108.533 159.216C106.417 159.944 107.976 177.915 107.42 178.363C106.864 178.81 98.011 177.299 98.011 177.299C98.011 177.299 96.9534 172.653 98.011 172.205C99.0685 171.756 227.672 173.1 228.785 174.336C229.898 175.571 230.009 179.039 228.785 180.159C227.56 181.278 114.657 178.088 113.71 178.647C112.764 179.206 115.325 196.282 113.209 196.114C111.093 195.946 109.87 194.49 110.537 194.379C111.204 194.267 191.745 196.693 192.338 197.365C192.931 198.037 188.923 216.175 180.61 219.311C172.297 222.447 152.032 221.475 149.804 220.803C147.577 220.131 140.6 214.758 138.151 207.069C135.701 199.38 137.26 197.44 137.965 197.179C138.671 196.918 142.604 213.563 153.071 211.473C163.537 209.383 162.09 198.036 163.166 197.812C164.242 197.589 176.973 198.112 177.307 199.231C177.64 200.35 175.859 209.537 172.89 213.155C169.921 216.773 166.655 218.604 167.875 218.455C169.095 218.306 174.408 218.306 177.822 212.072C181.237 205.838 180.532 198.822 181.978 198.257C183.425 197.693 228.669 201.317 229.338 199.863C230.006 198.408 229.894 193.032 229.059 192.64C228.223 192.247 113.354 190.643 116.1 189.075C118.847 187.508 154.292 189.225 155.182 187.993C156.073 186.762 153.512 161.12 155.182 160.337C156.853 159.555 225.329 161.12 225.662 161.904C225.996 162.688 223.825 190.68 225.273 190.848C226.721 191.016 229.616 179.26 235.906 165.768C242.197 152.276 248.377 149.887 248.452 151.604C248.527 153.321 248.822 155.331 248.67 155.783C248.517 156.235 237.985 165.263 235.234 180.865C232.482 196.466 236.793 208.334 235.234 208.409C233.675 208.483 227.663 206.095 229.11 205.684C230.556 205.273 237.35 207.887 237.941 206.543C238.532 205.199 233.115 175.116 252.044 167.503C270.973 159.89 281.45 195.046 274.324 216.436C267.199 237.827 245.598 233.568 241.923 215.877C238.249 198.186 238.918 179.039 251.277 172.433C263.636 165.826 271.541 183.63 268.089 204.118C264.638 224.605 248.047 217.443 247.266 198.855C246.484 180.267 260.961 178.141 264.858 187.659C268.754 197.176 269.744 217.243 266.269 223.638C262.793 230.034 257.064 229.983 257.25 230.319C257.437 230.654 274.657 231.886 277.218 230.543C279.779 229.2 287.424 216.173 286.422 215.054C285.42 213.934 279.741 214.605 279.662 213.519C279.584 212.432 278.66 185.562 275.172 172.651C271.683 159.74 255.575 156.005 252.309 155.328C249.043 154.652 250.082 149.207 251.715 147.639C253.348 146.071 267.675 144.952 274.207 151.596C280.738 158.24 284.085 180.117 282.97 181.681C281.855 183.246 278.072 182.279 279.185 181.532C280.298 180.786 297.816 180.562 297.964 181.98C298.113 183.397 297.964 193.326 297.148 194.073C296.331 194.819 282.451 194.894 281.557 193.924C280.663 192.953 281.334 183.92 282.002 185.563C282.67 187.205 282.596 209.076 283.709 210.421C284.822 211.765 297.701 209.544 298.091 210.495C298.48 211.447 298.259 216.765 297.479 215.977C296.7 215.189 297.535 210.266 300.652 210.495C303.769 210.724 334 213.741 336.226 212.287C338.453 210.832 337.452 209.823 340.124 209.375C342.796 208.926 392.674 207.92 393.347 208.816C394.019 209.711 389.634 226.021 377.386 229.829C365.139 233.636 355.489 229.007 351.33 225.051C347.17 221.094 345.41 212.902 346.467 212.231C347.525 211.56 349.752 211.223 350.419 211.95C351.086 212.677 351.867 223.484 366.01 221.356C380.152 219.228 377.256 209.375 379.093 209.431C380.93 209.487 402.81 207.192 405.092 208.143C407.374 209.095 407.096 210.607 409.434 210.665C411.773 210.723 422.852 209.769 424.021 208.874C425.189 207.978 426.419 197.956 425.58 197.62C424.74 197.285 414.389 197.788 413.554 198.852C412.719 199.915 413.387 201.987 414.278 202.436C415.169 202.884 423.297 203.051 423.575 202.655C423.853 202.259 424.689 198.903 423.909 198.624C423.13 198.344 398.634 196.553 397.242 197.281C395.85 198.009 397.242 201.031 393.457 202.434C389.671 203.836 350.867 203.272 350.088 203.105C349.308 202.937 348.028 198.346 347.138 198.067C346.247 197.787 299.649 197.506 298.48 198.176C297.311 198.846 299.093 207.357 300.039 205.23C300.985 203.103 299.148 177.07 300.651 175.95C302.153 174.829 332.496 175.502 332.718 176.622C332.94 177.741 335.057 190.394 332.718 192.745C330.379 195.096 314.124 194.313 311.567 192.635C309.011 190.958 308.733 178.808 311.623 178.304C314.513 177.799 401.533 177.743 402.48 178.248C403.426 178.752 403.037 190.06 398.805 192.468C394.574 194.875 347.977 194.989 345.917 193.979C343.856 192.97 340.739 185.637 342.576 184.91C344.413 184.183 405.207 185.13 407.602 183.678C409.996 182.226 410.496 178.306 414.394 177.687C418.291 177.069 423.635 177.52 424.136 178.136C424.638 178.752 425.194 193.307 424.47 193.868C423.746 194.428 412.39 193.868 410.274 192.804C408.158 191.741 411.331 181.663 414.338 180.207C417.345 178.751 425.187 179.591 425.859 178.583C426.53 177.576 427.198 175.842 426.196 174.944C425.194 174.046 420.127 173.713 419.794 171.922C419.46 170.13 420.518 167.106 418.903 166.603C417.288 166.1 408.77 166.322 407.768 167.274C406.766 168.226 407.824 170.689 405.931 171.978C404.039 173.266 333.224 173.881 329.55 172.929C325.876 171.978 326.098 168.283 324.817 168.283C323.536 168.283 284.955 166.099 284.344 167.106C283.732 168.114 284.844 172.089 285.624 172.479C286.403 172.868 301.541 173.207 302.047 171.247C302.553 169.288 302.641 164.735 303.755 164.659C304.868 164.584 325.652 166.451 326.915 166.676C328.177 166.9 329.883 169.437 331.961 169.586C334.039 169.735 404.409 168.691 405.672 168.019C406.934 167.346 417.103 143.609 416.356 142.789C415.609 141.969 318.076 141.072 316.592 141.968C315.108 142.863 320.898 150.477 321.491 150.776C322.084 151.075 411.383 148.013 411.234 149.806C411.086 151.598 325.499 152.866 324.609 153.463C323.718 154.061 325.054 159.359 326.244 159.733C327.435 160.107 406.412 156.598 403.962 158.838C401.513 161.077 329.213 160.927 328.99 162.197C328.768 163.466 330.772 166.376 332.033 166.75C333.295 167.124 415.69 164.959 417.618 163.689C419.545 162.419 420.066 148.685 420.438 139.43C420.81 130.174 421.57 119.462 420.846 118.454C420.122 117.446 415.668 114.871 415.395 115.374C415.121 115.877 416.174 118.789 371.748 119.238C327.321 119.686 309.951 114.085 306.055 114.534C302.158 114.984 300.785 142.191 301.972 143.236C303.159 144.281 309.394 144.356 308.133 144.58C306.872 144.805 301.304 145.7 300.859 146.372C300.414 147.044 301.452 161.599 302.194 162.269C302.937 162.939 320.901 162.642 320.901 162.195C320.901 161.747 312.364 161.373 311.176 145.847C309.987 130.32 310.879 118.526 311.918 118.377C312.957 118.228 341.388 122.632 377.987 121.213C414.587 119.795 415.9 118.396 416.178 117.612C416.457 116.828 412.055 76.2109 405.971 68.5209C399.886 60.831 307.505 61.6906 304.388 65.2735C301.271 68.8564 307.728 111.965 308.73 112.301C309.732 112.638 413.285 112.748 413.285 111.741C413.285 110.733 409.387 65.0498 399.032 58.4431C388.677 51.8364 304.617 49.9342 280.006 52.0612C255.394 54.1881 252.614 58.8915 252.17 64.2659C251.725 69.6403 248.829 140.182 250.053 142.085C251.278 143.988 256.623 143.877 256.734 142.756C256.846 141.636 257.068 66.9531 260.409 64.1541C263.749 61.3551 297.487 62.3626 298.933 64.3734C300.38 66.3841 302.942 112.072 301.94 115.096C300.938 118.12 265.09 105.69 264.64 103.563C264.19 101.436 264.973 72.0973 266.199 70.6435C267.424 69.1897 295.928 69.9714 296.818 71.764C297.709 73.5566 301.05 127.636 298.711 141.744C296.372 155.852 300.048 160.779 298.266 164.064C296.485 167.349 280.451 165.109 282.604 164.213C284.757 163.317 298.34 160.779 297.894 168.766C297.449 176.753 294.332 194.595 294.48 203.477C294.628 212.36 295.965 217.585 294.332 218.63C292.698 219.675 287.502 219.228 288.765 218.705C290.027 218.182 343.249 216.018 343.546 216.69C343.844 217.362 330.408 229.603 333.821 230.424C337.235 231.245 360.841 231.096 354.458 234.157C348.074 237.218 333.228 237.068 343.62 238.187C354.013 239.307 497 245 497 245" stroke="white" stroke-miterlimit="10"/>
</svg>
