<svg width="960" height="757" viewBox="0 0 960 757" fill="none" xmlns="http://www.w3.org/2000/svg">
<g opacity="0.3">
<path d="M886.868 44.8093C891.993 39.6846 897.451 34.743 903.27 29.9528C920.006 16.1778 939.305 4.03825 962.268 -7.15882C1004.79 -27.8925 1052.73 -41.7469 1099.09 -55.145C1134.55 -65.3956 1168.06 -75.0778 1198.65 -87.4781C1239.88 -104.189 1289.52 -129.716 1307.64 -179.196C1322.95 -221.033 1313.68 -268.487 1305.5 -310.355C1304.99 -312.924 1304.49 -315.479 1304 -318.017L1304.23 -318.06C1304.72 -315.522 1305.22 -312.968 1305.72 -310.4C1309.92 -288.913 1314.26 -266.695 1315.67 -244.455C1317.26 -219.218 1314.71 -197.847 1307.85 -179.118C1303.68 -167.739 1297.57 -156.982 1289.69 -147.145C1282.56 -138.248 1273.73 -129.804 1263.45 -122.046C1246.75 -109.445 1226.19 -98.3938 1198.73 -87.2658C1168.13 -74.8612 1134.62 -65.1777 1099.15 -54.9252C1005.17 -27.7646 907.989 0.320589 857.351 82.4729C822.505 139.005 821.837 207.932 823.946 268.101C824.71 289.89 826.027 312.05 827.3 333.48C830.53 387.84 833.87 444.05 828.496 499.333C824.747 537.893 816.473 574.04 803.901 606.772C790.25 642.314 771.397 674.131 747.866 701.336C702.6 753.672 638.036 794.439 555.965 822.511C520.953 834.486 483.869 843.791 445.743 850.166C410.399 856.076 372.785 859.693 333.947 860.916C267.103 863.021 195.476 858.47 108.53 846.592L108.561 846.365C233.973 863.499 398.154 876.247 555.891 822.294C637.922 794.236 702.453 753.489 747.693 701.186C793.258 648.506 820.367 580.585 828.268 499.311C833.641 444.046 830.301 387.845 827.072 333.494C825.798 312.062 824.481 289.901 823.717 268.109C822.708 239.297 822.291 205.392 826.858 172.374C831.762 136.919 841.672 107.474 857.157 82.3538C865.566 68.7089 875.376 56.3014 886.868 44.8093Z" fill="white"/>
<path d="M875.049 56.327C880.962 50.4142 887.375 44.7395 894.331 39.2571C911.179 25.978 930.785 14.1879 954.269 3.21268C997.735 -17.1007 1047.05 -31.0005 1094.73 -44.4424C1133.37 -55.3351 1169.87 -65.6234 1202.25 -78.8369C1240.58 -94.4926 1293.76 -121.228 1312.83 -172.426C1328.67 -214.923 1319.92 -263.216 1312.21 -305.823C1311.75 -308.361 1311.29 -310.886 1310.84 -313.397L1311.07 -313.437C1311.52 -310.927 1311.97 -308.402 1312.43 -305.864C1316.4 -283.977 1320.5 -261.345 1321.65 -238.734C1322.95 -213.088 1320.14 -191.372 1313.05 -172.346C1308.75 -160.81 1302.51 -149.888 1294.51 -139.883C1287.26 -130.813 1278.32 -122.197 1267.93 -114.275C1250.85 -101.255 1230.01 -89.9267 1202.33 -78.625C1169.95 -65.4065 1133.44 -55.1164 1094.79 -44.2223C997.938 -16.9199 897.783 11.3124 848.802 89.5644C813.866 145.377 812.213 214.366 813.407 274.65C813.856 297.378 814.887 320.53 815.883 342.92C818.439 400.354 821.082 459.744 814.217 517.834C804.57 599.446 776.684 666.603 731.333 717.44C707.504 744.213 677.901 768.093 643.348 788.414C613.094 806.207 578.227 821.747 539.716 834.601C506.08 845.829 470.532 854.576 434.059 860.599C400.137 866.201 364.126 869.655 327.027 870.866C292.7 871.986 257.442 871.286 219.237 868.724C185.545 866.466 150.239 862.793 111.303 857.497L111.334 857.27C230.332 873.457 386.557 885.484 539.644 834.385C614.598 809.366 674.695 774.503 718.564 730.634C722.927 726.271 727.121 721.828 731.162 717.288C776.482 666.486 804.349 599.371 813.99 517.807C820.853 459.736 818.21 400.355 815.655 342.929C814.659 320.538 813.628 297.384 813.178 274.655C812.605 245.691 812.675 211.687 817.543 179.088C822.824 143.724 832.985 114.4 848.607 89.4424C856.063 77.53 864.805 66.571 875.049 56.327Z" fill="white"/>
<path d="M863.529 67.3909C870.095 60.8253 877.352 54.5505 885.365 48.4989C902.304 35.7071 922.186 24.2669 946.149 13.5247C990.491 -6.35397 1041.14 -20.2764 1090.12 -33.7406C1132.07 -45.2735 1171.7 -56.167 1205.84 -70.1972C1244.5 -86.0976 1298.19 -113.293 1318.03 -165.657C1334.4 -208.827 1326.18 -257.973 1318.92 -301.334C1318.51 -303.828 1318.09 -306.31 1317.68 -308.778L1317.91 -308.815C1318.32 -306.347 1318.73 -303.866 1319.15 -301.372C1322.88 -279.078 1326.74 -256.026 1327.63 -233.035C1328.65 -206.971 1325.58 -184.905 1318.25 -165.576C1313.82 -153.882 1307.45 -142.795 1299.34 -132.623C1291.97 -123.378 1282.9 -114.591 1272.4 -106.504C1255.19 -93.2499 1233.45 -81.3047 1205.93 -69.9859C1171.77 -55.9502 1132.14 -45.055 1090.18 -33.5203C990.589 -6.14381 887.61 22.1645 840.252 96.6541C805.126 151.904 802.537 220.882 802.868 281.199C802.998 305.061 803.758 329.4 804.492 352.939C806.372 413.25 808.318 475.615 799.937 536.333C794.617 574.875 785.358 610.347 772.417 641.762C757.979 676.811 738.594 707.691 714.8 733.543C702.485 746.982 688.55 759.734 673.382 771.445C659.159 782.426 643.434 792.813 626.644 802.317C596.436 819.417 562.687 833.932 523.468 846.692C491.215 857.186 457.206 865.384 422.387 871.059C389.89 876.354 355.483 879.645 320.119 880.839C258.631 882.916 191.234 878.848 114.076 868.403L114.107 868.176C281.423 890.826 407.653 884.133 523.397 846.475C607.391 819.147 669.944 782.156 714.631 733.389C759.81 684.303 788.435 617.993 799.71 536.302C808.088 475.604 806.143 413.249 804.263 352.946C803.529 329.406 802.769 305.065 802.639 281.201C802.472 250.688 803.03 218.013 808.203 185.807C813.867 150.542 824.287 121.34 840.059 96.5318C846.663 86.144 854.431 76.4884 863.529 67.3909Z" fill="white"/>
<path d="M852.28 78.0478C859.375 70.9534 867.374 64.1972 876.368 57.686C893.376 45.3734 913.504 34.2833 937.903 23.7827C983.049 4.35308 1034.99 -9.56947 1085.22 -23.0343C1130.64 -35.2066 1173.53 -46.7043 1209.44 -61.5564C1248.41 -77.6975 1302.61 -105.348 1323.23 -158.887C1340.13 -202.742 1332.76 -250.601 1325.64 -296.885C1325.26 -299.32 1324.89 -301.745 1324.52 -304.158L1324.75 -304.193C1325.11 -301.78 1325.49 -299.355 1325.86 -296.92C1329.36 -274.213 1332.98 -250.732 1333.61 -227.356C1334.34 -200.866 1331.01 -178.443 1323.44 -158.804C1318.88 -146.953 1312.39 -135.701 1304.16 -125.361C1296.67 -115.942 1287.49 -106.983 1276.88 -98.7328C1259.3 -85.0652 1237.27 -72.8358 1209.53 -61.3453C1173.61 -46.4869 1130.7 -34.9879 1085.28 -22.8133C983.113 4.57286 877.465 32.8918 831.701 103.745C796.293 158.567 792.812 227.469 792.328 287.748C792.126 312.918 792.621 338.62 793.1 363.475C794.314 426.488 795.568 491.646 785.657 554.833C779.623 593.298 769.891 628.43 756.732 659.256C749.511 676.17 741.095 692.176 731.717 706.829C721.822 722.291 710.567 736.697 698.266 749.647C685.903 762.746 671.914 775.14 656.689 786.486C642.488 797.069 626.76 807.073 609.943 816.221C580.253 832.373 546.652 846.294 507.219 858.783C476.357 868.558 443.892 876.216 410.726 881.545C379.659 886.537 346.854 889.663 313.221 890.836C254.027 892.901 189.793 889.13 116.848 879.308L116.879 879.081C272.695 900.063 396.706 893.544 507.151 858.565C591.612 831.815 654.071 796.138 698.1 749.489C743.238 701.972 772.62 636.468 785.431 554.797C795.339 491.631 794.085 426.483 792.871 363.48C792.392 338.623 791.898 312.919 792.099 287.746C792.345 257.205 793.33 224.531 798.839 192.525C804.89 157.37 815.577 128.289 831.509 103.621C837.349 94.5794 844.232 86.0964 852.28 78.0478Z" fill="white"/>
<path d="M841.287 88.3337C848.796 80.8251 857.441 73.6919 867.341 66.8197C884.398 54.9785 904.741 44.2396 929.534 33.9889C975.412 15.0209 1028.6 1.12052 1080.04 -12.3226C1129.06 -25.1336 1175.36 -37.2341 1213.04 -52.9161C1275.47 -78.9449 1312.13 -110.466 1328.43 -152.116C1345.87 -196.67 1339 -245.377 1332.35 -292.479C1332.02 -294.842 1331.69 -297.195 1331.36 -299.539L1331.59 -299.57C1331.91 -297.227 1332.25 -294.874 1332.58 -292.511C1335.84 -269.384 1339.22 -245.468 1339.6 -221.698C1340.04 -194.774 1336.46 -171.986 1328.64 -152.033C1323.94 -140.023 1317.33 -128.606 1308.99 -118.099C1301.37 -108.506 1292.07 -99.3746 1281.35 -90.9616C1263.41 -76.8807 1241.1 -64.367 1213.12 -52.7048C1175.44 -37.0166 1129.13 -24.9139 1080.1 -12.101C1028.67 1.33985 975.486 15.2382 929.622 34.2005C877.747 55.6483 842.92 80.716 823.152 110.836C787.374 165.351 783.042 234.119 781.789 294.298C781.235 320.924 781.467 348.138 781.693 374.456C782.253 440.02 782.832 507.816 771.378 573.334C764.687 611.6 754.48 646.382 741.039 676.713C733.625 693.442 725.049 709.236 715.548 723.655C705.504 738.899 694.127 753.061 681.733 765.751C669.291 778.49 655.232 790.514 639.952 801.484C625.76 811.672 610.032 821.297 593.206 830.088C564.009 845.344 530.567 858.685 490.972 870.875C461.507 879.946 430.59 887.074 399.08 892.061C369.446 896.752 338.242 899.712 306.335 900.86C249.486 902.905 188.412 899.423 119.622 890.215L119.652 889.988C266.317 909.622 384.285 903.479 490.904 870.656C575.197 844.707 635.123 812.067 679.084 768.106C679.921 767.269 680.744 766.436 681.569 765.591C727.437 718.63 756.739 655.73 771.152 573.295C782.604 507.798 782.024 440.012 781.464 374.458C781.239 348.138 781.006 320.922 781.561 294.294C782.196 263.78 783.592 231.146 789.456 199.246C795.898 164.208 806.857 135.248 822.961 110.711C828.115 102.856 834.194 95.427 841.287 88.3337Z" fill="white"/>
<path d="M830.525 98.2854C838.344 90.4663 847.549 83.051 858.281 75.9041C875.365 64.5277 895.892 54.1397 921.037 44.1466C967.573 25.652 1021.95 11.7963 1074.55 -1.60304C1127.33 -15.0516 1177.19 -27.7547 1216.63 -44.2751C1278.69 -70.3137 1316.96 -103.375 1333.63 -145.346C1351.62 -190.612 1345.24 -240.18 1339.07 -288.116C1338.78 -290.392 1338.49 -292.66 1338.2 -294.919L1338.42 -294.948C1338.71 -292.689 1339 -290.421 1339.3 -288.145C1342.33 -264.59 1345.47 -240.232 1345.6 -216.061C1345.74 -188.694 1341.9 -165.535 1333.84 -145.262C1329.01 -133.093 1322.27 -121.511 1313.81 -110.838C1306.07 -101.068 1296.66 -91.7662 1285.83 -83.1899C1267.53 -68.696 1244.92 -55.8983 1216.72 -44.0643C1177.26 -27.5375 1127.4 -14.8324 1074.6 -1.38136C1022.02 12.0165 967.644 25.8707 921.121 44.3593C868.521 65.2632 833.679 89.327 814.601 117.927C778.375 172.235 773.229 240.822 771.249 300.847C770.318 329.052 770.287 357.904 770.256 385.806C770.182 453.797 770.106 524.102 757.096 591.833C749.781 629.92 739.118 664.362 725.405 694.202C717.798 710.753 709.056 726.336 699.424 740.518C689.22 755.538 677.712 769.443 665.198 781.854C640.912 805.949 611.9 826.273 576.506 843.987C547.915 858.296 514.621 871.045 474.722 882.966C446.662 891.349 417.298 897.956 387.444 902.606C359.247 906.997 329.644 909.79 299.458 910.909C245.005 912.926 187.087 909.724 122.393 901.12L122.423 900.893C260.032 919.195 371.956 913.429 474.656 882.747C533.63 865.128 608.565 837.72 665.037 781.692C711.064 736.036 741.097 673.916 756.872 591.79C769.877 524.081 769.953 453.786 770.027 385.806C770.058 357.902 770.089 329.048 771.02 300.84C772.024 270.402 773.813 237.841 780.053 205.965C786.888 171.051 798.127 142.212 814.411 117.8C818.951 110.994 824.299 104.512 830.525 98.2854Z" fill="white"/>
<path d="M819.979 107.934C828.015 99.8973 837.694 92.2867 849.19 84.9418C866.278 74.0235 886.958 63.9867 912.411 54.2583C959.531 36.2484 1015.04 22.4602 1068.73 9.12563C1125.44 -4.96039 1179.01 -18.2649 1220.23 -35.6349C1282.76 -62.0343 1321.55 -95.707 1338.83 -138.576C1357.38 -184.568 1351.49 -235.014 1345.79 -283.799C1345.54 -285.973 1345.29 -288.14 1345.04 -290.299L1345.27 -290.325C1345.51 -288.166 1345.77 -285.999 1346.02 -283.825C1348.82 -259.835 1351.72 -235.027 1351.59 -210.447C1351.45 -182.628 1347.35 -159.091 1339.04 -138.491C1334.07 -126.163 1327.21 -114.416 1318.64 -103.577C1310.77 -93.6315 1301.24 -84.1574 1290.3 -75.4191C1271.65 -60.5125 1248.75 -47.43 1220.32 -35.4245C1179.08 -18.0477 1125.5 -4.74085 1068.78 9.34746C1015.11 22.6803 959.6 36.4669 912.493 54.4719C859.266 74.8161 824.448 97.8923 806.052 125.018C769.304 179.205 763.379 247.57 760.71 307.396C759.377 337.277 759.078 367.867 758.79 397.451C758.103 467.77 757.393 540.483 742.818 610.333C734.805 648.737 724.004 681.893 709.799 711.694C701.997 728.063 693.085 743.435 683.313 757.382C672.947 772.177 661.291 785.829 648.666 797.958C624.367 821.309 595.303 840.912 559.814 857.889C531.51 871.429 499.309 883.24 458.475 895.057C431.83 902.768 404.022 908.866 375.823 913.181C349.068 917.276 321.065 919.902 292.595 920.985C240.591 922.965 185.825 920.034 125.168 912.026L125.197 911.799C253.851 928.784 359.732 923.395 458.411 894.837C521.462 876.59 593.354 850.791 648.508 797.794C694.774 753.343 725.542 692.01 742.593 610.286C757.164 540.459 757.874 467.757 758.561 397.449C758.85 367.863 759.149 337.271 760.482 307.387C761.77 278.518 763.983 244.691 770.635 212.683C777.865 177.9 789.388 149.183 805.863 124.89C809.851 119.01 814.538 113.374 819.979 107.934Z" fill="white"/>
<path d="M809.627 117.309C817.797 109.14 827.873 101.41 840.062 93.9364C857.133 83.4702 877.933 73.7847 903.651 64.3269C951.278 46.8127 1007.86 33.1139 1062.57 19.8663C1123.37 5.14416 1180.81 -8.76165 1223.83 -26.9939C1286.82 -53.7488 1326.14 -88.0329 1344.02 -131.805C1363.14 -178.535 1357.74 -229.875 1352.52 -279.525C1352.31 -281.582 1352.09 -283.634 1351.88 -285.679L1352.1 -285.703C1352.32 -283.658 1352.53 -281.606 1352.75 -279.549C1355.32 -255.116 1357.97 -229.851 1357.6 -204.854C1357.17 -176.574 1352.8 -152.652 1344.24 -131.719C1326.33 -87.8879 1286.97 -53.5633 1223.91 -26.7836C1180.88 -8.54415 1123.44 5.36391 1062.62 20.0883C1007.92 33.3346 951.344 47.0313 903.731 64.5416C849.974 84.3106 815.226 106.412 797.502 132.11C760.163 186.247 753.492 254.356 750.17 313.946C748.407 345.579 747.837 377.989 747.286 409.332C746.649 445.589 745.989 483.081 743.484 519.756C740.672 560.907 735.783 596.586 728.538 628.833C719.965 666.986 708.738 699.813 694.215 729.191C686.215 745.372 677.13 760.531 667.21 774.248C656.678 788.813 644.875 802.208 632.133 814.062C607.822 836.675 578.708 855.56 543.126 871.795C515.208 884.533 484.09 895.436 442.226 907.148C417.003 914.204 390.755 919.803 364.214 923.789C338.904 927.589 312.503 930.046 285.743 931.09C236.24 933.022 184.622 930.353 127.94 922.931L127.969 922.705C246.137 938.177 348.911 933.016 442.164 906.928C505.667 889.162 577.879 864.217 631.976 813.895C678.549 770.575 710.061 710.023 728.314 628.782C744.462 556.915 745.781 481.886 747.057 409.327C747.608 377.982 748.178 345.57 749.942 313.933C751.543 285.207 754.133 251.512 761.2 219.4C768.825 184.752 780.638 156.157 797.314 131.979C800.804 126.92 804.896 122.041 809.627 117.309Z" fill="white"/>
<path d="M799.454 126.436C807.68 118.21 818.082 110.429 830.898 102.888C847.929 92.8677 868.817 83.5335 894.755 74.3527C942.809 57.3437 1000.38 43.7576 1056.05 30.6186C1121.12 15.2611 1182.59 0.755425 1227.42 -18.3533C1290.88 -45.4587 1330.72 -80.3547 1349.22 -125.035C1368.9 -172.518 1364 -224.768 1359.25 -275.297C1359.07 -277.223 1358.89 -279.143 1358.71 -281.059L1358.94 -281.08C1359.12 -279.164 1359.3 -277.244 1359.48 -275.319C1361.82 -250.435 1364.23 -224.704 1363.6 -199.283C1362.88 -170.534 1358.25 -146.219 1349.43 -124.948C1344.2 -112.299 1337.08 -100.223 1328.29 -89.0537C1320.18 -78.7536 1310.41 -68.9368 1299.25 -59.8756C1279.89 -44.1429 1256.42 -30.4922 1227.51 -18.1431C1182.66 0.9733 1121.19 15.4815 1056.1 30.841C1000.44 43.9786 942.874 57.5634 894.831 74.5682C840.643 93.7487 806.009 114.89 788.951 139.201C750.96 193.345 743.572 261.171 739.63 320.495C737.408 353.94 736.563 388.232 735.747 421.395C734.827 458.749 733.876 497.374 730.955 535.133C727.679 577.498 722.216 614.199 714.257 647.333C705.159 685.206 693.511 717.707 678.649 746.692C670.451 762.68 661.187 777.628 651.115 791.118C640.414 805.45 628.464 818.589 615.598 830.167C591.28 852.052 562.117 870.219 526.443 885.706C491.974 900.67 456.313 911.055 425.976 919.24C402.183 925.66 377.501 930.77 352.614 934.43C328.757 937.939 303.956 940.225 278.899 941.225C231.952 943.099 183.479 940.682 130.711 933.838L130.741 933.611C240.302 947.821 336.854 943.048 425.916 919.019C493.127 900.886 562.606 877.55 615.445 829.997C662.403 787.737 694.65 727.97 714.034 647.28C731.773 573.435 733.677 496.14 735.518 421.39C736.334 388.224 737.179 353.929 739.401 320.48C741.299 291.921 744.25 258.376 751.749 226.114C759.77 191.607 771.878 163.135 788.763 139.07C791.807 134.733 795.362 130.529 799.454 126.436Z" fill="white"/>
<path d="M789.395 135.408C833.907 90.8892 943.202 65.7547 1049.16 41.3843C1118.68 25.3923 1184.35 10.2883 1231.02 -9.71349C1294.93 -37.1651 1335.3 -72.6725 1354.42 -118.266C1374.68 -166.515 1370.26 -219.692 1365.99 -271.118C1365.85 -272.895 1365.7 -274.67 1365.55 -276.44L1365.78 -276.459C1365.93 -274.689 1366.07 -272.915 1366.22 -271.137C1368.33 -245.795 1370.5 -219.59 1369.61 -193.737C1368.61 -164.509 1363.71 -139.793 1354.63 -118.177C1349.26 -105.369 1342.02 -93.1273 1333.11 -81.7934C1324.87 -71.3158 1314.99 -61.3271 1303.73 -52.1049C1284.29 -36.1843 1259.86 -21.851 1231.11 -9.5035C1184.42 10.5063 1118.74 25.6131 1049.21 41.6069C935.056 67.8623 817.019 95.0105 780.4 146.291C743.538 197.909 733.955 263.669 729.09 327.043C726.38 362.345 725.258 398.571 724.173 433.604C722.983 472.031 721.752 511.767 718.425 550.584C714.692 594.137 708.657 631.834 699.976 665.831C690.383 703.399 678.322 735.575 663.102 764.196C654.705 779.989 645.259 794.723 635.028 807.987C624.155 822.084 612.055 834.964 599.064 846.269C574.74 867.437 545.531 884.888 509.767 899.62C476.622 913.274 442.098 922.93 409.727 931.329C324.953 953.327 234.593 957.714 133.483 944.742L133.513 944.515C234.592 957.484 324.924 953.098 409.669 931.108C475.678 913.979 544.663 893.306 598.913 846.097C646.319 804.843 679.305 745.859 699.754 665.774C719.101 590.007 721.563 510.493 723.944 433.597C725.029 398.561 726.151 362.332 728.861 327.025C731.039 298.65 734.338 265.27 742.285 232.823C750.701 198.46 763.107 170.111 780.214 146.157C782.859 142.454 785.934 138.87 789.395 135.408Z" fill="white"/>
<path d="M779.506 144.144C822.257 101.384 933.779 76.3923 1041.87 52.1653C1116.03 35.5412 1186.08 19.8396 1234.61 -1.07245C1298.08 -28.4785 1340.14 -65.6307 1359.62 -111.495C1380.46 -160.525 1376.54 -214.647 1372.74 -266.986L1372.39 -271.819L1372.62 -271.836L1372.97 -267.003C1374.84 -241.194 1376.78 -214.506 1375.63 -188.213C1374.34 -158.497 1369.17 -133.373 1359.83 -111.406C1349.21 -86.4099 1331.84 -63.8442 1308.21 -44.3335C1288.42 -28.0057 1263.69 -13.3802 1234.7 -0.862837C1186.15 20.0577 1116.09 35.762 1041.92 52.3881C926.424 78.2753 807.001 105.045 771.851 153.382C734.262 205.077 724.02 270.545 718.551 333.592C715.325 370.785 713.924 408.981 712.57 445.92C711.122 485.405 709.625 526.235 705.897 566.095C701.715 610.814 695.107 649.49 685.697 684.331C675.637 721.575 663.167 753.427 647.573 781.707C638.975 797.302 629.344 811.821 618.949 824.862C607.902 838.721 595.649 851.341 582.53 862.374C529.476 906.989 462.831 926.169 393.479 943.421C352.334 953.656 309.191 959.767 265.249 961.584C224.154 963.283 180.754 961.286 136.257 955.649L136.285 955.422C229.021 967.17 313.132 963.172 393.424 943.199C462.749 925.954 529.366 906.782 582.383 862.198C630.299 821.904 664.022 763.703 685.476 684.271C706.449 606.622 709.444 524.922 712.341 445.911C713.696 408.969 715.096 370.77 718.323 333.572C720.624 307.041 724.35 272.375 732.808 239.53C741.619 205.312 754.329 177.089 771.666 153.247C773.935 150.128 776.561 147.09 779.506 144.144Z" fill="white"/>
<path d="M769.872 152.555C777.887 144.54 788.882 136.942 803.187 129.506C819.952 120.791 840.896 112.511 867.217 104.192C916.055 88.7561 976.097 75.643 1034.16 62.9615C1109.69 46.4668 1187.79 29.4103 1238.21 7.56823C1302.12 -20.1691 1344.71 -57.9499 1364.82 -104.725C1386.26 -154.548 1382.82 -209.631 1379.5 -262.9L1379.23 -267.199L1379.46 -267.213L1379.73 -262.914C1381.37 -236.631 1383.06 -209.452 1381.66 -182.71C1380.07 -152.497 1374.63 -126.959 1365.03 -104.634C1354.13 -79.2886 1336.52 -56.3856 1312.68 -36.5612C1292.56 -19.8264 1267.53 -4.90841 1238.3 7.77845C1215.66 17.5859 1185.57 27.2581 1146.32 37.348C1111.26 46.3582 1072.09 54.9129 1034.21 63.1854C976.151 75.8657 916.115 88.9778 867.286 104.41C840.978 112.725 820.046 121 803.293 129.709C784.47 139.493 771.389 149.557 763.302 160.474C724.941 212.263 714.059 277.432 708.013 340.142C704.243 379.248 702.563 419.445 700.939 458.319C699.246 498.851 697.494 540.764 693.373 581.651C688.749 627.524 681.568 667.162 671.419 702.831C661.064 739.223 647.822 771.654 632.06 799.224C623.259 814.617 613.441 828.921 602.877 841.74C591.655 855.358 579.247 867.719 565.999 878.479C541.661 898.243 512.366 914.27 476.439 927.476C444.681 939.149 411.39 947.399 377.232 955.513C338.812 964.64 298.845 970.124 258.442 971.814C220.029 973.42 179.853 971.651 139.031 966.556L139.06 966.329C223.598 976.881 301.488 973.271 377.179 955.291C436.292 941.249 509.861 923.774 565.854 878.301C614.335 838.929 648.793 781.513 671.198 702.769C693.817 623.275 697.321 539.411 700.71 458.309C702.335 419.433 704.014 379.232 707.785 340.121C713.833 277.378 724.723 212.172 763.118 160.338C765.075 157.696 767.323 155.104 769.872 152.555Z" fill="white"/>
<path d="M760.278 160.906C768.118 153.065 779.196 145.619 793.87 138.303C810.496 130.013 831.387 122.084 857.738 114.062C906.662 99.1691 967.339 86.2597 1026.02 73.7746C1106.37 56.68 1189.45 39.0033 1241.81 16.209C1306.14 -11.855 1349.28 -50.2651 1370.02 -97.9545C1392.06 -148.588 1389.11 -204.652 1386.27 -258.869L1386.07 -262.579L1386.3 -262.591L1386.49 -258.881C1387.9 -232.113 1389.35 -204.434 1387.69 -177.234C1385.82 -146.515 1380.1 -120.552 1370.23 -97.8631C1349.46 -50.1194 1306.29 -11.6694 1241.9 16.4188C1218.4 26.651 1186.72 36.7276 1145.06 47.2251C1107.89 56.5904 1066.29 65.4401 1026.07 73.9984C967.392 86.4821 906.719 99.3908 857.805 114.281C831.466 122.299 810.587 130.223 793.972 138.508C775.322 147.807 762.494 157.312 754.751 167.565C715.576 219.453 704.07 284.321 697.473 346.691C693.132 387.726 691.174 429.945 689.28 470.773C687.353 512.347 685.359 555.335 680.85 597.242C675.792 644.257 668.036 684.846 657.138 721.331C646.372 757.375 632.718 789.477 616.556 816.746C607.553 831.934 597.545 846.023 586.809 858.621C575.409 871.997 562.844 884.096 549.464 894.582C525.116 913.664 495.78 928.985 459.782 941.419C427.339 952.625 393.605 960.24 360.982 967.604C325.319 975.655 288.533 980.523 251.643 982.076C215.966 983.577 179.011 982.024 141.803 977.462L141.831 977.235C218.333 986.616 290.001 983.393 360.931 967.382C426.719 952.531 494.747 937.174 549.322 894.403C598.416 855.927 633.612 799.293 656.918 721.266C681.205 639.956 685.194 553.944 689.052 470.763C690.945 429.931 692.904 387.709 697.245 346.668C700.011 320.516 704.395 286.228 713.814 252.93C723.411 219.008 736.742 191.04 754.568 167.428C756.234 165.221 758.136 163.048 760.278 160.906Z" fill="white"/>
<path d="M750.8 169.105C758.424 161.481 769.532 154.226 784.511 147.064C800.972 139.194 821.772 131.615 848.102 123.895C897.018 109.553 958.225 96.8697 1017.42 84.6043C1102.79 66.913 1191.08 48.6195 1245.4 24.8496C1310.16 -3.5364 1353.84 -42.5755 1375.21 -91.1837C1397.86 -142.642 1395.41 -199.706 1393.04 -254.89L1392.91 -257.958L1393.14 -257.968L1393.27 -254.9C1395.64 -199.689 1398.09 -142.6 1375.42 -91.0918C1363.97 -65.0416 1345.87 -41.4658 1321.63 -21.0179C1300.83 -3.46977 1275.21 12.0328 1245.49 25.0594C1191.15 48.8387 1102.85 67.1348 1017.46 84.8287C958.276 97.0934 897.073 109.776 848.165 124.115C821.849 131.832 801.059 139.406 784.609 147.271C766.162 156.091 753.598 165.047 746.2 174.657C706.067 226.774 693.718 294.178 686.931 353.24C681.993 396.215 679.759 440.473 677.598 483.274C675.447 525.883 673.223 569.943 668.333 612.862C662.847 661.011 654.513 702.543 642.856 739.83C631.699 775.519 617.638 807.294 601.062 834.274C591.858 849.256 581.658 863.128 570.745 875.505C559.166 888.636 546.443 900.473 532.928 910.686C520.125 920.362 506.357 928.766 490.835 936.377C477.027 943.148 462.152 949.125 445.361 954.65C414.201 964.901 381.229 971.923 349.342 978.713L344.731 979.696C311.861 986.704 278.257 990.97 244.853 992.373C211.97 993.755 178.231 992.407 144.574 988.368L144.602 988.141C212.287 996.265 279.605 993.348 344.683 979.472L349.294 978.49C413.323 964.854 479.532 950.754 532.79 910.504C582.544 872.903 618.475 817.053 642.638 739.762C668.616 656.664 673.066 568.512 677.37 483.263C679.531 440.458 681.765 396.196 686.704 353.214C691.136 314.646 696.561 285.78 704.296 259.621C714.283 225.844 727.931 198.006 746.018 174.518C747.425 172.691 749.018 170.887 750.8 169.105Z" fill="white"/>
<path d="M741.428 177.167C748.798 169.797 759.889 162.764 775.11 155.788C791.379 148.333 812.05 141.104 838.304 133.691C887.117 119.907 948.739 107.474 1008.33 95.4496C1098.95 77.1658 1192.66 58.2594 1249 33.4887C1314.18 4.78505 1358.39 -34.8839 1380.41 -84.4151C1403.68 -136.714 1401.72 -194.795 1399.83 -250.963L1399.75 -253.34L1399.98 -253.347L1400.06 -250.971C1401.95 -194.777 1403.91 -136.668 1380.62 -84.322C1368.88 -57.917 1350.54 -34.0043 1326.11 -13.2481C1304.97 4.70684 1279.06 20.5016 1249.09 33.6983C1192.73 58.479 1099.01 77.3876 1008.38 95.6743C948.789 107.697 887.17 120.13 838.367 133.911C812.123 141.321 791.463 148.546 775.205 155.997C756.992 164.344 744.707 172.765 737.65 181.747C696.632 233.936 683.666 301.035 676.392 359.788C670.832 404.706 668.324 451.014 665.9 495.797C663.537 539.442 661.093 584.573 655.826 628.5C649.918 677.78 641.004 720.247 628.577 758.329C617.047 793.656 602.582 825.107 585.582 851.806C566.203 882.241 542.925 907.469 516.395 926.789C492.973 943.845 465.064 957.307 431.074 967.944C400.826 977.411 368.858 983.761 337.942 989.903C334.786 990.53 331.633 991.156 328.483 991.785C298.444 997.786 268.026 1001.46 238.076 1002.7C208.043 1003.95 177.518 1002.8 147.348 999.272L147.375 999.045C207.495 1006.07 268.413 1003.55 328.438 991.561C331.588 990.932 334.742 990.306 337.898 989.679C399.924 977.357 464.062 964.615 516.26 926.604C566.012 890.374 603.727 833.734 628.359 758.257C656.055 673.392 660.944 583.101 665.671 495.785C668.096 450.998 670.604 404.685 676.166 359.76C680.843 321.974 686.754 292.278 694.768 266.302C705.143 232.669 719.111 204.964 737.47 181.605C738.644 180.111 739.963 178.632 741.428 177.167Z" fill="white"/>
<path d="M732.153 185.108C739.238 178.023 750.265 171.242 765.666 164.479C781.714 157.433 802.215 150.555 828.34 143.451C876.946 130.235 936.106 118.616 998.74 106.315C1094.83 87.4436 1194.19 67.9301 1252.6 42.1303C1318.19 13.1134 1362.94 -27.185 1385.61 -77.6436C1409.51 -130.797 1408.04 -189.917 1406.63 -247.089L1406.59 -248.719L1406.82 -248.724L1406.86 -247.095C1408.27 -189.896 1409.74 -130.752 1385.82 -77.5501C1373.8 -50.7877 1355.21 -26.5378 1330.58 -5.47596C1309.11 12.8854 1282.9 28.9729 1252.69 42.3397C1194.26 68.1492 1094.89 87.6655 998.784 106.54C936.155 118.839 876.998 130.457 828.4 143.672C802.286 150.772 781.795 157.647 765.758 164.689C747.811 172.568 735.82 180.468 729.1 188.838C687.171 241.067 673.599 307.874 665.854 366.337C659.645 413.2 656.869 461.568 654.184 508.343C651.619 553.023 648.967 599.226 643.329 644.159C637.004 694.567 627.507 737.963 614.297 776.829C602.412 811.794 587.546 842.921 570.11 869.346C550.316 899.346 526.681 924.091 499.861 942.894C476.789 959.07 449.448 971.701 416.276 981.511C386.748 990.242 355.588 995.94 325.454 1001.45C321.043 1002.26 316.635 1003.06 312.234 1003.88C285.07 1008.91 257.843 1012 231.308 1013.08C204.182 1014.17 176.867 1013.2 150.122 1010.18L150.147 1009.95C203.648 1016 256.653 1013.93 312.193 1003.65C316.593 1002.84 321.001 1002.03 325.413 1001.23C385.836 990.177 448.317 978.752 499.73 942.706C550.207 907.318 588.68 851.484 614.081 776.755C643.52 690.143 648.826 597.715 653.956 508.33C656.64 461.551 659.417 413.179 665.627 366.308C670.6 328.769 676.827 299.113 685.225 272.978C695.988 239.484 710.281 211.915 728.922 188.696C729.889 187.49 730.966 186.294 732.153 185.108Z" fill="white"/>
<path d="M722.965 192.934C729.737 186.162 740.656 179.657 756.175 173.133C771.973 166.492 792.262 159.963 818.199 153.173C866.494 140.531 925.81 129.197 988.608 117.196C1090.4 97.7438 1195.67 77.6288 1256.19 50.7698C1322.19 21.4444 1367.49 -19.4824 1390.81 -70.8742C1415.34 -124.9 1414.38 -185.077 1413.44 -243.272L1413.43 -244.099L1413.66 -244.103L1413.67 -243.276C1414.61 -185.055 1415.57 -124.852 1391.02 -70.7796C1378.71 -43.6578 1359.88 -19.0723 1335.06 2.29493C1313.25 21.0629 1286.75 37.4428 1256.29 50.9792C1195.74 77.8486 1090.46 97.9658 988.651 117.421C925.857 129.421 866.545 140.754 818.257 153.395C792.331 160.181 772.052 166.707 756.264 173.344C738.616 180.763 726.934 188.152 720.549 195.929C677.434 248.456 663.038 318.089 655.314 372.885C648.433 421.691 645.394 472.123 642.454 520.896C639.698 566.614 636.849 613.89 630.843 659.829C624.106 711.364 614.023 755.686 600.017 795.327C573.864 869.352 534.604 924.418 483.327 958.996C460.461 974.416 433.5 986.305 400.905 995.342C371.885 1003.39 341.315 1008.45 311.752 1013.34C306.58 1014.2 301.231 1015.08 295.985 1015.97C271.748 1020.06 247.713 1022.59 224.548 1023.48C200.389 1024.42 176.281 1023.61 152.895 1021.08L152.919 1020.86C199.183 1025.85 245.968 1024.18 295.947 1015.74C301.194 1014.86 306.543 1013.97 311.715 1013.12C370.974 1003.31 432.249 993.166 483.2 958.807C534.434 924.257 573.665 869.229 599.801 795.251C631.013 706.911 636.713 612.34 642.226 520.882C645.166 472.105 648.206 421.668 655.087 372.853C660.347 335.541 666.887 305.923 675.668 279.643C686.816 246.281 701.439 218.85 720.373 195.784C721.157 194.828 722.021 193.879 722.965 192.934Z" fill="white"/>
<path d="M713.82 200.703C742.713 171.805 857.04 150.559 977.909 128.095C1085.66 108.069 1197.08 87.3611 1259.79 59.4099C1325.26 30.1968 1372.36 -12.5136 1396.01 -64.1046C1421.19 -119.018 1420.72 -180.257 1420.27 -239.48L1420.5 -239.481C1420.95 -180.234 1421.42 -118.969 1396.22 -64.009C1383.62 -36.5262 1364.55 -11.604 1339.53 10.0659C1317.4 29.2402 1290.6 45.9125 1259.88 59.619C1197.15 87.5809 1085.72 108.292 977.95 128.32C854.121 151.334 737.165 173.066 711.999 203.02C667.925 255.481 652.921 324.855 644.774 379.434C637.198 430.178 633.901 482.682 630.712 533.457C627.775 580.217 624.738 628.568 618.369 675.513C614.94 700.788 610.847 723.643 605.856 745.384C600.254 769.79 593.673 792.178 585.737 813.826C573.184 848.068 557.523 878.556 539.189 904.443C518.566 933.562 494.209 957.334 466.793 975.1C443.944 989.906 417.125 1001.15 384.802 1009.47C356.024 1016.87 325.772 1021.3 296.516 1025.58C291.011 1026.39 285.318 1027.22 279.735 1028.06C235.552 1034.7 194.969 1035.98 155.668 1031.99L155.691 1031.76C194.973 1035.75 235.537 1034.47 279.701 1027.83C285.285 1026.99 290.977 1026.16 296.483 1025.35C355.122 1016.77 415.758 1007.9 466.669 974.908C518.69 941.198 558.677 886.976 585.522 813.747C618.533 723.698 624.608 626.978 630.483 533.443C633.672 482.663 636.971 430.154 644.548 379.4C650.087 342.289 656.935 312.705 666.097 286.297C677.628 253.061 692.585 225.773 711.824 202.873C712.435 202.145 713.102 201.421 713.82 200.703Z" fill="white"/>
<path d="M704.826 208.298C710.908 202.216 721.488 196.323 737.055 190.337C752.263 184.489 771.993 178.657 797.374 172.506C844.71 161.035 903.922 150.338 966.61 139.013C1080.58 118.422 1198.43 97.1308 1263.39 68.0512C1329.25 38.5416 1376.91 -4.81583 1401.21 -57.3335C1427.05 -113.148 1427.08 -175.022 1427.11 -234.859L1427.34 -234.859C1427.32 -205.296 1427.31 -174.727 1424.01 -144.443C1420.34 -110.674 1412.95 -82.1489 1401.42 -57.2372C1388.53 -29.3911 1369.22 -4.1326 1344.01 17.8382C1321.55 37.4189 1294.45 54.3831 1263.48 68.2601C1234.4 81.2779 1191.67 93.9649 1132.83 107.047C1080.8 118.617 1022.77 129.1 966.651 139.238C843.526 161.482 727.228 182.501 703.452 210.112C658.408 262.43 642.801 331.583 634.237 385.983C625.945 438.659 622.396 493.236 618.963 546.015C615.855 593.821 612.64 643.254 605.911 691.207C602.289 717.024 597.966 740.357 592.697 762.541C586.782 787.444 579.836 810.271 571.46 832.326C558.569 866.269 542.523 896.455 523.768 922.045C502.72 950.763 477.989 974.031 450.262 991.205C427.236 1005.59 400.292 1016.3 367.89 1023.93C339.047 1030.73 308.794 1034.5 279.537 1038.14C274.271 1038.79 268.828 1039.47 263.488 1040.15C225.41 1045.02 191.05 1045.92 158.445 1042.9L158.466 1042.67C191.054 1045.69 225.398 1044.79 263.459 1039.92C268.799 1039.24 274.244 1038.56 279.509 1037.91C338.173 1030.61 398.833 1023.06 450.141 991.01C502.903 958.331 543.648 904.914 571.246 832.245C606.087 740.503 612.517 641.624 618.735 546.001C622.168 493.216 625.717 438.634 634.011 385.948C639.827 349.009 646.977 319.455 656.514 292.94C668.427 259.818 683.724 232.676 703.279 209.963C703.757 209.406 704.273 208.851 704.826 208.298Z" fill="white"/>
<path d="M695.856 215.853C701.569 210.14 711.923 204.577 727.419 198.886C742.283 193.427 761.664 187.941 786.669 182.115C833.346 171.241 892.278 160.897 954.669 149.946C1075.14 128.803 1199.71 106.939 1266.98 76.6919C1333.23 46.8902 1381.44 2.88613 1406.4 -50.563C1432.91 -107.291 1433.46 -172.609 1433.95 -230.239L1434.18 -230.237C1433.93 -201.819 1433.66 -169.609 1430.05 -138.663C1426.06 -104.529 1418.39 -75.6794 1406.61 -50.4662C1393.44 -22.2546 1373.88 3.34051 1348.48 25.6097C1325.69 45.5967 1298.3 62.8535 1267.08 76.9009C1236.98 90.4328 1192.09 103.592 1129.84 117.13C1074.89 129.08 1013.79 139.802 954.709 150.172C892.32 161.123 833.392 171.465 786.721 182.338C761.725 188.162 742.353 193.645 727.498 199.101C710.958 205.176 700.295 211.097 694.899 217.204C648.361 269.875 631.973 342.493 623.695 392.532C614.663 447.133 610.87 503.787 607.201 558.575C603.93 607.431 600.548 657.95 593.463 706.911C589.648 733.27 585.097 757.081 579.547 779.706C573.318 805.104 566.001 828.367 557.177 850.826C543.987 884.4 527.546 914.268 508.312 939.599C486.854 967.858 461.76 990.639 433.726 1007.31C409.872 1021.58 382.043 1031.93 348.646 1038.95C318.934 1045.19 287.876 1048.24 257.84 1051.2C254.301 1051.54 250.766 1051.89 247.235 1052.24C215.624 1055.39 187.487 1055.9 161.216 1053.8L161.235 1053.57C187.491 1055.68 215.615 1055.17 247.212 1052.01C250.743 1051.66 254.279 1051.31 257.818 1050.97C318.106 1045.05 380.447 1038.92 433.609 1007.11C487.223 975.232 528.726 922.622 556.964 850.741C593.664 757.326 600.43 656.28 606.973 558.56C610.641 503.766 614.435 447.107 623.469 392.495C629.473 356.2 637.14 325.803 646.908 299.567C652.736 283.911 659.489 269.302 666.978 256.144C675.134 241.812 684.471 228.66 694.727 217.052C695.081 216.651 695.458 216.251 695.856 215.853Z" fill="white"/>
<path d="M686.95 223.333C692.281 218.001 702.373 212.78 717.734 207.397C732.22 202.321 751.202 197.181 775.763 191.683C821.653 181.411 880.136 171.446 942.054 160.896C1063.38 140.222 1200.91 116.789 1270.58 85.3319C1337.21 55.2413 1385.97 10.5905 1411.6 -43.7933C1438.78 -101.444 1439.84 -167.414 1440.79 -225.619L1441.02 -225.615C1440.55 -196.967 1440.03 -164.496 1436.08 -132.885C1431.78 -98.3857 1423.84 -69.2113 1411.81 -43.6959C1398.34 -15.117 1378.54 10.8152 1352.96 33.3802C1329.84 53.7733 1302.16 71.3225 1270.67 85.5401C1239.53 99.6037 1192.37 113.247 1126.5 127.25C1068.49 139.583 1004.24 150.532 942.092 161.121C880.178 171.671 821.697 181.636 775.813 191.907C724.392 203.417 695.966 213.706 686.35 224.294C638.825 276.618 621.817 349.106 613.157 399.08C603.364 455.597 599.334 514.328 595.437 571.126C592.012 621.037 588.471 672.648 581.033 722.619C577.029 749.523 572.247 773.813 566.415 796.878C559.868 822.77 552.176 846.467 542.899 869.323C529.419 902.535 512.584 932.087 492.865 957.155C470.997 984.955 445.537 1007.25 417.193 1023.41C391.725 1037.98 362.177 1048.18 326.86 1054.57C296.445 1060.07 265.445 1062.25 230.985 1064.33C206.44 1065.82 184.527 1065.94 163.993 1064.71L164.006 1064.48C184.531 1065.71 206.435 1065.59 230.97 1064.1C291.065 1060.47 359.178 1056.34 417.08 1023.21C470.803 992.574 514.237 939.33 542.687 869.237C581.276 774.164 588.359 670.937 595.209 571.109C599.106 514.306 603.136 455.569 612.931 399.04C619.204 362.845 627.171 332.469 637.289 306.175C643.297 290.561 650.231 276.005 657.896 262.912C666.238 248.663 675.755 235.618 686.18 224.14C686.425 223.871 686.682 223.602 686.95 223.333Z" fill="white"/>
<path d="M678.098 230.748C687.599 221.246 715.158 211.846 764.641 201.212C809.61 191.549 867.464 181.986 928.715 171.862C1056.82 150.688 1202.01 126.689 1274.18 93.9736C1341.18 63.5983 1390.5 18.301 1416.8 -37.0217C1444.65 -95.6059 1446.23 -162.222 1447.63 -220.997L1447.85 -220.992C1447.2 -193.545 1446.39 -159.388 1442.12 -127.105C1437.5 -92.2413 1429.28 -62.7427 1417.01 -36.9235C1390.68 18.449 1341.33 63.7843 1274.27 94.1822C1202.08 126.91 1056.87 150.911 928.752 172.088C867.504 182.212 809.652 191.774 764.689 201.436C714.418 212.239 686.805 221.745 677.798 231.387C629.296 283.233 611.662 355.66 602.617 405.63C592.042 464.054 587.783 524.865 583.666 583.673C580.096 634.647 576.405 687.356 568.617 738.34C564.424 765.788 559.412 790.556 553.295 814.061C546.429 840.445 538.357 864.573 528.618 887.824C514.856 920.681 497.629 949.916 477.418 974.72C455.143 1002.06 429.317 1023.86 400.659 1039.52C374.247 1053.95 344.672 1063.82 310.243 1069.69C282.789 1074.38 252.439 1076.52 214.729 1076.42C198.758 1076.39 182.525 1075.99 166.825 1075.62L166.769 1075.61L166.774 1075.39L166.831 1075.39C182.529 1075.77 198.761 1076.16 214.729 1076.2C269.57 1076.33 340.252 1072.26 400.549 1039.32C455.155 1009.48 499.368 957.063 528.407 887.735C568.917 791.023 576.299 685.604 583.438 583.657C587.556 524.842 591.814 464.026 602.392 405.589C608.933 369.452 617.194 339.089 627.648 312.766C633.835 297.186 640.949 282.685 648.792 269.663C657.324 255.496 667.027 242.566 677.632 231.23C677.782 231.07 677.937 230.909 678.098 230.748Z" fill="white"/>
<path d="M682.812 239.107C684.265 237.654 685.736 236.229 687.231 234.827C707.699 215.635 805.471 200.669 918.681 183.34C931.812 181.33 945.39 179.252 958.948 177.15C1082.92 158.253 1209.61 137.329 1277.17 107.749C1342.73 78.7496 1391.89 34.532 1419.33 -20.1234C1450.07 -81.3634 1451.3 -153.493 1452.29 -211.449L1452.51 -211.445C1451.95 -178.063 1451.08 -145.453 1446.73 -113.484C1441.79 -77.2098 1432.9 -46.6377 1419.53 -20.0206C1392.07 34.6831 1342.88 78.9375 1277.26 107.959C1209.68 137.55 1082.97 158.478 958.984 177.377C945.425 179.478 931.847 181.556 918.716 183.566C805.543 200.889 707.804 215.85 687.388 234.995C653.893 266.401 630.604 311.067 614.098 375.552C611.869 384.282 609.733 393.611 607.75 403.277C596.801 456.747 591.848 511.375 586.942 572.114C586.627 576.003 586.313 579.892 586 583.781C582.691 624.826 579.27 667.269 573.732 708.568C567.521 754.893 559.245 794.822 548.431 830.637C542.9 848.956 536.538 866.726 529.522 883.454C517.111 913.047 501.911 939.807 484.345 962.99C465.138 988.339 443.044 1009.45 418.678 1025.75C413.455 1029.24 408.048 1032.56 402.606 1035.62C376.473 1050.3 347.181 1060.55 313.059 1066.96C285.803 1072.08 255.66 1074.75 218.195 1075.34C202.288 1075.6 186.112 1075.52 170.469 1075.44L170.405 1075.44L170.406 1075.21L170.47 1075.22C186.112 1075.29 202.286 1075.38 218.191 1075.11C272.638 1074.25 342.791 1068.95 402.495 1035.42C407.932 1032.37 413.334 1029.05 418.551 1025.56C465.035 994.473 503.334 945.304 529.312 883.365C536.325 866.645 542.684 848.882 548.213 830.571C572.311 750.754 579.154 665.861 585.772 583.762C586.086 579.873 586.399 575.983 586.714 572.095C591.621 511.348 596.574 456.713 607.526 403.231C609.51 393.56 611.646 384.229 613.876 375.495C621.48 345.789 630.294 320.888 640.82 299.367C652.564 275.358 666.339 255.581 682.812 239.107Z" fill="white"/>
<path d="M684.424 249.695C688.402 245.718 692.534 241.966 696.833 238.426C718.537 220.551 811.209 207.738 918.514 192.902C933.788 190.79 949.581 188.606 965.398 186.376C1068.03 171.902 1208.58 152.078 1280.16 121.525C1344.2 94.1838 1393.2 51.0467 1421.86 -3.22431C1452.95 -62.1158 1456.14 -128.043 1456.94 -201.9L1457.17 -201.898C1456.82 -168.849 1456.07 -133.747 1451.36 -99.8647C1446.11 -62.1646 1436.53 -30.5182 1422.06 -3.11715C1407.31 24.8302 1387.08 49.9482 1361.96 71.5382C1338.46 91.7322 1310.97 108.621 1280.25 121.735C1249.29 134.948 1203.89 147.111 1141.46 158.918C1086.55 169.302 1026.86 177.939 965.43 186.603C949.613 188.833 933.819 191.017 918.545 193.129C811.275 207.961 718.633 220.77 696.978 238.603C662.213 267.231 638.435 308.869 619.882 373.605C617.431 382.196 615.076 391.387 612.883 400.925C600.734 453.942 595.172 508.281 589.647 568.715C589.18 573.794 588.717 578.874 588.253 583.954C584.579 624.247 580.779 665.912 574.986 706.471C568.486 751.968 560.112 791.194 549.383 826.392C543.808 844.679 537.431 862.407 530.427 879.085C518.02 908.629 502.904 935.373 485.497 958.575C466.453 983.959 444.573 1005.2 420.464 1021.7C415.297 1025.24 409.944 1028.61 404.555 1031.73C378.698 1046.65 349.69 1057.28 315.875 1064.23C288.813 1069.79 258.876 1072.98 221.661 1074.26C205.81 1074.82 189.685 1075.05 174.091 1075.27L174.042 1075.27L174.038 1075.05L174.087 1075.04C189.68 1074.82 205.805 1074.6 221.653 1074.03C275.7 1072.17 345.321 1065.65 404.44 1031.53C409.825 1028.42 415.172 1025.05 420.335 1021.51C466.271 990.067 504.268 940.786 530.216 878.996C537.216 862.326 543.592 844.605 549.165 826.326C573.075 747.883 580.675 664.536 588.026 583.933C588.489 578.853 588.952 573.773 589.42 568.695C594.945 508.252 600.508 453.905 612.661 400.874C614.854 391.333 617.21 382.137 619.663 373.542C628.108 344.076 637.527 319.789 648.458 299.295C658.887 279.741 670.736 263.384 684.424 249.695Z" fill="white"/>
<path d="M686.859 258.728C693.013 252.575 699.523 247.024 706.434 242.025C729.104 225.628 815.196 215.009 914.882 202.715C933.408 200.43 952.565 198.067 971.846 195.602C1102.92 178.845 1216.82 162.741 1283.14 135.301C1345.87 109.352 1394.71 67.2943 1424.39 13.6757C1458.09 -47.2299 1461.23 -118.533 1461.6 -192.351L1461.83 -192.35C1461.66 -158.217 1461.06 -121.909 1456.01 -86.2443C1450.45 -47.1051 1440.18 -14.3849 1424.59 13.7864C1409.4 41.2268 1389.11 65.7727 1364.27 86.7409C1340.76 106.582 1313.5 122.991 1283.23 135.513C1252.07 148.403 1206.93 159.959 1145.21 170.844C1091.47 180.324 1032.55 188.072 971.876 195.829C952.594 198.294 933.437 200.657 914.91 202.942C815.256 215.233 729.191 225.847 706.568 242.21C660.856 275.274 639.321 328.757 625.667 371.658C622.99 380.117 620.416 389.173 618.017 398.573C604.675 451.067 598.5 505.146 592.353 565.317C591.705 571.606 591.065 577.898 590.424 584.19C586.401 623.723 582.24 664.601 576.206 704.408C569.435 749.064 560.973 787.577 550.335 822.148C544.716 840.404 538.323 858.09 531.333 874.715C518.93 904.212 503.896 930.941 486.65 954.159C467.768 979.579 446.101 1000.94 422.25 1017.65C417.138 1021.24 411.841 1024.66 406.504 1027.83C380.923 1043 352.199 1054.02 318.692 1061.5C291.819 1067.5 262.088 1071.21 225.127 1073.18C209.326 1074.04 193.244 1074.58 177.691 1075.1L177.671 1074.87C193.235 1074.35 209.316 1073.82 225.115 1072.95C278.758 1070.09 347.84 1062.36 406.387 1027.63C411.719 1024.47 417.012 1021.04 422.119 1017.46C468.158 985.208 504.831 937.15 531.122 874.626C538.11 858.008 544.5 840.329 550.117 822.08C573.825 745.032 582.148 663.253 590.197 584.166C590.838 577.874 591.478 571.582 592.126 565.293C598.275 505.112 604.45 451.025 617.796 398.516C620.196 389.111 622.771 380.051 625.45 371.588C634.697 342.536 644.749 318.875 656.18 299.253C665.355 283.502 675.497 270.091 686.859 258.728Z" fill="white"/>
<path d="M689.713 266.776C697.864 258.624 706.603 251.61 716.035 245.626C739.686 230.62 819.775 222.012 912.51 212.046C933.87 209.751 955.956 207.377 978.296 204.829C1083.37 192.839 1214.13 177.918 1286.13 149.078C1347.64 124.444 1396.32 83.4663 1426.91 30.5754C1463.27 -32.2807 1466.28 -106.223 1466.27 -182.801L1466.49 -182.801C1466.5 -149.063 1466.05 -109.944 1460.67 -72.6205C1454.82 -32.0293 1443.85 1.7638 1427.11 30.6903C1411.54 57.619 1391.18 81.5946 1366.6 101.951C1343.11 121.409 1316.07 137.337 1286.22 149.291C1254.84 161.857 1209.95 172.809 1148.97 182.77C1096.22 191.387 1038.15 198.229 978.322 205.056C955.982 207.605 933.895 209.978 912.535 212.274C819.828 222.237 739.764 230.841 716.158 245.819C669.161 275.636 646.203 327.693 631.451 369.712C628.55 378.032 625.757 386.951 623.15 396.222C608.645 448.057 601.585 504.179 595.057 561.92C594.2 569.439 593.34 577.09 592.509 584.488C588.154 623.251 583.651 663.333 577.39 702.379C570.366 746.181 561.827 783.97 551.286 817.904C545.623 836.13 539.214 853.774 532.237 870.347C519.838 899.798 504.887 926.511 487.802 949.744C469.082 975.201 447.628 996.687 424.036 1013.6C418.979 1017.23 413.736 1020.71 408.452 1023.94C383.145 1039.36 354.705 1050.75 321.507 1058.77C294.82 1065.21 265.295 1069.45 228.593 1072.1C212.877 1073.26 196.874 1074.11 181.398 1074.93L181.315 1074.93L181.302 1074.71L181.386 1074.7C196.861 1073.88 212.862 1073.04 228.576 1071.87C281.809 1068.03 350.348 1059.08 408.333 1023.74C413.612 1020.52 418.851 1017.05 423.903 1013.42C469.386 980.803 505.764 932.637 532.026 870.258C539.001 853.692 545.407 836.055 551.067 817.837C574.561 742.207 583.57 662.015 592.282 584.462C593.113 577.064 593.972 569.414 594.83 561.894C601.359 504.144 608.42 448.012 622.93 396.16C625.538 386.885 628.333 377.961 631.236 369.637C641.237 341.148 651.946 318.127 663.976 299.256C671.882 286.853 680.414 276.075 689.713 266.776Z" fill="white"/>
<path d="M692.694 274.203C702.778 264.119 713.693 255.853 725.635 249.224C750.284 235.542 824.967 228.77 911.443 220.927C935.205 218.773 959.776 216.544 984.744 214.053C1088.09 203.742 1216.7 190.909 1289.12 162.853C1349.5 139.463 1398.02 99.5661 1429.44 47.4743C1468.45 -17.2075 1471.32 -93.8433 1470.92 -173.253L1471.15 -173.254C1471.33 -138.362 1471.04 -97.8798 1465.36 -58.9936C1459.21 -16.9389 1447.53 17.9256 1429.64 47.5924C1398.19 99.7277 1349.63 139.658 1289.21 163.066C1257.6 175.309 1212.96 185.654 1152.73 194.694C1100.8 202.486 1043.65 208.405 984.766 214.28C959.798 216.771 935.226 219 911.463 221.154C825.013 228.994 750.352 235.765 725.745 249.424C676.784 276.602 651.781 329.979 637.234 367.764C634.107 375.946 631.095 384.729 628.281 393.869C612.605 445.068 604.899 500.967 597.76 558.52C596.661 567.292 595.564 576.218 594.504 584.85C585.163 660.857 575.504 739.451 552.236 813.659C546.529 831.854 540.104 849.456 533.14 865.976C520.743 895.382 505.877 922.079 488.953 945.327C470.394 970.821 449.153 992.43 425.821 1009.55C420.817 1013.23 415.628 1016.76 410.398 1020.04C385.365 1035.71 357.21 1047.49 324.322 1056.04C297.814 1062.92 268.496 1067.68 232.057 1071.01C216.39 1072.48 200.43 1073.64 184.995 1074.76L184.949 1074.76L184.933 1074.53L184.979 1074.53C200.412 1073.41 216.371 1072.25 232.036 1070.79C284.853 1065.96 352.843 1055.81 410.277 1019.85C415.502 1016.57 420.686 1013.04 425.685 1009.37C470.61 976.398 506.692 928.124 532.929 865.887C539.891 849.373 546.313 831.778 552.018 813.59C575.28 739.403 584.938 660.818 594.277 584.822C595.338 576.189 596.435 567.263 597.534 558.491C604.674 500.928 612.381 445.018 628.063 393.801C630.878 384.657 633.892 375.869 637.021 367.681C647.726 339.875 659.114 317.509 671.835 299.304C678.394 289.92 685.322 281.575 692.694 274.203Z" fill="white"/>
<path d="M695.525 281.352C698.521 278.357 701.577 275.527 704.686 272.873C714.139 264.801 724.418 258.056 735.236 252.826C760.9 240.418 830.752 235.317 911.632 229.41C937.387 227.529 964.019 225.585 991.193 223.28C1092.74 214.666 1219.12 203.947 1292.11 176.63C1351.46 154.419 1399.82 115.602 1431.97 64.3745C1473.6 -1.96632 1476.34 -84.6749 1475.58 -163.704L1475.81 -163.706C1476.16 -127.614 1476.03 -85.7266 1470.07 -45.3583C1463.63 -1.82809 1451.24 34.1056 1432.16 64.4964C1399.99 115.766 1351.59 154.616 1292.19 176.845C1260.35 188.762 1215.96 198.502 1156.48 206.62C1105.2 213.62 1049.05 218.602 991.212 223.507C964.037 225.813 937.405 227.758 911.649 229.638C830.792 235.543 760.961 240.643 735.336 253.032C696.87 271.629 667.535 307.467 643.018 365.819C639.665 373.864 636.434 382.511 633.415 391.518C616.577 442.045 608.221 497.739 600.466 555.123C599.095 565.167 597.73 575.391 596.411 585.278C586.48 659.709 576.212 736.675 553.187 809.416C547.436 827.581 540.995 845.142 534.045 861.609C521.651 890.97 506.868 917.652 490.105 940.914C471.707 966.445 450.679 988.178 427.607 1005.51C422.659 1009.23 417.525 1012.81 412.347 1016.15C387.586 1032.07 359.714 1044.23 327.138 1053.31C300.805 1060.64 271.694 1065.93 235.523 1069.93C219.905 1071.71 203.987 1073.17 188.594 1074.59L188.565 1074.37C203.965 1072.95 219.882 1071.48 235.498 1069.71C287.892 1063.9 355.329 1052.55 412.223 1015.95C417.397 1012.62 422.526 1009.04 427.469 1005.33C471.836 972.001 507.622 923.618 533.834 861.52C540.782 845.059 547.22 827.505 552.97 809.347C575.988 736.625 586.255 659.67 596.184 585.248C597.504 575.36 598.868 565.136 600.239 555.093C607.996 497.697 616.354 441.993 633.198 391.446C636.219 382.434 639.452 373.782 642.808 365.731C654.17 338.688 666.253 316.994 679.749 299.409C684.758 292.88 690.038 286.839 695.525 281.352Z" fill="white"/>
<path d="M698.004 288.337C703.035 283.306 708.25 278.713 713.6 274.608C723.325 267.145 733.834 261.028 744.835 256.426C771.531 245.26 837.086 241.685 912.991 237.546C940.359 236.053 968.659 234.51 997.64 232.505C1097.33 225.607 1221.39 217.023 1295.1 190.406C1353.51 169.314 1401.71 131.577 1434.5 81.2738C1478.78 13.3274 1481.38 -72.2875 1480.24 -154.156L1480.47 -154.159C1480.99 -116.826 1481.02 -73.4969 1474.79 -31.7161C1468.07 13.3012 1454.96 50.3013 1434.69 81.3988C1401.87 131.744 1353.63 169.512 1295.18 190.621C1263.08 202.212 1218.94 211.346 1160.24 218.545C1109.43 224.774 1054.34 228.811 997.657 232.733C968.674 234.738 940.373 236.282 913.004 237.774C837.12 241.912 771.584 245.486 744.924 256.637C705.155 273.27 674.612 307.345 648.801 363.871C645.222 371.774 641.772 380.284 638.546 389.166C620.558 438.989 611.548 494.489 603.169 551.724C601.492 563.061 599.831 574.605 598.224 585.769C587.741 658.605 576.902 733.92 554.138 805.171C548.341 823.308 541.885 840.826 534.948 857.238C522.556 886.557 507.857 913.223 491.256 936.497C473.019 962.066 452.204 983.924 429.391 1001.46C424.498 1005.23 419.418 1008.86 414.293 1012.25C389.803 1028.43 362.216 1040.97 329.953 1050.57C303.789 1058.37 274.884 1064.17 238.988 1068.85C223.44 1070.92 207.587 1072.7 192.256 1074.42L192.22 1074.42L192.195 1074.2L192.23 1074.19C207.56 1072.47 223.412 1070.7 238.958 1068.62C290.924 1061.85 357.802 1049.3 414.167 1012.06C419.287 1008.67 424.363 1005.04 429.251 1001.28C473.056 967.606 508.547 919.114 534.738 857.15C541.671 840.744 548.125 823.232 553.919 805.102C576.677 733.869 587.516 658.563 597.997 585.737C599.604 574.573 601.265 563.028 602.942 551.691C611.323 494.445 620.335 438.932 638.331 389.088C641.559 380.202 645.011 371.686 648.593 363.777C660.57 337.546 673.363 316.541 687.701 299.561C691.033 295.614 694.473 291.867 698.004 288.337Z" fill="white"/>
<path d="M700.11 295.178C707.244 288.044 714.771 281.744 722.55 276.4C732.537 269.54 743.266 264.031 754.437 260.027C782.177 250.085 843.918 247.91 915.409 245.391C944.051 244.382 973.669 243.338 1004.09 241.73C1124.14 235.387 1229.12 228.182 1298.09 204.181C1355.64 184.154 1403.69 147.497 1437.03 98.1732C1483.97 28.7215 1486.42 -59.8448 1484.9 -144.607L1485.13 -144.611C1485.82 -106 1486.02 -61.1954 1479.53 -18.0637C1472.54 28.4519 1458.7 66.5154 1437.22 98.301C1403.85 147.666 1355.77 184.353 1298.17 204.397C1265.8 215.66 1221.91 224.188 1163.99 230.47C1113.5 235.945 1059.55 239.028 1004.1 241.958C973.679 243.566 944.06 244.61 915.417 245.619C843.946 248.137 782.22 250.312 754.515 260.242C713.906 274.796 681.219 308.057 654.586 361.923C650.78 369.684 647.111 378.059 643.679 386.813C624.55 435.91 614.882 491.227 605.875 548.325C603.858 560.976 601.868 573.864 599.944 586.327C588.948 657.545 577.578 731.189 555.089 800.926C549.248 819.034 542.776 836.51 535.854 852.869C509.67 914.737 474.451 963.369 431.178 997.411C426.341 1001.22 421.316 1004.9 416.243 1008.36C392.022 1024.79 364.718 1037.71 332.77 1047.84C306.772 1056.09 278.074 1062.42 242.454 1067.77C226.949 1070.15 211.143 1072.23 195.858 1074.25L195.828 1074.03C211.113 1072.01 226.917 1069.92 242.42 1067.54C293.952 1059.81 360.266 1046.06 416.114 1008.17C421.183 1004.72 426.203 1001.04 431.036 997.231C474.279 963.212 509.474 914.612 535.643 852.78C542.563 836.428 549.032 818.958 554.872 800.856C577.355 731.136 588.723 657.502 599.718 586.292C601.642 573.828 603.632 560.941 605.649 548.289C614.658 491.179 624.329 435.849 643.466 386.73C646.9 377.97 650.572 369.589 654.38 361.823C666.938 336.426 680.448 316.126 695.685 299.764C697.142 298.2 698.618 296.67 700.11 295.178Z" fill="white"/>
<path d="M701.86 301.814C702.468 301.206 703.075 300.608 703.686 300.014C721.652 282.561 741.958 270.319 764.038 263.627C792.828 254.902 851.193 254.018 918.773 252.994C948.388 252.545 979.012 252.081 1010.54 250.955C1123.8 246.909 1231.25 241.34 1301.08 217.956C1357.86 198.942 1405.75 163.366 1439.55 115.072C1489.16 44.2094 1491.46 -47.3512 1489.56 -135.06L1489.79 -135.064C1490.66 -95.1412 1491.01 -48.828 1484.3 -4.40042C1477.04 43.6257 1462.46 82.7484 1439.74 115.203C1422.74 139.487 1402.16 160.643 1378.56 178.085C1355.31 195.272 1329.27 208.76 1301.15 218.173C1268.51 229.105 1224.87 237.028 1167.74 242.395C1117.46 247.119 1062.52 249.327 1010.55 251.183C979.018 252.31 948.393 252.774 918.776 253.223C851.214 254.246 792.865 255.13 764.104 263.846C722.016 276.6 688.084 308.044 660.369 359.975C656.336 367.597 652.447 375.835 648.812 384.46C628.552 432.813 618.22 487.955 608.579 544.925C606.187 558.914 603.838 573.169 601.565 586.955C590.096 656.535 578.237 728.483 556.04 796.681C550.153 814.763 543.665 832.197 536.757 848.499C510.593 910.24 475.671 958.979 432.963 993.362C428.18 997.218 423.21 1000.95 418.19 1004.46C394.239 1021.15 367.218 1034.45 335.585 1045.11C309.748 1053.82 281.256 1060.67 245.919 1066.69C230.475 1069.36 214.725 1071.76 199.493 1074.08L199.459 1073.86C214.689 1071.54 230.439 1069.14 245.881 1066.46C296.973 1057.77 362.716 1042.84 418.059 1004.27C423.074 1000.77 428.04 997.037 432.819 993.184C475.498 958.825 510.398 910.116 536.547 848.41C543.452 832.114 549.937 814.686 555.822 796.61C578.013 728.429 589.872 656.489 601.339 586.918C603.612 573.132 605.961 558.876 608.353 544.888C617.996 487.903 628.331 432.747 648.6 384.372C652.239 375.74 656.13 367.496 660.166 359.869C672.598 336.575 686.618 317.056 701.86 301.814Z" fill="white"/>
<path d="M703.004 308.484C723.867 287.62 747.484 273.808 773.638 267.231C803.489 259.724 858.869 260.04 922.993 260.405C953.312 260.578 984.664 260.757 1016.99 260.183C1127.8 258.213 1233.13 254.555 1304.07 231.734C1360.16 213.689 1407.89 179.192 1442.08 131.974C1494.36 59.7922 1496.51 -34.8039 1494.22 -125.509L1494.45 -125.514C1495.49 -84.2467 1496.02 -36.3939 1489.08 9.27897C1481.55 58.8273 1466.24 99.0049 1442.27 132.108C1425.08 155.847 1404.46 176.445 1381 193.331C1357.83 210.005 1331.97 222.999 1304.14 231.952C1271.2 242.548 1227.81 249.866 1171.5 254.324C1121.26 258.3 1067.62 259.511 1016.99 260.411C984.665 260.986 953.312 260.807 922.991 260.634C858.883 260.268 803.517 259.952 773.694 267.453C730.643 278.279 694.461 308.754 666.152 358.031C661.895 365.504 657.787 373.606 653.945 382.11C632.565 429.704 621.566 484.677 611.284 541.529C608.482 556.875 605.74 572.522 603.088 587.653C591.187 655.573 578.881 725.804 556.992 792.438C551.059 810.494 544.556 827.886 537.663 844.132C511.517 905.75 476.891 954.597 434.75 989.316C430.023 993.215 425.108 997.001 420.139 1000.57C396.455 1017.52 369.718 1031.19 338.402 1042.38C312.721 1051.55 284.436 1058.93 249.386 1065.61C234.002 1068.59 218.308 1071.29 203.13 1073.91L203.091 1073.69C218.268 1071.07 233.961 1068.36 249.343 1065.38C299.989 1055.74 365.157 1039.64 420.005 1000.38C424.97 996.818 429.882 993.036 434.604 989.139C476.717 954.445 511.32 905.627 537.452 844.042C544.343 827.803 550.843 810.417 556.775 792.367C578.658 725.749 590.963 655.525 602.863 587.613C605.515 572.482 608.256 556.835 611.059 541.489C621.343 484.622 632.346 429.634 653.736 382.016C657.582 373.505 661.693 365.397 665.954 357.917C677.102 338.511 689.475 322.014 703.004 308.484Z" fill="white"/>
<path d="M703.951 314.677C709.038 309.59 714.294 304.907 719.712 300.639C738.893 285.528 760.266 275.5 783.239 270.831C814.157 264.549 866.908 265.991 927.989 267.66C958.77 268.501 990.6 269.371 1023.44 269.407C1127.4 269.518 1234.93 267.764 1307.06 245.509C1362.54 228.39 1410.1 194.974 1444.61 148.871C1499.56 75.4607 1501.55 -22.2118 1498.88 -115.962L1499.11 -115.968C1500.33 -73.3243 1501.02 -23.9027 1493.88 22.969C1486.1 74.0518 1470.04 115.28 1444.79 149.009C1427.44 172.198 1406.79 192.24 1383.44 208.578C1360.37 224.724 1334.69 237.223 1307.13 245.727C1273.88 255.985 1230.74 262.698 1175.25 266.25C1124.95 269.47 1070.51 269.686 1023.44 269.635C990.596 269.6 958.765 268.73 927.983 267.889C866.916 266.22 814.177 264.779 783.284 271.056C738.601 280.135 701.139 308.742 671.935 356.082C667.45 363.411 663.124 371.377 659.076 379.756C636.587 426.581 624.916 481.39 613.988 538.129C610.737 554.854 607.571 571.914 604.51 588.413C592.217 654.652 579.507 723.146 557.943 788.192C551.963 806.224 545.443 823.574 538.567 839.76C526.177 868.921 511.811 895.525 495.865 918.833C478.264 944.563 458.303 966.914 436.535 985.266C431.864 989.21 427.003 993.047 422.086 996.67C398.668 1013.88 372.216 1027.94 341.217 1039.65C315.688 1049.29 287.609 1057.19 252.852 1064.52C237.544 1067.8 221.905 1070.82 206.782 1073.74L206.723 1073.52C221.861 1070.6 237.498 1067.58 252.804 1064.3C302.998 1053.71 367.584 1036.44 421.951 996.486C426.863 992.866 431.72 989.032 436.388 985.091C477.934 950.064 512.24 901.138 538.357 839.671C545.231 823.491 551.748 806.147 557.726 788.12C579.285 723.089 591.994 654.603 604.285 588.372C607.347 571.872 610.513 554.811 613.764 538.086C618.815 511.858 624.348 483.974 631.531 456.762C639.489 426.613 648.432 401.392 658.871 379.657C662.922 371.27 667.252 363.299 671.741 355.963C681.469 340.193 692.258 326.371 703.951 314.677Z" fill="white"/>
<path d="M704.656 320.512C711.964 313.205 719.663 306.691 727.724 301.005C747.471 287.075 769.379 278.136 792.839 274.436C824.839 269.389 875.286 271.898 933.699 274.804C964.722 276.347 996.802 277.943 1029.89 278.634C1131.33 280.753 1236.53 281.003 1310.05 259.287C1364.99 243.058 1412.39 210.722 1447.14 165.773C1504.77 91.22 1506.6 -9.56827 1503.54 -106.412L1503.77 -106.419C1505.16 -62.3675 1506.04 -11.3484 1498.7 36.6782C1490.67 89.3073 1473.86 131.58 1447.32 165.913C1429.82 188.549 1409.16 208.036 1385.9 223.832C1362.92 239.435 1337.43 251.438 1310.11 259.506C1276.55 269.42 1233.66 275.529 1179 278.182C1128.55 280.63 1075.58 279.817 1029.88 278.863C996.793 278.172 964.712 276.576 933.687 275.032C875.287 272.127 824.851 269.618 792.875 274.661C747.138 281.875 707.317 309.357 677.719 354.136C673.006 361.322 668.46 369.151 664.209 377.406C640.622 423.448 628.274 478.097 616.693 534.733C612.955 552.858 609.331 571.358 605.827 589.248C593.188 653.784 580.117 720.517 558.894 783.949C552.867 801.959 546.332 819.267 539.471 835.393C527.081 864.518 512.797 891.106 497.017 914.419C479.574 940.19 459.826 962.664 438.321 981.219C433.704 985.208 428.898 989.097 424.035 992.776C400.881 1010.25 374.712 1024.69 344.033 1036.92C318.651 1047.03 290.779 1055.46 256.318 1063.44C241.064 1067.02 225.476 1070.35 210.402 1073.57L210.354 1073.35C225.427 1070.13 241.014 1066.8 256.266 1063.22C306.001 1051.7 370 1033.27 423.897 992.593C428.756 988.917 433.558 985.032 438.171 981.045C479.146 945.694 513.158 896.658 539.261 835.303C546.119 819.183 552.651 801.88 558.677 783.876C579.895 720.458 592.964 653.732 605.602 589.204C609.107 571.312 612.73 552.812 616.469 534.686C621.819 508.52 627.674 480.716 635.223 453.737C643.624 423.71 653.039 398.708 664.006 377.301C668.26 369.039 672.81 361.203 677.528 354.01C685.804 341.49 694.878 330.291 704.656 320.512Z" fill="white"/>
<path d="M705.397 325.737C732.537 298.595 765.575 282.267 802.439 278.037C835.546 274.239 883.994 277.775 940.093 281.868C971.148 284.135 1003.26 286.479 1036.34 287.859C1130.86 291.804 1237.99 294.239 1313.04 273.062C1367.51 257.691 1414.76 226.434 1449.67 182.672C1510.03 107.002 1511.8 7.26706 1508.2 -96.864L1508.43 -96.872C1510 -51.3833 1511.05 1.26257 1503.54 50.4017C1495.26 104.59 1477.7 147.903 1449.85 182.815C1432.23 204.894 1411.54 223.828 1388.36 239.089C1365.5 254.136 1340.18 265.639 1313.1 273.282C1279.2 282.847 1236.56 288.353 1182.75 290.113C1134.51 291.69 1083.87 290.072 1036.33 288.087C1003.25 286.707 971.134 284.363 940.077 282.097C883.989 278.003 835.55 274.468 802.465 278.264C754.975 283.713 713.839 309.275 683.502 352.188C678.563 359.227 673.798 366.919 669.341 375.053C644.665 420.309 631.636 474.801 619.397 531.333C615.131 550.881 611.017 570.845 607.039 590.151C594.094 652.962 580.71 717.91 559.845 779.703C553.769 797.692 547.219 814.958 540.376 831.023C527.983 860.114 513.782 886.687 498.169 910.002C480.884 935.816 461.349 958.414 440.106 977.169C435.545 981.203 430.793 985.143 425.982 988.88C403.092 1006.62 377.208 1021.44 346.849 1034.18C321.61 1044.78 293.944 1053.73 259.783 1062.36C244.584 1066.25 229.056 1069.88 214.038 1073.4L213.986 1073.18C229.002 1069.66 244.53 1066.02 259.727 1062.14C308.998 1049.7 372.405 1030.11 425.842 988.7C430.648 984.966 435.397 981.029 439.955 976.998C480.358 941.327 514.073 892.183 540.165 830.933C547.006 814.875 553.555 797.614 559.629 779.631C580.488 717.851 593.872 652.909 606.815 590.106C610.793 570.798 614.908 550.834 619.174 531.285C624.826 505.177 631.006 477.449 638.915 450.711C647.761 420.806 657.647 396.022 669.141 374.943C673.602 366.802 678.37 359.102 683.315 352.057C690.145 342.395 697.523 333.61 705.397 325.737Z" fill="white"/>
<path d="M706.479 330.077C735.281 301.272 771.323 284.652 812.037 281.641C846.294 279.108 893.037 283.644 947.161 288.898C978.041 291.895 1009.97 294.995 1042.79 297.086C1134.76 302.947 1239.31 307.473 1316.03 286.838C1370.1 272.296 1417.19 242.119 1452.19 199.573C1515.26 122.931 1516.88 20.1356 1512.86 -87.3145L1513.09 -87.323C1514.93 -38.2158 1516.07 13.9302 1508.4 64.1457C1499.88 119.906 1481.55 164.252 1452.37 199.718C1434.66 221.241 1413.96 239.622 1390.83 254.352C1368.1 268.829 1342.95 279.834 1316.09 287.06C1281.84 296.27 1239.45 301.173 1186.49 302.048C1137.9 302.851 1086.57 300.106 1042.77 297.314C1009.96 295.223 978.022 292.123 947.139 289.126C893.025 283.873 846.291 279.337 812.054 281.869C762.747 285.516 720.293 309.157 689.284 350.242C684.117 357.133 679.134 364.69 674.472 372.701C648.718 417.167 635.004 471.503 622.1 527.936C617.266 548.929 612.627 570.384 608.14 591.132C594.936 652.193 581.283 715.333 560.795 775.46C554.672 793.426 548.106 810.651 541.279 826.654C528.883 855.716 514.766 882.272 499.321 905.588C482.192 931.445 462.871 954.167 441.892 973.122C437.384 977.2 432.687 981.192 427.93 984.986C405.301 1002.99 379.7 1018.19 349.664 1031.45C324.908 1042.38 296.641 1052.14 263.249 1061.28C248.102 1065.47 232.633 1069.41 217.674 1073.23L217.617 1073.01C232.575 1069.19 248.043 1065.25 263.188 1061.06C335.676 1041.22 386.44 1017.71 427.787 984.808C432.541 981.016 437.234 977.027 441.738 972.953C481.564 936.967 514.984 887.715 541.069 826.565C547.893 810.566 554.457 793.348 560.579 775.387C581.062 715.272 594.714 652.138 607.917 591.084C612.403 570.335 617.043 548.88 621.878 527.885C627.835 501.831 634.343 474.176 642.606 447.686C651.897 417.903 662.256 393.338 674.275 372.587C678.941 364.568 683.929 357.004 689.102 350.105C694.548 342.888 700.352 336.204 706.479 330.077Z" fill="white"/>
<path d="M707.825 333.722C738.06 303.485 777.037 286.812 821.639 285.243C857.112 283.995 904.616 289.793 954.908 295.931C985.407 299.653 1016.94 303.503 1049.24 306.311C1145.16 314.652 1244.23 319.735 1319.02 300.614C1373.53 286.677 1419.18 258.368 1454.72 216.472C1520.49 138.943 1521.96 33.0514 1517.52 -77.7667L1517.75 -77.7758C1519.78 -27.1027 1521.1 26.6587 1513.28 77.9077C1504.53 135.254 1485.43 180.627 1454.9 216.62C1437.11 237.584 1416.39 255.415 1393.31 269.616C1370.72 283.513 1345.74 294.016 1319.07 300.835C1244.26 319.965 1145.16 314.881 1049.22 306.539C1016.92 303.73 985.381 299.881 954.881 296.158C904.598 290.021 857.103 284.225 821.647 285.471C770.463 287.271 726.694 308.994 695.069 348.293C689.674 355.038 684.471 362.458 679.606 370.348C650.564 417.633 635.677 479.421 624.806 524.536C619.361 546.996 614.163 569.965 609.135 592.178C595.717 651.469 581.841 712.778 561.748 771.214C555.576 789.16 548.994 806.342 542.185 822.284C529.785 851.316 515.751 877.858 500.474 901.171C483.501 927.074 464.393 949.918 443.678 969.073C439.229 973.192 434.586 977.236 429.879 981.09C407.511 999.364 382.194 1014.94 352.481 1028.72C327.858 1040.14 299.803 1050.43 266.715 1060.19C251.619 1064.69 236.211 1068.94 221.311 1073.06L221.25 1072.84C236.149 1068.72 251.556 1064.47 266.65 1059.97C338.43 1038.8 388.727 1014.41 429.734 980.913C434.437 977.062 439.077 973.022 443.522 968.905C483.323 932.101 515.527 884.11 541.974 822.194C548.781 806.258 555.361 789.081 561.532 771.14C581.62 712.715 595.494 651.412 608.912 592.128C613.939 569.914 619.138 546.944 624.584 524.483C630.85 498.476 637.688 470.89 646.3 444.658C656.036 414.997 666.867 390.651 679.411 370.228C684.281 362.331 689.489 354.902 694.89 348.15C698.999 343.044 703.317 338.231 707.825 333.722Z" fill="white"/>
<path d="M709.486 336.675C740.919 305.24 782.733 288.758 831.235 288.846C868.028 288.912 914.333 295.766 963.357 303.022C993.255 307.446 1024.17 312.022 1055.69 315.537C1144.27 325.417 1245.19 333.007 1322 314.39C1376.24 301.245 1421.74 273.986 1457.25 233.372C1525.73 155.04 1527.04 46.0155 1522.18 -68.2182L1522.41 -68.2281C1524.63 -15.958 1526.14 39.4455 1518.18 91.6919C1509.2 150.636 1489.32 197.029 1457.42 233.522C1439.58 253.929 1418.84 271.21 1395.79 284.885C1373.35 298.19 1348.55 308.192 1322.06 314.612C1287.07 323.092 1245.18 326.792 1193.98 325.926C1144.65 325.091 1094.14 320.056 1055.66 315.764C1024.14 312.249 993.224 307.673 963.324 303.248C914.308 295.993 868.012 289.141 831.235 289.075C778.121 288.979 733.033 308.784 700.849 346.346C695.228 352.94 689.807 360.224 684.735 367.996C656.82 410.924 642.303 462.749 627.508 521.138C621.407 545.088 615.614 569.599 610.013 593.304C596.425 650.799 582.375 710.251 562.696 766.969C556.386 785.151 549.972 801.815 543.086 817.914C530.681 846.92 516.73 873.446 501.623 896.755C484.805 922.704 465.908 945.673 445.461 965.024C441.067 969.187 436.479 973.282 431.824 977.194C409.715 995.74 384.682 1011.7 355.295 1025.99C330.801 1037.9 302.959 1048.73 270.178 1059.11C255.14 1063.91 239.789 1068.47 224.945 1072.89L224.879 1072.67C239.724 1068.26 255.072 1063.69 270.109 1058.89C341.172 1036.39 391.002 1011.14 431.677 977.02C436.328 973.11 440.913 969.018 445.304 964.858C447.554 962.73 449.786 960.557 451.988 958.356C488.165 922.178 517.949 876.107 542.876 817.825C549.76 801.731 556.172 785.071 562.481 766.895C582.155 710.188 596.204 650.741 609.79 593.252C615.392 569.547 621.185 545.034 627.287 521.082C634.138 494.045 641.029 467.623 649.99 441.632C660.174 412.094 671.477 387.966 684.544 367.871C689.62 360.092 695.048 352.8 700.675 346.198C703.512 342.887 706.453 339.709 709.486 336.675Z" fill="white"/>
<path d="M711.549 338.918C727.448 323.019 746.27 311.015 767.599 303.184C789.68 295.078 814.32 291.466 840.836 292.45C879.088 293.87 924.482 301.814 972.542 310.225C1001.61 315.312 1031.67 320.572 1062.14 324.764C1147.93 336.567 1246.24 346.201 1325 328.167C1379.02 315.795 1424.37 289.588 1459.78 250.273C1530.98 171.221 1532.13 59.0284 1526.84 -58.6689L1527.07 -58.679C1529.49 -4.78063 1531.18 52.2931 1523.1 105.499C1513.9 166.057 1493.24 213.463 1459.95 250.426C1442.07 270.278 1421.32 287.01 1398.27 300.16C1376.01 312.863 1351.37 322.361 1325.05 328.39C1289.67 336.492 1248.02 339.594 1197.72 337.873C1147.63 336.158 1096.33 329.7 1062.11 324.991C1031.63 320.798 1001.57 315.538 972.502 310.45C924.451 302.041 879.064 294.099 840.828 292.679C785.735 290.635 739.335 308.52 706.633 344.4C700.786 350.845 695.146 357.993 689.869 365.645C660.907 407.772 645.718 459.45 630.215 517.741C623.413 543.204 616.991 569.283 610.781 594.504C597.072 650.181 582.895 707.753 563.649 762.727C557.287 780.893 550.858 797.517 543.993 813.547C531.58 842.53 517.713 869.04 502.777 892.341C486.113 918.337 467.431 941.432 447.249 960.978C442.909 965.185 438.375 969.332 433.774 973.301C411.922 992.122 387.173 1008.46 358.112 1023.26C333.745 1035.66 306.116 1047.04 273.646 1058.03C258.667 1063.13 243.373 1068.01 228.582 1072.72L228.513 1072.5C243.302 1067.79 258.595 1062.92 273.573 1057.81C342.96 1034.32 393.818 1007.41 433.624 973.128C438.222 969.162 442.753 965.019 447.09 960.814C485.71 923.407 517.336 875.209 543.783 813.457C550.646 797.432 557.074 780.814 563.434 762.652C582.677 707.689 596.851 650.122 610.559 594.45C616.769 569.229 623.191 543.148 629.994 517.683C637.173 490.69 644.387 464.331 653.684 438.609C664.316 409.192 676.091 385.283 689.681 365.516C694.963 357.856 700.61 350.7 706.464 344.247C708.123 342.425 709.82 340.647 711.549 338.918Z" fill="white"/>
<path d="M713.944 340.571C731.036 323.479 751.741 311.069 775.524 303.665C797.958 296.682 823.161 294.121 850.435 296.054C890.329 298.881 935.093 307.975 982.484 317.603C1010.48 323.291 1039.43 329.172 1068.59 333.99C1146.67 346.895 1246.73 359.461 1327.98 341.943C1381.86 330.329 1427.05 305.172 1462.3 267.173C1542.36 180.885 1536.08 47.9472 1531.5 -49.1204L1531.73 -49.1313C1534.46 8.73094 1536.23 65.1547 1528.03 119.329C1518.62 181.513 1497.17 229.924 1462.47 267.329C1444.57 286.627 1423.81 302.813 1400.76 315.437C1378.69 327.529 1354.22 336.522 1328.03 342.167C1292.25 349.882 1250.84 352.386 1201.45 349.823C1163.2 347.837 1120.97 342.878 1068.55 334.216C1039.39 329.397 1010.44 323.515 982.438 317.827C935.054 308.201 890.299 299.108 850.418 296.282C793.301 292.235 745.583 308.199 712.415 342.452C706.341 348.747 700.481 355.759 695 363.292C662.561 407.98 646.125 466.955 632.918 514.342C625.369 541.34 618.282 569.016 611.43 595.78C597.646 649.614 583.394 705.281 564.599 758.482C558.187 776.631 551.742 793.213 544.897 809.177C518.687 870.294 487.67 918.296 450.119 955.848C449.755 956.211 449.398 956.567 449.034 956.928C444.749 961.179 440.271 965.377 435.721 969.405C414.126 988.503 389.661 1005.22 360.927 1020.52C336.684 1033.43 309.268 1045.35 277.111 1056.95C262.177 1062.36 246.946 1067.54 232.218 1072.55L232.144 1072.33C246.871 1067.32 262.101 1062.14 277.033 1056.73C345.698 1031.96 396.074 1004.16 435.569 969.233C440.115 965.208 444.591 961.013 448.873 956.766C449.232 956.409 449.598 956.045 449.957 955.687C487.492 918.152 518.485 870.185 544.687 809.086C551.53 793.128 557.973 776.55 564.384 758.406C583.174 705.214 597.426 649.552 611.208 595.723C618.061 568.958 625.147 541.281 632.698 514.28C640.209 487.329 647.749 461.029 657.375 435.581C668.457 406.287 680.703 382.597 694.815 363.157C700.303 355.616 706.169 348.596 712.251 342.292C712.811 341.715 713.377 341.14 713.944 340.571Z" fill="white"/>
<path d="M716.486 341.873C717.002 341.357 717.519 340.847 718.039 340.34C735.946 322.919 757.948 310.745 783.432 304.155C806.178 298.273 831.95 296.76 860.033 299.657C901.801 303.966 946.195 314.292 993.196 325.225C1019.87 331.429 1047.45 337.845 1075.04 343.216C1144.52 356.745 1246.65 372.761 1330.97 355.719C1384.76 344.849 1429.79 320.746 1464.83 284.073C1503.41 243.695 1522.66 193.733 1531.7 141.226C1521.46 201.177 1499.6 248.02 1465 284.231C1429.93 320.935 1384.85 345.064 1331.02 355.943C1312.3 359.727 1291.69 362.093 1269.79 362.977C1249.8 363.782 1228.07 363.379 1205.18 361.778C1167.36 359.131 1124.77 353.133 1074.99 343.44C1047.4 338.068 1019.82 331.652 993.145 325.447C946.151 314.517 901.764 304.192 860.011 299.884C799.982 293.691 752.269 307.358 718.199 340.504C711.898 346.649 705.818 353.525 700.133 360.939C666.583 404.76 649.417 463.636 635.623 510.944C627.278 539.5 619.492 568.799 611.962 597.133C598.153 649.1 583.873 702.836 565.552 754.237C559.086 772.374 552.626 788.916 545.802 804.807C519.329 866.456 488.26 914.891 450.821 952.88C446.594 957.171 442.17 961.42 437.67 965.51C416.33 984.889 392.148 1001.99 363.744 1017.79C339.623 1031.21 312.419 1043.67 280.577 1055.86C265.715 1061.58 250.535 1067.07 235.855 1072.38L235.777 1072.16C250.456 1066.85 265.636 1061.36 280.496 1055.65C348.43 1029.63 398.324 1000.93 437.516 965.341C442.013 961.254 446.434 957.007 450.657 952.72C488.077 914.751 519.13 866.34 545.592 804.718C552.414 788.831 558.872 772.294 565.337 754.161C583.655 702.768 597.933 649.037 611.741 597.075C619.272 568.739 627.058 539.439 635.404 510.88C643.252 483.966 651.119 457.724 661.069 432.555C672.6 403.384 685.319 379.913 699.952 360.801C705.174 353.989 710.73 347.629 716.486 341.873ZM1536.16 -39.5724L1536.39 -39.5838C1538.14 -4.16803 1539.54 30.7048 1538.65 64.7225C1539.54 28.8635 1537.79 -6.60903 1536.16 -39.5724Z" fill="white"/>
<path d="M718.506 343.488C720.259 341.734 722.034 340.033 723.826 338.387C742.232 321.507 764.941 310.157 791.323 304.649C814.337 299.845 840.684 299.378 869.632 303.26C913.54 309.148 957.799 320.811 1004.66 333.158C1029.76 339.773 1055.71 346.613 1081.49 352.442C1187.86 376.497 1268.08 381.915 1333.96 369.494C1387.71 359.36 1432.6 336.301 1467.36 300.972C1553.35 213.577 1546.4 78.5065 1540.82 -30.0242L1541.05 -30.0361C1542.51 -1.64371 1543.93 28.5905 1543.87 58.6316C1543.8 92.1258 1541.86 121.052 1537.96 147.062C1533.29 178.23 1525.85 205.274 1515.22 229.738C1509.45 243.029 1502.64 255.63 1495 267.191C1486.95 279.363 1477.71 290.783 1467.52 301.133C1449.62 319.342 1428.83 334.436 1405.75 346C1384.11 356.844 1359.97 364.825 1334.01 369.72C1315.11 373.283 1294.51 375.378 1272.77 375.948C1252.86 376.47 1231.37 375.727 1208.9 373.74C1171.03 370.39 1129.33 363.497 1081.44 352.666C1055.66 346.836 1029.7 339.996 1004.6 333.38C957.747 321.035 913.495 309.373 869.602 303.487C807.438 295.152 758.444 306.95 723.981 338.556C717.45 344.551 711.152 351.292 705.264 358.587C670.616 401.541 652.713 460.317 638.327 507.545C629.136 537.682 620.614 568.633 612.373 598.565C598.587 648.639 584.33 700.419 566.502 749.992C559.982 768.121 553.507 784.622 546.705 800.438C520.218 862.036 489.438 910.576 452.605 948.831C448.433 953.166 444.062 957.467 439.617 961.614C400.7 997.902 351.265 1027.51 284.042 1054.78C269.24 1060.8 254.116 1066.6 239.49 1072.21L239.407 1071.99C254.033 1066.38 269.156 1060.58 283.956 1054.57C351.152 1027.3 400.565 997.715 439.461 961.447C443.903 957.303 448.271 953.004 452.44 948.673C489.253 910.437 520.019 861.92 546.495 800.347C553.294 784.536 559.768 768.039 566.286 749.915C584.111 700.349 598.367 648.575 612.152 598.504C620.394 568.571 628.916 537.619 638.108 507.478C646.295 480.6 654.494 454.414 664.76 429.528C676.742 400.481 689.933 377.228 705.086 358.443C709.366 353.141 713.861 348.132 718.506 343.488Z" fill="white"/>
<path d="M720.515 344.905C723.48 341.94 726.51 339.12 729.614 336.435C739.394 327.975 750.437 321.02 762.436 315.762C773.647 310.85 786.015 307.28 799.197 305.151C822.76 301.344 848.939 301.905 879.231 306.865C925.576 314.453 971.948 328.185 1016.79 341.465C1040.09 348.365 1064.19 355.499 1087.94 361.67C1267.77 408.382 1392.7 394.056 1469.89 317.873C1470.24 317.53 1470.59 317.18 1470.93 316.835C1558.81 228.963 1551.42 90.7077 1545.48 -20.475L1545.71 -20.4872C1549.22 45.1741 1551.43 104.15 1542.96 160.97C1538.19 192.918 1530.54 220.57 1519.55 245.506C1513.58 259.067 1506.53 271.898 1498.6 283.642C1490.25 296.012 1480.64 307.584 1470.05 318.036C1458.28 329.65 1445.21 339.973 1431.2 348.716C1417.83 357.054 1403.24 364.188 1387.83 369.918C1359.41 380.49 1327 386.723 1291.51 388.443C1234 391.231 1167.4 382.546 1087.88 361.891C1064.12 355.72 1040.03 348.585 1016.73 341.684C971.888 328.406 925.524 314.676 879.193 307.091C813.953 296.409 765.073 306.064 729.763 336.609C726.653 339.298 723.645 342.104 720.747 345.002C678.029 387.72 657.631 451.911 641.031 504.148C630.943 535.89 621.65 568.521 612.663 600.078C598.948 648.235 584.767 698.031 567.452 745.749C552.707 786.386 537.46 820.945 520.84 851.401C500.954 887.841 479.219 918.387 454.391 944.784C432.579 967.976 407.292 988.51 377.089 1007.56C351.335 1023.81 322.032 1038.9 287.507 1053.7C272.768 1060.02 257.698 1066.13 243.125 1072.04L243.039 1071.82C257.611 1065.92 272.68 1059.81 287.417 1053.49C361.052 1021.93 414.055 987.334 454.224 944.628C499.567 896.418 535.478 833.198 567.238 745.671C584.549 697.961 598.73 648.169 612.443 600.016C621.431 568.458 630.724 535.825 640.813 504.079C651.26 471.205 660.989 441.704 674.272 413.581C687.732 385.081 702.932 362.489 720.515 344.905Z" fill="white"/>
</g>
</svg>
