<svg width="184" height="131" viewBox="0 0 184 131" fill="none" xmlns="http://www.w3.org/2000/svg">
<path fill-rule="evenodd" clip-rule="evenodd" d="M38.7169 95.0681C32.0813 104.364 19.539 114.372 2.46398 122.704C-1.97337 124.869 0.0284274 131.579 4.92678 130.96C40.803 126.422 64.0563 110.709 76.7546 87.3431C81.4774 78.6526 84.4446 69.4024 86.0248 59.9596C87.0667 53.7337 87.3419 49.0613 87.3419 43.6648C87.3419 19.5494 67.7925 0 43.6771 0C19.5617 0 0.0123662 19.5494 0.0123662 43.6648C0.0123662 67.7801 19.8737 87.3431 42.6974 87.3431C41.4934 90.6492 41.2042 91.5835 38.7169 95.0681ZM134.779 95.0681C128.144 104.364 115.601 114.372 98.5265 122.704C94.0891 124.869 96.0909 131.579 100.989 130.96C136.865 126.422 160.119 110.709 172.817 87.3431C177.54 78.6526 180.507 69.4024 182.087 59.9596C183.129 53.7337 183.404 49.0613 183.404 43.6648C183.404 19.5494 163.855 0 139.74 0C115.624 0 96.0748 19.5494 96.0748 43.6648C96.0748 67.7801 115.936 87.3431 138.76 87.3431C137.556 90.6492 137.267 91.5835 134.779 95.0681Z" fill="#221A36"/>
</svg>
